G04 EAGLE Gerber RS-274X export*
G75*
%MOMM*%
%FSLAX34Y34*%
%LPD*%
%INTop Copper*%
%IPPOS*%
%AMOC8*
5,1,8,0,0,1.08239X$1,22.5*%
G01*
%ADD10C,0.088900*%
%ADD11C,0.100000*%
%ADD12C,0.850000*%
%ADD13C,0.250000*%
%ADD14R,1.016000X2.032000*%
%ADD15C,1.143000*%
%ADD16R,1.524000X1.524000*%
%ADD17P,1.649562X8X22.500000*%
%ADD18C,2.100000*%
%ADD19C,1.200000*%
%ADD20R,0.800000X0.800000*%
%ADD21C,0.152400*%
%ADD22C,0.406400*%
%ADD23C,0.406400*%
%ADD24C,3.000000*%

G36*
X-264044Y-176694D02*
X-264044Y-176694D01*
X-264025Y-176696D01*
X-263923Y-176674D01*
X-263821Y-176658D01*
X-263804Y-176648D01*
X-263784Y-176644D01*
X-263695Y-176591D01*
X-263604Y-176542D01*
X-263590Y-176528D01*
X-263573Y-176518D01*
X-263506Y-176439D01*
X-263434Y-176364D01*
X-263426Y-176346D01*
X-263413Y-176331D01*
X-263374Y-176235D01*
X-263331Y-176141D01*
X-263329Y-176121D01*
X-263321Y-176103D01*
X-263303Y-175936D01*
X-263303Y-98632D01*
X-261368Y-96697D01*
X-238632Y-96697D01*
X-236697Y-98632D01*
X-236697Y-100000D01*
X-236693Y-100024D01*
X-236694Y-100066D01*
X-236452Y-102834D01*
X-236448Y-102849D01*
X-236449Y-102865D01*
X-236409Y-103028D01*
X-234516Y-108228D01*
X-234492Y-108271D01*
X-234477Y-108318D01*
X-234408Y-108422D01*
X-234396Y-108443D01*
X-234390Y-108448D01*
X-234384Y-108457D01*
X-230827Y-112697D01*
X-230790Y-112729D01*
X-230759Y-112768D01*
X-230658Y-112842D01*
X-230640Y-112857D01*
X-230633Y-112860D01*
X-230624Y-112867D01*
X-225831Y-115634D01*
X-225785Y-115652D01*
X-225744Y-115677D01*
X-225623Y-115713D01*
X-225601Y-115721D01*
X-225594Y-115721D01*
X-225583Y-115725D01*
X-220132Y-116686D01*
X-220083Y-116686D01*
X-220035Y-116696D01*
X-219910Y-116688D01*
X-219886Y-116689D01*
X-219879Y-116686D01*
X-219868Y-116686D01*
X-214417Y-115725D01*
X-214371Y-115708D01*
X-214323Y-115702D01*
X-214208Y-115651D01*
X-214185Y-115643D01*
X-214179Y-115639D01*
X-214169Y-115634D01*
X-209376Y-112867D01*
X-209338Y-112836D01*
X-209295Y-112813D01*
X-209204Y-112726D01*
X-209186Y-112711D01*
X-209182Y-112705D01*
X-209173Y-112697D01*
X-205616Y-108457D01*
X-205591Y-108415D01*
X-205558Y-108379D01*
X-205503Y-108267D01*
X-205490Y-108246D01*
X-205489Y-108239D01*
X-205484Y-108228D01*
X-203591Y-103028D01*
X-203588Y-103012D01*
X-203581Y-102998D01*
X-203548Y-102834D01*
X-203306Y-100066D01*
X-203307Y-100042D01*
X-203303Y-100000D01*
X-203303Y-98632D01*
X-201368Y-96697D01*
X-69210Y-96697D01*
X-69190Y-96694D01*
X-69171Y-96696D01*
X-69069Y-96674D01*
X-68967Y-96658D01*
X-68950Y-96648D01*
X-68930Y-96644D01*
X-68841Y-96591D01*
X-68750Y-96542D01*
X-68736Y-96528D01*
X-68719Y-96518D01*
X-68652Y-96439D01*
X-68581Y-96364D01*
X-68572Y-96346D01*
X-68559Y-96331D01*
X-68520Y-96235D01*
X-68477Y-96141D01*
X-68475Y-96121D01*
X-68467Y-96103D01*
X-68449Y-95936D01*
X-68449Y53721D01*
X-68452Y53741D01*
X-68450Y53760D01*
X-68472Y53862D01*
X-68489Y53964D01*
X-68498Y53981D01*
X-68502Y54001D01*
X-68555Y54090D01*
X-68604Y54181D01*
X-68618Y54195D01*
X-68628Y54212D01*
X-68707Y54279D01*
X-68782Y54351D01*
X-68800Y54359D01*
X-68815Y54372D01*
X-68911Y54411D01*
X-69005Y54454D01*
X-69025Y54456D01*
X-69043Y54464D01*
X-69210Y54482D01*
X-81301Y54482D01*
X-81391Y54468D01*
X-81482Y54460D01*
X-81512Y54448D01*
X-81544Y54443D01*
X-81625Y54400D01*
X-81709Y54364D01*
X-81741Y54338D01*
X-81762Y54327D01*
X-81784Y54304D01*
X-81840Y54259D01*
X-82221Y53878D01*
X-82232Y53862D01*
X-82248Y53850D01*
X-82304Y53762D01*
X-82364Y53679D01*
X-82370Y53659D01*
X-82381Y53643D01*
X-82406Y53543D01*
X-82437Y53443D01*
X-82436Y53423D01*
X-82441Y53404D01*
X-82433Y53301D01*
X-82430Y53198D01*
X-82424Y53179D01*
X-82422Y53159D01*
X-82381Y53064D01*
X-82346Y52967D01*
X-82333Y52951D01*
X-82326Y52933D01*
X-82221Y52802D01*
X-81892Y52473D01*
X-81393Y51608D01*
X-81134Y50644D01*
X-81134Y50144D01*
X-85687Y50144D01*
X-85706Y50141D01*
X-85726Y50143D01*
X-85828Y50121D01*
X-85930Y50105D01*
X-85947Y50095D01*
X-85967Y50091D01*
X-86056Y50038D01*
X-86147Y49989D01*
X-86161Y49975D01*
X-86178Y49965D01*
X-86245Y49886D01*
X-86316Y49811D01*
X-86325Y49793D01*
X-86338Y49778D01*
X-86376Y49682D01*
X-86420Y49588D01*
X-86422Y49568D01*
X-86430Y49550D01*
X-86448Y49383D01*
X-86448Y49168D01*
X-86663Y49168D01*
X-86683Y49165D01*
X-86702Y49167D01*
X-86804Y49145D01*
X-86906Y49128D01*
X-86923Y49119D01*
X-86943Y49115D01*
X-87032Y49062D01*
X-87123Y49013D01*
X-87137Y48999D01*
X-87154Y48989D01*
X-87221Y48910D01*
X-87293Y48835D01*
X-87301Y48817D01*
X-87314Y48802D01*
X-87353Y48705D01*
X-87396Y48612D01*
X-87398Y48592D01*
X-87406Y48574D01*
X-87424Y48407D01*
X-87424Y40493D01*
X-87421Y40474D01*
X-87423Y40454D01*
X-87401Y40352D01*
X-87385Y40250D01*
X-87375Y40233D01*
X-87371Y40213D01*
X-87318Y40124D01*
X-87269Y40033D01*
X-87255Y40019D01*
X-87245Y40002D01*
X-87166Y39935D01*
X-87091Y39864D01*
X-87073Y39855D01*
X-87058Y39842D01*
X-86962Y39804D01*
X-86868Y39760D01*
X-86848Y39758D01*
X-86830Y39750D01*
X-86663Y39732D01*
X-86448Y39732D01*
X-86448Y39517D01*
X-86445Y39497D01*
X-86447Y39477D01*
X-86425Y39376D01*
X-86408Y39274D01*
X-86399Y39257D01*
X-86395Y39237D01*
X-86342Y39148D01*
X-86293Y39057D01*
X-86279Y39043D01*
X-86269Y39026D01*
X-86190Y38959D01*
X-86115Y38887D01*
X-86097Y38879D01*
X-86082Y38866D01*
X-85985Y38827D01*
X-85892Y38784D01*
X-85872Y38782D01*
X-85854Y38774D01*
X-85687Y38756D01*
X-81134Y38756D01*
X-81134Y38256D01*
X-81393Y37292D01*
X-81892Y36427D01*
X-82221Y36098D01*
X-82232Y36082D01*
X-82248Y36070D01*
X-82304Y35982D01*
X-82364Y35899D01*
X-82370Y35880D01*
X-82381Y35863D01*
X-82406Y35762D01*
X-82437Y35664D01*
X-82436Y35644D01*
X-82441Y35624D01*
X-82433Y35521D01*
X-82430Y35418D01*
X-82423Y35399D01*
X-82422Y35379D01*
X-82382Y35284D01*
X-82346Y35187D01*
X-82333Y35171D01*
X-82326Y35153D01*
X-82221Y35022D01*
X-81134Y33935D01*
X-81134Y28295D01*
X-83355Y26074D01*
X-86230Y26074D01*
X-86320Y26060D01*
X-86411Y26052D01*
X-86440Y26040D01*
X-86472Y26035D01*
X-86553Y25992D01*
X-86637Y25956D01*
X-86669Y25930D01*
X-86690Y25919D01*
X-86712Y25896D01*
X-86768Y25851D01*
X-90522Y22097D01*
X-95467Y22097D01*
X-95557Y22083D01*
X-95648Y22075D01*
X-95677Y22063D01*
X-95709Y22058D01*
X-95790Y22015D01*
X-95874Y21979D01*
X-95906Y21953D01*
X-95927Y21942D01*
X-95949Y21919D01*
X-96005Y21874D01*
X-99974Y17905D01*
X-100027Y17831D01*
X-100087Y17762D01*
X-100099Y17731D01*
X-100118Y17705D01*
X-100145Y17618D01*
X-100179Y17533D01*
X-100183Y17492D01*
X-100190Y17470D01*
X-100189Y17438D01*
X-100197Y17367D01*
X-100197Y4982D01*
X-102355Y2824D01*
X-116443Y-11264D01*
X-116455Y-11280D01*
X-116470Y-11292D01*
X-116526Y-11380D01*
X-116586Y-11463D01*
X-116592Y-11482D01*
X-116603Y-11499D01*
X-116628Y-11600D01*
X-116659Y-11699D01*
X-116658Y-11718D01*
X-116663Y-11738D01*
X-116655Y-11841D01*
X-116652Y-11944D01*
X-116646Y-11963D01*
X-116644Y-11983D01*
X-116604Y-12078D01*
X-116568Y-12175D01*
X-116556Y-12191D01*
X-116548Y-12209D01*
X-116443Y-12340D01*
X-116103Y-12680D01*
X-116087Y-12692D01*
X-116075Y-12707D01*
X-115987Y-12763D01*
X-115903Y-12823D01*
X-115885Y-12829D01*
X-115868Y-12840D01*
X-115767Y-12865D01*
X-115668Y-12896D01*
X-115649Y-12895D01*
X-115629Y-12900D01*
X-115526Y-12892D01*
X-115423Y-12889D01*
X-115404Y-12883D01*
X-115384Y-12881D01*
X-115289Y-12841D01*
X-115192Y-12805D01*
X-115176Y-12792D01*
X-115158Y-12785D01*
X-115027Y-12680D01*
X-113014Y-10667D01*
X-109226Y-10667D01*
X-106547Y-13346D01*
X-106547Y-16917D01*
X-106533Y-17008D01*
X-106525Y-17098D01*
X-106513Y-17128D01*
X-106508Y-17160D01*
X-106465Y-17241D01*
X-106429Y-17325D01*
X-106403Y-17357D01*
X-106392Y-17378D01*
X-106369Y-17400D01*
X-106324Y-17456D01*
X-106079Y-17701D01*
X-106079Y-23341D01*
X-107346Y-24608D01*
X-107357Y-24624D01*
X-107373Y-24636D01*
X-107429Y-24724D01*
X-107489Y-24807D01*
X-107495Y-24826D01*
X-107506Y-24843D01*
X-107531Y-24944D01*
X-107562Y-25043D01*
X-107561Y-25062D01*
X-107566Y-25082D01*
X-107558Y-25185D01*
X-107555Y-25288D01*
X-107548Y-25307D01*
X-107547Y-25327D01*
X-107507Y-25422D01*
X-107471Y-25519D01*
X-107458Y-25535D01*
X-107451Y-25553D01*
X-107346Y-25684D01*
X-106079Y-26951D01*
X-106079Y-32591D01*
X-108300Y-34812D01*
X-111175Y-34812D01*
X-111265Y-34826D01*
X-111356Y-34834D01*
X-111385Y-34846D01*
X-111417Y-34851D01*
X-111498Y-34894D01*
X-111582Y-34930D01*
X-111614Y-34956D01*
X-111635Y-34967D01*
X-111657Y-34990D01*
X-111713Y-35035D01*
X-117119Y-40441D01*
X-117172Y-40515D01*
X-117232Y-40584D01*
X-117244Y-40615D01*
X-117263Y-40641D01*
X-117290Y-40728D01*
X-117324Y-40813D01*
X-117328Y-40854D01*
X-117335Y-40876D01*
X-117334Y-40908D01*
X-117342Y-40979D01*
X-117342Y-44909D01*
X-117339Y-44929D01*
X-117341Y-44948D01*
X-117319Y-45050D01*
X-117303Y-45152D01*
X-117293Y-45169D01*
X-117289Y-45189D01*
X-117236Y-45278D01*
X-117187Y-45369D01*
X-117173Y-45383D01*
X-117163Y-45400D01*
X-117084Y-45467D01*
X-117009Y-45538D01*
X-116991Y-45547D01*
X-116976Y-45560D01*
X-116880Y-45599D01*
X-116786Y-45642D01*
X-116766Y-45644D01*
X-116748Y-45652D01*
X-116581Y-45670D01*
X-109791Y-45670D01*
X-109757Y-45704D01*
X-109683Y-45757D01*
X-109613Y-45817D01*
X-109583Y-45829D01*
X-109557Y-45848D01*
X-109470Y-45875D01*
X-109385Y-45909D01*
X-109344Y-45913D01*
X-109322Y-45920D01*
X-109290Y-45919D01*
X-109218Y-45927D01*
X-102523Y-45927D01*
X-102433Y-45913D01*
X-102342Y-45905D01*
X-102313Y-45893D01*
X-102281Y-45888D01*
X-102200Y-45845D01*
X-102116Y-45809D01*
X-102084Y-45783D01*
X-102063Y-45772D01*
X-102041Y-45749D01*
X-101985Y-45704D01*
X-100689Y-44408D01*
X-100636Y-44334D01*
X-100576Y-44265D01*
X-100564Y-44234D01*
X-100545Y-44208D01*
X-100518Y-44121D01*
X-100484Y-44036D01*
X-100480Y-43995D01*
X-100473Y-43973D01*
X-100474Y-43941D01*
X-100466Y-43870D01*
X-100466Y-40995D01*
X-98245Y-38774D01*
X-92605Y-38774D01*
X-92227Y-39152D01*
X-92169Y-39194D01*
X-92117Y-39243D01*
X-92070Y-39265D01*
X-92028Y-39295D01*
X-91959Y-39316D01*
X-91894Y-39347D01*
X-91842Y-39352D01*
X-91792Y-39368D01*
X-91721Y-39366D01*
X-91650Y-39374D01*
X-91599Y-39363D01*
X-91547Y-39361D01*
X-91479Y-39337D01*
X-91409Y-39322D01*
X-91364Y-39295D01*
X-91316Y-39277D01*
X-91260Y-39232D01*
X-91198Y-39195D01*
X-91164Y-39156D01*
X-91124Y-39123D01*
X-91085Y-39063D01*
X-91038Y-39008D01*
X-91019Y-38960D01*
X-90991Y-38916D01*
X-90973Y-38847D01*
X-90946Y-38780D01*
X-90938Y-38709D01*
X-90930Y-38678D01*
X-90932Y-38654D01*
X-90928Y-38614D01*
X-90928Y-36206D01*
X-88249Y-33527D01*
X-84461Y-33527D01*
X-81782Y-36206D01*
X-81782Y-40031D01*
X-81768Y-40122D01*
X-81760Y-40212D01*
X-81748Y-40242D01*
X-81743Y-40274D01*
X-81700Y-40355D01*
X-81664Y-40439D01*
X-81638Y-40471D01*
X-81627Y-40492D01*
X-81604Y-40514D01*
X-81559Y-40570D01*
X-81134Y-40995D01*
X-81134Y-46635D01*
X-82221Y-47722D01*
X-82232Y-47738D01*
X-82248Y-47750D01*
X-82304Y-47838D01*
X-82364Y-47921D01*
X-82370Y-47941D01*
X-82381Y-47957D01*
X-82406Y-48058D01*
X-82437Y-48157D01*
X-82436Y-48177D01*
X-82441Y-48196D01*
X-82433Y-48299D01*
X-82430Y-48402D01*
X-82424Y-48421D01*
X-82422Y-48441D01*
X-82382Y-48536D01*
X-82346Y-48633D01*
X-82333Y-48649D01*
X-82326Y-48667D01*
X-82221Y-48798D01*
X-81892Y-49127D01*
X-81393Y-49992D01*
X-81134Y-50956D01*
X-81134Y-51456D01*
X-85687Y-51456D01*
X-85706Y-51459D01*
X-85726Y-51457D01*
X-85828Y-51479D01*
X-85930Y-51495D01*
X-85947Y-51505D01*
X-85967Y-51509D01*
X-86056Y-51562D01*
X-86147Y-51611D01*
X-86161Y-51625D01*
X-86178Y-51635D01*
X-86245Y-51714D01*
X-86316Y-51789D01*
X-86325Y-51807D01*
X-86338Y-51822D01*
X-86376Y-51918D01*
X-86420Y-52012D01*
X-86422Y-52032D01*
X-86430Y-52050D01*
X-86448Y-52217D01*
X-86448Y-52432D01*
X-86663Y-52432D01*
X-86683Y-52435D01*
X-86702Y-52433D01*
X-86804Y-52455D01*
X-86906Y-52472D01*
X-86923Y-52481D01*
X-86943Y-52485D01*
X-87032Y-52538D01*
X-87123Y-52587D01*
X-87137Y-52601D01*
X-87154Y-52611D01*
X-87221Y-52690D01*
X-87293Y-52765D01*
X-87301Y-52783D01*
X-87314Y-52798D01*
X-87353Y-52895D01*
X-87396Y-52988D01*
X-87398Y-53008D01*
X-87406Y-53026D01*
X-87424Y-53193D01*
X-87424Y-61107D01*
X-87421Y-61126D01*
X-87423Y-61146D01*
X-87401Y-61248D01*
X-87385Y-61350D01*
X-87375Y-61367D01*
X-87371Y-61387D01*
X-87318Y-61476D01*
X-87269Y-61567D01*
X-87255Y-61581D01*
X-87245Y-61598D01*
X-87166Y-61665D01*
X-87091Y-61736D01*
X-87073Y-61745D01*
X-87058Y-61758D01*
X-86962Y-61796D01*
X-86868Y-61840D01*
X-86848Y-61842D01*
X-86830Y-61850D01*
X-86663Y-61868D01*
X-86448Y-61868D01*
X-86448Y-62083D01*
X-86445Y-62103D01*
X-86447Y-62122D01*
X-86425Y-62224D01*
X-86408Y-62326D01*
X-86399Y-62343D01*
X-86395Y-62363D01*
X-86342Y-62452D01*
X-86293Y-62543D01*
X-86279Y-62557D01*
X-86269Y-62574D01*
X-86190Y-62641D01*
X-86115Y-62713D01*
X-86097Y-62721D01*
X-86082Y-62734D01*
X-85985Y-62773D01*
X-85892Y-62816D01*
X-85872Y-62818D01*
X-85854Y-62826D01*
X-85687Y-62844D01*
X-81134Y-62844D01*
X-81134Y-63344D01*
X-81393Y-64308D01*
X-81892Y-65173D01*
X-82221Y-65502D01*
X-82232Y-65518D01*
X-82248Y-65530D01*
X-82304Y-65618D01*
X-82364Y-65701D01*
X-82370Y-65720D01*
X-82381Y-65737D01*
X-82406Y-65838D01*
X-82437Y-65936D01*
X-82436Y-65956D01*
X-82441Y-65976D01*
X-82433Y-66079D01*
X-82430Y-66182D01*
X-82423Y-66201D01*
X-82422Y-66221D01*
X-82382Y-66316D01*
X-82346Y-66413D01*
X-82333Y-66429D01*
X-82326Y-66447D01*
X-82221Y-66578D01*
X-81134Y-67665D01*
X-81134Y-73305D01*
X-83355Y-75526D01*
X-86410Y-75526D01*
X-86500Y-75540D01*
X-86591Y-75548D01*
X-86620Y-75560D01*
X-86652Y-75565D01*
X-86733Y-75608D01*
X-86817Y-75644D01*
X-86849Y-75670D01*
X-86870Y-75681D01*
X-86892Y-75704D01*
X-86948Y-75749D01*
X-90702Y-79503D01*
X-102328Y-79503D01*
X-103375Y-78456D01*
X-103449Y-78403D01*
X-103518Y-78343D01*
X-103549Y-78331D01*
X-103575Y-78312D01*
X-103662Y-78285D01*
X-103747Y-78251D01*
X-103788Y-78247D01*
X-103810Y-78240D01*
X-103842Y-78241D01*
X-103913Y-78233D01*
X-105394Y-78233D01*
X-108073Y-75554D01*
X-108073Y-71766D01*
X-106139Y-69832D01*
X-106097Y-69774D01*
X-106048Y-69722D01*
X-106026Y-69675D01*
X-105996Y-69633D01*
X-105974Y-69564D01*
X-105944Y-69499D01*
X-105939Y-69447D01*
X-105923Y-69397D01*
X-105925Y-69326D01*
X-105917Y-69255D01*
X-105928Y-69204D01*
X-105930Y-69152D01*
X-105954Y-69084D01*
X-105969Y-69014D01*
X-105996Y-68969D01*
X-106014Y-68921D01*
X-106059Y-68865D01*
X-106096Y-68803D01*
X-106135Y-68769D01*
X-106168Y-68729D01*
X-106228Y-68690D01*
X-106282Y-68643D01*
X-106331Y-68624D01*
X-106375Y-68596D01*
X-106444Y-68578D01*
X-106511Y-68551D01*
X-106582Y-68543D01*
X-106613Y-68535D01*
X-106636Y-68537D01*
X-106677Y-68533D01*
X-109220Y-68533D01*
X-109310Y-68547D01*
X-109401Y-68555D01*
X-109431Y-68567D01*
X-109463Y-68572D01*
X-109544Y-68615D01*
X-109628Y-68651D01*
X-109660Y-68677D01*
X-109681Y-68688D01*
X-109703Y-68711D01*
X-109759Y-68756D01*
X-109791Y-68788D01*
X-116579Y-68788D01*
X-116599Y-68791D01*
X-116618Y-68789D01*
X-116720Y-68811D01*
X-116822Y-68827D01*
X-116839Y-68837D01*
X-116859Y-68841D01*
X-116948Y-68894D01*
X-117039Y-68943D01*
X-117053Y-68957D01*
X-117070Y-68967D01*
X-117137Y-69046D01*
X-117208Y-69121D01*
X-117217Y-69139D01*
X-117230Y-69154D01*
X-117269Y-69250D01*
X-117312Y-69344D01*
X-117314Y-69364D01*
X-117322Y-69382D01*
X-117340Y-69549D01*
X-117340Y-76339D01*
X-117374Y-76373D01*
X-117427Y-76447D01*
X-117487Y-76517D01*
X-117499Y-76547D01*
X-117518Y-76573D01*
X-117545Y-76660D01*
X-117579Y-76745D01*
X-117583Y-76786D01*
X-117590Y-76808D01*
X-117589Y-76840D01*
X-117597Y-76912D01*
X-117597Y-83098D01*
X-117594Y-83118D01*
X-117596Y-83137D01*
X-117574Y-83239D01*
X-117558Y-83341D01*
X-117548Y-83358D01*
X-117544Y-83378D01*
X-117491Y-83467D01*
X-117442Y-83558D01*
X-117428Y-83572D01*
X-117418Y-83589D01*
X-117339Y-83656D01*
X-117264Y-83728D01*
X-117246Y-83736D01*
X-117231Y-83749D01*
X-117135Y-83788D01*
X-117041Y-83831D01*
X-117021Y-83833D01*
X-117003Y-83841D01*
X-116836Y-83859D01*
X-112565Y-83859D01*
X-112320Y-84104D01*
X-112246Y-84157D01*
X-112176Y-84217D01*
X-112146Y-84229D01*
X-112120Y-84248D01*
X-112033Y-84275D01*
X-111948Y-84309D01*
X-111907Y-84313D01*
X-111885Y-84320D01*
X-111853Y-84319D01*
X-111781Y-84327D01*
X-107956Y-84327D01*
X-105277Y-87006D01*
X-105277Y-90794D01*
X-107956Y-93473D01*
X-111781Y-93473D01*
X-111872Y-93487D01*
X-111962Y-93495D01*
X-111992Y-93507D01*
X-112024Y-93512D01*
X-112105Y-93555D01*
X-112189Y-93591D01*
X-112221Y-93617D01*
X-112242Y-93628D01*
X-112264Y-93651D01*
X-112320Y-93696D01*
X-112565Y-93941D01*
X-118205Y-93941D01*
X-119472Y-92674D01*
X-119488Y-92663D01*
X-119500Y-92647D01*
X-119588Y-92591D01*
X-119671Y-92531D01*
X-119690Y-92525D01*
X-119707Y-92514D01*
X-119808Y-92489D01*
X-119907Y-92458D01*
X-119926Y-92459D01*
X-119946Y-92454D01*
X-120049Y-92462D01*
X-120152Y-92465D01*
X-120171Y-92472D01*
X-120191Y-92473D01*
X-120286Y-92513D01*
X-120383Y-92549D01*
X-120399Y-92562D01*
X-120417Y-92569D01*
X-120548Y-92674D01*
X-121815Y-93941D01*
X-127455Y-93941D01*
X-128362Y-93034D01*
X-128378Y-93023D01*
X-128390Y-93007D01*
X-128478Y-92951D01*
X-128561Y-92891D01*
X-128580Y-92885D01*
X-128597Y-92874D01*
X-128698Y-92849D01*
X-128797Y-92818D01*
X-128816Y-92819D01*
X-128836Y-92814D01*
X-128939Y-92822D01*
X-129042Y-92825D01*
X-129061Y-92832D01*
X-129081Y-92833D01*
X-129176Y-92873D01*
X-129273Y-92909D01*
X-129289Y-92922D01*
X-129307Y-92929D01*
X-129438Y-93034D01*
X-130345Y-93941D01*
X-135985Y-93941D01*
X-137252Y-92674D01*
X-137268Y-92663D01*
X-137280Y-92647D01*
X-137368Y-92591D01*
X-137451Y-92531D01*
X-137470Y-92525D01*
X-137487Y-92514D01*
X-137588Y-92489D01*
X-137687Y-92458D01*
X-137706Y-92459D01*
X-137726Y-92454D01*
X-137829Y-92462D01*
X-137932Y-92465D01*
X-137951Y-92472D01*
X-137971Y-92473D01*
X-138066Y-92513D01*
X-138163Y-92549D01*
X-138179Y-92562D01*
X-138197Y-92569D01*
X-138328Y-92674D01*
X-139595Y-93941D01*
X-145235Y-93941D01*
X-147456Y-91720D01*
X-147456Y-86080D01*
X-145235Y-83859D01*
X-139595Y-83859D01*
X-138328Y-85126D01*
X-138312Y-85137D01*
X-138300Y-85153D01*
X-138238Y-85192D01*
X-138186Y-85237D01*
X-138158Y-85248D01*
X-138129Y-85269D01*
X-138110Y-85275D01*
X-138093Y-85286D01*
X-138017Y-85305D01*
X-137958Y-85329D01*
X-137923Y-85333D01*
X-137893Y-85342D01*
X-137874Y-85341D01*
X-137854Y-85346D01*
X-137824Y-85344D01*
X-137791Y-85347D01*
X-137789Y-85347D01*
X-137728Y-85337D01*
X-137648Y-85335D01*
X-137629Y-85328D01*
X-137609Y-85327D01*
X-137574Y-85312D01*
X-137546Y-85308D01*
X-137488Y-85277D01*
X-137417Y-85251D01*
X-137401Y-85238D01*
X-137383Y-85231D01*
X-137348Y-85203D01*
X-137328Y-85192D01*
X-137307Y-85170D01*
X-137252Y-85126D01*
X-135985Y-83859D01*
X-133110Y-83859D01*
X-133020Y-83845D01*
X-132929Y-83837D01*
X-132900Y-83825D01*
X-132868Y-83820D01*
X-132787Y-83777D01*
X-132703Y-83741D01*
X-132671Y-83715D01*
X-132650Y-83704D01*
X-132628Y-83681D01*
X-132572Y-83636D01*
X-128426Y-79490D01*
X-128373Y-79416D01*
X-128313Y-79347D01*
X-128301Y-79316D01*
X-128282Y-79290D01*
X-128255Y-79203D01*
X-128221Y-79118D01*
X-128217Y-79077D01*
X-128210Y-79055D01*
X-128211Y-79023D01*
X-128203Y-78952D01*
X-128203Y-78532D01*
X-128206Y-78512D01*
X-128204Y-78493D01*
X-128226Y-78391D01*
X-128242Y-78289D01*
X-128252Y-78272D01*
X-128256Y-78252D01*
X-128309Y-78163D01*
X-128358Y-78072D01*
X-128372Y-78058D01*
X-128382Y-78041D01*
X-128461Y-77974D01*
X-128536Y-77902D01*
X-128554Y-77894D01*
X-128569Y-77881D01*
X-128665Y-77842D01*
X-128759Y-77799D01*
X-128779Y-77797D01*
X-128797Y-77789D01*
X-128964Y-77771D01*
X-134456Y-77771D01*
X-134546Y-77785D01*
X-134637Y-77793D01*
X-134667Y-77805D01*
X-134699Y-77810D01*
X-134780Y-77853D01*
X-134864Y-77889D01*
X-134880Y-77902D01*
X-138895Y-77902D01*
X-140458Y-76339D01*
X-140458Y-69551D01*
X-140461Y-69531D01*
X-140459Y-69512D01*
X-140481Y-69410D01*
X-140497Y-69308D01*
X-140507Y-69291D01*
X-140511Y-69271D01*
X-140564Y-69182D01*
X-140613Y-69091D01*
X-140627Y-69077D01*
X-140637Y-69060D01*
X-140716Y-68993D01*
X-140791Y-68922D01*
X-140809Y-68913D01*
X-140824Y-68900D01*
X-140920Y-68861D01*
X-141014Y-68818D01*
X-141034Y-68816D01*
X-141052Y-68808D01*
X-141219Y-68790D01*
X-148009Y-68790D01*
X-149572Y-67227D01*
X-149572Y-65294D01*
X-149575Y-65274D01*
X-149573Y-65255D01*
X-149595Y-65153D01*
X-149612Y-65051D01*
X-149621Y-65034D01*
X-149625Y-65014D01*
X-149679Y-64925D01*
X-149727Y-64834D01*
X-149741Y-64820D01*
X-149751Y-64803D01*
X-149830Y-64736D01*
X-149905Y-64664D01*
X-149923Y-64656D01*
X-149938Y-64643D01*
X-150035Y-64604D01*
X-150128Y-64561D01*
X-150148Y-64559D01*
X-150167Y-64551D01*
X-150333Y-64533D01*
X-151437Y-64533D01*
X-151527Y-64547D01*
X-151618Y-64555D01*
X-151647Y-64567D01*
X-151679Y-64572D01*
X-151760Y-64615D01*
X-151844Y-64651D01*
X-151876Y-64677D01*
X-151897Y-64688D01*
X-151919Y-64711D01*
X-151975Y-64756D01*
X-157111Y-69892D01*
X-157164Y-69966D01*
X-157224Y-70035D01*
X-157236Y-70066D01*
X-157255Y-70092D01*
X-157282Y-70179D01*
X-157316Y-70264D01*
X-157320Y-70305D01*
X-157327Y-70327D01*
X-157326Y-70359D01*
X-157334Y-70430D01*
X-157334Y-73305D01*
X-159555Y-75526D01*
X-165195Y-75526D01*
X-166462Y-74259D01*
X-166478Y-74248D01*
X-166490Y-74232D01*
X-166578Y-74176D01*
X-166661Y-74116D01*
X-166680Y-74110D01*
X-166697Y-74099D01*
X-166798Y-74074D01*
X-166897Y-74043D01*
X-166916Y-74044D01*
X-166936Y-74039D01*
X-167039Y-74047D01*
X-167142Y-74050D01*
X-167161Y-74057D01*
X-167181Y-74058D01*
X-167276Y-74098D01*
X-167373Y-74134D01*
X-167389Y-74147D01*
X-167407Y-74154D01*
X-167538Y-74259D01*
X-168805Y-75526D01*
X-174445Y-75526D01*
X-174690Y-75281D01*
X-174764Y-75228D01*
X-174834Y-75168D01*
X-174864Y-75156D01*
X-174890Y-75137D01*
X-174977Y-75110D01*
X-175062Y-75076D01*
X-175103Y-75072D01*
X-175125Y-75065D01*
X-175157Y-75066D01*
X-175229Y-75058D01*
X-179054Y-75058D01*
X-181733Y-72379D01*
X-181733Y-68591D01*
X-179720Y-66578D01*
X-179708Y-66562D01*
X-179693Y-66550D01*
X-179637Y-66462D01*
X-179577Y-66379D01*
X-179571Y-66360D01*
X-179560Y-66343D01*
X-179535Y-66242D01*
X-179504Y-66143D01*
X-179505Y-66124D01*
X-179500Y-66104D01*
X-179508Y-66001D01*
X-179511Y-65898D01*
X-179517Y-65879D01*
X-179519Y-65859D01*
X-179559Y-65764D01*
X-179595Y-65667D01*
X-179608Y-65651D01*
X-179615Y-65633D01*
X-179720Y-65502D01*
X-181733Y-63489D01*
X-181733Y-59701D01*
X-179720Y-57688D01*
X-179708Y-57672D01*
X-179693Y-57660D01*
X-179661Y-57611D01*
X-179660Y-57609D01*
X-179659Y-57606D01*
X-179637Y-57572D01*
X-179577Y-57489D01*
X-179571Y-57470D01*
X-179560Y-57453D01*
X-179535Y-57352D01*
X-179504Y-57253D01*
X-179505Y-57234D01*
X-179500Y-57214D01*
X-179508Y-57111D01*
X-179511Y-57008D01*
X-179517Y-56989D01*
X-179519Y-56969D01*
X-179559Y-56874D01*
X-179595Y-56777D01*
X-179608Y-56761D01*
X-179615Y-56743D01*
X-179720Y-56612D01*
X-181733Y-54599D01*
X-181733Y-50811D01*
X-180686Y-49764D01*
X-180633Y-49690D01*
X-180573Y-49620D01*
X-180561Y-49590D01*
X-180542Y-49564D01*
X-180515Y-49477D01*
X-180481Y-49392D01*
X-180477Y-49351D01*
X-180470Y-49329D01*
X-180471Y-49297D01*
X-180463Y-49226D01*
X-180463Y-22529D01*
X-180477Y-22439D01*
X-180485Y-22348D01*
X-180497Y-22319D01*
X-180502Y-22287D01*
X-180545Y-22206D01*
X-180581Y-22122D01*
X-180607Y-22090D01*
X-180618Y-22069D01*
X-180641Y-22047D01*
X-180686Y-21991D01*
X-181733Y-20944D01*
X-181733Y-17156D01*
X-179054Y-14477D01*
X-177573Y-14477D01*
X-177483Y-14463D01*
X-177392Y-14455D01*
X-177363Y-14443D01*
X-177331Y-14438D01*
X-177250Y-14395D01*
X-177166Y-14359D01*
X-177134Y-14333D01*
X-177113Y-14322D01*
X-177091Y-14299D01*
X-177035Y-14254D01*
X-167764Y-4983D01*
X-167752Y-4967D01*
X-167737Y-4955D01*
X-167681Y-4867D01*
X-167621Y-4784D01*
X-167615Y-4765D01*
X-167604Y-4748D01*
X-167579Y-4647D01*
X-167548Y-4548D01*
X-167549Y-4529D01*
X-167544Y-4509D01*
X-167552Y-4406D01*
X-167555Y-4303D01*
X-167561Y-4284D01*
X-167563Y-4264D01*
X-167603Y-4169D01*
X-167639Y-4072D01*
X-167651Y-4056D01*
X-167659Y-4038D01*
X-167763Y-3908D01*
X-167763Y-1172D01*
X-165828Y763D01*
X-152014Y763D01*
X-151994Y766D01*
X-151975Y764D01*
X-151873Y786D01*
X-151771Y802D01*
X-151754Y812D01*
X-151734Y816D01*
X-151645Y869D01*
X-151554Y918D01*
X-151540Y932D01*
X-151523Y942D01*
X-151456Y1021D01*
X-151384Y1096D01*
X-151376Y1114D01*
X-151363Y1129D01*
X-151324Y1225D01*
X-151281Y1319D01*
X-151279Y1339D01*
X-151271Y1357D01*
X-151253Y1524D01*
X-151253Y4599D01*
X-151267Y4689D01*
X-151275Y4780D01*
X-151287Y4809D01*
X-151292Y4841D01*
X-151335Y4922D01*
X-151371Y5006D01*
X-151397Y5038D01*
X-151408Y5059D01*
X-151431Y5081D01*
X-151476Y5137D01*
X-151721Y5382D01*
X-151721Y11022D01*
X-150454Y12289D01*
X-150443Y12305D01*
X-150427Y12317D01*
X-150371Y12405D01*
X-150311Y12488D01*
X-150305Y12507D01*
X-150294Y12524D01*
X-150269Y12625D01*
X-150238Y12724D01*
X-150239Y12743D01*
X-150234Y12763D01*
X-150242Y12866D01*
X-150245Y12969D01*
X-150252Y12988D01*
X-150253Y13008D01*
X-150293Y13103D01*
X-150329Y13200D01*
X-150342Y13216D01*
X-150349Y13234D01*
X-150437Y13344D01*
X-150438Y13345D01*
X-150438Y13346D01*
X-150454Y13365D01*
X-151721Y14632D01*
X-151721Y20272D01*
X-149500Y22493D01*
X-146625Y22493D01*
X-146535Y22507D01*
X-146444Y22515D01*
X-146415Y22527D01*
X-146383Y22532D01*
X-146302Y22575D01*
X-146218Y22611D01*
X-146186Y22637D01*
X-146165Y22648D01*
X-146143Y22671D01*
X-146087Y22716D01*
X-140681Y28122D01*
X-140628Y28196D01*
X-140568Y28265D01*
X-140556Y28296D01*
X-140537Y28322D01*
X-140510Y28409D01*
X-140476Y28494D01*
X-140472Y28535D01*
X-140465Y28557D01*
X-140466Y28589D01*
X-140458Y28660D01*
X-140458Y32129D01*
X-140461Y32149D01*
X-140459Y32168D01*
X-140481Y32270D01*
X-140497Y32372D01*
X-140507Y32389D01*
X-140511Y32409D01*
X-140564Y32498D01*
X-140613Y32589D01*
X-140627Y32603D01*
X-140637Y32620D01*
X-140716Y32687D01*
X-140791Y32758D01*
X-140809Y32767D01*
X-140824Y32780D01*
X-140920Y32819D01*
X-141014Y32862D01*
X-141034Y32864D01*
X-141052Y32872D01*
X-141219Y32890D01*
X-148009Y32890D01*
X-148043Y32924D01*
X-148117Y32977D01*
X-148187Y33037D01*
X-148217Y33049D01*
X-148243Y33068D01*
X-148330Y33095D01*
X-148415Y33129D01*
X-148456Y33133D01*
X-148478Y33140D01*
X-148510Y33139D01*
X-148582Y33147D01*
X-155357Y33147D01*
X-155447Y33133D01*
X-155538Y33125D01*
X-155567Y33113D01*
X-155599Y33108D01*
X-155680Y33065D01*
X-155764Y33029D01*
X-155796Y33003D01*
X-155817Y32992D01*
X-155839Y32969D01*
X-155895Y32924D01*
X-157111Y31708D01*
X-157164Y31634D01*
X-157224Y31565D01*
X-157236Y31534D01*
X-157255Y31508D01*
X-157282Y31421D01*
X-157316Y31336D01*
X-157320Y31295D01*
X-157327Y31273D01*
X-157326Y31241D01*
X-157334Y31170D01*
X-157334Y28295D01*
X-159555Y26074D01*
X-165195Y26074D01*
X-166462Y27341D01*
X-166478Y27352D01*
X-166490Y27368D01*
X-166578Y27424D01*
X-166661Y27484D01*
X-166680Y27490D01*
X-166697Y27501D01*
X-166798Y27526D01*
X-166897Y27557D01*
X-166916Y27556D01*
X-166936Y27561D01*
X-167039Y27553D01*
X-167142Y27550D01*
X-167161Y27543D01*
X-167181Y27542D01*
X-167276Y27502D01*
X-167373Y27466D01*
X-167389Y27453D01*
X-167407Y27446D01*
X-167538Y27341D01*
X-168805Y26074D01*
X-174445Y26074D01*
X-174690Y26319D01*
X-174764Y26372D01*
X-174834Y26432D01*
X-174864Y26444D01*
X-174890Y26463D01*
X-174977Y26490D01*
X-175062Y26524D01*
X-175103Y26528D01*
X-175125Y26535D01*
X-175157Y26534D01*
X-175229Y26542D01*
X-179054Y26542D01*
X-181733Y29221D01*
X-181733Y33009D01*
X-179720Y35022D01*
X-179708Y35038D01*
X-179693Y35050D01*
X-179637Y35138D01*
X-179577Y35221D01*
X-179571Y35240D01*
X-179560Y35257D01*
X-179535Y35358D01*
X-179504Y35457D01*
X-179505Y35476D01*
X-179500Y35496D01*
X-179508Y35599D01*
X-179511Y35702D01*
X-179517Y35721D01*
X-179519Y35741D01*
X-179559Y35836D01*
X-179595Y35933D01*
X-179608Y35949D01*
X-179615Y35967D01*
X-179720Y36098D01*
X-181733Y38111D01*
X-181733Y41899D01*
X-179720Y43912D01*
X-179708Y43928D01*
X-179693Y43940D01*
X-179637Y44028D01*
X-179577Y44111D01*
X-179571Y44130D01*
X-179560Y44147D01*
X-179535Y44248D01*
X-179504Y44347D01*
X-179505Y44366D01*
X-179500Y44386D01*
X-179508Y44489D01*
X-179511Y44592D01*
X-179517Y44611D01*
X-179519Y44631D01*
X-179559Y44726D01*
X-179595Y44823D01*
X-179608Y44839D01*
X-179615Y44857D01*
X-179720Y44988D01*
X-181733Y47001D01*
X-181733Y50789D01*
X-179054Y53468D01*
X-175229Y53468D01*
X-175138Y53482D01*
X-175048Y53490D01*
X-175018Y53502D01*
X-174986Y53507D01*
X-174905Y53550D01*
X-174821Y53586D01*
X-174789Y53612D01*
X-174768Y53623D01*
X-174746Y53646D01*
X-174690Y53691D01*
X-174445Y53936D01*
X-168805Y53936D01*
X-167538Y52669D01*
X-167522Y52658D01*
X-167510Y52642D01*
X-167422Y52586D01*
X-167339Y52526D01*
X-167320Y52520D01*
X-167303Y52509D01*
X-167202Y52484D01*
X-167103Y52453D01*
X-167084Y52454D01*
X-167064Y52449D01*
X-166961Y52457D01*
X-166858Y52460D01*
X-166839Y52467D01*
X-166819Y52468D01*
X-166724Y52508D01*
X-166627Y52544D01*
X-166611Y52557D01*
X-166593Y52564D01*
X-166462Y52669D01*
X-165195Y53936D01*
X-159555Y53936D01*
X-157334Y51715D01*
X-157334Y48840D01*
X-157320Y48750D01*
X-157312Y48659D01*
X-157300Y48630D01*
X-157295Y48598D01*
X-157252Y48517D01*
X-157216Y48433D01*
X-157190Y48401D01*
X-157179Y48380D01*
X-157156Y48358D01*
X-157111Y48302D01*
X-156785Y47976D01*
X-156711Y47923D01*
X-156642Y47863D01*
X-156611Y47851D01*
X-156585Y47832D01*
X-156498Y47805D01*
X-156413Y47771D01*
X-156372Y47767D01*
X-156350Y47760D01*
X-156318Y47761D01*
X-156247Y47753D01*
X-150202Y47753D01*
X-150182Y47756D01*
X-150163Y47754D01*
X-150061Y47776D01*
X-149959Y47792D01*
X-149942Y47802D01*
X-149922Y47806D01*
X-149833Y47859D01*
X-149742Y47908D01*
X-149728Y47922D01*
X-149711Y47932D01*
X-149644Y48011D01*
X-149572Y48086D01*
X-149564Y48104D01*
X-149551Y48119D01*
X-149512Y48215D01*
X-149469Y48309D01*
X-149467Y48329D01*
X-149459Y48347D01*
X-149441Y48514D01*
X-149441Y50006D01*
X-149455Y50096D01*
X-149463Y50187D01*
X-149475Y50217D01*
X-149480Y50249D01*
X-149523Y50330D01*
X-149559Y50414D01*
X-149572Y50430D01*
X-149572Y54445D01*
X-148009Y56008D01*
X-141221Y56008D01*
X-141201Y56011D01*
X-141182Y56009D01*
X-141080Y56031D01*
X-140978Y56047D01*
X-140961Y56057D01*
X-140941Y56061D01*
X-140852Y56114D01*
X-140761Y56163D01*
X-140747Y56177D01*
X-140730Y56187D01*
X-140663Y56266D01*
X-140592Y56341D01*
X-140583Y56359D01*
X-140570Y56374D01*
X-140531Y56470D01*
X-140488Y56564D01*
X-140486Y56584D01*
X-140478Y56602D01*
X-140460Y56769D01*
X-140460Y63559D01*
X-140426Y63593D01*
X-140373Y63667D01*
X-140313Y63737D01*
X-140301Y63767D01*
X-140282Y63793D01*
X-140255Y63880D01*
X-140221Y63965D01*
X-140217Y64006D01*
X-140210Y64028D01*
X-140211Y64060D01*
X-140203Y64132D01*
X-140203Y66462D01*
X-140217Y66552D01*
X-140225Y66643D01*
X-140237Y66672D01*
X-140242Y66704D01*
X-140285Y66785D01*
X-140321Y66869D01*
X-140347Y66901D01*
X-140358Y66922D01*
X-140381Y66944D01*
X-140426Y67000D01*
X-146087Y72661D01*
X-146161Y72714D01*
X-146230Y72774D01*
X-146261Y72786D01*
X-146287Y72805D01*
X-146374Y72832D01*
X-146459Y72866D01*
X-146500Y72870D01*
X-146522Y72877D01*
X-146554Y72876D01*
X-146625Y72884D01*
X-149500Y72884D01*
X-151721Y75105D01*
X-151721Y80745D01*
X-150454Y82012D01*
X-150443Y82028D01*
X-150427Y82040D01*
X-150371Y82128D01*
X-150311Y82211D01*
X-150305Y82230D01*
X-150294Y82247D01*
X-150269Y82348D01*
X-150238Y82447D01*
X-150239Y82466D01*
X-150234Y82486D01*
X-150242Y82589D01*
X-150245Y82692D01*
X-150252Y82711D01*
X-150253Y82731D01*
X-150293Y82826D01*
X-150329Y82923D01*
X-150342Y82939D01*
X-150349Y82957D01*
X-150454Y83088D01*
X-151721Y84355D01*
X-151721Y89995D01*
X-151476Y90240D01*
X-151423Y90314D01*
X-151363Y90384D01*
X-151351Y90414D01*
X-151332Y90440D01*
X-151305Y90527D01*
X-151271Y90612D01*
X-151267Y90653D01*
X-151260Y90675D01*
X-151261Y90707D01*
X-151253Y90779D01*
X-151253Y94604D01*
X-150459Y95398D01*
X-150417Y95456D01*
X-150368Y95508D01*
X-150346Y95555D01*
X-150316Y95597D01*
X-150294Y95666D01*
X-150264Y95731D01*
X-150259Y95783D01*
X-150243Y95833D01*
X-150245Y95904D01*
X-150237Y95975D01*
X-150248Y96026D01*
X-150250Y96078D01*
X-150274Y96146D01*
X-150289Y96216D01*
X-150316Y96261D01*
X-150334Y96309D01*
X-150379Y96365D01*
X-150416Y96427D01*
X-150455Y96461D01*
X-150488Y96501D01*
X-150548Y96540D01*
X-150602Y96587D01*
X-150651Y96606D01*
X-150695Y96634D01*
X-150764Y96652D01*
X-150831Y96679D01*
X-150902Y96687D01*
X-150933Y96695D01*
X-150956Y96693D01*
X-150997Y96697D01*
X-201368Y96697D01*
X-203303Y98632D01*
X-203303Y100000D01*
X-203307Y100024D01*
X-203306Y100066D01*
X-203548Y102834D01*
X-203552Y102849D01*
X-203551Y102865D01*
X-203591Y103028D01*
X-205484Y108228D01*
X-205508Y108271D01*
X-205523Y108318D01*
X-205592Y108422D01*
X-205604Y108443D01*
X-205610Y108448D01*
X-205616Y108457D01*
X-209173Y112697D01*
X-209210Y112729D01*
X-209241Y112768D01*
X-209342Y112842D01*
X-209360Y112857D01*
X-209367Y112860D01*
X-209376Y112867D01*
X-214169Y115634D01*
X-214215Y115652D01*
X-214256Y115677D01*
X-214377Y115713D01*
X-214399Y115721D01*
X-214406Y115721D01*
X-214417Y115725D01*
X-219868Y116686D01*
X-219917Y116686D01*
X-219965Y116696D01*
X-220090Y116688D01*
X-220114Y116689D01*
X-220121Y116686D01*
X-220132Y116686D01*
X-225583Y115725D01*
X-225629Y115708D01*
X-225677Y115702D01*
X-225792Y115651D01*
X-225815Y115643D01*
X-225821Y115639D01*
X-225831Y115634D01*
X-230624Y112867D01*
X-230662Y112836D01*
X-230705Y112813D01*
X-230796Y112726D01*
X-230814Y112711D01*
X-230818Y112705D01*
X-230827Y112697D01*
X-234384Y108457D01*
X-234409Y108415D01*
X-234442Y108379D01*
X-234497Y108267D01*
X-234510Y108246D01*
X-234511Y108239D01*
X-234516Y108228D01*
X-236409Y103028D01*
X-236412Y103012D01*
X-236419Y102998D01*
X-236452Y102834D01*
X-236694Y100066D01*
X-236693Y100042D01*
X-236697Y100000D01*
X-236697Y98632D01*
X-238632Y96697D01*
X-261368Y96697D01*
X-263303Y98632D01*
X-263303Y185936D01*
X-263306Y185956D01*
X-263304Y185975D01*
X-263326Y186077D01*
X-263342Y186179D01*
X-263352Y186196D01*
X-263356Y186216D01*
X-263409Y186305D01*
X-263458Y186396D01*
X-263472Y186410D01*
X-263482Y186427D01*
X-263561Y186494D01*
X-263636Y186566D01*
X-263654Y186574D01*
X-263669Y186587D01*
X-263765Y186626D01*
X-263859Y186669D01*
X-263879Y186671D01*
X-263897Y186679D01*
X-264064Y186697D01*
X-825936Y186697D01*
X-825956Y186694D01*
X-825975Y186696D01*
X-826077Y186674D01*
X-826179Y186658D01*
X-826196Y186648D01*
X-826216Y186644D01*
X-826305Y186591D01*
X-826396Y186542D01*
X-826410Y186528D01*
X-826427Y186518D01*
X-826494Y186439D01*
X-826566Y186364D01*
X-826574Y186346D01*
X-826587Y186331D01*
X-826626Y186235D01*
X-826669Y186141D01*
X-826671Y186121D01*
X-826679Y186103D01*
X-826697Y185936D01*
X-826697Y-175936D01*
X-826694Y-175956D01*
X-826696Y-175975D01*
X-826674Y-176077D01*
X-826658Y-176179D01*
X-826648Y-176196D01*
X-826644Y-176216D01*
X-826591Y-176305D01*
X-826542Y-176396D01*
X-826528Y-176410D01*
X-826518Y-176427D01*
X-826439Y-176494D01*
X-826364Y-176566D01*
X-826346Y-176574D01*
X-826331Y-176587D01*
X-826235Y-176626D01*
X-826141Y-176669D01*
X-826121Y-176671D01*
X-826103Y-176679D01*
X-825936Y-176697D01*
X-264064Y-176697D01*
X-264044Y-176694D01*
G37*
%LPC*%
G36*
X-755109Y-119461D02*
X-755109Y-119461D01*
X-761061Y-113509D01*
X-761061Y-105091D01*
X-755109Y-99139D01*
X-754964Y-99139D01*
X-754944Y-99136D01*
X-754925Y-99138D01*
X-754823Y-99116D01*
X-754721Y-99100D01*
X-754704Y-99090D01*
X-754684Y-99086D01*
X-754595Y-99033D01*
X-754504Y-98984D01*
X-754490Y-98970D01*
X-754473Y-98960D01*
X-754406Y-98881D01*
X-754334Y-98806D01*
X-754326Y-98788D01*
X-754313Y-98773D01*
X-754274Y-98677D01*
X-754231Y-98583D01*
X-754229Y-98563D01*
X-754221Y-98545D01*
X-754203Y-98378D01*
X-754203Y-78283D01*
X-754217Y-78193D01*
X-754225Y-78102D01*
X-754237Y-78073D01*
X-754242Y-78041D01*
X-754285Y-77960D01*
X-754321Y-77876D01*
X-754347Y-77844D01*
X-754358Y-77823D01*
X-754381Y-77801D01*
X-754426Y-77745D01*
X-757962Y-74209D01*
X-758057Y-74141D01*
X-758151Y-74071D01*
X-758157Y-74069D01*
X-758162Y-74065D01*
X-758273Y-74031D01*
X-758385Y-73995D01*
X-758391Y-73995D01*
X-758397Y-73993D01*
X-758514Y-73996D01*
X-758631Y-73997D01*
X-758638Y-73999D01*
X-758643Y-73999D01*
X-758660Y-74005D01*
X-758792Y-74044D01*
X-762406Y-75541D01*
X-767594Y-75541D01*
X-772387Y-73555D01*
X-776055Y-69887D01*
X-778041Y-65094D01*
X-778041Y-59906D01*
X-776055Y-55113D01*
X-772387Y-51445D01*
X-768773Y-49948D01*
X-768673Y-49886D01*
X-768573Y-49826D01*
X-768569Y-49821D01*
X-768564Y-49818D01*
X-768489Y-49728D01*
X-768413Y-49639D01*
X-768411Y-49633D01*
X-768407Y-49628D01*
X-768365Y-49520D01*
X-768321Y-49411D01*
X-768320Y-49403D01*
X-768319Y-49399D01*
X-768318Y-49381D01*
X-768303Y-49244D01*
X-768303Y49244D01*
X-768322Y49359D01*
X-768339Y49475D01*
X-768341Y49481D01*
X-768342Y49487D01*
X-768397Y49590D01*
X-768450Y49694D01*
X-768455Y49699D01*
X-768458Y49704D01*
X-768542Y49784D01*
X-768626Y49867D01*
X-768632Y49870D01*
X-768636Y49874D01*
X-768653Y49882D01*
X-768773Y49948D01*
X-772387Y51445D01*
X-776055Y55113D01*
X-778041Y59906D01*
X-778041Y65094D01*
X-776055Y69887D01*
X-772387Y73555D01*
X-767594Y75541D01*
X-762406Y75541D01*
X-758792Y74044D01*
X-758678Y74017D01*
X-758565Y73988D01*
X-758558Y73989D01*
X-758552Y73987D01*
X-758436Y73998D01*
X-758319Y74008D01*
X-758314Y74010D01*
X-758307Y74011D01*
X-758200Y74058D01*
X-758093Y74104D01*
X-758087Y74108D01*
X-758083Y74111D01*
X-758069Y74123D01*
X-757962Y74209D01*
X-748151Y84020D01*
X-748098Y84094D01*
X-748038Y84163D01*
X-748026Y84194D01*
X-748007Y84220D01*
X-747980Y84307D01*
X-747946Y84392D01*
X-747942Y84433D01*
X-747935Y84455D01*
X-747936Y84487D01*
X-747928Y84558D01*
X-747928Y85126D01*
X-747942Y85217D01*
X-747950Y85307D01*
X-747962Y85337D01*
X-747967Y85369D01*
X-748010Y85450D01*
X-748046Y85534D01*
X-748072Y85566D01*
X-748083Y85587D01*
X-748106Y85609D01*
X-748151Y85665D01*
X-749666Y87180D01*
X-749666Y92820D01*
X-747445Y95041D01*
X-741805Y95041D01*
X-740538Y93774D01*
X-740522Y93763D01*
X-740510Y93747D01*
X-740422Y93691D01*
X-740339Y93631D01*
X-740320Y93625D01*
X-740303Y93614D01*
X-740202Y93589D01*
X-740103Y93558D01*
X-740084Y93559D01*
X-740064Y93554D01*
X-739961Y93562D01*
X-739858Y93565D01*
X-739839Y93572D01*
X-739819Y93573D01*
X-739724Y93613D01*
X-739627Y93649D01*
X-739611Y93662D01*
X-739593Y93669D01*
X-739462Y93774D01*
X-738195Y95041D01*
X-732555Y95041D01*
X-730334Y92820D01*
X-730334Y89945D01*
X-730320Y89855D01*
X-730312Y89764D01*
X-730300Y89735D01*
X-730295Y89703D01*
X-730252Y89622D01*
X-730216Y89538D01*
X-730190Y89506D01*
X-730179Y89485D01*
X-730156Y89463D01*
X-730111Y89407D01*
X-719516Y78812D01*
X-719442Y78759D01*
X-719373Y78699D01*
X-719342Y78687D01*
X-719316Y78668D01*
X-719229Y78641D01*
X-719144Y78607D01*
X-719103Y78603D01*
X-719081Y78596D01*
X-719049Y78597D01*
X-718978Y78589D01*
X-709617Y78589D01*
X-709546Y78600D01*
X-709475Y78602D01*
X-709426Y78620D01*
X-709374Y78628D01*
X-709311Y78662D01*
X-709244Y78687D01*
X-709203Y78719D01*
X-709157Y78744D01*
X-709108Y78796D01*
X-709052Y78840D01*
X-709023Y78884D01*
X-708988Y78922D01*
X-708957Y78987D01*
X-708919Y79047D01*
X-708906Y79098D01*
X-708884Y79145D01*
X-708876Y79216D01*
X-708859Y79286D01*
X-708863Y79338D01*
X-708857Y79389D01*
X-708872Y79460D01*
X-708878Y79531D01*
X-708898Y79579D01*
X-708909Y79630D01*
X-708946Y79691D01*
X-708974Y79757D01*
X-709019Y79813D01*
X-709035Y79841D01*
X-709053Y79856D01*
X-709079Y79888D01*
X-739740Y110550D01*
X-739757Y110561D01*
X-739769Y110577D01*
X-739856Y110633D01*
X-739940Y110693D01*
X-739959Y110699D01*
X-739976Y110710D01*
X-740077Y110735D01*
X-740175Y110766D01*
X-740195Y110765D01*
X-740215Y110770D01*
X-740317Y110762D01*
X-740421Y110759D01*
X-740440Y110753D01*
X-740460Y110751D01*
X-740555Y110710D01*
X-740652Y110675D01*
X-740668Y110662D01*
X-740686Y110655D01*
X-740817Y110550D01*
X-742228Y109139D01*
X-759572Y109139D01*
X-761061Y110628D01*
X-761061Y127972D01*
X-759572Y129461D01*
X-742228Y129461D01*
X-740817Y128050D01*
X-740801Y128039D01*
X-740788Y128023D01*
X-740701Y127967D01*
X-740617Y127907D01*
X-740598Y127901D01*
X-740581Y127890D01*
X-740481Y127865D01*
X-740382Y127834D01*
X-740362Y127835D01*
X-740343Y127830D01*
X-740240Y127838D01*
X-740136Y127841D01*
X-740118Y127847D01*
X-740098Y127849D01*
X-740003Y127889D01*
X-739905Y127925D01*
X-739890Y127938D01*
X-739871Y127945D01*
X-739740Y128050D01*
X-732018Y135772D01*
X-732007Y135788D01*
X-731991Y135801D01*
X-731935Y135888D01*
X-731875Y135972D01*
X-731869Y135991D01*
X-731858Y136008D01*
X-731833Y136108D01*
X-731802Y136207D01*
X-731803Y136227D01*
X-731798Y136246D01*
X-731806Y136349D01*
X-731809Y136453D01*
X-731816Y136472D01*
X-731817Y136492D01*
X-731858Y136587D01*
X-731893Y136684D01*
X-731906Y136700D01*
X-731913Y136718D01*
X-732018Y136849D01*
X-735661Y140491D01*
X-735661Y148909D01*
X-729709Y154861D01*
X-721291Y154861D01*
X-715339Y148909D01*
X-715339Y140491D01*
X-715926Y139904D01*
X-715968Y139846D01*
X-716018Y139794D01*
X-716039Y139747D01*
X-716070Y139705D01*
X-716091Y139636D01*
X-716121Y139571D01*
X-716127Y139519D01*
X-716142Y139469D01*
X-716140Y139398D01*
X-716148Y139327D01*
X-716137Y139276D01*
X-716136Y139224D01*
X-716111Y139156D01*
X-716096Y139086D01*
X-716069Y139041D01*
X-716051Y138993D01*
X-716007Y138937D01*
X-715970Y138875D01*
X-715930Y138841D01*
X-715898Y138801D01*
X-715837Y138762D01*
X-715783Y138715D01*
X-715735Y138696D01*
X-715691Y138668D01*
X-715621Y138650D01*
X-715555Y138623D01*
X-715483Y138615D01*
X-715452Y138607D01*
X-715429Y138609D01*
X-715388Y138605D01*
X-714070Y138605D01*
X-714050Y138608D01*
X-714031Y138606D01*
X-713929Y138628D01*
X-713827Y138644D01*
X-713810Y138654D01*
X-713790Y138658D01*
X-713701Y138711D01*
X-713610Y138760D01*
X-713596Y138774D01*
X-713579Y138784D01*
X-713512Y138863D01*
X-713440Y138938D01*
X-713432Y138956D01*
X-713419Y138971D01*
X-713380Y139067D01*
X-713337Y139161D01*
X-713335Y139181D01*
X-713327Y139199D01*
X-713309Y139366D01*
X-713309Y150171D01*
X-707729Y155751D01*
X-705571Y157909D01*
X-618429Y157909D01*
X-616271Y155751D01*
X-612849Y152329D01*
X-610691Y150171D01*
X-610691Y147868D01*
X-610677Y147778D01*
X-610669Y147687D01*
X-610657Y147657D01*
X-610652Y147625D01*
X-610609Y147545D01*
X-610573Y147461D01*
X-610547Y147429D01*
X-610536Y147408D01*
X-610513Y147386D01*
X-610468Y147330D01*
X-609960Y146822D01*
X-609902Y146780D01*
X-609850Y146731D01*
X-609803Y146709D01*
X-609761Y146678D01*
X-609692Y146657D01*
X-609627Y146627D01*
X-609575Y146621D01*
X-609525Y146606D01*
X-609454Y146608D01*
X-609383Y146600D01*
X-609332Y146611D01*
X-609280Y146612D01*
X-609212Y146637D01*
X-609142Y146652D01*
X-609097Y146679D01*
X-609049Y146697D01*
X-608993Y146741D01*
X-608931Y146778D01*
X-608897Y146818D01*
X-608857Y146850D01*
X-608818Y146911D01*
X-608771Y146965D01*
X-608752Y147014D01*
X-608724Y147057D01*
X-608706Y147127D01*
X-608679Y147193D01*
X-608671Y147265D01*
X-608663Y147296D01*
X-608665Y147319D01*
X-608661Y147360D01*
X-608661Y148909D01*
X-602709Y154861D01*
X-594291Y154861D01*
X-588339Y148909D01*
X-588339Y140491D01*
X-594291Y134539D01*
X-595840Y134539D01*
X-595911Y134528D01*
X-595982Y134526D01*
X-596031Y134508D01*
X-596083Y134500D01*
X-596146Y134466D01*
X-596213Y134441D01*
X-596254Y134409D01*
X-596300Y134384D01*
X-596349Y134332D01*
X-596405Y134288D01*
X-596434Y134244D01*
X-596469Y134206D01*
X-596500Y134141D01*
X-596538Y134081D01*
X-596551Y134030D01*
X-596573Y133983D01*
X-596581Y133912D01*
X-596598Y133842D01*
X-596594Y133790D01*
X-596600Y133739D01*
X-596585Y133668D01*
X-596579Y133597D01*
X-596559Y133549D01*
X-596548Y133498D01*
X-596511Y133437D01*
X-596483Y133371D01*
X-596438Y133315D01*
X-596422Y133287D01*
X-596404Y133272D01*
X-596378Y133240D01*
X-595870Y132732D01*
X-595796Y132678D01*
X-595727Y132619D01*
X-595697Y132607D01*
X-595670Y132588D01*
X-595583Y132561D01*
X-595499Y132527D01*
X-595458Y132523D01*
X-595435Y132516D01*
X-595403Y132517D01*
X-595332Y132509D01*
X-593029Y132509D01*
X-590871Y130351D01*
X-587449Y126929D01*
X-585291Y124771D01*
X-585291Y122468D01*
X-585288Y122451D01*
X-585290Y122435D01*
X-585276Y122368D01*
X-585269Y122287D01*
X-585257Y122257D01*
X-585252Y122225D01*
X-585240Y122204D01*
X-585238Y122194D01*
X-585212Y122151D01*
X-585209Y122145D01*
X-585173Y122061D01*
X-585147Y122029D01*
X-585136Y122008D01*
X-585114Y121987D01*
X-585112Y121983D01*
X-585109Y121981D01*
X-585068Y121930D01*
X-584560Y121422D01*
X-584502Y121380D01*
X-584450Y121331D01*
X-584403Y121309D01*
X-584361Y121278D01*
X-584292Y121257D01*
X-584227Y121227D01*
X-584175Y121221D01*
X-584125Y121206D01*
X-584054Y121208D01*
X-583983Y121200D01*
X-583932Y121211D01*
X-583880Y121212D01*
X-583812Y121237D01*
X-583742Y121252D01*
X-583697Y121279D01*
X-583649Y121297D01*
X-583593Y121341D01*
X-583531Y121378D01*
X-583497Y121418D01*
X-583457Y121450D01*
X-583418Y121511D01*
X-583371Y121565D01*
X-583352Y121614D01*
X-583324Y121657D01*
X-583306Y121727D01*
X-583279Y121793D01*
X-583271Y121865D01*
X-583263Y121896D01*
X-583265Y121919D01*
X-583261Y121960D01*
X-583261Y123509D01*
X-577309Y129461D01*
X-574623Y129461D01*
X-574623Y120062D01*
X-574620Y120042D01*
X-574622Y120023D01*
X-574600Y119921D01*
X-574583Y119819D01*
X-574574Y119802D01*
X-574570Y119782D01*
X-574517Y119693D01*
X-574468Y119602D01*
X-574454Y119588D01*
X-574444Y119571D01*
X-574365Y119504D01*
X-574290Y119433D01*
X-574272Y119424D01*
X-574257Y119411D01*
X-574161Y119373D01*
X-574067Y119329D01*
X-574047Y119327D01*
X-574029Y119319D01*
X-573862Y119301D01*
X-573099Y119301D01*
X-573099Y118538D01*
X-573096Y118518D01*
X-573098Y118499D01*
X-573076Y118397D01*
X-573059Y118295D01*
X-573050Y118278D01*
X-573046Y118258D01*
X-572993Y118169D01*
X-572944Y118078D01*
X-572930Y118064D01*
X-572920Y118047D01*
X-572841Y117980D01*
X-572766Y117909D01*
X-572748Y117900D01*
X-572733Y117887D01*
X-572637Y117848D01*
X-572543Y117805D01*
X-572523Y117803D01*
X-572505Y117795D01*
X-572338Y117777D01*
X-562939Y117777D01*
X-562939Y115091D01*
X-564034Y113996D01*
X-564076Y113938D01*
X-564126Y113886D01*
X-564147Y113839D01*
X-564178Y113797D01*
X-564199Y113728D01*
X-564229Y113663D01*
X-564235Y113611D01*
X-564250Y113561D01*
X-564248Y113490D01*
X-564256Y113419D01*
X-564245Y113368D01*
X-564244Y113316D01*
X-564219Y113248D01*
X-564204Y113178D01*
X-564177Y113133D01*
X-564159Y113085D01*
X-564115Y113029D01*
X-564078Y112967D01*
X-564038Y112933D01*
X-564006Y112893D01*
X-563945Y112854D01*
X-563891Y112807D01*
X-563843Y112788D01*
X-563799Y112760D01*
X-563729Y112742D01*
X-563663Y112715D01*
X-563591Y112707D01*
X-563560Y112699D01*
X-563537Y112701D01*
X-563496Y112697D01*
X-557304Y112697D01*
X-557233Y112708D01*
X-557162Y112710D01*
X-557113Y112728D01*
X-557061Y112736D01*
X-556998Y112770D01*
X-556931Y112795D01*
X-556890Y112827D01*
X-556844Y112852D01*
X-556794Y112904D01*
X-556738Y112948D01*
X-556710Y112992D01*
X-556674Y113030D01*
X-556644Y113095D01*
X-556605Y113155D01*
X-556593Y113206D01*
X-556571Y113253D01*
X-556563Y113324D01*
X-556545Y113394D01*
X-556549Y113446D01*
X-556544Y113497D01*
X-556559Y113568D01*
X-556565Y113639D01*
X-556585Y113687D01*
X-556596Y113738D01*
X-556633Y113799D01*
X-556661Y113865D01*
X-556706Y113921D01*
X-556722Y113949D01*
X-556740Y113964D01*
X-556766Y113996D01*
X-557861Y115091D01*
X-557861Y123509D01*
X-551909Y129461D01*
X-543491Y129461D01*
X-537539Y123509D01*
X-537539Y115091D01*
X-538634Y113996D01*
X-538676Y113938D01*
X-538726Y113886D01*
X-538747Y113839D01*
X-538778Y113797D01*
X-538799Y113728D01*
X-538829Y113663D01*
X-538835Y113611D01*
X-538850Y113561D01*
X-538848Y113490D01*
X-538856Y113419D01*
X-538845Y113368D01*
X-538844Y113316D01*
X-538819Y113248D01*
X-538804Y113178D01*
X-538777Y113133D01*
X-538759Y113085D01*
X-538715Y113029D01*
X-538678Y112967D01*
X-538638Y112933D01*
X-538606Y112893D01*
X-538545Y112854D01*
X-538491Y112807D01*
X-538443Y112788D01*
X-538399Y112760D01*
X-538329Y112742D01*
X-538263Y112715D01*
X-538191Y112707D01*
X-538160Y112699D01*
X-538137Y112701D01*
X-538096Y112697D01*
X-531904Y112697D01*
X-531833Y112708D01*
X-531762Y112710D01*
X-531713Y112728D01*
X-531661Y112736D01*
X-531598Y112770D01*
X-531531Y112795D01*
X-531490Y112827D01*
X-531444Y112852D01*
X-531394Y112904D01*
X-531338Y112948D01*
X-531310Y112992D01*
X-531274Y113030D01*
X-531244Y113095D01*
X-531205Y113155D01*
X-531193Y113206D01*
X-531171Y113253D01*
X-531163Y113324D01*
X-531145Y113394D01*
X-531149Y113446D01*
X-531144Y113497D01*
X-531159Y113568D01*
X-531165Y113639D01*
X-531185Y113687D01*
X-531196Y113738D01*
X-531233Y113799D01*
X-531261Y113865D01*
X-531306Y113921D01*
X-531322Y113949D01*
X-531340Y113964D01*
X-531366Y113996D01*
X-532461Y115091D01*
X-532461Y123509D01*
X-526509Y129461D01*
X-518091Y129461D01*
X-512139Y123509D01*
X-512139Y115091D01*
X-513234Y113996D01*
X-513276Y113938D01*
X-513326Y113886D01*
X-513347Y113839D01*
X-513378Y113797D01*
X-513399Y113728D01*
X-513429Y113663D01*
X-513435Y113611D01*
X-513450Y113561D01*
X-513448Y113490D01*
X-513456Y113419D01*
X-513445Y113368D01*
X-513444Y113316D01*
X-513419Y113248D01*
X-513404Y113178D01*
X-513377Y113133D01*
X-513359Y113085D01*
X-513315Y113029D01*
X-513278Y112967D01*
X-513238Y112933D01*
X-513206Y112893D01*
X-513145Y112854D01*
X-513091Y112807D01*
X-513043Y112788D01*
X-512999Y112760D01*
X-512929Y112742D01*
X-512863Y112715D01*
X-512791Y112707D01*
X-512760Y112699D01*
X-512737Y112701D01*
X-512696Y112697D01*
X-506504Y112697D01*
X-506433Y112708D01*
X-506362Y112710D01*
X-506313Y112728D01*
X-506261Y112736D01*
X-506198Y112770D01*
X-506131Y112795D01*
X-506090Y112827D01*
X-506044Y112852D01*
X-505994Y112904D01*
X-505938Y112948D01*
X-505910Y112992D01*
X-505874Y113030D01*
X-505844Y113095D01*
X-505805Y113155D01*
X-505793Y113206D01*
X-505771Y113253D01*
X-505763Y113324D01*
X-505745Y113394D01*
X-505749Y113446D01*
X-505744Y113497D01*
X-505759Y113568D01*
X-505765Y113639D01*
X-505785Y113687D01*
X-505796Y113738D01*
X-505833Y113799D01*
X-505861Y113865D01*
X-505906Y113921D01*
X-505922Y113949D01*
X-505940Y113964D01*
X-505966Y113996D01*
X-507061Y115091D01*
X-507061Y117777D01*
X-497662Y117777D01*
X-497642Y117780D01*
X-497623Y117778D01*
X-497521Y117800D01*
X-497419Y117817D01*
X-497402Y117826D01*
X-497382Y117830D01*
X-497293Y117883D01*
X-497202Y117932D01*
X-497188Y117946D01*
X-497171Y117956D01*
X-497104Y118035D01*
X-497033Y118110D01*
X-497024Y118128D01*
X-497011Y118143D01*
X-496973Y118239D01*
X-496929Y118333D01*
X-496927Y118353D01*
X-496919Y118371D01*
X-496901Y118538D01*
X-496901Y119301D01*
X-496899Y119301D01*
X-496899Y118538D01*
X-496896Y118518D01*
X-496898Y118499D01*
X-496876Y118397D01*
X-496859Y118295D01*
X-496850Y118278D01*
X-496846Y118258D01*
X-496793Y118169D01*
X-496744Y118078D01*
X-496730Y118064D01*
X-496720Y118047D01*
X-496641Y117980D01*
X-496566Y117909D01*
X-496548Y117900D01*
X-496533Y117887D01*
X-496437Y117848D01*
X-496343Y117805D01*
X-496323Y117803D01*
X-496305Y117795D01*
X-496138Y117777D01*
X-486739Y117777D01*
X-486739Y115091D01*
X-487834Y113996D01*
X-487876Y113938D01*
X-487926Y113886D01*
X-487947Y113839D01*
X-487978Y113797D01*
X-487999Y113728D01*
X-488029Y113663D01*
X-488035Y113611D01*
X-488050Y113561D01*
X-488048Y113490D01*
X-488056Y113419D01*
X-488045Y113368D01*
X-488044Y113316D01*
X-488019Y113248D01*
X-488004Y113178D01*
X-487977Y113133D01*
X-487959Y113085D01*
X-487915Y113029D01*
X-487878Y112967D01*
X-487838Y112933D01*
X-487806Y112893D01*
X-487745Y112854D01*
X-487691Y112807D01*
X-487643Y112788D01*
X-487599Y112760D01*
X-487529Y112742D01*
X-487463Y112715D01*
X-487391Y112707D01*
X-487360Y112699D01*
X-487337Y112701D01*
X-487296Y112697D01*
X-483089Y112697D01*
X-482999Y112711D01*
X-482908Y112719D01*
X-482878Y112731D01*
X-482847Y112736D01*
X-482766Y112779D01*
X-482682Y112815D01*
X-482650Y112841D01*
X-482629Y112852D01*
X-482607Y112875D01*
X-482551Y112920D01*
X-481558Y113912D01*
X-481547Y113929D01*
X-481531Y113941D01*
X-481475Y114028D01*
X-481415Y114112D01*
X-481409Y114131D01*
X-481398Y114148D01*
X-481373Y114248D01*
X-481342Y114347D01*
X-481343Y114367D01*
X-481338Y114386D01*
X-481346Y114489D01*
X-481349Y114593D01*
X-481356Y114612D01*
X-481357Y114632D01*
X-481398Y114727D01*
X-481433Y114824D01*
X-481446Y114840D01*
X-481454Y114858D01*
X-481558Y114989D01*
X-481661Y115091D01*
X-481661Y123509D01*
X-475709Y129461D01*
X-467291Y129461D01*
X-461339Y123509D01*
X-461339Y115091D01*
X-467291Y109139D01*
X-475709Y109139D01*
X-475811Y109242D01*
X-475827Y109253D01*
X-475840Y109269D01*
X-475927Y109325D01*
X-476011Y109385D01*
X-476030Y109391D01*
X-476047Y109402D01*
X-476147Y109427D01*
X-476246Y109458D01*
X-476266Y109457D01*
X-476285Y109462D01*
X-476388Y109454D01*
X-476492Y109451D01*
X-476510Y109444D01*
X-476530Y109443D01*
X-476625Y109402D01*
X-476723Y109367D01*
X-476738Y109354D01*
X-476757Y109346D01*
X-476888Y109242D01*
X-477880Y108249D01*
X-480038Y106091D01*
X-578571Y106091D01*
X-580729Y108249D01*
X-587417Y114937D01*
X-587433Y114949D01*
X-587446Y114964D01*
X-587533Y115020D01*
X-587617Y115081D01*
X-587636Y115086D01*
X-587653Y115097D01*
X-587753Y115122D01*
X-587852Y115153D01*
X-587872Y115152D01*
X-587891Y115157D01*
X-587994Y115149D01*
X-588098Y115147D01*
X-588116Y115140D01*
X-588136Y115138D01*
X-588231Y115098D01*
X-588329Y115062D01*
X-588344Y115050D01*
X-588363Y115042D01*
X-588494Y114937D01*
X-594291Y109139D01*
X-602709Y109139D01*
X-608661Y115091D01*
X-608661Y115236D01*
X-608664Y115256D01*
X-608662Y115275D01*
X-608684Y115377D01*
X-608700Y115479D01*
X-608710Y115496D01*
X-608714Y115516D01*
X-608767Y115605D01*
X-608816Y115696D01*
X-608830Y115710D01*
X-608840Y115727D01*
X-608919Y115794D01*
X-608994Y115866D01*
X-609012Y115874D01*
X-609027Y115887D01*
X-609123Y115926D01*
X-609217Y115969D01*
X-609237Y115971D01*
X-609255Y115979D01*
X-609422Y115997D01*
X-611259Y115997D01*
X-612440Y117178D01*
X-612498Y117220D01*
X-612550Y117269D01*
X-612597Y117291D01*
X-612639Y117322D01*
X-612708Y117343D01*
X-612773Y117373D01*
X-612825Y117379D01*
X-612875Y117394D01*
X-612946Y117392D01*
X-613017Y117400D01*
X-613068Y117389D01*
X-613120Y117388D01*
X-613188Y117363D01*
X-613258Y117348D01*
X-613303Y117321D01*
X-613351Y117303D01*
X-613407Y117258D01*
X-613469Y117222D01*
X-613503Y117182D01*
X-613543Y117150D01*
X-613582Y117089D01*
X-613629Y117035D01*
X-613648Y116986D01*
X-613676Y116943D01*
X-613694Y116873D01*
X-613721Y116807D01*
X-613729Y116735D01*
X-613737Y116704D01*
X-613735Y116681D01*
X-613739Y116640D01*
X-613739Y115091D01*
X-619691Y109139D01*
X-619836Y109139D01*
X-619856Y109136D01*
X-619875Y109138D01*
X-619977Y109116D01*
X-620079Y109100D01*
X-620096Y109090D01*
X-620116Y109086D01*
X-620205Y109033D01*
X-620296Y108984D01*
X-620310Y108970D01*
X-620327Y108960D01*
X-620394Y108881D01*
X-620466Y108806D01*
X-620474Y108788D01*
X-620487Y108773D01*
X-620526Y108677D01*
X-620569Y108583D01*
X-620571Y108563D01*
X-620579Y108545D01*
X-620597Y108378D01*
X-620597Y105583D01*
X-620583Y105493D01*
X-620575Y105402D01*
X-620563Y105373D01*
X-620558Y105341D01*
X-620515Y105260D01*
X-620479Y105176D01*
X-620453Y105144D01*
X-620442Y105123D01*
X-620419Y105101D01*
X-620374Y105045D01*
X-613376Y98046D01*
X-613280Y97978D01*
X-613187Y97908D01*
X-613181Y97906D01*
X-613176Y97903D01*
X-613064Y97868D01*
X-612953Y97832D01*
X-612947Y97832D01*
X-612941Y97830D01*
X-612824Y97833D01*
X-612707Y97835D01*
X-612700Y97837D01*
X-612695Y97837D01*
X-612678Y97843D01*
X-612546Y97881D01*
X-611642Y98256D01*
X-608358Y98256D01*
X-605323Y96999D01*
X-603001Y94677D01*
X-602627Y93773D01*
X-602565Y93673D01*
X-602505Y93573D01*
X-602501Y93569D01*
X-602497Y93564D01*
X-602407Y93489D01*
X-602318Y93413D01*
X-602312Y93411D01*
X-602308Y93407D01*
X-602199Y93365D01*
X-602090Y93321D01*
X-602083Y93320D01*
X-602078Y93319D01*
X-602060Y93318D01*
X-601923Y93303D01*
X-318632Y93303D01*
X-208855Y-16474D01*
X-208781Y-16527D01*
X-208712Y-16587D01*
X-208681Y-16599D01*
X-208655Y-16618D01*
X-208568Y-16645D01*
X-208483Y-16679D01*
X-208442Y-16683D01*
X-208420Y-16690D01*
X-208388Y-16689D01*
X-208317Y-16697D01*
X-203479Y-16697D01*
X-203389Y-16683D01*
X-203298Y-16675D01*
X-203269Y-16663D01*
X-203237Y-16658D01*
X-203156Y-16615D01*
X-203072Y-16579D01*
X-203040Y-16553D01*
X-203019Y-16542D01*
X-202997Y-16519D01*
X-202941Y-16474D01*
X-201894Y-15427D01*
X-198106Y-15427D01*
X-195427Y-18106D01*
X-195427Y-21894D01*
X-197995Y-24462D01*
X-198007Y-24478D01*
X-198022Y-24490D01*
X-198078Y-24578D01*
X-198138Y-24661D01*
X-198144Y-24680D01*
X-198155Y-24697D01*
X-198180Y-24798D01*
X-198211Y-24897D01*
X-198210Y-24916D01*
X-198215Y-24936D01*
X-198207Y-25039D01*
X-198204Y-25142D01*
X-198198Y-25161D01*
X-198196Y-25181D01*
X-198156Y-25276D01*
X-198120Y-25373D01*
X-198107Y-25389D01*
X-198100Y-25407D01*
X-197995Y-25538D01*
X-195427Y-28106D01*
X-195427Y-31894D01*
X-198106Y-34573D01*
X-201894Y-34573D01*
X-202941Y-33526D01*
X-203015Y-33473D01*
X-203085Y-33413D01*
X-203115Y-33401D01*
X-203141Y-33382D01*
X-203228Y-33355D01*
X-203313Y-33321D01*
X-203354Y-33317D01*
X-203376Y-33310D01*
X-203408Y-33311D01*
X-203479Y-33303D01*
X-211368Y-33303D01*
X-213526Y-31145D01*
X-323144Y78473D01*
X-323218Y78526D01*
X-323287Y78586D01*
X-323318Y78598D01*
X-323344Y78617D01*
X-323431Y78644D01*
X-323516Y78678D01*
X-323557Y78682D01*
X-323579Y78689D01*
X-323611Y78688D01*
X-323682Y78696D01*
X-614682Y78696D01*
X-616840Y80854D01*
X-622460Y86474D01*
X-622534Y86527D01*
X-622604Y86587D01*
X-622634Y86599D01*
X-622660Y86618D01*
X-622747Y86645D01*
X-622832Y86679D01*
X-622873Y86683D01*
X-622895Y86690D01*
X-622927Y86689D01*
X-622998Y86697D01*
X-631923Y86697D01*
X-632038Y86678D01*
X-632154Y86661D01*
X-632160Y86659D01*
X-632166Y86658D01*
X-632269Y86603D01*
X-632374Y86550D01*
X-632378Y86545D01*
X-632384Y86542D01*
X-632463Y86458D01*
X-632546Y86374D01*
X-632550Y86368D01*
X-632553Y86364D01*
X-632561Y86347D01*
X-632627Y86227D01*
X-633001Y85323D01*
X-633789Y84536D01*
X-633800Y84520D01*
X-633816Y84507D01*
X-633872Y84420D01*
X-633932Y84336D01*
X-633938Y84317D01*
X-633949Y84300D01*
X-633974Y84200D01*
X-634005Y84101D01*
X-634004Y84081D01*
X-634009Y84062D01*
X-634001Y83959D01*
X-633998Y83855D01*
X-633991Y83837D01*
X-633990Y83817D01*
X-633949Y83722D01*
X-633914Y83624D01*
X-633901Y83609D01*
X-633893Y83590D01*
X-633789Y83459D01*
X-633473Y83144D01*
X-603855Y53526D01*
X-603781Y53473D01*
X-603712Y53413D01*
X-603681Y53401D01*
X-603655Y53382D01*
X-603568Y53355D01*
X-603483Y53321D01*
X-603442Y53317D01*
X-603420Y53310D01*
X-603388Y53311D01*
X-603317Y53303D01*
X-564802Y53303D01*
X-564782Y53306D01*
X-564763Y53304D01*
X-564661Y53326D01*
X-564559Y53342D01*
X-564542Y53352D01*
X-564522Y53356D01*
X-564433Y53409D01*
X-564342Y53458D01*
X-564328Y53472D01*
X-564311Y53482D01*
X-564244Y53561D01*
X-564172Y53636D01*
X-564164Y53654D01*
X-564151Y53669D01*
X-564112Y53765D01*
X-564069Y53859D01*
X-564067Y53879D01*
X-564059Y53897D01*
X-564041Y54064D01*
X-564041Y55052D01*
X-562552Y56541D01*
X-552448Y56541D01*
X-550959Y55052D01*
X-550959Y44948D01*
X-552448Y43459D01*
X-562552Y43459D01*
X-564041Y44948D01*
X-564041Y45936D01*
X-564044Y45956D01*
X-564042Y45975D01*
X-564064Y46077D01*
X-564080Y46179D01*
X-564090Y46196D01*
X-564094Y46216D01*
X-564147Y46305D01*
X-564196Y46396D01*
X-564210Y46410D01*
X-564220Y46427D01*
X-564299Y46494D01*
X-564374Y46566D01*
X-564392Y46574D01*
X-564407Y46587D01*
X-564503Y46626D01*
X-564597Y46669D01*
X-564617Y46671D01*
X-564635Y46679D01*
X-564802Y46697D01*
X-606368Y46697D01*
X-638144Y78473D01*
X-638218Y78526D01*
X-638287Y78586D01*
X-638318Y78598D01*
X-638344Y78617D01*
X-638431Y78644D01*
X-638516Y78678D01*
X-638557Y78682D01*
X-638579Y78689D01*
X-638611Y78688D01*
X-638682Y78696D01*
X-652988Y78696D01*
X-653058Y78685D01*
X-653130Y78683D01*
X-653179Y78665D01*
X-653230Y78657D01*
X-653294Y78623D01*
X-653361Y78598D01*
X-653402Y78566D01*
X-653448Y78541D01*
X-653497Y78489D01*
X-653553Y78445D01*
X-653581Y78401D01*
X-653617Y78363D01*
X-653647Y78298D01*
X-653686Y78238D01*
X-653699Y78187D01*
X-653721Y78140D01*
X-653729Y78069D01*
X-653746Y77999D01*
X-653742Y77947D01*
X-653748Y77896D01*
X-653733Y77825D01*
X-653727Y77754D01*
X-653707Y77706D01*
X-653696Y77655D01*
X-653659Y77594D01*
X-653631Y77528D01*
X-653586Y77472D01*
X-653569Y77444D01*
X-653552Y77429D01*
X-653526Y77397D01*
X-476888Y-99242D01*
X-476871Y-99253D01*
X-476859Y-99269D01*
X-476772Y-99325D01*
X-476688Y-99385D01*
X-476669Y-99391D01*
X-476652Y-99402D01*
X-476552Y-99427D01*
X-476453Y-99458D01*
X-476433Y-99457D01*
X-476414Y-99462D01*
X-476311Y-99454D01*
X-476207Y-99451D01*
X-476188Y-99444D01*
X-476168Y-99443D01*
X-476073Y-99402D01*
X-475976Y-99367D01*
X-475960Y-99354D01*
X-475942Y-99346D01*
X-475811Y-99242D01*
X-475709Y-99139D01*
X-467291Y-99139D01*
X-461339Y-105091D01*
X-461339Y-113509D01*
X-467291Y-119461D01*
X-475709Y-119461D01*
X-481661Y-113509D01*
X-481661Y-105091D01*
X-481558Y-104989D01*
X-481547Y-104973D01*
X-481531Y-104960D01*
X-481475Y-104873D01*
X-481415Y-104789D01*
X-481409Y-104770D01*
X-481398Y-104753D01*
X-481373Y-104653D01*
X-481342Y-104554D01*
X-481343Y-104534D01*
X-481338Y-104515D01*
X-481346Y-104412D01*
X-481349Y-104308D01*
X-481356Y-104290D01*
X-481357Y-104270D01*
X-481398Y-104175D01*
X-481433Y-104077D01*
X-481446Y-104062D01*
X-481454Y-104043D01*
X-481558Y-103912D01*
X-534660Y-50811D01*
X-534718Y-50769D01*
X-534770Y-50720D01*
X-534817Y-50698D01*
X-534859Y-50667D01*
X-534928Y-50646D01*
X-534993Y-50616D01*
X-535045Y-50610D01*
X-535095Y-50595D01*
X-535166Y-50597D01*
X-535237Y-50589D01*
X-535288Y-50600D01*
X-535340Y-50601D01*
X-535408Y-50626D01*
X-535478Y-50641D01*
X-535522Y-50668D01*
X-535571Y-50686D01*
X-535627Y-50731D01*
X-535689Y-50768D01*
X-535723Y-50807D01*
X-535763Y-50840D01*
X-535802Y-50900D01*
X-535849Y-50954D01*
X-535868Y-51003D01*
X-535896Y-51047D01*
X-535914Y-51116D01*
X-535941Y-51183D01*
X-535949Y-51254D01*
X-535957Y-51285D01*
X-535955Y-51308D01*
X-535959Y-51349D01*
X-535959Y-54334D01*
X-536132Y-54981D01*
X-536467Y-55560D01*
X-536940Y-56033D01*
X-537519Y-56368D01*
X-538166Y-56541D01*
X-540977Y-56541D01*
X-540977Y-50762D01*
X-540980Y-50742D01*
X-540978Y-50723D01*
X-541000Y-50621D01*
X-541017Y-50519D01*
X-541026Y-50502D01*
X-541030Y-50482D01*
X-541083Y-50393D01*
X-541132Y-50302D01*
X-541146Y-50288D01*
X-541156Y-50271D01*
X-541235Y-50204D01*
X-541310Y-50133D01*
X-541328Y-50124D01*
X-541343Y-50111D01*
X-541439Y-50072D01*
X-541533Y-50029D01*
X-541553Y-50027D01*
X-541571Y-50019D01*
X-541738Y-50001D01*
X-542501Y-50001D01*
X-542501Y-49238D01*
X-542504Y-49218D01*
X-542502Y-49199D01*
X-542524Y-49097D01*
X-542541Y-48995D01*
X-542550Y-48978D01*
X-542554Y-48958D01*
X-542607Y-48869D01*
X-542656Y-48778D01*
X-542670Y-48764D01*
X-542680Y-48747D01*
X-542759Y-48680D01*
X-542834Y-48609D01*
X-542852Y-48600D01*
X-542867Y-48587D01*
X-542963Y-48548D01*
X-543057Y-48505D01*
X-543077Y-48503D01*
X-543095Y-48495D01*
X-543262Y-48477D01*
X-549041Y-48477D01*
X-549041Y-45666D01*
X-548868Y-45019D01*
X-548533Y-44440D01*
X-548060Y-43967D01*
X-547481Y-43632D01*
X-546834Y-43459D01*
X-543849Y-43459D01*
X-543779Y-43448D01*
X-543707Y-43446D01*
X-543658Y-43428D01*
X-543607Y-43420D01*
X-543543Y-43386D01*
X-543476Y-43361D01*
X-543435Y-43329D01*
X-543389Y-43304D01*
X-543340Y-43252D01*
X-543284Y-43208D01*
X-543256Y-43164D01*
X-543220Y-43126D01*
X-543190Y-43061D01*
X-543151Y-43001D01*
X-543138Y-42950D01*
X-543116Y-42903D01*
X-543108Y-42832D01*
X-543091Y-42762D01*
X-543095Y-42710D01*
X-543089Y-42659D01*
X-543104Y-42588D01*
X-543110Y-42517D01*
X-543130Y-42469D01*
X-543141Y-42418D01*
X-543178Y-42357D01*
X-543206Y-42291D01*
X-543251Y-42235D01*
X-543268Y-42207D01*
X-543285Y-42192D01*
X-543311Y-42160D01*
X-691339Y105868D01*
X-691413Y105921D01*
X-691482Y105981D01*
X-691513Y105993D01*
X-691539Y106012D01*
X-691626Y106039D01*
X-691711Y106073D01*
X-691752Y106077D01*
X-691774Y106084D01*
X-691806Y106083D01*
X-691877Y106091D01*
X-724103Y106091D01*
X-724173Y106080D01*
X-724245Y106078D01*
X-724294Y106060D01*
X-724345Y106052D01*
X-724409Y106018D01*
X-724476Y105993D01*
X-724517Y105961D01*
X-724563Y105936D01*
X-724612Y105884D01*
X-724668Y105840D01*
X-724696Y105796D01*
X-724732Y105758D01*
X-724762Y105693D01*
X-724801Y105633D01*
X-724814Y105582D01*
X-724836Y105535D01*
X-724844Y105464D01*
X-724861Y105394D01*
X-724857Y105342D01*
X-724863Y105291D01*
X-724847Y105220D01*
X-724842Y105149D01*
X-724822Y105101D01*
X-724810Y105050D01*
X-724774Y104989D01*
X-724746Y104923D01*
X-724701Y104867D01*
X-724684Y104839D01*
X-724667Y104824D01*
X-724641Y104792D01*
X-595197Y-24652D01*
X-595197Y-98378D01*
X-595194Y-98398D01*
X-595196Y-98417D01*
X-595174Y-98519D01*
X-595158Y-98621D01*
X-595148Y-98638D01*
X-595144Y-98658D01*
X-595091Y-98747D01*
X-595042Y-98838D01*
X-595028Y-98852D01*
X-595018Y-98869D01*
X-594939Y-98936D01*
X-594864Y-99008D01*
X-594846Y-99016D01*
X-594831Y-99029D01*
X-594735Y-99068D01*
X-594641Y-99111D01*
X-594621Y-99113D01*
X-594603Y-99121D01*
X-594436Y-99139D01*
X-594291Y-99139D01*
X-588339Y-105091D01*
X-588339Y-113509D01*
X-594291Y-119461D01*
X-602709Y-119461D01*
X-608661Y-113509D01*
X-608661Y-105091D01*
X-602709Y-99139D01*
X-602564Y-99139D01*
X-602544Y-99136D01*
X-602525Y-99138D01*
X-602423Y-99116D01*
X-602321Y-99100D01*
X-602304Y-99090D01*
X-602284Y-99086D01*
X-602195Y-99033D01*
X-602104Y-98984D01*
X-602090Y-98970D01*
X-602073Y-98960D01*
X-602006Y-98881D01*
X-601934Y-98806D01*
X-601926Y-98788D01*
X-601913Y-98773D01*
X-601874Y-98677D01*
X-601831Y-98583D01*
X-601829Y-98563D01*
X-601821Y-98545D01*
X-601803Y-98378D01*
X-601803Y-37601D01*
X-601817Y-37511D01*
X-601825Y-37420D01*
X-601837Y-37390D01*
X-601842Y-37358D01*
X-601885Y-37278D01*
X-601921Y-37194D01*
X-601947Y-37162D01*
X-601958Y-37141D01*
X-601981Y-37119D01*
X-602026Y-37063D01*
X-700712Y61623D01*
X-700722Y61630D01*
X-700729Y61640D01*
X-700821Y61702D01*
X-700912Y61767D01*
X-700923Y61770D01*
X-700933Y61777D01*
X-701040Y61806D01*
X-701147Y61839D01*
X-701159Y61839D01*
X-701170Y61842D01*
X-701281Y61836D01*
X-701393Y61833D01*
X-701404Y61829D01*
X-701416Y61828D01*
X-701519Y61787D01*
X-701624Y61748D01*
X-701633Y61741D01*
X-701644Y61736D01*
X-701729Y61664D01*
X-701816Y61595D01*
X-701822Y61585D01*
X-701831Y61577D01*
X-701888Y61482D01*
X-701949Y61388D01*
X-701952Y61376D01*
X-701958Y61366D01*
X-702002Y61204D01*
X-702280Y59446D01*
X-702915Y57494D01*
X-703847Y55665D01*
X-705053Y54004D01*
X-706504Y52553D01*
X-708165Y51347D01*
X-709994Y50415D01*
X-711946Y49780D01*
X-713477Y49538D01*
X-713477Y61738D01*
X-713480Y61758D01*
X-713478Y61777D01*
X-713500Y61879D01*
X-713517Y61981D01*
X-713526Y61998D01*
X-713530Y62018D01*
X-713583Y62107D01*
X-713632Y62198D01*
X-713646Y62212D01*
X-713656Y62229D01*
X-713735Y62296D01*
X-713810Y62367D01*
X-713828Y62376D01*
X-713843Y62389D01*
X-713939Y62427D01*
X-714033Y62471D01*
X-714053Y62473D01*
X-714071Y62481D01*
X-714238Y62499D01*
X-715001Y62499D01*
X-715001Y63262D01*
X-715004Y63282D01*
X-715002Y63301D01*
X-715024Y63403D01*
X-715041Y63505D01*
X-715050Y63522D01*
X-715054Y63542D01*
X-715107Y63631D01*
X-715156Y63722D01*
X-715170Y63736D01*
X-715180Y63753D01*
X-715259Y63820D01*
X-715334Y63891D01*
X-715352Y63900D01*
X-715367Y63913D01*
X-715463Y63952D01*
X-715557Y63995D01*
X-715577Y63997D01*
X-715595Y64005D01*
X-715762Y64023D01*
X-727962Y64023D01*
X-727720Y65554D01*
X-727085Y67506D01*
X-726153Y69335D01*
X-724947Y70996D01*
X-723532Y72410D01*
X-723521Y72426D01*
X-723505Y72439D01*
X-723449Y72526D01*
X-723389Y72610D01*
X-723383Y72629D01*
X-723372Y72646D01*
X-723347Y72746D01*
X-723316Y72845D01*
X-723317Y72865D01*
X-723312Y72884D01*
X-723320Y72987D01*
X-723323Y73091D01*
X-723330Y73110D01*
X-723331Y73129D01*
X-723372Y73224D01*
X-723407Y73322D01*
X-723420Y73337D01*
X-723428Y73356D01*
X-723532Y73487D01*
X-724187Y74141D01*
X-734782Y84736D01*
X-734856Y84789D01*
X-734925Y84849D01*
X-734956Y84861D01*
X-734982Y84880D01*
X-735069Y84907D01*
X-735154Y84941D01*
X-735195Y84945D01*
X-735217Y84952D01*
X-735249Y84951D01*
X-735320Y84959D01*
X-738195Y84959D01*
X-739462Y86226D01*
X-739478Y86237D01*
X-739490Y86253D01*
X-739577Y86309D01*
X-739661Y86369D01*
X-739680Y86375D01*
X-739697Y86386D01*
X-739798Y86411D01*
X-739897Y86442D01*
X-739916Y86441D01*
X-739936Y86446D01*
X-740039Y86438D01*
X-740142Y86435D01*
X-740161Y86428D01*
X-740181Y86427D01*
X-740276Y86387D01*
X-740373Y86351D01*
X-740389Y86338D01*
X-740407Y86331D01*
X-740538Y86226D01*
X-741099Y85665D01*
X-741153Y85591D01*
X-741212Y85521D01*
X-741224Y85491D01*
X-741243Y85465D01*
X-741270Y85378D01*
X-741304Y85293D01*
X-741308Y85252D01*
X-741315Y85230D01*
X-741314Y85198D01*
X-741322Y85126D01*
X-741322Y81507D01*
X-743480Y79349D01*
X-753291Y69538D01*
X-753359Y69443D01*
X-753429Y69349D01*
X-753431Y69343D01*
X-753435Y69338D01*
X-753469Y69227D01*
X-753505Y69115D01*
X-753505Y69109D01*
X-753507Y69103D01*
X-753504Y68986D01*
X-753503Y68869D01*
X-753501Y68862D01*
X-753501Y68857D01*
X-753495Y68840D01*
X-753456Y68708D01*
X-751959Y65094D01*
X-751959Y59906D01*
X-753945Y55113D01*
X-757613Y51445D01*
X-761227Y49948D01*
X-761327Y49886D01*
X-761427Y49826D01*
X-761431Y49821D01*
X-761436Y49818D01*
X-761511Y49727D01*
X-761587Y49639D01*
X-761589Y49633D01*
X-761593Y49628D01*
X-761635Y49520D01*
X-761679Y49411D01*
X-761680Y49403D01*
X-761681Y49399D01*
X-761682Y49381D01*
X-761697Y49244D01*
X-761697Y-49244D01*
X-761678Y-49359D01*
X-761661Y-49475D01*
X-761659Y-49481D01*
X-761658Y-49487D01*
X-761603Y-49590D01*
X-761550Y-49694D01*
X-761545Y-49699D01*
X-761542Y-49704D01*
X-761458Y-49784D01*
X-761374Y-49867D01*
X-761368Y-49870D01*
X-761364Y-49874D01*
X-761347Y-49882D01*
X-761227Y-49948D01*
X-757613Y-51445D01*
X-753945Y-55113D01*
X-751959Y-59906D01*
X-751959Y-65094D01*
X-753456Y-68708D01*
X-753483Y-68822D01*
X-753512Y-68935D01*
X-753511Y-68942D01*
X-753513Y-68948D01*
X-753502Y-69064D01*
X-753492Y-69181D01*
X-753490Y-69186D01*
X-753489Y-69193D01*
X-753442Y-69300D01*
X-753396Y-69407D01*
X-753392Y-69413D01*
X-753389Y-69417D01*
X-753377Y-69431D01*
X-753291Y-69538D01*
X-747597Y-75232D01*
X-747597Y-98378D01*
X-747594Y-98398D01*
X-747596Y-98417D01*
X-747574Y-98519D01*
X-747558Y-98621D01*
X-747548Y-98638D01*
X-747544Y-98658D01*
X-747491Y-98747D01*
X-747442Y-98838D01*
X-747428Y-98852D01*
X-747418Y-98869D01*
X-747339Y-98936D01*
X-747264Y-99008D01*
X-747246Y-99016D01*
X-747231Y-99029D01*
X-747135Y-99068D01*
X-747041Y-99111D01*
X-747021Y-99113D01*
X-747003Y-99121D01*
X-746836Y-99139D01*
X-746691Y-99139D01*
X-740739Y-105091D01*
X-740739Y-113509D01*
X-746691Y-119461D01*
X-755109Y-119461D01*
G37*
%LPD*%
%LPC*%
G36*
X-323309Y-119461D02*
X-323309Y-119461D01*
X-329261Y-113509D01*
X-329261Y-105091D01*
X-329158Y-104989D01*
X-329147Y-104973D01*
X-329131Y-104960D01*
X-329075Y-104873D01*
X-329015Y-104789D01*
X-329009Y-104770D01*
X-328998Y-104753D01*
X-328973Y-104653D01*
X-328942Y-104554D01*
X-328943Y-104534D01*
X-328938Y-104515D01*
X-328946Y-104412D01*
X-328949Y-104308D01*
X-328956Y-104290D01*
X-328957Y-104270D01*
X-328998Y-104175D01*
X-329033Y-104077D01*
X-329046Y-104062D01*
X-329054Y-104043D01*
X-329158Y-103912D01*
X-361145Y-71926D01*
X-363303Y-69768D01*
X-363303Y-40885D01*
X-363322Y-40770D01*
X-363339Y-40654D01*
X-363341Y-40648D01*
X-363342Y-40642D01*
X-363397Y-40540D01*
X-363450Y-40435D01*
X-363455Y-40430D01*
X-363458Y-40425D01*
X-363542Y-40345D01*
X-363626Y-40263D01*
X-363632Y-40259D01*
X-363636Y-40256D01*
X-363653Y-40248D01*
X-363773Y-40182D01*
X-364838Y-39740D01*
X-367240Y-37338D01*
X-368541Y-34199D01*
X-368541Y-30801D01*
X-367240Y-27662D01*
X-364838Y-25260D01*
X-361699Y-23959D01*
X-358301Y-23959D01*
X-355162Y-25260D01*
X-352760Y-27662D01*
X-351459Y-30801D01*
X-351459Y-34199D01*
X-352760Y-37338D01*
X-355162Y-39740D01*
X-356227Y-40182D01*
X-356327Y-40244D01*
X-356427Y-40303D01*
X-356431Y-40308D01*
X-356436Y-40311D01*
X-356511Y-40402D01*
X-356587Y-40490D01*
X-356589Y-40496D01*
X-356593Y-40501D01*
X-356635Y-40609D01*
X-356679Y-40718D01*
X-356680Y-40726D01*
X-356681Y-40730D01*
X-356682Y-40749D01*
X-356697Y-40885D01*
X-356697Y-66717D01*
X-356682Y-66807D01*
X-356675Y-66898D01*
X-356663Y-66927D01*
X-356658Y-66959D01*
X-356615Y-67040D01*
X-356579Y-67124D01*
X-356553Y-67156D01*
X-356542Y-67177D01*
X-356519Y-67199D01*
X-356474Y-67255D01*
X-324488Y-99242D01*
X-324471Y-99253D01*
X-324459Y-99269D01*
X-324372Y-99325D01*
X-324288Y-99385D01*
X-324269Y-99391D01*
X-324252Y-99402D01*
X-324152Y-99427D01*
X-324053Y-99458D01*
X-324033Y-99457D01*
X-324014Y-99462D01*
X-323911Y-99454D01*
X-323807Y-99451D01*
X-323788Y-99444D01*
X-323768Y-99443D01*
X-323673Y-99402D01*
X-323576Y-99367D01*
X-323560Y-99354D01*
X-323542Y-99346D01*
X-323411Y-99242D01*
X-323309Y-99139D01*
X-314891Y-99139D01*
X-308939Y-105091D01*
X-308939Y-113509D01*
X-314891Y-119461D01*
X-323309Y-119461D01*
G37*
%LPD*%
%LPC*%
G36*
X-526509Y-119461D02*
X-526509Y-119461D01*
X-532461Y-113509D01*
X-532461Y-105091D01*
X-532358Y-104989D01*
X-532347Y-104973D01*
X-532331Y-104960D01*
X-532275Y-104873D01*
X-532215Y-104789D01*
X-532209Y-104770D01*
X-532198Y-104753D01*
X-532173Y-104653D01*
X-532142Y-104554D01*
X-532143Y-104534D01*
X-532138Y-104515D01*
X-532146Y-104412D01*
X-532149Y-104308D01*
X-532156Y-104290D01*
X-532157Y-104270D01*
X-532198Y-104175D01*
X-532233Y-104077D01*
X-532246Y-104062D01*
X-532254Y-104043D01*
X-532358Y-103912D01*
X-558645Y-77626D01*
X-560803Y-75468D01*
X-560803Y-57302D01*
X-560806Y-57282D01*
X-560804Y-57263D01*
X-560826Y-57161D01*
X-560842Y-57059D01*
X-560852Y-57042D01*
X-560856Y-57022D01*
X-560909Y-56933D01*
X-560958Y-56842D01*
X-560972Y-56828D01*
X-560982Y-56811D01*
X-561061Y-56744D01*
X-561136Y-56672D01*
X-561154Y-56664D01*
X-561169Y-56651D01*
X-561265Y-56612D01*
X-561359Y-56569D01*
X-561379Y-56567D01*
X-561397Y-56559D01*
X-561564Y-56541D01*
X-562552Y-56541D01*
X-564041Y-55052D01*
X-564041Y-44948D01*
X-562552Y-43459D01*
X-552448Y-43459D01*
X-550959Y-44948D01*
X-550959Y-55052D01*
X-552448Y-56541D01*
X-553436Y-56541D01*
X-553456Y-56544D01*
X-553475Y-56542D01*
X-553577Y-56564D01*
X-553679Y-56580D01*
X-553696Y-56590D01*
X-553716Y-56594D01*
X-553805Y-56647D01*
X-553896Y-56696D01*
X-553910Y-56710D01*
X-553927Y-56720D01*
X-553994Y-56799D01*
X-554066Y-56874D01*
X-554074Y-56892D01*
X-554087Y-56907D01*
X-554126Y-57003D01*
X-554169Y-57097D01*
X-554171Y-57117D01*
X-554179Y-57135D01*
X-554197Y-57302D01*
X-554197Y-72417D01*
X-554195Y-72432D01*
X-554196Y-72445D01*
X-554182Y-72510D01*
X-554175Y-72598D01*
X-554163Y-72627D01*
X-554158Y-72659D01*
X-554144Y-72684D01*
X-554144Y-72686D01*
X-554140Y-72693D01*
X-554115Y-72740D01*
X-554079Y-72824D01*
X-554053Y-72856D01*
X-554042Y-72877D01*
X-554019Y-72899D01*
X-553974Y-72955D01*
X-527688Y-99242D01*
X-527671Y-99253D01*
X-527659Y-99269D01*
X-527572Y-99325D01*
X-527488Y-99385D01*
X-527469Y-99391D01*
X-527452Y-99402D01*
X-527352Y-99427D01*
X-527253Y-99458D01*
X-527233Y-99457D01*
X-527214Y-99462D01*
X-527111Y-99454D01*
X-527007Y-99451D01*
X-526988Y-99444D01*
X-526968Y-99443D01*
X-526873Y-99402D01*
X-526776Y-99367D01*
X-526760Y-99354D01*
X-526742Y-99346D01*
X-526611Y-99242D01*
X-526509Y-99139D01*
X-518091Y-99139D01*
X-512139Y-105091D01*
X-512139Y-113509D01*
X-518091Y-119461D01*
X-526509Y-119461D01*
G37*
%LPD*%
%LPC*%
G36*
X-759572Y-144861D02*
X-759572Y-144861D01*
X-761061Y-143372D01*
X-761061Y-126028D01*
X-759572Y-124539D01*
X-742228Y-124539D01*
X-740739Y-126028D01*
X-740739Y-143372D01*
X-742228Y-144861D01*
X-759572Y-144861D01*
G37*
%LPD*%
%LPC*%
G36*
X-755109Y134539D02*
X-755109Y134539D01*
X-761061Y140491D01*
X-761061Y148909D01*
X-755109Y154861D01*
X-746691Y154861D01*
X-740739Y148909D01*
X-740739Y140491D01*
X-746691Y134539D01*
X-755109Y134539D01*
G37*
%LPD*%
%LPC*%
G36*
X-348709Y134539D02*
X-348709Y134539D01*
X-354661Y140491D01*
X-354661Y148909D01*
X-348709Y154861D01*
X-340291Y154861D01*
X-334339Y148909D01*
X-334339Y140491D01*
X-340291Y134539D01*
X-348709Y134539D01*
G37*
%LPD*%
%LPC*%
G36*
X-526509Y134539D02*
X-526509Y134539D01*
X-532461Y140491D01*
X-532461Y148909D01*
X-526509Y154861D01*
X-518091Y154861D01*
X-512139Y148909D01*
X-512139Y140491D01*
X-518091Y134539D01*
X-526509Y134539D01*
G37*
%LPD*%
%LPC*%
G36*
X-424909Y134539D02*
X-424909Y134539D01*
X-430861Y140491D01*
X-430861Y148909D01*
X-424909Y154861D01*
X-416491Y154861D01*
X-410539Y148909D01*
X-410539Y140491D01*
X-416491Y134539D01*
X-424909Y134539D01*
G37*
%LPD*%
%LPC*%
G36*
X-501109Y134539D02*
X-501109Y134539D01*
X-507061Y140491D01*
X-507061Y148909D01*
X-501109Y154861D01*
X-492691Y154861D01*
X-486739Y148909D01*
X-486739Y140491D01*
X-492691Y134539D01*
X-501109Y134539D01*
G37*
%LPD*%
%LPC*%
G36*
X-475709Y134539D02*
X-475709Y134539D01*
X-481661Y140491D01*
X-481661Y148909D01*
X-475709Y154861D01*
X-467291Y154861D01*
X-461339Y148909D01*
X-461339Y140491D01*
X-467291Y134539D01*
X-475709Y134539D01*
G37*
%LPD*%
%LPC*%
G36*
X-323309Y134539D02*
X-323309Y134539D01*
X-329261Y140491D01*
X-329261Y148909D01*
X-323309Y154861D01*
X-314891Y154861D01*
X-308939Y148909D01*
X-308939Y140491D01*
X-314891Y134539D01*
X-323309Y134539D01*
G37*
%LPD*%
%LPC*%
G36*
X-450309Y134539D02*
X-450309Y134539D01*
X-456261Y140491D01*
X-456261Y148909D01*
X-450309Y154861D01*
X-441891Y154861D01*
X-435939Y148909D01*
X-435939Y140491D01*
X-441891Y134539D01*
X-450309Y134539D01*
G37*
%LPD*%
%LPC*%
G36*
X-374109Y134539D02*
X-374109Y134539D01*
X-380061Y140491D01*
X-380061Y148909D01*
X-374109Y154861D01*
X-365691Y154861D01*
X-359739Y148909D01*
X-359739Y140491D01*
X-365691Y134539D01*
X-374109Y134539D01*
G37*
%LPD*%
%LPC*%
G36*
X-628109Y-119461D02*
X-628109Y-119461D01*
X-634061Y-113509D01*
X-634061Y-105091D01*
X-628109Y-99139D01*
X-619691Y-99139D01*
X-613739Y-105091D01*
X-613739Y-113509D01*
X-619691Y-119461D01*
X-628109Y-119461D01*
G37*
%LPD*%
%LPC*%
G36*
X-399509Y-119461D02*
X-399509Y-119461D01*
X-405461Y-113509D01*
X-405461Y-105091D01*
X-399509Y-99139D01*
X-391091Y-99139D01*
X-385139Y-105091D01*
X-385139Y-113509D01*
X-391091Y-119461D01*
X-399509Y-119461D01*
G37*
%LPD*%
%LPC*%
G36*
X-348709Y109139D02*
X-348709Y109139D01*
X-354661Y115091D01*
X-354661Y123509D01*
X-348709Y129461D01*
X-340291Y129461D01*
X-334339Y123509D01*
X-334339Y115091D01*
X-340291Y109139D01*
X-348709Y109139D01*
G37*
%LPD*%
%LPC*%
G36*
X-399509Y109139D02*
X-399509Y109139D01*
X-405461Y115091D01*
X-405461Y123509D01*
X-399509Y129461D01*
X-391091Y129461D01*
X-385139Y123509D01*
X-385139Y115091D01*
X-391091Y109139D01*
X-399509Y109139D01*
G37*
%LPD*%
%LPC*%
G36*
X-323309Y109139D02*
X-323309Y109139D01*
X-329261Y115091D01*
X-329261Y123509D01*
X-323309Y129461D01*
X-314891Y129461D01*
X-308939Y123509D01*
X-308939Y115091D01*
X-314891Y109139D01*
X-323309Y109139D01*
G37*
%LPD*%
%LPC*%
G36*
X-374109Y109139D02*
X-374109Y109139D01*
X-380061Y115091D01*
X-380061Y123509D01*
X-374109Y129461D01*
X-365691Y129461D01*
X-359739Y123509D01*
X-359739Y115091D01*
X-365691Y109139D01*
X-374109Y109139D01*
G37*
%LPD*%
%LPC*%
G36*
X-450309Y109139D02*
X-450309Y109139D01*
X-456261Y115091D01*
X-456261Y123509D01*
X-450309Y129461D01*
X-441891Y129461D01*
X-435939Y123509D01*
X-435939Y115091D01*
X-441891Y109139D01*
X-450309Y109139D01*
G37*
%LPD*%
%LPC*%
G36*
X-424909Y109139D02*
X-424909Y109139D01*
X-430861Y115091D01*
X-430861Y123509D01*
X-424909Y129461D01*
X-416491Y129461D01*
X-410539Y123509D01*
X-410539Y115091D01*
X-416491Y109139D01*
X-424909Y109139D01*
G37*
%LPD*%
%LPC*%
G36*
X-501109Y-144861D02*
X-501109Y-144861D01*
X-507061Y-138909D01*
X-507061Y-130491D01*
X-501109Y-124539D01*
X-492691Y-124539D01*
X-486739Y-130491D01*
X-486739Y-138909D01*
X-492691Y-144861D01*
X-501109Y-144861D01*
G37*
%LPD*%
%LPC*%
G36*
X-348709Y-144861D02*
X-348709Y-144861D01*
X-354661Y-138909D01*
X-354661Y-130491D01*
X-348709Y-124539D01*
X-340291Y-124539D01*
X-334339Y-130491D01*
X-334339Y-138909D01*
X-340291Y-144861D01*
X-348709Y-144861D01*
G37*
%LPD*%
%LPC*%
G36*
X-323309Y-144861D02*
X-323309Y-144861D01*
X-329261Y-138909D01*
X-329261Y-130491D01*
X-323309Y-124539D01*
X-314891Y-124539D01*
X-308939Y-130491D01*
X-308939Y-138909D01*
X-314891Y-144861D01*
X-323309Y-144861D01*
G37*
%LPD*%
%LPC*%
G36*
X-551909Y-144861D02*
X-551909Y-144861D01*
X-557861Y-138909D01*
X-557861Y-130491D01*
X-551909Y-124539D01*
X-543491Y-124539D01*
X-537539Y-130491D01*
X-537539Y-138909D01*
X-543491Y-144861D01*
X-551909Y-144861D01*
G37*
%LPD*%
%LPC*%
G36*
X-399509Y-144861D02*
X-399509Y-144861D01*
X-405461Y-138909D01*
X-405461Y-130491D01*
X-399509Y-124539D01*
X-391091Y-124539D01*
X-385139Y-130491D01*
X-385139Y-138909D01*
X-391091Y-144861D01*
X-399509Y-144861D01*
G37*
%LPD*%
%LPC*%
G36*
X-424909Y-144861D02*
X-424909Y-144861D01*
X-430861Y-138909D01*
X-430861Y-130491D01*
X-424909Y-124539D01*
X-416491Y-124539D01*
X-410539Y-130491D01*
X-410539Y-138909D01*
X-416491Y-144861D01*
X-424909Y-144861D01*
G37*
%LPD*%
%LPC*%
G36*
X-729709Y-144861D02*
X-729709Y-144861D01*
X-735661Y-138909D01*
X-735661Y-130491D01*
X-729709Y-124539D01*
X-721291Y-124539D01*
X-715339Y-130491D01*
X-715339Y-138909D01*
X-721291Y-144861D01*
X-729709Y-144861D01*
G37*
%LPD*%
%LPC*%
G36*
X-704309Y-144861D02*
X-704309Y-144861D01*
X-710261Y-138909D01*
X-710261Y-130491D01*
X-704309Y-124539D01*
X-695891Y-124539D01*
X-689939Y-130491D01*
X-689939Y-138909D01*
X-695891Y-144861D01*
X-704309Y-144861D01*
G37*
%LPD*%
%LPC*%
G36*
X-526509Y-144861D02*
X-526509Y-144861D01*
X-532461Y-138909D01*
X-532461Y-130491D01*
X-526509Y-124539D01*
X-518091Y-124539D01*
X-512139Y-130491D01*
X-512139Y-138909D01*
X-518091Y-144861D01*
X-526509Y-144861D01*
G37*
%LPD*%
%LPC*%
G36*
X-551909Y134539D02*
X-551909Y134539D01*
X-557861Y140491D01*
X-557861Y148909D01*
X-551909Y154861D01*
X-543491Y154861D01*
X-537539Y148909D01*
X-537539Y140491D01*
X-543491Y134539D01*
X-551909Y134539D01*
G37*
%LPD*%
%LPC*%
G36*
X-678909Y-144861D02*
X-678909Y-144861D01*
X-684861Y-138909D01*
X-684861Y-130491D01*
X-678909Y-124539D01*
X-670491Y-124539D01*
X-664539Y-130491D01*
X-664539Y-138909D01*
X-670491Y-144861D01*
X-678909Y-144861D01*
G37*
%LPD*%
%LPC*%
G36*
X-628109Y-144861D02*
X-628109Y-144861D01*
X-634061Y-138909D01*
X-634061Y-130491D01*
X-628109Y-124539D01*
X-619691Y-124539D01*
X-613739Y-130491D01*
X-613739Y-138909D01*
X-619691Y-144861D01*
X-628109Y-144861D01*
G37*
%LPD*%
%LPC*%
G36*
X-475709Y-144861D02*
X-475709Y-144861D01*
X-481661Y-138909D01*
X-481661Y-130491D01*
X-475709Y-124539D01*
X-467291Y-124539D01*
X-461339Y-130491D01*
X-461339Y-138909D01*
X-467291Y-144861D01*
X-475709Y-144861D01*
G37*
%LPD*%
%LPC*%
G36*
X-450309Y-144861D02*
X-450309Y-144861D01*
X-456261Y-138909D01*
X-456261Y-130491D01*
X-450309Y-124539D01*
X-441891Y-124539D01*
X-435939Y-130491D01*
X-435939Y-138909D01*
X-441891Y-144861D01*
X-450309Y-144861D01*
G37*
%LPD*%
%LPC*%
G36*
X-374109Y-144861D02*
X-374109Y-144861D01*
X-380061Y-138909D01*
X-380061Y-130491D01*
X-374109Y-124539D01*
X-365691Y-124539D01*
X-359739Y-130491D01*
X-359739Y-138909D01*
X-365691Y-144861D01*
X-374109Y-144861D01*
G37*
%LPD*%
%LPC*%
G36*
X-602709Y-144861D02*
X-602709Y-144861D01*
X-608661Y-138909D01*
X-608661Y-130491D01*
X-602709Y-124539D01*
X-594291Y-124539D01*
X-588339Y-130491D01*
X-588339Y-138909D01*
X-594291Y-144861D01*
X-602709Y-144861D01*
G37*
%LPD*%
%LPC*%
G36*
X-653509Y-144861D02*
X-653509Y-144861D01*
X-659461Y-138909D01*
X-659461Y-130491D01*
X-653509Y-124539D01*
X-645091Y-124539D01*
X-639139Y-130491D01*
X-639139Y-138909D01*
X-645091Y-144861D01*
X-653509Y-144861D01*
G37*
%LPD*%
%LPC*%
G36*
X-704309Y-119461D02*
X-704309Y-119461D01*
X-710261Y-113509D01*
X-710261Y-105091D01*
X-704309Y-99139D01*
X-695891Y-99139D01*
X-689939Y-105091D01*
X-689939Y-113509D01*
X-695891Y-119461D01*
X-704309Y-119461D01*
G37*
%LPD*%
%LPC*%
G36*
X-678909Y-119461D02*
X-678909Y-119461D01*
X-684861Y-113509D01*
X-684861Y-105091D01*
X-678909Y-99139D01*
X-670491Y-99139D01*
X-664539Y-105091D01*
X-664539Y-113509D01*
X-670491Y-119461D01*
X-678909Y-119461D01*
G37*
%LPD*%
%LPC*%
G36*
X-653509Y-119461D02*
X-653509Y-119461D01*
X-659461Y-113509D01*
X-659461Y-105091D01*
X-653509Y-99139D01*
X-645091Y-99139D01*
X-639139Y-105091D01*
X-639139Y-113509D01*
X-645091Y-119461D01*
X-653509Y-119461D01*
G37*
%LPD*%
%LPC*%
G36*
X-450309Y-119461D02*
X-450309Y-119461D01*
X-456261Y-113509D01*
X-456261Y-105091D01*
X-450309Y-99139D01*
X-441891Y-99139D01*
X-435939Y-105091D01*
X-435939Y-113509D01*
X-441891Y-119461D01*
X-450309Y-119461D01*
G37*
%LPD*%
%LPC*%
G36*
X-374109Y-119461D02*
X-374109Y-119461D01*
X-380061Y-113509D01*
X-380061Y-105091D01*
X-374109Y-99139D01*
X-365691Y-99139D01*
X-359739Y-105091D01*
X-359739Y-113509D01*
X-365691Y-119461D01*
X-374109Y-119461D01*
G37*
%LPD*%
%LPC*%
G36*
X-551909Y-119461D02*
X-551909Y-119461D01*
X-557861Y-113509D01*
X-557861Y-105091D01*
X-551909Y-99139D01*
X-543491Y-99139D01*
X-537539Y-105091D01*
X-537539Y-113509D01*
X-543491Y-119461D01*
X-551909Y-119461D01*
G37*
%LPD*%
%LPC*%
G36*
X-577309Y134539D02*
X-577309Y134539D01*
X-583261Y140491D01*
X-583261Y148909D01*
X-577309Y154861D01*
X-568891Y154861D01*
X-562939Y148909D01*
X-562939Y140491D01*
X-568891Y134539D01*
X-577309Y134539D01*
G37*
%LPD*%
%LPC*%
G36*
X-348709Y-119461D02*
X-348709Y-119461D01*
X-354661Y-113509D01*
X-354661Y-105091D01*
X-348709Y-99139D01*
X-340291Y-99139D01*
X-334339Y-105091D01*
X-334339Y-113509D01*
X-340291Y-119461D01*
X-348709Y-119461D01*
G37*
%LPD*%
%LPC*%
G36*
X-729709Y-119461D02*
X-729709Y-119461D01*
X-735661Y-113509D01*
X-735661Y-105091D01*
X-729709Y-99139D01*
X-721291Y-99139D01*
X-715339Y-105091D01*
X-715339Y-113509D01*
X-721291Y-119461D01*
X-729709Y-119461D01*
G37*
%LPD*%
%LPC*%
G36*
X-399509Y134539D02*
X-399509Y134539D01*
X-405461Y140491D01*
X-405461Y148909D01*
X-399509Y154861D01*
X-391091Y154861D01*
X-385139Y148909D01*
X-385139Y140491D01*
X-391091Y134539D01*
X-399509Y134539D01*
G37*
%LPD*%
%LPC*%
G36*
X-424909Y-119461D02*
X-424909Y-119461D01*
X-430861Y-113509D01*
X-430861Y-105091D01*
X-424909Y-99139D01*
X-416491Y-99139D01*
X-410539Y-105091D01*
X-410539Y-113509D01*
X-416491Y-119461D01*
X-424909Y-119461D01*
G37*
%LPD*%
%LPC*%
G36*
X-718054Y-75220D02*
X-718054Y-75220D01*
X-720006Y-74585D01*
X-721835Y-73653D01*
X-723496Y-72447D01*
X-724947Y-70996D01*
X-726153Y-69335D01*
X-727085Y-67506D01*
X-727720Y-65554D01*
X-727962Y-64023D01*
X-716523Y-64023D01*
X-716523Y-75462D01*
X-718054Y-75220D01*
G37*
%LPD*%
%LPC*%
G36*
X-727962Y-60977D02*
X-727962Y-60977D01*
X-727720Y-59446D01*
X-727085Y-57494D01*
X-726153Y-55665D01*
X-724947Y-54004D01*
X-723496Y-52553D01*
X-721835Y-51347D01*
X-720006Y-50415D01*
X-718054Y-49780D01*
X-716523Y-49538D01*
X-716523Y-60977D01*
X-727962Y-60977D01*
G37*
%LPD*%
%LPC*%
G36*
X-713477Y-64023D02*
X-713477Y-64023D01*
X-702038Y-64023D01*
X-702280Y-65554D01*
X-702915Y-67506D01*
X-703847Y-69335D01*
X-705053Y-70996D01*
X-706504Y-72447D01*
X-708165Y-73653D01*
X-709994Y-74585D01*
X-711946Y-75220D01*
X-713477Y-75462D01*
X-713477Y-64023D01*
G37*
%LPD*%
%LPC*%
G36*
X-718054Y49780D02*
X-718054Y49780D01*
X-720006Y50415D01*
X-721835Y51347D01*
X-723496Y52553D01*
X-724947Y54004D01*
X-726153Y55665D01*
X-727085Y57494D01*
X-727720Y59446D01*
X-727962Y60977D01*
X-716523Y60977D01*
X-716523Y49538D01*
X-718054Y49780D01*
G37*
%LPD*%
%LPC*%
G36*
X-713477Y-60977D02*
X-713477Y-60977D01*
X-713477Y-49538D01*
X-711946Y-49780D01*
X-709994Y-50415D01*
X-708165Y-51347D01*
X-706504Y-52553D01*
X-705053Y-54004D01*
X-703847Y-55665D01*
X-702915Y-57494D01*
X-702280Y-59446D01*
X-702038Y-60977D01*
X-713477Y-60977D01*
G37*
%LPD*%
G36*
X-128118Y35994D02*
X-128118Y35994D01*
X-128099Y35992D01*
X-127997Y36014D01*
X-127895Y36030D01*
X-127878Y36040D01*
X-127858Y36044D01*
X-127769Y36097D01*
X-127678Y36146D01*
X-127664Y36160D01*
X-127647Y36170D01*
X-127580Y36249D01*
X-127509Y36324D01*
X-127500Y36342D01*
X-127487Y36357D01*
X-127448Y36453D01*
X-127405Y36547D01*
X-127403Y36567D01*
X-127395Y36585D01*
X-127377Y36752D01*
X-127377Y42927D01*
X-121202Y42927D01*
X-121182Y42930D01*
X-121163Y42928D01*
X-121061Y42950D01*
X-120959Y42967D01*
X-120942Y42976D01*
X-120922Y42980D01*
X-120833Y43033D01*
X-120742Y43082D01*
X-120728Y43096D01*
X-120711Y43106D01*
X-120644Y43185D01*
X-120572Y43260D01*
X-120564Y43278D01*
X-120551Y43293D01*
X-120512Y43389D01*
X-120469Y43483D01*
X-120467Y43503D01*
X-120459Y43521D01*
X-120441Y43688D01*
X-120441Y43689D01*
X-119277Y43689D01*
X-119221Y43698D01*
X-119164Y43697D01*
X-119149Y43702D01*
X-119134Y43702D01*
X-119086Y43720D01*
X-119034Y43728D01*
X-118984Y43755D01*
X-118930Y43772D01*
X-118914Y43783D01*
X-118903Y43787D01*
X-118880Y43805D01*
X-118844Y43829D01*
X-118817Y43843D01*
X-118808Y43853D01*
X-118790Y43865D01*
X-118789Y43865D01*
X-118754Y43906D01*
X-118711Y43940D01*
X-118683Y43984D01*
X-118647Y44022D01*
X-118640Y44038D01*
X-118628Y44051D01*
X-118608Y44101D01*
X-118578Y44147D01*
X-118565Y44198D01*
X-118544Y44245D01*
X-118542Y44262D01*
X-118535Y44279D01*
X-118532Y44333D01*
X-118518Y44386D01*
X-118522Y44439D01*
X-118519Y44469D01*
X-118517Y44490D01*
X-118520Y44506D01*
X-118519Y44524D01*
X-118533Y44577D01*
X-118537Y44631D01*
X-118558Y44679D01*
X-118569Y44730D01*
X-118578Y44745D01*
X-118582Y44762D01*
X-118612Y44807D01*
X-118634Y44857D01*
X-118679Y44914D01*
X-118695Y44941D01*
X-118708Y44952D01*
X-118718Y44967D01*
X-118727Y44974D01*
X-118739Y44988D01*
X-118813Y45042D01*
X-118882Y45101D01*
X-118898Y45108D01*
X-118912Y45118D01*
X-118926Y45123D01*
X-118938Y45132D01*
X-119025Y45159D01*
X-119110Y45193D01*
X-119132Y45195D01*
X-119144Y45200D01*
X-119159Y45200D01*
X-119173Y45204D01*
X-119206Y45203D01*
X-119277Y45211D01*
X-120441Y45211D01*
X-120441Y45212D01*
X-120444Y45232D01*
X-120442Y45251D01*
X-120464Y45353D01*
X-120480Y45455D01*
X-120490Y45472D01*
X-120494Y45492D01*
X-120547Y45581D01*
X-120596Y45672D01*
X-120610Y45686D01*
X-120620Y45703D01*
X-120699Y45770D01*
X-120774Y45841D01*
X-120792Y45850D01*
X-120807Y45863D01*
X-120903Y45902D01*
X-120997Y45945D01*
X-121017Y45947D01*
X-121035Y45955D01*
X-121202Y45973D01*
X-127377Y45973D01*
X-127377Y52148D01*
X-127380Y52168D01*
X-127378Y52187D01*
X-127400Y52289D01*
X-127417Y52391D01*
X-127426Y52408D01*
X-127430Y52428D01*
X-127483Y52517D01*
X-127532Y52608D01*
X-127546Y52622D01*
X-127556Y52639D01*
X-127635Y52706D01*
X-127710Y52778D01*
X-127728Y52786D01*
X-127743Y52799D01*
X-127839Y52838D01*
X-127933Y52881D01*
X-127953Y52883D01*
X-127971Y52891D01*
X-128138Y52909D01*
X-129662Y52909D01*
X-129682Y52906D01*
X-129701Y52908D01*
X-129803Y52886D01*
X-129905Y52870D01*
X-129922Y52860D01*
X-129942Y52856D01*
X-130031Y52803D01*
X-130122Y52754D01*
X-130136Y52740D01*
X-130153Y52730D01*
X-130220Y52651D01*
X-130291Y52576D01*
X-130300Y52558D01*
X-130313Y52543D01*
X-130352Y52447D01*
X-130395Y52353D01*
X-130397Y52333D01*
X-130405Y52315D01*
X-130423Y52148D01*
X-130423Y45973D01*
X-136598Y45973D01*
X-136618Y45970D01*
X-136637Y45972D01*
X-136739Y45950D01*
X-136841Y45933D01*
X-136858Y45924D01*
X-136878Y45920D01*
X-136967Y45867D01*
X-137058Y45818D01*
X-137072Y45804D01*
X-137089Y45794D01*
X-137156Y45715D01*
X-137228Y45640D01*
X-137236Y45622D01*
X-137249Y45607D01*
X-137288Y45511D01*
X-137331Y45417D01*
X-137333Y45397D01*
X-137341Y45379D01*
X-137359Y45212D01*
X-137359Y43688D01*
X-137356Y43668D01*
X-137358Y43649D01*
X-137336Y43547D01*
X-137320Y43445D01*
X-137310Y43428D01*
X-137306Y43408D01*
X-137253Y43319D01*
X-137204Y43228D01*
X-137190Y43214D01*
X-137180Y43197D01*
X-137101Y43130D01*
X-137026Y43059D01*
X-137008Y43050D01*
X-136993Y43037D01*
X-136897Y42998D01*
X-136803Y42955D01*
X-136783Y42953D01*
X-136765Y42945D01*
X-136598Y42927D01*
X-130423Y42927D01*
X-130423Y36752D01*
X-130420Y36732D01*
X-130422Y36713D01*
X-130400Y36611D01*
X-130383Y36509D01*
X-130374Y36492D01*
X-130370Y36472D01*
X-130317Y36383D01*
X-130268Y36292D01*
X-130254Y36278D01*
X-130244Y36261D01*
X-130165Y36194D01*
X-130090Y36122D01*
X-130072Y36114D01*
X-130057Y36101D01*
X-129961Y36062D01*
X-129867Y36019D01*
X-129847Y36017D01*
X-129829Y36009D01*
X-129662Y35991D01*
X-128138Y35991D01*
X-128118Y35994D01*
G37*
G36*
X-128118Y-65686D02*
X-128118Y-65686D01*
X-128099Y-65688D01*
X-127997Y-65666D01*
X-127895Y-65650D01*
X-127878Y-65640D01*
X-127858Y-65636D01*
X-127769Y-65583D01*
X-127678Y-65534D01*
X-127664Y-65520D01*
X-127647Y-65510D01*
X-127580Y-65431D01*
X-127509Y-65356D01*
X-127500Y-65338D01*
X-127487Y-65323D01*
X-127448Y-65227D01*
X-127405Y-65133D01*
X-127403Y-65113D01*
X-127395Y-65095D01*
X-127377Y-64928D01*
X-127377Y-58753D01*
X-121202Y-58753D01*
X-121182Y-58750D01*
X-121163Y-58752D01*
X-121061Y-58730D01*
X-120959Y-58713D01*
X-120942Y-58704D01*
X-120922Y-58700D01*
X-120833Y-58647D01*
X-120742Y-58598D01*
X-120728Y-58584D01*
X-120711Y-58574D01*
X-120644Y-58495D01*
X-120572Y-58420D01*
X-120564Y-58402D01*
X-120551Y-58387D01*
X-120512Y-58291D01*
X-120469Y-58197D01*
X-120467Y-58177D01*
X-120459Y-58159D01*
X-120441Y-57992D01*
X-120441Y-57991D01*
X-119277Y-57991D01*
X-119228Y-57983D01*
X-119179Y-57985D01*
X-119157Y-57978D01*
X-119134Y-57978D01*
X-119086Y-57960D01*
X-119034Y-57952D01*
X-118991Y-57929D01*
X-118943Y-57914D01*
X-118919Y-57899D01*
X-118903Y-57893D01*
X-118878Y-57873D01*
X-118838Y-57848D01*
X-118817Y-57837D01*
X-118812Y-57831D01*
X-118801Y-57825D01*
X-118801Y-57824D01*
X-118760Y-57778D01*
X-118711Y-57740D01*
X-118683Y-57696D01*
X-118647Y-57658D01*
X-118643Y-57649D01*
X-118637Y-57642D01*
X-118612Y-57585D01*
X-118578Y-57533D01*
X-118565Y-57482D01*
X-118544Y-57435D01*
X-118543Y-57426D01*
X-118539Y-57416D01*
X-118533Y-57354D01*
X-118518Y-57294D01*
X-118522Y-57242D01*
X-118517Y-57191D01*
X-118517Y-57190D01*
X-118519Y-57181D01*
X-118518Y-57171D01*
X-118533Y-57111D01*
X-118537Y-57049D01*
X-118558Y-57000D01*
X-118569Y-56950D01*
X-118574Y-56942D01*
X-118576Y-56932D01*
X-118609Y-56880D01*
X-118634Y-56823D01*
X-118679Y-56766D01*
X-118695Y-56739D01*
X-118703Y-56733D01*
X-118708Y-56724D01*
X-118721Y-56714D01*
X-118739Y-56692D01*
X-118813Y-56638D01*
X-118882Y-56579D01*
X-118891Y-56575D01*
X-118899Y-56569D01*
X-118920Y-56561D01*
X-118938Y-56548D01*
X-119025Y-56521D01*
X-119110Y-56487D01*
X-119123Y-56486D01*
X-119129Y-56483D01*
X-119151Y-56482D01*
X-119174Y-56476D01*
X-119206Y-56476D01*
X-119277Y-56469D01*
X-120441Y-56469D01*
X-120441Y-56468D01*
X-120444Y-56448D01*
X-120442Y-56429D01*
X-120464Y-56327D01*
X-120480Y-56225D01*
X-120490Y-56208D01*
X-120494Y-56188D01*
X-120547Y-56099D01*
X-120596Y-56008D01*
X-120610Y-55994D01*
X-120620Y-55977D01*
X-120699Y-55910D01*
X-120774Y-55839D01*
X-120792Y-55830D01*
X-120807Y-55817D01*
X-120903Y-55778D01*
X-120997Y-55735D01*
X-121017Y-55733D01*
X-121035Y-55725D01*
X-121202Y-55707D01*
X-127377Y-55707D01*
X-127377Y-49532D01*
X-127380Y-49512D01*
X-127378Y-49493D01*
X-127400Y-49391D01*
X-127417Y-49289D01*
X-127426Y-49272D01*
X-127430Y-49252D01*
X-127483Y-49163D01*
X-127532Y-49072D01*
X-127546Y-49058D01*
X-127556Y-49041D01*
X-127635Y-48974D01*
X-127710Y-48902D01*
X-127728Y-48894D01*
X-127743Y-48881D01*
X-127839Y-48842D01*
X-127933Y-48799D01*
X-127953Y-48797D01*
X-127971Y-48789D01*
X-128138Y-48771D01*
X-129662Y-48771D01*
X-129682Y-48774D01*
X-129701Y-48772D01*
X-129803Y-48794D01*
X-129905Y-48810D01*
X-129922Y-48820D01*
X-129942Y-48824D01*
X-130031Y-48877D01*
X-130122Y-48926D01*
X-130136Y-48940D01*
X-130153Y-48950D01*
X-130220Y-49029D01*
X-130291Y-49104D01*
X-130300Y-49122D01*
X-130313Y-49137D01*
X-130352Y-49233D01*
X-130395Y-49327D01*
X-130397Y-49347D01*
X-130405Y-49365D01*
X-130423Y-49532D01*
X-130423Y-55707D01*
X-136598Y-55707D01*
X-136618Y-55710D01*
X-136637Y-55708D01*
X-136739Y-55730D01*
X-136841Y-55747D01*
X-136858Y-55756D01*
X-136878Y-55760D01*
X-136967Y-55813D01*
X-137058Y-55862D01*
X-137072Y-55876D01*
X-137089Y-55886D01*
X-137156Y-55965D01*
X-137228Y-56040D01*
X-137236Y-56058D01*
X-137249Y-56073D01*
X-137288Y-56169D01*
X-137331Y-56263D01*
X-137333Y-56283D01*
X-137341Y-56301D01*
X-137359Y-56468D01*
X-137359Y-57992D01*
X-137356Y-58012D01*
X-137358Y-58031D01*
X-137336Y-58133D01*
X-137320Y-58235D01*
X-137310Y-58252D01*
X-137306Y-58272D01*
X-137253Y-58361D01*
X-137204Y-58452D01*
X-137190Y-58466D01*
X-137180Y-58483D01*
X-137101Y-58550D01*
X-137026Y-58621D01*
X-137008Y-58630D01*
X-136993Y-58643D01*
X-136897Y-58682D01*
X-136803Y-58725D01*
X-136783Y-58727D01*
X-136765Y-58735D01*
X-136598Y-58753D01*
X-130423Y-58753D01*
X-130423Y-64928D01*
X-130420Y-64948D01*
X-130422Y-64967D01*
X-130400Y-65069D01*
X-130383Y-65171D01*
X-130374Y-65188D01*
X-130370Y-65208D01*
X-130317Y-65297D01*
X-130268Y-65388D01*
X-130254Y-65402D01*
X-130244Y-65419D01*
X-130165Y-65486D01*
X-130090Y-65558D01*
X-130072Y-65566D01*
X-130057Y-65579D01*
X-129961Y-65618D01*
X-129867Y-65661D01*
X-129847Y-65663D01*
X-129829Y-65671D01*
X-129662Y-65689D01*
X-128138Y-65689D01*
X-128118Y-65686D01*
G37*
%LPC*%
G36*
X-507061Y120823D02*
X-507061Y120823D01*
X-507061Y123509D01*
X-501109Y129461D01*
X-498423Y129461D01*
X-498423Y120823D01*
X-507061Y120823D01*
G37*
%LPD*%
%LPC*%
G36*
X-507061Y-113509D02*
X-507061Y-113509D01*
X-507061Y-110823D01*
X-498423Y-110823D01*
X-498423Y-119461D01*
X-501109Y-119461D01*
X-507061Y-113509D01*
G37*
%LPD*%
%LPC*%
G36*
X-583261Y-138909D02*
X-583261Y-138909D01*
X-583261Y-136223D01*
X-574623Y-136223D01*
X-574623Y-144861D01*
X-577309Y-144861D01*
X-583261Y-138909D01*
G37*
%LPD*%
%LPC*%
G36*
X-583261Y-113509D02*
X-583261Y-113509D01*
X-583261Y-110823D01*
X-574623Y-110823D01*
X-574623Y-119461D01*
X-577309Y-119461D01*
X-583261Y-113509D01*
G37*
%LPD*%
%LPC*%
G36*
X-495377Y-119461D02*
X-495377Y-119461D01*
X-495377Y-110823D01*
X-486739Y-110823D01*
X-486739Y-113509D01*
X-492691Y-119461D01*
X-495377Y-119461D01*
G37*
%LPD*%
%LPC*%
G36*
X-571577Y-119461D02*
X-571577Y-119461D01*
X-571577Y-110823D01*
X-562939Y-110823D01*
X-562939Y-113509D01*
X-568891Y-119461D01*
X-571577Y-119461D01*
G37*
%LPD*%
%LPC*%
G36*
X-571577Y-144861D02*
X-571577Y-144861D01*
X-571577Y-136223D01*
X-562939Y-136223D01*
X-562939Y-138909D01*
X-568891Y-144861D01*
X-571577Y-144861D01*
G37*
%LPD*%
%LPC*%
G36*
X-507061Y-107777D02*
X-507061Y-107777D01*
X-507061Y-105091D01*
X-501109Y-99139D01*
X-498423Y-99139D01*
X-498423Y-107777D01*
X-507061Y-107777D01*
G37*
%LPD*%
%LPC*%
G36*
X-583261Y-133177D02*
X-583261Y-133177D01*
X-583261Y-130491D01*
X-577309Y-124539D01*
X-574623Y-124539D01*
X-574623Y-133177D01*
X-583261Y-133177D01*
G37*
%LPD*%
%LPC*%
G36*
X-583261Y-107777D02*
X-583261Y-107777D01*
X-583261Y-105091D01*
X-577309Y-99139D01*
X-574623Y-99139D01*
X-574623Y-107777D01*
X-583261Y-107777D01*
G37*
%LPD*%
%LPC*%
G36*
X-495377Y120823D02*
X-495377Y120823D01*
X-495377Y129461D01*
X-492691Y129461D01*
X-486739Y123509D01*
X-486739Y120823D01*
X-495377Y120823D01*
G37*
%LPD*%
%LPC*%
G36*
X-571577Y120823D02*
X-571577Y120823D01*
X-571577Y129461D01*
X-568891Y129461D01*
X-562939Y123509D01*
X-562939Y120823D01*
X-571577Y120823D01*
G37*
%LPD*%
%LPC*%
G36*
X-495377Y-107777D02*
X-495377Y-107777D01*
X-495377Y-99139D01*
X-492691Y-99139D01*
X-486739Y-105091D01*
X-486739Y-107777D01*
X-495377Y-107777D01*
G37*
%LPD*%
%LPC*%
G36*
X-571577Y-133177D02*
X-571577Y-133177D01*
X-571577Y-124539D01*
X-568891Y-124539D01*
X-562939Y-130491D01*
X-562939Y-133177D01*
X-571577Y-133177D01*
G37*
%LPD*%
%LPC*%
G36*
X-571577Y-107777D02*
X-571577Y-107777D01*
X-571577Y-99139D01*
X-568891Y-99139D01*
X-562939Y-105091D01*
X-562939Y-107777D01*
X-571577Y-107777D01*
G37*
%LPD*%
%LPC*%
G36*
X-221788Y96358D02*
X-221788Y96358D01*
X-223872Y98442D01*
X-223872Y101388D01*
X-221788Y103472D01*
X-218842Y103472D01*
X-216758Y101388D01*
X-216758Y98442D01*
X-218842Y96358D01*
X-221788Y96358D01*
G37*
%LPD*%
%LPC*%
G36*
X-221788Y-103642D02*
X-221788Y-103642D01*
X-223872Y-101558D01*
X-223872Y-98612D01*
X-221788Y-96528D01*
X-218842Y-96528D01*
X-216758Y-98612D01*
X-216758Y-101558D01*
X-218842Y-103642D01*
X-221788Y-103642D01*
G37*
%LPD*%
%LPC*%
G36*
X-368405Y34023D02*
X-368405Y34023D01*
X-368213Y34991D01*
X-367569Y36546D01*
X-366634Y37944D01*
X-365444Y39134D01*
X-364046Y40069D01*
X-362491Y40713D01*
X-361523Y40905D01*
X-361523Y34023D01*
X-368405Y34023D01*
G37*
%LPD*%
%LPC*%
G36*
X-358477Y34023D02*
X-358477Y34023D01*
X-358477Y40905D01*
X-357509Y40713D01*
X-355954Y40069D01*
X-354556Y39134D01*
X-353366Y37944D01*
X-352431Y36546D01*
X-351787Y34991D01*
X-351595Y34023D01*
X-358477Y34023D01*
G37*
%LPD*%
%LPC*%
G36*
X-362491Y24287D02*
X-362491Y24287D01*
X-364046Y24931D01*
X-365444Y25866D01*
X-366634Y27056D01*
X-367569Y28454D01*
X-368213Y30009D01*
X-368405Y30977D01*
X-361523Y30977D01*
X-361523Y24095D01*
X-362491Y24287D01*
G37*
%LPD*%
%LPC*%
G36*
X-358477Y30977D02*
X-358477Y30977D01*
X-351595Y30977D01*
X-351787Y30009D01*
X-352431Y28454D01*
X-353366Y27056D01*
X-354556Y25866D01*
X-355954Y24931D01*
X-357509Y24287D01*
X-358477Y24095D01*
X-358477Y30977D01*
G37*
%LPD*%
%LPC*%
G36*
X-546834Y-56541D02*
X-546834Y-56541D01*
X-547481Y-56368D01*
X-548060Y-56033D01*
X-548533Y-55560D01*
X-548868Y-54981D01*
X-549041Y-54334D01*
X-549041Y-51523D01*
X-544023Y-51523D01*
X-544023Y-56541D01*
X-546834Y-56541D01*
G37*
%LPD*%
%LPC*%
G36*
X-549041Y51523D02*
X-549041Y51523D01*
X-549041Y54334D01*
X-548868Y54981D01*
X-548533Y55560D01*
X-548060Y56033D01*
X-547481Y56368D01*
X-546834Y56541D01*
X-544023Y56541D01*
X-544023Y51523D01*
X-549041Y51523D01*
G37*
%LPD*%
%LPC*%
G36*
X-546834Y43459D02*
X-546834Y43459D01*
X-547481Y43632D01*
X-548060Y43967D01*
X-548533Y44440D01*
X-548868Y45019D01*
X-549041Y45666D01*
X-549041Y48477D01*
X-544023Y48477D01*
X-544023Y43459D01*
X-546834Y43459D01*
G37*
%LPD*%
%LPC*%
G36*
X-540977Y51523D02*
X-540977Y51523D01*
X-540977Y56541D01*
X-538166Y56541D01*
X-537519Y56368D01*
X-536940Y56033D01*
X-536467Y55560D01*
X-536132Y54981D01*
X-535959Y54334D01*
X-535959Y51523D01*
X-540977Y51523D01*
G37*
%LPD*%
%LPC*%
G36*
X-540977Y43459D02*
X-540977Y43459D01*
X-540977Y48477D01*
X-535959Y48477D01*
X-535959Y45666D01*
X-536132Y45019D01*
X-536467Y44440D01*
X-536940Y43967D01*
X-537519Y43632D01*
X-538166Y43459D01*
X-540977Y43459D01*
G37*
%LPD*%
%LPC*%
G36*
X-84926Y-60346D02*
X-84926Y-60346D01*
X-84926Y-53954D01*
X-81134Y-53954D01*
X-81134Y-54454D01*
X-81393Y-55418D01*
X-81892Y-56283D01*
X-82221Y-56612D01*
X-82232Y-56628D01*
X-82248Y-56640D01*
X-82304Y-56728D01*
X-82364Y-56811D01*
X-82370Y-56830D01*
X-82381Y-56847D01*
X-82406Y-56948D01*
X-82437Y-57047D01*
X-82436Y-57067D01*
X-82441Y-57086D01*
X-82433Y-57189D01*
X-82430Y-57292D01*
X-82423Y-57311D01*
X-82422Y-57331D01*
X-82382Y-57426D01*
X-82346Y-57523D01*
X-82333Y-57539D01*
X-82326Y-57557D01*
X-82221Y-57688D01*
X-81892Y-58017D01*
X-81393Y-58882D01*
X-81134Y-59846D01*
X-81134Y-60346D01*
X-84926Y-60346D01*
G37*
%LPD*%
%LPC*%
G36*
X-84926Y41254D02*
X-84926Y41254D01*
X-84926Y47646D01*
X-81134Y47646D01*
X-81134Y47146D01*
X-81393Y46182D01*
X-81892Y45317D01*
X-82221Y44988D01*
X-82232Y44972D01*
X-82248Y44960D01*
X-82304Y44872D01*
X-82364Y44789D01*
X-82370Y44770D01*
X-82381Y44753D01*
X-82406Y44652D01*
X-82437Y44553D01*
X-82436Y44533D01*
X-82441Y44514D01*
X-82433Y44411D01*
X-82430Y44308D01*
X-82423Y44289D01*
X-82422Y44269D01*
X-82382Y44174D01*
X-82346Y44077D01*
X-82333Y44061D01*
X-82326Y44043D01*
X-82221Y43912D01*
X-81892Y43583D01*
X-81393Y42718D01*
X-81134Y41754D01*
X-81134Y41254D01*
X-84926Y41254D01*
G37*
%LPD*%
G36*
X-110894Y-66245D02*
X-110894Y-66245D01*
X-110892Y-66246D01*
X-110849Y-66226D01*
X-110805Y-66208D01*
X-110804Y-66206D01*
X-110802Y-66205D01*
X-110769Y-66120D01*
X-110769Y-64338D01*
X-110770Y-64336D01*
X-110770Y-64334D01*
X-110789Y-64291D01*
X-110808Y-64247D01*
X-110810Y-64246D01*
X-110811Y-64245D01*
X-110896Y-64212D01*
X-117890Y-64212D01*
X-117892Y-64213D01*
X-117894Y-64212D01*
X-117937Y-64232D01*
X-117981Y-64250D01*
X-117982Y-64252D01*
X-117984Y-64253D01*
X-118016Y-64338D01*
X-118016Y-65104D01*
X-118015Y-65107D01*
X-118016Y-65110D01*
X-117979Y-65193D01*
X-116963Y-66209D01*
X-116960Y-66211D01*
X-116959Y-66213D01*
X-116874Y-66246D01*
X-110896Y-66246D01*
X-110894Y-66245D01*
G37*
G36*
X-110894Y35435D02*
X-110894Y35435D01*
X-110892Y35434D01*
X-110849Y35454D01*
X-110805Y35472D01*
X-110804Y35474D01*
X-110802Y35475D01*
X-110769Y35560D01*
X-110769Y37342D01*
X-110770Y37344D01*
X-110770Y37346D01*
X-110789Y37389D01*
X-110808Y37433D01*
X-110810Y37434D01*
X-110811Y37436D01*
X-110896Y37468D01*
X-117890Y37468D01*
X-117892Y37467D01*
X-117894Y37468D01*
X-117937Y37448D01*
X-117981Y37430D01*
X-117982Y37428D01*
X-117984Y37427D01*
X-118016Y37342D01*
X-118016Y36576D01*
X-118015Y36573D01*
X-118016Y36570D01*
X-117979Y36487D01*
X-116963Y35471D01*
X-116960Y35470D01*
X-116959Y35467D01*
X-116874Y35434D01*
X-110896Y35434D01*
X-110894Y35435D01*
G37*
G36*
X-140923Y35433D02*
X-140923Y35433D01*
X-140920Y35432D01*
X-140837Y35469D01*
X-139821Y36485D01*
X-139819Y36488D01*
X-139816Y36489D01*
X-139784Y36574D01*
X-139784Y37340D01*
X-139784Y37342D01*
X-139784Y37344D01*
X-139804Y37387D01*
X-139822Y37431D01*
X-139824Y37431D01*
X-139825Y37433D01*
X-139910Y37466D01*
X-146904Y37466D01*
X-146906Y37465D01*
X-146908Y37466D01*
X-146951Y37446D01*
X-146995Y37428D01*
X-146996Y37426D01*
X-146998Y37425D01*
X-147031Y37340D01*
X-147031Y35558D01*
X-147030Y35556D01*
X-147030Y35554D01*
X-147011Y35511D01*
X-146992Y35467D01*
X-146990Y35466D01*
X-146989Y35465D01*
X-146904Y35432D01*
X-140926Y35432D01*
X-140923Y35433D01*
G37*
G36*
X-120006Y26320D02*
X-120006Y26320D01*
X-120004Y26320D01*
X-119961Y26339D01*
X-119917Y26358D01*
X-119916Y26360D01*
X-119915Y26361D01*
X-119882Y26446D01*
X-119882Y32424D01*
X-119883Y32427D01*
X-119882Y32430D01*
X-119919Y32513D01*
X-120935Y33529D01*
X-120938Y33531D01*
X-120939Y33534D01*
X-121024Y33566D01*
X-121790Y33566D01*
X-121792Y33566D01*
X-121794Y33566D01*
X-121837Y33546D01*
X-121881Y33528D01*
X-121881Y33526D01*
X-121883Y33525D01*
X-121916Y33440D01*
X-121916Y26446D01*
X-121915Y26444D01*
X-121916Y26442D01*
X-121896Y26399D01*
X-121878Y26355D01*
X-121876Y26354D01*
X-121875Y26352D01*
X-121790Y26319D01*
X-120008Y26319D01*
X-120006Y26320D01*
G37*
G36*
X-121023Y-46345D02*
X-121023Y-46345D01*
X-121020Y-46346D01*
X-120937Y-46309D01*
X-119921Y-45293D01*
X-119920Y-45290D01*
X-119917Y-45289D01*
X-119884Y-45204D01*
X-119884Y-39226D01*
X-119885Y-39224D01*
X-119884Y-39222D01*
X-119904Y-39179D01*
X-119922Y-39135D01*
X-119924Y-39134D01*
X-119925Y-39132D01*
X-120010Y-39099D01*
X-121792Y-39099D01*
X-121794Y-39100D01*
X-121796Y-39100D01*
X-121839Y-39119D01*
X-121883Y-39138D01*
X-121884Y-39140D01*
X-121886Y-39141D01*
X-121918Y-39226D01*
X-121918Y-46220D01*
X-121917Y-46222D01*
X-121918Y-46224D01*
X-121898Y-46267D01*
X-121880Y-46311D01*
X-121878Y-46312D01*
X-121877Y-46314D01*
X-121792Y-46346D01*
X-121026Y-46346D01*
X-121023Y-46345D01*
G37*
G36*
X-136008Y-46346D02*
X-136008Y-46346D01*
X-136006Y-46346D01*
X-135963Y-46326D01*
X-135919Y-46308D01*
X-135919Y-46306D01*
X-135917Y-46305D01*
X-135884Y-46220D01*
X-135884Y-39226D01*
X-135885Y-39224D01*
X-135884Y-39222D01*
X-135904Y-39179D01*
X-135922Y-39135D01*
X-135924Y-39134D01*
X-135925Y-39132D01*
X-136010Y-39099D01*
X-137792Y-39099D01*
X-137794Y-39100D01*
X-137796Y-39100D01*
X-137839Y-39119D01*
X-137883Y-39138D01*
X-137884Y-39140D01*
X-137886Y-39141D01*
X-137918Y-39226D01*
X-137918Y-45204D01*
X-137917Y-45207D01*
X-137918Y-45210D01*
X-137881Y-45293D01*
X-136865Y-46309D01*
X-136862Y-46311D01*
X-136861Y-46314D01*
X-136776Y-46346D01*
X-136010Y-46346D01*
X-136008Y-46346D01*
G37*
G36*
X-110894Y-50245D02*
X-110894Y-50245D01*
X-110892Y-50246D01*
X-110849Y-50226D01*
X-110805Y-50208D01*
X-110804Y-50206D01*
X-110802Y-50205D01*
X-110769Y-50120D01*
X-110769Y-48338D01*
X-110770Y-48336D01*
X-110770Y-48334D01*
X-110789Y-48291D01*
X-110808Y-48247D01*
X-110810Y-48246D01*
X-110811Y-48245D01*
X-110896Y-48212D01*
X-116874Y-48212D01*
X-116877Y-48213D01*
X-116880Y-48212D01*
X-116963Y-48249D01*
X-117979Y-49265D01*
X-117981Y-49268D01*
X-117984Y-49269D01*
X-118016Y-49354D01*
X-118016Y-50120D01*
X-118016Y-50122D01*
X-118016Y-50124D01*
X-117996Y-50167D01*
X-117978Y-50211D01*
X-117976Y-50211D01*
X-117975Y-50213D01*
X-117890Y-50246D01*
X-110896Y-50246D01*
X-110894Y-50245D01*
G37*
G36*
X-139908Y-50247D02*
X-139908Y-50247D01*
X-139906Y-50248D01*
X-139863Y-50228D01*
X-139819Y-50210D01*
X-139818Y-50208D01*
X-139816Y-50207D01*
X-139784Y-50122D01*
X-139784Y-49356D01*
X-139785Y-49353D01*
X-139784Y-49350D01*
X-139821Y-49267D01*
X-140837Y-48251D01*
X-140840Y-48250D01*
X-140841Y-48247D01*
X-140926Y-48214D01*
X-146904Y-48214D01*
X-146906Y-48215D01*
X-146908Y-48214D01*
X-146951Y-48234D01*
X-146995Y-48252D01*
X-146996Y-48254D01*
X-146998Y-48255D01*
X-147031Y-48340D01*
X-147031Y-50122D01*
X-147030Y-50124D01*
X-147030Y-50126D01*
X-147011Y-50169D01*
X-146992Y-50213D01*
X-146990Y-50214D01*
X-146989Y-50216D01*
X-146904Y-50248D01*
X-139910Y-50248D01*
X-139908Y-50247D01*
G37*
G36*
X-139908Y51433D02*
X-139908Y51433D01*
X-139906Y51432D01*
X-139863Y51452D01*
X-139819Y51470D01*
X-139818Y51472D01*
X-139816Y51473D01*
X-139784Y51558D01*
X-139784Y52324D01*
X-139785Y52327D01*
X-139784Y52330D01*
X-139821Y52413D01*
X-140837Y53429D01*
X-140840Y53431D01*
X-140841Y53433D01*
X-140926Y53466D01*
X-146904Y53466D01*
X-146906Y53465D01*
X-146908Y53466D01*
X-146951Y53446D01*
X-146995Y53428D01*
X-146996Y53426D01*
X-146998Y53425D01*
X-147031Y53340D01*
X-147031Y51558D01*
X-147030Y51556D01*
X-147030Y51554D01*
X-147011Y51511D01*
X-146992Y51467D01*
X-146990Y51466D01*
X-146989Y51465D01*
X-146904Y51432D01*
X-139910Y51432D01*
X-139908Y51433D01*
G37*
G36*
X-110894Y51435D02*
X-110894Y51435D01*
X-110892Y51434D01*
X-110849Y51454D01*
X-110805Y51472D01*
X-110804Y51474D01*
X-110802Y51475D01*
X-110769Y51560D01*
X-110769Y53342D01*
X-110770Y53344D01*
X-110770Y53346D01*
X-110789Y53389D01*
X-110808Y53433D01*
X-110810Y53434D01*
X-110811Y53436D01*
X-110896Y53468D01*
X-116874Y53468D01*
X-116877Y53467D01*
X-116880Y53468D01*
X-116963Y53431D01*
X-117979Y52415D01*
X-117981Y52412D01*
X-117984Y52411D01*
X-118016Y52326D01*
X-118016Y51560D01*
X-118016Y51558D01*
X-118016Y51556D01*
X-117996Y51513D01*
X-117978Y51469D01*
X-117976Y51469D01*
X-117975Y51467D01*
X-117890Y51434D01*
X-110896Y51434D01*
X-110894Y51435D01*
G37*
G36*
X-136006Y26320D02*
X-136006Y26320D01*
X-136004Y26320D01*
X-135961Y26339D01*
X-135917Y26358D01*
X-135916Y26360D01*
X-135915Y26361D01*
X-135882Y26446D01*
X-135882Y33440D01*
X-135883Y33442D01*
X-135882Y33444D01*
X-135902Y33487D01*
X-135920Y33531D01*
X-135922Y33532D01*
X-135923Y33534D01*
X-136008Y33566D01*
X-136774Y33566D01*
X-136777Y33565D01*
X-136780Y33566D01*
X-136863Y33529D01*
X-137879Y32513D01*
X-137881Y32510D01*
X-137883Y32509D01*
X-137916Y32424D01*
X-137916Y26446D01*
X-137915Y26444D01*
X-137916Y26442D01*
X-137896Y26399D01*
X-137878Y26355D01*
X-137876Y26354D01*
X-137875Y26352D01*
X-137790Y26319D01*
X-136008Y26319D01*
X-136006Y26320D01*
G37*
G36*
X-136008Y55334D02*
X-136008Y55334D01*
X-136006Y55334D01*
X-135963Y55354D01*
X-135919Y55372D01*
X-135919Y55374D01*
X-135917Y55375D01*
X-135884Y55460D01*
X-135884Y62454D01*
X-135885Y62456D01*
X-135884Y62458D01*
X-135904Y62501D01*
X-135922Y62545D01*
X-135924Y62546D01*
X-135925Y62548D01*
X-136010Y62581D01*
X-137792Y62581D01*
X-137794Y62580D01*
X-137796Y62580D01*
X-137839Y62561D01*
X-137883Y62542D01*
X-137884Y62540D01*
X-137886Y62539D01*
X-137918Y62454D01*
X-137918Y56476D01*
X-137917Y56473D01*
X-137918Y56470D01*
X-137881Y56387D01*
X-136865Y55371D01*
X-136862Y55369D01*
X-136861Y55366D01*
X-136776Y55334D01*
X-136010Y55334D01*
X-136008Y55334D01*
G37*
G36*
X-121023Y55335D02*
X-121023Y55335D01*
X-121020Y55334D01*
X-120937Y55371D01*
X-119921Y56387D01*
X-119920Y56390D01*
X-119917Y56391D01*
X-119884Y56476D01*
X-119884Y62454D01*
X-119885Y62456D01*
X-119884Y62458D01*
X-119904Y62501D01*
X-119922Y62545D01*
X-119924Y62546D01*
X-119925Y62548D01*
X-120010Y62581D01*
X-121792Y62581D01*
X-121794Y62580D01*
X-121796Y62580D01*
X-121839Y62561D01*
X-121883Y62542D01*
X-121884Y62540D01*
X-121886Y62539D01*
X-121918Y62454D01*
X-121918Y55460D01*
X-121917Y55458D01*
X-121918Y55456D01*
X-121898Y55413D01*
X-121880Y55369D01*
X-121878Y55368D01*
X-121877Y55366D01*
X-121792Y55334D01*
X-121026Y55334D01*
X-121023Y55335D01*
G37*
G36*
X-120006Y-75360D02*
X-120006Y-75360D01*
X-120004Y-75360D01*
X-119961Y-75341D01*
X-119917Y-75322D01*
X-119916Y-75320D01*
X-119915Y-75319D01*
X-119882Y-75234D01*
X-119882Y-69256D01*
X-119883Y-69253D01*
X-119882Y-69250D01*
X-119919Y-69167D01*
X-120935Y-68151D01*
X-120938Y-68149D01*
X-120939Y-68146D01*
X-121024Y-68114D01*
X-121790Y-68114D01*
X-121792Y-68114D01*
X-121794Y-68114D01*
X-121837Y-68134D01*
X-121881Y-68152D01*
X-121881Y-68154D01*
X-121883Y-68155D01*
X-121916Y-68240D01*
X-121916Y-75234D01*
X-121915Y-75236D01*
X-121916Y-75238D01*
X-121896Y-75281D01*
X-121878Y-75325D01*
X-121876Y-75326D01*
X-121875Y-75328D01*
X-121790Y-75361D01*
X-120008Y-75361D01*
X-120006Y-75360D01*
G37*
G36*
X-136006Y-75360D02*
X-136006Y-75360D01*
X-136004Y-75360D01*
X-135961Y-75341D01*
X-135917Y-75322D01*
X-135916Y-75320D01*
X-135915Y-75319D01*
X-135882Y-75234D01*
X-135882Y-68240D01*
X-135883Y-68238D01*
X-135882Y-68236D01*
X-135902Y-68193D01*
X-135920Y-68149D01*
X-135922Y-68148D01*
X-135923Y-68146D01*
X-136008Y-68114D01*
X-136774Y-68114D01*
X-136777Y-68115D01*
X-136780Y-68114D01*
X-136863Y-68151D01*
X-137879Y-69167D01*
X-137881Y-69170D01*
X-137883Y-69171D01*
X-137916Y-69256D01*
X-137916Y-75234D01*
X-137915Y-75236D01*
X-137916Y-75238D01*
X-137896Y-75281D01*
X-137878Y-75325D01*
X-137876Y-75326D01*
X-137875Y-75328D01*
X-137790Y-75361D01*
X-136008Y-75361D01*
X-136006Y-75360D01*
G37*
G36*
X-140923Y-66247D02*
X-140923Y-66247D01*
X-140920Y-66248D01*
X-140837Y-66211D01*
X-139821Y-65195D01*
X-139819Y-65192D01*
X-139816Y-65191D01*
X-139784Y-65106D01*
X-139784Y-64340D01*
X-139784Y-64338D01*
X-139784Y-64336D01*
X-139804Y-64293D01*
X-139822Y-64249D01*
X-139824Y-64249D01*
X-139825Y-64247D01*
X-139910Y-64214D01*
X-146904Y-64214D01*
X-146906Y-64215D01*
X-146908Y-64214D01*
X-146951Y-64234D01*
X-146995Y-64252D01*
X-146996Y-64254D01*
X-146998Y-64255D01*
X-147031Y-64340D01*
X-147031Y-66122D01*
X-147030Y-66124D01*
X-147030Y-66126D01*
X-147011Y-66169D01*
X-146992Y-66213D01*
X-146990Y-66214D01*
X-146989Y-66216D01*
X-146904Y-66248D01*
X-140926Y-66248D01*
X-140923Y-66247D01*
G37*
%LPC*%
G36*
X-715001Y-62501D02*
X-715001Y-62501D01*
X-715001Y-62499D01*
X-714999Y-62499D01*
X-714999Y-62501D01*
X-715001Y-62501D01*
G37*
%LPD*%
%LPC*%
G36*
X-360001Y32499D02*
X-360001Y32499D01*
X-360001Y32501D01*
X-359999Y32501D01*
X-359999Y32499D01*
X-360001Y32499D01*
G37*
%LPD*%
%LPC*%
G36*
X-573101Y-109301D02*
X-573101Y-109301D01*
X-573101Y-109299D01*
X-573099Y-109299D01*
X-573099Y-109301D01*
X-573101Y-109301D01*
G37*
%LPD*%
%LPC*%
G36*
X-573101Y-134701D02*
X-573101Y-134701D01*
X-573101Y-134699D01*
X-573099Y-134699D01*
X-573099Y-134701D01*
X-573101Y-134701D01*
G37*
%LPD*%
%LPC*%
G36*
X-496901Y-109301D02*
X-496901Y-109301D01*
X-496901Y-109299D01*
X-496899Y-109299D01*
X-496899Y-109301D01*
X-496901Y-109301D01*
G37*
%LPD*%
%LPC*%
G36*
X-128901Y-57231D02*
X-128901Y-57231D01*
X-128901Y-57229D01*
X-128899Y-57229D01*
X-128899Y-57231D01*
X-128901Y-57231D01*
G37*
%LPD*%
%LPC*%
G36*
X-128901Y44449D02*
X-128901Y44449D01*
X-128901Y44451D01*
X-128899Y44451D01*
X-128899Y44449D01*
X-128901Y44449D01*
G37*
%LPD*%
%LPC*%
G36*
X-542501Y49999D02*
X-542501Y49999D01*
X-542501Y50001D01*
X-542499Y50001D01*
X-542499Y49999D01*
X-542501Y49999D01*
G37*
%LPD*%
D10*
X-114845Y36895D02*
X-113955Y36895D01*
X-113955Y36005D01*
X-114845Y36005D01*
X-114845Y36895D01*
X-114845Y36850D02*
X-113955Y36850D01*
D11*
X-111400Y40950D02*
X-117400Y40950D01*
X-111400Y40950D02*
X-111400Y39950D01*
X-117400Y39950D01*
X-117400Y40950D01*
X-117400Y40900D02*
X-111400Y40900D01*
X-111400Y44950D02*
X-117400Y44950D01*
X-111400Y44950D02*
X-111400Y43950D01*
X-117400Y43950D01*
X-117400Y44950D01*
X-117400Y44900D02*
X-111400Y44900D01*
X-111400Y48950D02*
X-117400Y48950D01*
X-111400Y48950D02*
X-111400Y47950D01*
X-117400Y47950D01*
X-117400Y48950D01*
X-117400Y48900D02*
X-111400Y48900D01*
D10*
X-113955Y52895D02*
X-114845Y52895D01*
X-113955Y52895D02*
X-113955Y52005D01*
X-114845Y52005D01*
X-114845Y52895D01*
X-114845Y52850D02*
X-113955Y52850D01*
X-121345Y58505D02*
X-121345Y59395D01*
X-120455Y59395D01*
X-120455Y58505D01*
X-121345Y58505D01*
X-121345Y59350D02*
X-120455Y59350D01*
D11*
X-125400Y61950D02*
X-125400Y55950D01*
X-125400Y61950D02*
X-124400Y61950D01*
X-124400Y55950D01*
X-125400Y55950D01*
X-125400Y56900D02*
X-124400Y56900D01*
X-124400Y57850D02*
X-125400Y57850D01*
X-125400Y58800D02*
X-124400Y58800D01*
X-124400Y59750D02*
X-125400Y59750D01*
X-125400Y60700D02*
X-124400Y60700D01*
X-124400Y61650D02*
X-125400Y61650D01*
X-129400Y61950D02*
X-129400Y55950D01*
X-129400Y61950D02*
X-128400Y61950D01*
X-128400Y55950D01*
X-129400Y55950D01*
X-129400Y56900D02*
X-128400Y56900D01*
X-128400Y57850D02*
X-129400Y57850D01*
X-129400Y58800D02*
X-128400Y58800D01*
X-128400Y59750D02*
X-129400Y59750D01*
X-129400Y60700D02*
X-128400Y60700D01*
X-128400Y61650D02*
X-129400Y61650D01*
X-133400Y61950D02*
X-133400Y55950D01*
X-133400Y61950D02*
X-132400Y61950D01*
X-132400Y55950D01*
X-133400Y55950D01*
X-133400Y56900D02*
X-132400Y56900D01*
X-132400Y57850D02*
X-133400Y57850D01*
X-133400Y58800D02*
X-132400Y58800D01*
X-132400Y59750D02*
X-133400Y59750D01*
X-133400Y60700D02*
X-132400Y60700D01*
X-132400Y61650D02*
X-133400Y61650D01*
D10*
X-137345Y59395D02*
X-137345Y58505D01*
X-137345Y59395D02*
X-136455Y59395D01*
X-136455Y58505D01*
X-137345Y58505D01*
X-137345Y59350D02*
X-136455Y59350D01*
X-142955Y52005D02*
X-143845Y52005D01*
X-143845Y52895D01*
X-142955Y52895D01*
X-142955Y52005D01*
X-142955Y52850D02*
X-143845Y52850D01*
D11*
X-146400Y47950D02*
X-140400Y47950D01*
X-146400Y47950D02*
X-146400Y48950D01*
X-140400Y48950D01*
X-140400Y47950D01*
X-140400Y48900D02*
X-146400Y48900D01*
X-146400Y43950D02*
X-140400Y43950D01*
X-146400Y43950D02*
X-146400Y44950D01*
X-140400Y44950D01*
X-140400Y43950D01*
X-140400Y44900D02*
X-146400Y44900D01*
X-146400Y39950D02*
X-140400Y39950D01*
X-146400Y39950D02*
X-146400Y40950D01*
X-140400Y40950D01*
X-140400Y39950D01*
X-140400Y40900D02*
X-146400Y40900D01*
D10*
X-143845Y36005D02*
X-142955Y36005D01*
X-143845Y36005D02*
X-143845Y36895D01*
X-142955Y36895D01*
X-142955Y36005D01*
X-142955Y36850D02*
X-143845Y36850D01*
X-136455Y30395D02*
X-136455Y29505D01*
X-137345Y29505D01*
X-137345Y30395D01*
X-136455Y30395D01*
X-136455Y30350D02*
X-137345Y30350D01*
D11*
X-132400Y32950D02*
X-132400Y26950D01*
X-133400Y26950D01*
X-133400Y32950D01*
X-132400Y32950D01*
X-132400Y27900D02*
X-133400Y27900D01*
X-133400Y28850D02*
X-132400Y28850D01*
X-132400Y29800D02*
X-133400Y29800D01*
X-133400Y30750D02*
X-132400Y30750D01*
X-132400Y31700D02*
X-133400Y31700D01*
X-133400Y32650D02*
X-132400Y32650D01*
X-128400Y32950D02*
X-128400Y26950D01*
X-129400Y26950D01*
X-129400Y32950D01*
X-128400Y32950D01*
X-128400Y27900D02*
X-129400Y27900D01*
X-129400Y28850D02*
X-128400Y28850D01*
X-128400Y29800D02*
X-129400Y29800D01*
X-129400Y30750D02*
X-128400Y30750D01*
X-128400Y31700D02*
X-129400Y31700D01*
X-129400Y32650D02*
X-128400Y32650D01*
X-124400Y32950D02*
X-124400Y26950D01*
X-125400Y26950D01*
X-125400Y32950D01*
X-124400Y32950D01*
X-124400Y27900D02*
X-125400Y27900D01*
X-125400Y28850D02*
X-124400Y28850D01*
X-124400Y29800D02*
X-125400Y29800D01*
X-125400Y30750D02*
X-124400Y30750D01*
X-124400Y31700D02*
X-125400Y31700D01*
X-125400Y32650D02*
X-124400Y32650D01*
D10*
X-120455Y30395D02*
X-120455Y29505D01*
X-121345Y29505D01*
X-121345Y30395D01*
X-120455Y30395D01*
X-120455Y30350D02*
X-121345Y30350D01*
D12*
X-124650Y40200D02*
X-124650Y48700D01*
X-124650Y40200D02*
X-133150Y40200D01*
X-133150Y48700D01*
X-124650Y48700D01*
X-124650Y48275D02*
X-133150Y48275D01*
D10*
X-114845Y-64785D02*
X-113955Y-64785D01*
X-113955Y-65675D01*
X-114845Y-65675D01*
X-114845Y-64785D01*
X-114845Y-64830D02*
X-113955Y-64830D01*
D11*
X-111400Y-60730D02*
X-117400Y-60730D01*
X-111400Y-60730D02*
X-111400Y-61730D01*
X-117400Y-61730D01*
X-117400Y-60730D01*
X-117400Y-60780D02*
X-111400Y-60780D01*
X-111400Y-56730D02*
X-117400Y-56730D01*
X-111400Y-56730D02*
X-111400Y-57730D01*
X-117400Y-57730D01*
X-117400Y-56730D01*
X-117400Y-56780D02*
X-111400Y-56780D01*
X-111400Y-52730D02*
X-117400Y-52730D01*
X-111400Y-52730D02*
X-111400Y-53730D01*
X-117400Y-53730D01*
X-117400Y-52730D01*
X-117400Y-52780D02*
X-111400Y-52780D01*
D10*
X-113955Y-48785D02*
X-114845Y-48785D01*
X-113955Y-48785D02*
X-113955Y-49675D01*
X-114845Y-49675D01*
X-114845Y-48785D01*
X-114845Y-48830D02*
X-113955Y-48830D01*
X-121345Y-43175D02*
X-121345Y-42285D01*
X-120455Y-42285D01*
X-120455Y-43175D01*
X-121345Y-43175D01*
X-121345Y-42330D02*
X-120455Y-42330D01*
D11*
X-125400Y-39730D02*
X-125400Y-45730D01*
X-125400Y-39730D02*
X-124400Y-39730D01*
X-124400Y-45730D01*
X-125400Y-45730D01*
X-125400Y-44780D02*
X-124400Y-44780D01*
X-124400Y-43830D02*
X-125400Y-43830D01*
X-125400Y-42880D02*
X-124400Y-42880D01*
X-124400Y-41930D02*
X-125400Y-41930D01*
X-125400Y-40980D02*
X-124400Y-40980D01*
X-124400Y-40030D02*
X-125400Y-40030D01*
X-129400Y-39730D02*
X-129400Y-45730D01*
X-129400Y-39730D02*
X-128400Y-39730D01*
X-128400Y-45730D01*
X-129400Y-45730D01*
X-129400Y-44780D02*
X-128400Y-44780D01*
X-128400Y-43830D02*
X-129400Y-43830D01*
X-129400Y-42880D02*
X-128400Y-42880D01*
X-128400Y-41930D02*
X-129400Y-41930D01*
X-129400Y-40980D02*
X-128400Y-40980D01*
X-128400Y-40030D02*
X-129400Y-40030D01*
X-133400Y-39730D02*
X-133400Y-45730D01*
X-133400Y-39730D02*
X-132400Y-39730D01*
X-132400Y-45730D01*
X-133400Y-45730D01*
X-133400Y-44780D02*
X-132400Y-44780D01*
X-132400Y-43830D02*
X-133400Y-43830D01*
X-133400Y-42880D02*
X-132400Y-42880D01*
X-132400Y-41930D02*
X-133400Y-41930D01*
X-133400Y-40980D02*
X-132400Y-40980D01*
X-132400Y-40030D02*
X-133400Y-40030D01*
D10*
X-137345Y-42285D02*
X-137345Y-43175D01*
X-137345Y-42285D02*
X-136455Y-42285D01*
X-136455Y-43175D01*
X-137345Y-43175D01*
X-137345Y-42330D02*
X-136455Y-42330D01*
X-142955Y-49675D02*
X-143845Y-49675D01*
X-143845Y-48785D01*
X-142955Y-48785D01*
X-142955Y-49675D01*
X-142955Y-48830D02*
X-143845Y-48830D01*
D11*
X-146400Y-53730D02*
X-140400Y-53730D01*
X-146400Y-53730D02*
X-146400Y-52730D01*
X-140400Y-52730D01*
X-140400Y-53730D01*
X-140400Y-52780D02*
X-146400Y-52780D01*
X-146400Y-57730D02*
X-140400Y-57730D01*
X-146400Y-57730D02*
X-146400Y-56730D01*
X-140400Y-56730D01*
X-140400Y-57730D01*
X-140400Y-56780D02*
X-146400Y-56780D01*
X-146400Y-61730D02*
X-140400Y-61730D01*
X-146400Y-61730D02*
X-146400Y-60730D01*
X-140400Y-60730D01*
X-140400Y-61730D01*
X-140400Y-60780D02*
X-146400Y-60780D01*
D10*
X-143845Y-65675D02*
X-142955Y-65675D01*
X-143845Y-65675D02*
X-143845Y-64785D01*
X-142955Y-64785D01*
X-142955Y-65675D01*
X-142955Y-64830D02*
X-143845Y-64830D01*
X-136455Y-71285D02*
X-136455Y-72175D01*
X-137345Y-72175D01*
X-137345Y-71285D01*
X-136455Y-71285D01*
X-136455Y-71330D02*
X-137345Y-71330D01*
D11*
X-132400Y-68730D02*
X-132400Y-74730D01*
X-133400Y-74730D01*
X-133400Y-68730D01*
X-132400Y-68730D01*
X-132400Y-73780D02*
X-133400Y-73780D01*
X-133400Y-72830D02*
X-132400Y-72830D01*
X-132400Y-71880D02*
X-133400Y-71880D01*
X-133400Y-70930D02*
X-132400Y-70930D01*
X-132400Y-69980D02*
X-133400Y-69980D01*
X-133400Y-69030D02*
X-132400Y-69030D01*
X-128400Y-68730D02*
X-128400Y-74730D01*
X-129400Y-74730D01*
X-129400Y-68730D01*
X-128400Y-68730D01*
X-128400Y-73780D02*
X-129400Y-73780D01*
X-129400Y-72830D02*
X-128400Y-72830D01*
X-128400Y-71880D02*
X-129400Y-71880D01*
X-129400Y-70930D02*
X-128400Y-70930D01*
X-128400Y-69980D02*
X-129400Y-69980D01*
X-129400Y-69030D02*
X-128400Y-69030D01*
X-124400Y-68730D02*
X-124400Y-74730D01*
X-125400Y-74730D01*
X-125400Y-68730D01*
X-124400Y-68730D01*
X-124400Y-73780D02*
X-125400Y-73780D01*
X-125400Y-72830D02*
X-124400Y-72830D01*
X-124400Y-71880D02*
X-125400Y-71880D01*
X-125400Y-70930D02*
X-124400Y-70930D01*
X-124400Y-69980D02*
X-125400Y-69980D01*
X-125400Y-69030D02*
X-124400Y-69030D01*
D10*
X-120455Y-71285D02*
X-120455Y-72175D01*
X-121345Y-72175D01*
X-121345Y-71285D01*
X-120455Y-71285D01*
X-120455Y-71330D02*
X-121345Y-71330D01*
D12*
X-124650Y-61480D02*
X-124650Y-52980D01*
X-124650Y-61480D02*
X-133150Y-61480D01*
X-133150Y-52980D01*
X-124650Y-52980D01*
X-124650Y-53405D02*
X-133150Y-53405D01*
D13*
X-170375Y-45065D02*
X-172875Y-45065D01*
X-172875Y-42565D01*
X-170375Y-42565D01*
X-170375Y-45065D01*
X-170375Y-42690D02*
X-172875Y-42690D01*
X-163625Y-45065D02*
X-161125Y-45065D01*
X-163625Y-45065D02*
X-163625Y-42565D01*
X-161125Y-42565D01*
X-161125Y-45065D01*
X-161125Y-42690D02*
X-163625Y-42690D01*
X-170375Y-53955D02*
X-172875Y-53955D01*
X-172875Y-51455D01*
X-170375Y-51455D01*
X-170375Y-53955D01*
X-170375Y-51580D02*
X-172875Y-51580D01*
X-163625Y-53955D02*
X-161125Y-53955D01*
X-163625Y-53955D02*
X-163625Y-51455D01*
X-161125Y-51455D01*
X-161125Y-53955D01*
X-161125Y-51580D02*
X-163625Y-51580D01*
X-118760Y6952D02*
X-118760Y9452D01*
X-118760Y6952D02*
X-121260Y6952D01*
X-121260Y9452D01*
X-118760Y9452D01*
X-118760Y9327D02*
X-121260Y9327D01*
X-118760Y16202D02*
X-118760Y18702D01*
X-118760Y16202D02*
X-121260Y16202D01*
X-121260Y18702D01*
X-118760Y18702D01*
X-118760Y18577D02*
X-121260Y18577D01*
X-141165Y-90150D02*
X-143665Y-90150D01*
X-143665Y-87650D01*
X-141165Y-87650D01*
X-141165Y-90150D01*
X-141165Y-87775D02*
X-143665Y-87775D01*
X-134415Y-90150D02*
X-131915Y-90150D01*
X-134415Y-90150D02*
X-134415Y-87650D01*
X-131915Y-87650D01*
X-131915Y-90150D01*
X-131915Y-87775D02*
X-134415Y-87775D01*
X-87425Y59035D02*
X-84925Y59035D01*
X-84925Y56535D01*
X-87425Y56535D01*
X-87425Y59035D01*
X-87425Y58910D02*
X-84925Y58910D01*
X-94175Y59035D02*
X-96675Y59035D01*
X-94175Y59035D02*
X-94175Y56535D01*
X-96675Y56535D01*
X-96675Y59035D01*
X-96675Y58910D02*
X-94175Y58910D01*
X-112370Y85925D02*
X-112370Y88425D01*
X-109870Y88425D01*
X-109870Y85925D01*
X-112370Y85925D01*
X-112370Y88300D02*
X-109870Y88300D01*
X-112370Y79175D02*
X-112370Y76675D01*
X-112370Y79175D02*
X-109870Y79175D01*
X-109870Y76675D01*
X-112370Y76675D01*
X-112370Y79050D02*
X-109870Y79050D01*
X-121260Y85925D02*
X-121260Y88425D01*
X-118760Y88425D01*
X-118760Y85925D01*
X-121260Y85925D01*
X-121260Y88300D02*
X-118760Y88300D01*
X-121260Y79175D02*
X-121260Y76675D01*
X-121260Y79175D02*
X-118760Y79175D01*
X-118760Y76675D01*
X-121260Y76675D01*
X-121260Y79050D02*
X-118760Y79050D01*
X-130150Y85925D02*
X-130150Y88425D01*
X-127650Y88425D01*
X-127650Y85925D01*
X-130150Y85925D01*
X-130150Y88300D02*
X-127650Y88300D01*
X-130150Y79175D02*
X-130150Y76675D01*
X-130150Y79175D02*
X-127650Y79175D01*
X-127650Y76675D01*
X-130150Y76675D01*
X-130150Y79050D02*
X-127650Y79050D01*
X-170375Y38755D02*
X-172875Y38755D01*
X-172875Y41255D01*
X-170375Y41255D01*
X-170375Y38755D01*
X-170375Y41130D02*
X-172875Y41130D01*
X-163625Y38755D02*
X-161125Y38755D01*
X-163625Y38755D02*
X-163625Y41255D01*
X-161125Y41255D01*
X-161125Y38755D01*
X-161125Y41130D02*
X-163625Y41130D01*
X-170375Y47645D02*
X-172875Y47645D01*
X-172875Y50145D01*
X-170375Y50145D01*
X-170375Y47645D01*
X-170375Y50020D02*
X-172875Y50020D01*
X-163625Y47645D02*
X-161125Y47645D01*
X-163625Y47645D02*
X-163625Y50145D01*
X-161125Y50145D01*
X-161125Y47645D01*
X-161125Y50020D02*
X-163625Y50020D01*
X-147930Y85925D02*
X-147930Y88425D01*
X-145430Y88425D01*
X-145430Y85925D01*
X-147930Y85925D01*
X-147930Y88300D02*
X-145430Y88300D01*
X-147930Y79175D02*
X-147930Y76675D01*
X-147930Y79175D02*
X-145430Y79175D01*
X-145430Y76675D01*
X-147930Y76675D01*
X-147930Y79050D02*
X-145430Y79050D01*
X-139040Y85925D02*
X-139040Y88425D01*
X-136540Y88425D01*
X-136540Y85925D01*
X-139040Y85925D01*
X-139040Y88300D02*
X-136540Y88300D01*
X-139040Y79175D02*
X-139040Y76675D01*
X-139040Y79175D02*
X-136540Y79175D01*
X-136540Y76675D01*
X-139040Y76675D01*
X-139040Y79050D02*
X-136540Y79050D01*
X-130150Y18702D02*
X-130150Y16202D01*
X-130150Y18702D02*
X-127650Y18702D01*
X-127650Y16202D01*
X-130150Y16202D01*
X-130150Y18577D02*
X-127650Y18577D01*
X-130150Y9452D02*
X-130150Y6952D01*
X-130150Y9452D02*
X-127650Y9452D01*
X-127650Y6952D01*
X-130150Y6952D01*
X-130150Y9327D02*
X-127650Y9327D01*
X-139040Y16202D02*
X-139040Y18702D01*
X-136540Y18702D01*
X-136540Y16202D01*
X-139040Y16202D01*
X-139040Y18577D02*
X-136540Y18577D01*
X-139040Y9452D02*
X-139040Y6952D01*
X-139040Y9452D02*
X-136540Y9452D01*
X-136540Y6952D01*
X-139040Y6952D01*
X-139040Y9327D02*
X-136540Y9327D01*
X-147930Y16202D02*
X-147930Y18702D01*
X-145430Y18702D01*
X-145430Y16202D01*
X-147930Y16202D01*
X-147930Y18577D02*
X-145430Y18577D01*
X-147930Y9452D02*
X-147930Y6952D01*
X-147930Y9452D02*
X-145430Y9452D01*
X-145430Y6952D01*
X-147930Y6952D01*
X-147930Y9327D02*
X-145430Y9327D01*
X-161125Y32365D02*
X-163625Y32365D01*
X-161125Y32365D02*
X-161125Y29865D01*
X-163625Y29865D01*
X-163625Y32365D01*
X-163625Y32240D02*
X-161125Y32240D01*
X-170375Y32365D02*
X-172875Y32365D01*
X-170375Y32365D02*
X-170375Y29865D01*
X-172875Y29865D01*
X-172875Y32365D01*
X-172875Y32240D02*
X-170375Y32240D01*
X-109870Y9452D02*
X-109870Y6952D01*
X-112370Y6952D01*
X-112370Y9452D01*
X-109870Y9452D01*
X-109870Y9327D02*
X-112370Y9327D01*
X-109870Y16202D02*
X-109870Y18702D01*
X-109870Y16202D02*
X-112370Y16202D01*
X-112370Y18702D01*
X-109870Y18702D01*
X-109870Y18577D02*
X-112370Y18577D01*
X-87425Y32365D02*
X-84925Y32365D01*
X-84925Y29865D01*
X-87425Y29865D01*
X-87425Y32365D01*
X-87425Y32240D02*
X-84925Y32240D01*
X-94175Y32365D02*
X-96675Y32365D01*
X-94175Y32365D02*
X-94175Y29865D01*
X-96675Y29865D01*
X-96675Y32365D01*
X-96675Y32240D02*
X-94175Y32240D01*
X-114135Y-87650D02*
X-116635Y-87650D01*
X-114135Y-87650D02*
X-114135Y-90150D01*
X-116635Y-90150D01*
X-116635Y-87650D01*
X-116635Y-87775D02*
X-114135Y-87775D01*
X-123385Y-87650D02*
X-125885Y-87650D01*
X-123385Y-87650D02*
X-123385Y-90150D01*
X-125885Y-90150D01*
X-125885Y-87650D01*
X-125885Y-87775D02*
X-123385Y-87775D01*
X-87425Y-69235D02*
X-84925Y-69235D01*
X-84925Y-71735D01*
X-87425Y-71735D01*
X-87425Y-69235D01*
X-87425Y-69360D02*
X-84925Y-69360D01*
X-94175Y-69235D02*
X-96675Y-69235D01*
X-94175Y-69235D02*
X-94175Y-71735D01*
X-96675Y-71735D01*
X-96675Y-69235D01*
X-96675Y-69360D02*
X-94175Y-69360D01*
X-87425Y41255D02*
X-84925Y41255D01*
X-84925Y38755D01*
X-87425Y38755D01*
X-87425Y41255D01*
X-87425Y41130D02*
X-84925Y41130D01*
X-94175Y41255D02*
X-96675Y41255D01*
X-94175Y41255D02*
X-94175Y38755D01*
X-96675Y38755D01*
X-96675Y41255D01*
X-96675Y41130D02*
X-94175Y41130D01*
X-87425Y50145D02*
X-84925Y50145D01*
X-84925Y47645D01*
X-87425Y47645D01*
X-87425Y50145D01*
X-87425Y50020D02*
X-84925Y50020D01*
X-94175Y50145D02*
X-96675Y50145D01*
X-94175Y50145D02*
X-94175Y47645D01*
X-96675Y47645D01*
X-96675Y50145D01*
X-96675Y50020D02*
X-94175Y50020D01*
X-87425Y-60345D02*
X-84925Y-60345D01*
X-84925Y-62845D01*
X-87425Y-62845D01*
X-87425Y-60345D01*
X-87425Y-60470D02*
X-84925Y-60470D01*
X-94175Y-60345D02*
X-96675Y-60345D01*
X-94175Y-60345D02*
X-94175Y-62845D01*
X-96675Y-62845D01*
X-96675Y-60345D01*
X-96675Y-60470D02*
X-94175Y-60470D01*
X-87425Y-51455D02*
X-84925Y-51455D01*
X-84925Y-53955D01*
X-87425Y-53955D01*
X-87425Y-51455D01*
X-87425Y-51580D02*
X-84925Y-51580D01*
X-94175Y-51455D02*
X-96675Y-51455D01*
X-94175Y-51455D02*
X-94175Y-53955D01*
X-96675Y-53955D01*
X-96675Y-51455D01*
X-96675Y-51580D02*
X-94175Y-51580D01*
D14*
X0Y0D03*
X50000Y0D03*
X100000Y0D03*
X150000Y0D03*
X200000Y0D03*
X250000Y0D03*
X300000Y0D03*
X350000Y0D03*
X400000Y0D03*
X450000Y0D03*
X500000Y0D03*
X550000Y0D03*
X650800Y0D03*
X699530Y0D03*
X749530Y0D03*
X799530Y0D03*
X849530Y0D03*
X599810Y0D03*
X950000Y0D03*
X900000Y0D03*
D13*
X-84925Y-42565D02*
X-87425Y-42565D01*
X-84925Y-42565D02*
X-84925Y-45065D01*
X-87425Y-45065D01*
X-87425Y-42565D01*
X-87425Y-42690D02*
X-84925Y-42690D01*
X-94175Y-42565D02*
X-96675Y-42565D01*
X-94175Y-42565D02*
X-94175Y-45065D01*
X-96675Y-45065D01*
X-96675Y-42565D01*
X-96675Y-42690D02*
X-94175Y-42690D01*
X-112370Y-21771D02*
X-112370Y-19271D01*
X-109870Y-19271D01*
X-109870Y-21771D01*
X-112370Y-21771D01*
X-112370Y-19396D02*
X-109870Y-19396D01*
X-112370Y-28521D02*
X-112370Y-31021D01*
X-112370Y-28521D02*
X-109870Y-28521D01*
X-109870Y-31021D01*
X-112370Y-31021D01*
X-112370Y-28646D02*
X-109870Y-28646D01*
X-121260Y-21771D02*
X-121260Y-19271D01*
X-118760Y-19271D01*
X-118760Y-21771D01*
X-121260Y-21771D01*
X-121260Y-19396D02*
X-118760Y-19396D01*
X-121260Y-28521D02*
X-121260Y-31021D01*
X-121260Y-28521D02*
X-118760Y-28521D01*
X-118760Y-31021D01*
X-121260Y-31021D01*
X-121260Y-28646D02*
X-118760Y-28646D01*
X-130150Y-21771D02*
X-130150Y-19271D01*
X-127650Y-19271D01*
X-127650Y-21771D01*
X-130150Y-21771D01*
X-130150Y-19396D02*
X-127650Y-19396D01*
X-130150Y-28521D02*
X-130150Y-31021D01*
X-130150Y-28521D02*
X-127650Y-28521D01*
X-127650Y-31021D01*
X-130150Y-31021D01*
X-130150Y-28646D02*
X-127650Y-28646D01*
X-170375Y-71735D02*
X-172875Y-71735D01*
X-172875Y-69235D01*
X-170375Y-69235D01*
X-170375Y-71735D01*
X-170375Y-69360D02*
X-172875Y-69360D01*
X-163625Y-71735D02*
X-161125Y-71735D01*
X-163625Y-71735D02*
X-163625Y-69235D01*
X-161125Y-69235D01*
X-161125Y-71735D01*
X-161125Y-69360D02*
X-163625Y-69360D01*
X-170375Y-62845D02*
X-172875Y-62845D01*
X-172875Y-60345D01*
X-170375Y-60345D01*
X-170375Y-62845D01*
X-170375Y-60470D02*
X-172875Y-60470D01*
X-163625Y-62845D02*
X-161125Y-62845D01*
X-163625Y-62845D02*
X-163625Y-60345D01*
X-161125Y-60345D01*
X-161125Y-62845D01*
X-161125Y-60470D02*
X-163625Y-60470D01*
X-147930Y-21771D02*
X-147930Y-19271D01*
X-145430Y-19271D01*
X-145430Y-21771D01*
X-147930Y-21771D01*
X-147930Y-19396D02*
X-145430Y-19396D01*
X-147930Y-28521D02*
X-147930Y-31021D01*
X-147930Y-28521D02*
X-145430Y-28521D01*
X-145430Y-31021D01*
X-147930Y-31021D01*
X-147930Y-28646D02*
X-145430Y-28646D01*
X-139040Y-21771D02*
X-139040Y-19271D01*
X-136540Y-19271D01*
X-136540Y-21771D01*
X-139040Y-21771D01*
X-139040Y-19396D02*
X-136540Y-19396D01*
X-139040Y-28521D02*
X-139040Y-31021D01*
X-139040Y-28521D02*
X-136540Y-28521D01*
X-136540Y-31021D01*
X-139040Y-31021D01*
X-139040Y-28646D02*
X-136540Y-28646D01*
D15*
X-640000Y90000D03*
X-610000Y90000D03*
D16*
X-750900Y-134700D03*
D17*
X-750900Y-109300D03*
X-725500Y-134700D03*
X-725500Y-109300D03*
X-700100Y-134700D03*
X-700100Y-109300D03*
X-674700Y-134700D03*
X-674700Y-109300D03*
X-649300Y-134700D03*
X-649300Y-109300D03*
X-623900Y-134700D03*
X-623900Y-109300D03*
X-598500Y-134700D03*
X-598500Y-109300D03*
X-573100Y-134700D03*
X-573100Y-109300D03*
X-547700Y-134700D03*
X-547700Y-109300D03*
X-522300Y-134700D03*
X-522300Y-109300D03*
X-496900Y-134700D03*
X-496900Y-109300D03*
X-471500Y-134700D03*
X-471500Y-109300D03*
X-446100Y-134700D03*
X-446100Y-109300D03*
X-420700Y-134700D03*
X-420700Y-109300D03*
X-395300Y-134700D03*
X-395300Y-109300D03*
X-369900Y-134700D03*
X-369900Y-109300D03*
X-344500Y-134700D03*
X-344500Y-109300D03*
X-319100Y-134700D03*
X-319100Y-109300D03*
D16*
X-750900Y119300D03*
D17*
X-750900Y144700D03*
X-725500Y119300D03*
X-725500Y144700D03*
X-700100Y119300D03*
X-700100Y144700D03*
X-674700Y119300D03*
X-674700Y144700D03*
X-649300Y119300D03*
X-649300Y144700D03*
X-623900Y119300D03*
X-623900Y144700D03*
X-598500Y119300D03*
X-598500Y144700D03*
X-573100Y119300D03*
X-573100Y144700D03*
X-547700Y119300D03*
X-547700Y144700D03*
X-522300Y119300D03*
X-522300Y144700D03*
X-496900Y119300D03*
X-496900Y144700D03*
X-471500Y119300D03*
X-471500Y144700D03*
X-446100Y119300D03*
X-446100Y144700D03*
X-420700Y119300D03*
X-420700Y144700D03*
X-395300Y119300D03*
X-395300Y144700D03*
X-369900Y119300D03*
X-369900Y144700D03*
X-344500Y119300D03*
X-344500Y144700D03*
X-319100Y119300D03*
X-319100Y144700D03*
D18*
X-765000Y62500D03*
X-715000Y62500D03*
X-715000Y-62500D03*
X-765000Y-62500D03*
D19*
X-360000Y32500D03*
X-360000Y-32500D03*
D20*
X-557500Y50000D03*
X-542500Y50000D03*
X-557500Y-50000D03*
X-542500Y-50000D03*
D13*
X-743375Y88750D02*
X-745875Y88750D01*
X-745875Y91250D01*
X-743375Y91250D01*
X-743375Y88750D01*
X-743375Y91125D02*
X-745875Y91125D01*
X-736625Y88750D02*
X-734125Y88750D01*
X-736625Y88750D02*
X-736625Y91250D01*
X-734125Y91250D01*
X-734125Y88750D01*
X-734125Y91125D02*
X-736625Y91125D01*
D21*
X-172080Y-19832D02*
X-172080Y-38100D01*
X-172080Y-19832D02*
X-162408Y-10160D01*
X-86355Y-70485D02*
X-86175Y-70485D01*
X-86355Y-70485D02*
X-92070Y-76200D01*
D22*
X-103500Y-73660D03*
D21*
X-100960Y-76200D02*
X-92070Y-76200D01*
X-100960Y-76200D02*
X-103500Y-73660D01*
X-171625Y-43815D02*
X-171625Y-38555D01*
X-172080Y-38100D01*
D22*
X-172080Y-38100D03*
D21*
X-162408Y-10160D02*
X-120010Y-10160D01*
X-103500Y6350D01*
X-103500Y19050D01*
X-97150Y25400D01*
X-91890Y25400D01*
X-86175Y31115D01*
X-200000Y-30000D02*
X-210000Y-30000D01*
D22*
X-200000Y-30000D03*
D21*
X-649300Y99300D02*
X-649300Y119300D01*
X-649300Y99300D02*
X-640000Y90000D01*
X-621315Y90000D01*
X-613314Y81999D01*
X-321999Y81999D02*
X-210000Y-30000D01*
X-321999Y81999D02*
X-613314Y81999D01*
X-164460Y-6350D02*
X-125672Y-6350D01*
X-111120Y8202D01*
X-109850Y-88900D02*
X-115385Y-88900D01*
D22*
X-109850Y-88900D03*
D21*
X-177160Y-52705D02*
X-177160Y-19050D01*
X-164460Y-6350D01*
X-171625Y-52705D02*
X-177160Y-52705D01*
D22*
X-177160Y-52705D03*
X-177160Y-19050D03*
D21*
X-200000Y-20000D02*
X-210000Y-20000D01*
D22*
X-200000Y-20000D03*
D21*
X-623900Y103900D02*
X-623900Y119300D01*
X-623900Y103900D02*
X-610000Y90000D01*
X-320000Y90000D01*
X-210000Y-20000D01*
X-86175Y-52525D02*
X-86175Y-52705D01*
D22*
X-128900Y44450D03*
D21*
X-114400Y44450D01*
D22*
X-78100Y44450D03*
X-78100Y36830D03*
D21*
X-114400Y-57230D02*
X-128900Y-57230D01*
D22*
X-128900Y-57150D03*
X-133980Y-52070D03*
X-123820Y-52070D03*
X-123820Y-62230D03*
X-133980Y-62230D03*
X-78100Y-43180D03*
X-79370Y-29210D03*
X-97150Y-25400D03*
X-78100Y-6350D03*
X-78100Y19050D03*
X-97150Y-90170D03*
X-78100Y-90170D03*
X-125090Y49530D03*
X-133980Y40640D03*
X-133980Y49530D03*
X-147950Y27940D03*
X-160650Y19050D03*
X-160650Y6350D03*
X-192400Y-44450D03*
X-192400Y-69850D03*
X-186050Y-88900D03*
D21*
X-114400Y-53230D02*
X-95950Y-53230D01*
X-95425Y-52705D01*
X-95425Y-60325D02*
X-95425Y-61595D01*
X-95870Y48450D02*
X-114400Y48450D01*
X-95870Y48450D02*
X-95425Y48895D01*
X-95425Y40005D01*
D22*
X-103500Y-60325D03*
D23*
X-95425Y-60325D01*
X-95425Y-60505D02*
X-95425Y-61595D01*
X-95425Y-60325D02*
X-95425Y-52705D01*
X-95425Y-60325D02*
X-95425Y-60505D01*
X-95880Y-60960D01*
X-162375Y-52705D02*
X-162375Y-43815D01*
X-162375Y-38280D01*
D22*
X-103500Y41910D03*
D23*
X-95425Y40005D02*
X-95425Y47805D01*
X-95880Y48260D01*
X-97330Y41910D02*
X-103500Y41910D01*
X-97330Y41910D02*
X-95425Y40005D01*
D22*
X-162375Y-38280D03*
D21*
X-720661Y75286D02*
X-735375Y90000D01*
X-720661Y75286D02*
X-709704Y75286D01*
X-598500Y-35918D01*
X-598500Y-109300D01*
X-704711Y135302D02*
X-727818Y135302D01*
X-710006Y140597D02*
X-704711Y135302D01*
X-710006Y140597D02*
X-710006Y148803D01*
X-704203Y154606D01*
X-619797Y154606D02*
X-613994Y148803D01*
X-594397Y129206D02*
X-588594Y123403D01*
X-738454Y124666D02*
X-738454Y113934D01*
X-738454Y124666D02*
X-727818Y135302D01*
X-598500Y-26020D02*
X-598500Y-109300D01*
X-613994Y146185D02*
X-613994Y148803D01*
X-613994Y146185D02*
X-597015Y129206D01*
X-594397Y129206D01*
X-738454Y113934D02*
X-598500Y-26020D01*
X-588594Y120785D02*
X-588594Y123403D01*
X-588594Y120785D02*
X-577203Y109394D01*
X-619797Y154606D02*
X-704203Y154606D01*
X-481406Y109394D02*
X-471500Y119300D01*
X-481406Y109394D02*
X-577203Y109394D01*
X-120010Y8202D02*
X-120010Y4644D01*
X-127194Y-2540D01*
X-164460Y-2540D01*
X-124900Y22342D02*
X-124900Y29950D01*
X-124900Y22342D02*
X-120010Y17452D01*
X-124900Y-71730D02*
X-124900Y-80635D01*
X-133165Y-88900D01*
X-120900Y25655D02*
X-120900Y29950D01*
X-120900Y25655D02*
X-117483Y22238D01*
X-112684Y17452D02*
X-111120Y17452D01*
X-115224Y20167D02*
X-117295Y22238D01*
X-115224Y20167D02*
X-115224Y19992D01*
X-112684Y17452D01*
X-117295Y22238D02*
X-117483Y22238D01*
X-114400Y36450D02*
X-100760Y36450D01*
X-95425Y31115D01*
X-120900Y-71730D02*
X-120900Y-85165D01*
X-124635Y-88900D01*
X-114400Y-65230D02*
X-100680Y-65230D01*
X-95425Y-70485D01*
X-100760Y52450D02*
X-114400Y52450D01*
X-100760Y52450D02*
X-95425Y57785D01*
X-120900Y58950D02*
X-120900Y68145D01*
X-111120Y77925D01*
X-124900Y73035D02*
X-124900Y58950D01*
X-124900Y73035D02*
X-120010Y77925D01*
X-128900Y77925D02*
X-128900Y58950D01*
X-143400Y40450D02*
X-161930Y40450D01*
X-162375Y40005D01*
X-157930Y44450D02*
X-143400Y44450D01*
X-157930Y44450D02*
X-162375Y48895D01*
X-136900Y58950D02*
X-136900Y68145D01*
X-146680Y77925D01*
X-132900Y73035D02*
X-132900Y58950D01*
X-132900Y73035D02*
X-137790Y77925D01*
X-128900Y29950D02*
X-128900Y17452D01*
X-132900Y22342D02*
X-132900Y29950D01*
X-132900Y22342D02*
X-137790Y17452D01*
X-136900Y27232D02*
X-136900Y29950D01*
X-136900Y27232D02*
X-146680Y17452D01*
X-143400Y36450D02*
X-157040Y36450D01*
X-162375Y31115D01*
D24*
X400000Y0D02*
X400000Y66040D01*
X400000Y80000D01*
X400000Y0D02*
X400000Y-80000D01*
D21*
X-171625Y31115D02*
X-177160Y31115D01*
D22*
X-177160Y31115D03*
X400000Y66040D03*
D21*
X-132900Y-34661D02*
X-132900Y-42730D01*
X-132900Y-34661D02*
X-137790Y-29771D01*
X-136900Y-39551D02*
X-136900Y-42730D01*
X-136900Y-39551D02*
X-146680Y-29771D01*
X-143400Y-57230D02*
X-158010Y-57230D01*
X-162375Y-61595D01*
X-153120Y-61230D02*
X-143400Y-61230D01*
X-153120Y-61230D02*
X-162375Y-70485D01*
X-128900Y-42730D02*
X-128900Y-29771D01*
X-124900Y-34661D02*
X-124900Y-42730D01*
X-124900Y-34661D02*
X-120010Y-29771D01*
X-120900Y-39551D02*
X-120900Y-42730D01*
X-120900Y-39551D02*
X-111120Y-29771D01*
X-114400Y-49230D02*
X-100840Y-49230D01*
X-95425Y-43815D01*
D24*
X849530Y0D02*
X849530Y80000D01*
X849530Y0D02*
X849530Y-73660D01*
X849530Y-80000D01*
D21*
X-146680Y-20521D02*
X-146680Y-15240D01*
D22*
X-146680Y-15240D03*
X849530Y-73660D03*
D24*
X900000Y0D02*
X900000Y80000D01*
X900000Y0D02*
X900000Y-77470D01*
X900000Y-80000D01*
D21*
X-171625Y-61595D02*
X-177160Y-61595D01*
D22*
X-177160Y-61595D03*
X900000Y-77470D03*
D24*
X950000Y0D02*
X950000Y80000D01*
X950000Y0D02*
X950000Y-66040D01*
X950000Y-80000D01*
D21*
X949960Y-82550D02*
X949960Y-88900D01*
X949960Y-82550D02*
X949960Y-80040D01*
X950000Y-80000D01*
X-171625Y-70485D02*
X-177160Y-70485D01*
D22*
X-177160Y-70485D03*
X949960Y-82550D03*
D21*
X949960Y-66080D01*
X950000Y-66040D01*
D24*
X650800Y0D02*
X650800Y80000D01*
X650800Y0D02*
X650800Y-58420D01*
X650800Y-80000D01*
D21*
X-111120Y-20521D02*
X-111120Y-15240D01*
D22*
X-111120Y-15240D03*
X650800Y-58420D03*
D24*
X699530Y0D02*
X699530Y80000D01*
X699530Y0D02*
X699530Y-62230D01*
X699530Y-80000D01*
D21*
X-120010Y-20521D02*
X-120010Y-15240D01*
D22*
X-120010Y-15240D03*
X699530Y-62230D03*
D24*
X749530Y0D02*
X749530Y80000D01*
X749530Y0D02*
X749530Y-66040D01*
X749530Y-80000D01*
D21*
X-128900Y-20521D02*
X-128900Y-15240D01*
D22*
X-128900Y-15240D03*
X749530Y-66040D03*
D24*
X799530Y0D02*
X799530Y80000D01*
X799530Y0D02*
X799530Y-69850D01*
X799530Y-80000D01*
D21*
X-137790Y-20521D02*
X-137790Y-15240D01*
D22*
X-137790Y-15240D03*
X799530Y-69850D03*
D24*
X450000Y0D02*
X450000Y48260D01*
X450000Y80000D01*
X450000Y0D02*
X450000Y-80000D01*
D22*
X-128900Y3175D03*
X450000Y48260D03*
D21*
X-128900Y8255D02*
X-128900Y8202D01*
X-128900Y3175D01*
D24*
X500000Y0D02*
X500000Y53340D01*
X500000Y80000D01*
X500000Y0D02*
X500000Y-80000D01*
D22*
X-137790Y3175D03*
X500000Y53340D03*
D21*
X-137790Y8202D02*
X-137790Y3175D01*
D24*
X550000Y0D02*
X550000Y80000D01*
X550000Y0D02*
X550000Y-80000D01*
D22*
X-146680Y3175D03*
X551180Y59690D03*
D21*
X551180Y1180D01*
X550000Y0D01*
X-146680Y3175D02*
X-146680Y8202D01*
D24*
X300000Y0D02*
X300000Y73660D01*
X300000Y78740D01*
X300000Y80000D01*
X300000Y0D02*
X300000Y-80000D01*
D21*
X-171625Y48895D02*
X-177160Y48895D01*
D22*
X-177160Y48895D03*
X300000Y73660D03*
D21*
X300000Y78740D02*
X300000Y85370D01*
X302260Y87630D01*
X302260Y81000D01*
X300000Y78740D01*
D24*
X350000Y71120D02*
X350000Y0D01*
X350000Y71120D02*
X350000Y80000D01*
X350000Y0D02*
X350000Y-80000D01*
D21*
X-171625Y40005D02*
X-177160Y40005D01*
D22*
X-177160Y40005D03*
X350000Y71120D03*
D24*
X250000Y74930D02*
X250000Y0D01*
X250000Y74930D02*
X250000Y80000D01*
X250000Y0D02*
X250000Y-80000D01*
D21*
X-146680Y87175D02*
X-146680Y92710D01*
D22*
X-146680Y92710D03*
X250000Y74930D03*
D24*
X200000Y80000D02*
X200000Y0D01*
X200000Y-80000D01*
D21*
X-137790Y87175D02*
X-137790Y92710D01*
D22*
X-137790Y92710D03*
D21*
X200000Y88240D02*
X200000Y80000D01*
X200000Y88240D02*
X203200Y91440D01*
X203200Y83200D01*
X200000Y80000D01*
D22*
X198755Y78740D03*
D21*
X198740Y78740D01*
X200000Y80000D01*
D24*
X0Y54610D02*
X0Y0D01*
X0Y54610D02*
X0Y80000D01*
X0Y0D02*
X0Y-80000D01*
D21*
X-3175Y57785D02*
X-86175Y57785D01*
X-3175Y57785D02*
X0Y54610D01*
D24*
X50000Y80000D02*
X50000Y0D01*
X50000Y-80000D01*
D21*
X-111120Y87175D02*
X-111120Y92710D01*
D22*
X-111120Y92710D03*
X45720Y90170D03*
D21*
X45720Y84280D01*
X50000Y80000D01*
D24*
X100000Y0D02*
X100000Y-80000D01*
D21*
X-120010Y87175D02*
X-120010Y92710D01*
D22*
X-120010Y92710D03*
X96520Y87630D03*
D21*
X100000Y84150D01*
X100000Y80000D01*
D24*
X100000Y0D01*
X150000Y0D02*
X150000Y80000D01*
X150000Y0D02*
X150000Y-80000D01*
D21*
X-128900Y87175D02*
X-128900Y92710D01*
D22*
X-128900Y92710D03*
X146050Y82550D03*
D21*
X147450Y82550D01*
X150000Y80000D01*
D24*
X599810Y80000D02*
X599810Y0D01*
X599810Y-54610D01*
X599810Y-80000D01*
D22*
X599810Y-54610D03*
D21*
X-86175Y-43815D02*
X-86175Y-38280D01*
X-86355Y-38100D01*
D22*
X-86355Y-38100D03*
D21*
X-729603Y109394D02*
X-735406Y115197D01*
X-735406Y123403D01*
X-726555Y132254D01*
X-690194Y109394D02*
X-471500Y-109300D01*
X-598500Y119300D02*
X-609891Y119300D01*
X-690194Y109394D02*
X-729603Y109394D01*
X-726555Y132254D02*
X-622845Y132254D01*
X-609891Y119300D01*
X-750900Y-76600D02*
X-750900Y-109300D01*
X-750900Y-76600D02*
X-765000Y-62500D01*
X-765000Y62500D01*
X-744625Y82875D01*
X-744625Y90000D01*
X-557500Y-74100D02*
X-522300Y-109300D01*
X-557500Y-74100D02*
X-557500Y-50000D01*
X-695997Y129206D02*
X-704203Y129206D01*
X-636999Y81999D02*
X-605000Y50000D01*
X-714109Y119300D02*
X-725500Y119300D01*
X-684606Y117815D02*
X-684606Y115197D01*
X-704203Y129206D02*
X-714109Y119300D01*
X-695997Y129206D02*
X-684606Y117815D01*
X-684606Y115197D02*
X-651408Y81999D01*
X-636999Y81999D01*
X-605000Y50000D02*
X-557500Y50000D01*
X-360000Y-68400D02*
X-319100Y-109300D01*
X-360000Y-68400D02*
X-360000Y-32500D01*
M02*
