G04 EAGLE Gerber RS-274X export*
G75*
%MOMM*%
%FSLAX34Y34*%
%LPD*%
%IN*%
%IPPOS*%
%AMOC8*
5,1,8,0,0,1.08239X$1,22.5*%
G01*
%ADD10C,0.254000*%


D10*
X-830000Y-180000D02*
X-260000Y-180000D01*
X-260000Y-100000D01*
X-240000Y-100000D01*
X-239924Y-101743D01*
X-239696Y-103473D01*
X-239319Y-105176D01*
X-238794Y-106840D01*
X-238126Y-108452D01*
X-237321Y-110000D01*
X-236383Y-111472D01*
X-235321Y-112856D01*
X-234142Y-114142D01*
X-232856Y-115321D01*
X-231472Y-116383D01*
X-230000Y-117321D01*
X-228452Y-118126D01*
X-226840Y-118794D01*
X-225176Y-119319D01*
X-223473Y-119696D01*
X-221743Y-119924D01*
X-220000Y-120000D01*
X-218257Y-119924D01*
X-216527Y-119696D01*
X-214824Y-119319D01*
X-213160Y-118794D01*
X-211548Y-118126D01*
X-210000Y-117321D01*
X-208528Y-116383D01*
X-207144Y-115321D01*
X-205858Y-114142D01*
X-204679Y-112856D01*
X-203617Y-111472D01*
X-202680Y-110000D01*
X-201874Y-108452D01*
X-201206Y-106840D01*
X-200681Y-105176D01*
X-200304Y-103473D01*
X-200076Y-101743D01*
X-200000Y-100000D01*
X1000000Y-100000D01*
X1000872Y-99962D01*
X1001736Y-99848D01*
X1002588Y-99659D01*
X1003420Y-99397D01*
X1004226Y-99063D01*
X1005000Y-98660D01*
X1005736Y-98192D01*
X1006428Y-97660D01*
X1007071Y-97071D01*
X1007660Y-96428D01*
X1008192Y-95736D01*
X1008660Y-95000D01*
X1009063Y-94226D01*
X1009397Y-93420D01*
X1009659Y-92588D01*
X1009848Y-91736D01*
X1009962Y-90872D01*
X1010000Y-90000D01*
X1010000Y90000D01*
X1009962Y90872D01*
X1009848Y91736D01*
X1009659Y92588D01*
X1009397Y93420D01*
X1009063Y94226D01*
X1008660Y95000D01*
X1008192Y95736D01*
X1007660Y96428D01*
X1007071Y97071D01*
X1006428Y97660D01*
X1005736Y98192D01*
X1005000Y98660D01*
X1004226Y99063D01*
X1003420Y99397D01*
X1002588Y99659D01*
X1001736Y99848D01*
X1000872Y99962D01*
X1000000Y100000D01*
X-200000Y100000D01*
X-200076Y101743D01*
X-200304Y103473D01*
X-200681Y105176D01*
X-201206Y106840D01*
X-201874Y108452D01*
X-202680Y110000D01*
X-203617Y111472D01*
X-204679Y112856D01*
X-205858Y114142D01*
X-207144Y115321D01*
X-208528Y116383D01*
X-210000Y117321D01*
X-211548Y118126D01*
X-213160Y118794D01*
X-214824Y119319D01*
X-216527Y119696D01*
X-218257Y119924D01*
X-220000Y120000D01*
X-221743Y119924D01*
X-223473Y119696D01*
X-225176Y119319D01*
X-226840Y118794D01*
X-228452Y118126D01*
X-230000Y117321D01*
X-231472Y116383D01*
X-232856Y115321D01*
X-234142Y114142D01*
X-235321Y112856D01*
X-236383Y111472D01*
X-237321Y110000D01*
X-238126Y108452D01*
X-238794Y106840D01*
X-239319Y105176D01*
X-239696Y103473D01*
X-239924Y101743D01*
X-240000Y100000D01*
X-260000Y100000D01*
X-260000Y190000D01*
X-830000Y190000D01*
X-830000Y-180000D01*
X-219299Y-100219D02*
X-219368Y-100477D01*
X-219502Y-100709D01*
X-219691Y-100898D01*
X-219923Y-101032D01*
X-220181Y-101101D01*
X-220449Y-101101D01*
X-220707Y-101032D01*
X-220939Y-100898D01*
X-221128Y-100709D01*
X-221262Y-100477D01*
X-221331Y-100219D01*
X-221331Y-99951D01*
X-221262Y-99693D01*
X-221128Y-99461D01*
X-220939Y-99272D01*
X-220707Y-99138D01*
X-220449Y-99069D01*
X-220181Y-99069D01*
X-219923Y-99138D01*
X-219691Y-99272D01*
X-219502Y-99461D01*
X-219368Y-99693D01*
X-219299Y-99951D01*
X-219299Y-100219D01*
X-219299Y99781D02*
X-219368Y99523D01*
X-219502Y99291D01*
X-219691Y99102D01*
X-219923Y98968D01*
X-220181Y98899D01*
X-220449Y98899D01*
X-220707Y98968D01*
X-220939Y99102D01*
X-221128Y99291D01*
X-221262Y99523D01*
X-221331Y99781D01*
X-221331Y100049D01*
X-221262Y100307D01*
X-221128Y100539D01*
X-220939Y100728D01*
X-220707Y100862D01*
X-220449Y100931D01*
X-220181Y100931D01*
X-219923Y100862D01*
X-219691Y100728D01*
X-219502Y100539D01*
X-219368Y100307D01*
X-219299Y100049D01*
X-219299Y99781D01*
M02*
