G04 EAGLE Gerber RS-274X export*
G75*
%MOMM*%
%FSLAX34Y34*%
%LPD*%
%INSilkscreen Top*%
%IPPOS*%
%AMOC8*
5,1,8,0,0,1.08239X$1,22.5*%
G01*
%ADD10C,0.254000*%
%ADD11C,0.101600*%
%ADD12C,0.152400*%
%ADD13R,3.000000X14.000000*%
%ADD14C,0.127000*%
%ADD15C,0.508000*%
%ADD16C,0.076200*%
%ADD17C,0.203200*%

G36*
X-551995Y47376D02*
X-551995Y47376D01*
X-551895Y47375D01*
X-551881Y47379D01*
X-551869Y47379D01*
X-551826Y47397D01*
X-551716Y47433D01*
X-547716Y49433D01*
X-547681Y49459D01*
X-547640Y49478D01*
X-547591Y49526D01*
X-547537Y49567D01*
X-547513Y49604D01*
X-547481Y49636D01*
X-547452Y49698D01*
X-547415Y49755D01*
X-547405Y49799D01*
X-547386Y49839D01*
X-547381Y49908D01*
X-547366Y49974D01*
X-547372Y50019D01*
X-547369Y50063D01*
X-547388Y50129D01*
X-547397Y50197D01*
X-547418Y50236D01*
X-547430Y50279D01*
X-547471Y50334D01*
X-547503Y50394D01*
X-547537Y50424D01*
X-547563Y50460D01*
X-547634Y50509D01*
X-547672Y50543D01*
X-547693Y50551D01*
X-547716Y50567D01*
X-551716Y52567D01*
X-551812Y52595D01*
X-551906Y52627D01*
X-551919Y52627D01*
X-551932Y52631D01*
X-552031Y52624D01*
X-552131Y52621D01*
X-552142Y52616D01*
X-552155Y52615D01*
X-552246Y52574D01*
X-552338Y52536D01*
X-552348Y52528D01*
X-552360Y52522D01*
X-552431Y52452D01*
X-552504Y52385D01*
X-552510Y52374D01*
X-552519Y52364D01*
X-552561Y52274D01*
X-552607Y52185D01*
X-552609Y52171D01*
X-552614Y52161D01*
X-552617Y52114D01*
X-552634Y52000D01*
X-552634Y48000D01*
X-552617Y47902D01*
X-552603Y47803D01*
X-552597Y47792D01*
X-552595Y47779D01*
X-552544Y47693D01*
X-552497Y47606D01*
X-552487Y47597D01*
X-552480Y47586D01*
X-552403Y47523D01*
X-552328Y47457D01*
X-552316Y47453D01*
X-552306Y47445D01*
X-552212Y47413D01*
X-552119Y47377D01*
X-552106Y47377D01*
X-552094Y47373D01*
X-551995Y47376D01*
G37*
G36*
X-551995Y-52624D02*
X-551995Y-52624D01*
X-551895Y-52625D01*
X-551881Y-52621D01*
X-551869Y-52621D01*
X-551826Y-52603D01*
X-551716Y-52567D01*
X-547716Y-50567D01*
X-547681Y-50541D01*
X-547640Y-50522D01*
X-547591Y-50474D01*
X-547537Y-50433D01*
X-547513Y-50396D01*
X-547481Y-50364D01*
X-547452Y-50302D01*
X-547415Y-50245D01*
X-547405Y-50201D01*
X-547386Y-50161D01*
X-547381Y-50093D01*
X-547366Y-50026D01*
X-547372Y-49981D01*
X-547369Y-49937D01*
X-547388Y-49871D01*
X-547397Y-49803D01*
X-547418Y-49764D01*
X-547430Y-49721D01*
X-547471Y-49666D01*
X-547503Y-49606D01*
X-547537Y-49576D01*
X-547563Y-49540D01*
X-547634Y-49491D01*
X-547672Y-49457D01*
X-547693Y-49449D01*
X-547716Y-49433D01*
X-551716Y-47433D01*
X-551812Y-47405D01*
X-551906Y-47373D01*
X-551919Y-47373D01*
X-551932Y-47369D01*
X-552031Y-47376D01*
X-552131Y-47379D01*
X-552142Y-47384D01*
X-552155Y-47385D01*
X-552246Y-47426D01*
X-552338Y-47464D01*
X-552348Y-47472D01*
X-552360Y-47478D01*
X-552431Y-47548D01*
X-552504Y-47615D01*
X-552510Y-47627D01*
X-552519Y-47636D01*
X-552561Y-47726D01*
X-552607Y-47815D01*
X-552609Y-47829D01*
X-552614Y-47839D01*
X-552617Y-47886D01*
X-552634Y-48000D01*
X-552634Y-52000D01*
X-552617Y-52098D01*
X-552603Y-52197D01*
X-552597Y-52208D01*
X-552595Y-52221D01*
X-552544Y-52307D01*
X-552497Y-52394D01*
X-552487Y-52403D01*
X-552480Y-52414D01*
X-552403Y-52477D01*
X-552328Y-52543D01*
X-552316Y-52547D01*
X-552306Y-52555D01*
X-552212Y-52587D01*
X-552119Y-52623D01*
X-552106Y-52623D01*
X-552094Y-52627D01*
X-551995Y-52624D01*
G37*
D10*
X-73810Y90000D02*
X-73810Y-90000D01*
D11*
X-199338Y32475D02*
X-200652Y33789D01*
X-203279Y33789D01*
X-204592Y32475D01*
X-204592Y27221D01*
X-203279Y25908D01*
X-200652Y25908D01*
X-199338Y27221D01*
X-199338Y29848D01*
X-201965Y29848D01*
X-196406Y25908D02*
X-196406Y33789D01*
X-191152Y25908D01*
X-191152Y33789D01*
X-188220Y33789D02*
X-188220Y25908D01*
X-184280Y25908D01*
X-182967Y27221D01*
X-182967Y32475D01*
X-184280Y33789D01*
X-188220Y33789D01*
X-204592Y14739D02*
X-204592Y9485D01*
X-201965Y6858D01*
X-199338Y9485D01*
X-199338Y14739D01*
X-192466Y14739D02*
X-191152Y13425D01*
X-192466Y14739D02*
X-195093Y14739D01*
X-196406Y13425D01*
X-196406Y8171D01*
X-195093Y6858D01*
X-192466Y6858D01*
X-191152Y8171D01*
X-184280Y14739D02*
X-182967Y13425D01*
X-184280Y14739D02*
X-186907Y14739D01*
X-188220Y13425D01*
X-188220Y8171D01*
X-186907Y6858D01*
X-184280Y6858D01*
X-182967Y8171D01*
X-199338Y-6895D02*
X-200652Y-5581D01*
X-203279Y-5581D01*
X-204592Y-6895D01*
X-204592Y-8208D01*
X-203279Y-9522D01*
X-200652Y-9522D01*
X-199338Y-10835D01*
X-199338Y-12149D01*
X-200652Y-13462D01*
X-203279Y-13462D01*
X-204592Y-12149D01*
X-196406Y-13462D02*
X-196406Y-5581D01*
X-196406Y-13462D02*
X-192466Y-13462D01*
X-191152Y-12149D01*
X-191152Y-6895D01*
X-192466Y-5581D01*
X-196406Y-5581D01*
X-188220Y-8208D02*
X-188220Y-13462D01*
X-188220Y-8208D02*
X-185594Y-5581D01*
X-182967Y-8208D01*
X-182967Y-13462D01*
X-182967Y-9522D02*
X-188220Y-9522D01*
X-200652Y-25901D02*
X-199338Y-27215D01*
X-200652Y-25901D02*
X-203279Y-25901D01*
X-204592Y-27215D01*
X-204592Y-28528D01*
X-203279Y-29842D01*
X-200652Y-29842D01*
X-199338Y-31155D01*
X-199338Y-32469D01*
X-200652Y-33782D01*
X-203279Y-33782D01*
X-204592Y-32469D01*
X-192466Y-25901D02*
X-191152Y-27215D01*
X-192466Y-25901D02*
X-195093Y-25901D01*
X-196406Y-27215D01*
X-196406Y-32469D01*
X-195093Y-33782D01*
X-192466Y-33782D01*
X-191152Y-32469D01*
X-188220Y-33782D02*
X-188220Y-25901D01*
X-188220Y-33782D02*
X-182967Y-33782D01*
D12*
X0Y80000D02*
X0Y100000D01*
X50000Y100000D02*
X50000Y80000D01*
X100000Y80000D02*
X100000Y100000D01*
X150000Y100000D02*
X150000Y80000D01*
X200000Y80000D02*
X200000Y100000D01*
X250000Y100000D02*
X250000Y80000D01*
X300000Y80000D02*
X300000Y100000D01*
X350000Y100000D02*
X350000Y80000D01*
X400000Y80000D02*
X400000Y100000D01*
X450000Y100000D02*
X450000Y80000D01*
X500000Y80000D02*
X500000Y100000D01*
X550000Y100000D02*
X550000Y80000D01*
X600000Y80000D02*
X600000Y100000D01*
X650000Y100000D02*
X650000Y80000D01*
X700000Y80000D02*
X700000Y100000D01*
X750000Y100000D02*
X750000Y80000D01*
X800000Y80000D02*
X800000Y100000D01*
X850000Y100000D02*
X850000Y80000D01*
X900000Y80000D02*
X900000Y100000D01*
X950000Y100000D02*
X950000Y80000D01*
X1000000Y80000D02*
X1000000Y100000D01*
D11*
X990508Y87075D02*
X990508Y81821D01*
X990508Y87075D02*
X991821Y88389D01*
X994448Y88389D01*
X995762Y87075D01*
X995762Y81821D01*
X994448Y80508D01*
X991821Y80508D01*
X990508Y81821D01*
X995762Y87075D01*
X945762Y88389D02*
X940508Y88389D01*
X940508Y84448D01*
X943135Y85762D01*
X944448Y85762D01*
X945762Y84448D01*
X945762Y81821D01*
X944448Y80508D01*
X941821Y80508D01*
X940508Y81821D01*
X883135Y88389D02*
X880508Y85762D01*
X883135Y88389D02*
X883135Y80508D01*
X880508Y80508D02*
X885762Y80508D01*
X888694Y81821D02*
X888694Y87075D01*
X890007Y88389D01*
X892634Y88389D01*
X893948Y87075D01*
X893948Y81821D01*
X892634Y80508D01*
X890007Y80508D01*
X888694Y81821D01*
X893948Y87075D01*
X833135Y88389D02*
X830508Y85762D01*
X833135Y88389D02*
X833135Y80508D01*
X830508Y80508D02*
X835762Y80508D01*
X838694Y88389D02*
X843948Y88389D01*
X838694Y88389D02*
X838694Y84448D01*
X841321Y85762D01*
X842634Y85762D01*
X843948Y84448D01*
X843948Y81821D01*
X842634Y80508D01*
X840007Y80508D01*
X838694Y81821D01*
X785762Y80508D02*
X780508Y80508D01*
X785762Y85762D01*
X785762Y87075D01*
X784448Y88389D01*
X781821Y88389D01*
X780508Y87075D01*
X788694Y87075D02*
X788694Y81821D01*
X788694Y87075D02*
X790007Y88389D01*
X792634Y88389D01*
X793948Y87075D01*
X793948Y81821D01*
X792634Y80508D01*
X790007Y80508D01*
X788694Y81821D01*
X793948Y87075D01*
X735762Y80508D02*
X730508Y80508D01*
X735762Y85762D01*
X735762Y87075D01*
X734448Y88389D01*
X731821Y88389D01*
X730508Y87075D01*
X738694Y88389D02*
X743948Y88389D01*
X738694Y88389D02*
X738694Y84448D01*
X741321Y85762D01*
X742634Y85762D01*
X743948Y84448D01*
X743948Y81821D01*
X742634Y80508D01*
X740007Y80508D01*
X738694Y81821D01*
X681821Y88389D02*
X680508Y87075D01*
X681821Y88389D02*
X684448Y88389D01*
X685762Y87075D01*
X685762Y85762D01*
X684448Y84448D01*
X683135Y84448D01*
X684448Y84448D02*
X685762Y83135D01*
X685762Y81821D01*
X684448Y80508D01*
X681821Y80508D01*
X680508Y81821D01*
X688694Y81821D02*
X688694Y87075D01*
X690007Y88389D01*
X692634Y88389D01*
X693948Y87075D01*
X693948Y81821D01*
X692634Y80508D01*
X690007Y80508D01*
X688694Y81821D01*
X693948Y87075D01*
X631821Y88389D02*
X630508Y87075D01*
X631821Y88389D02*
X634448Y88389D01*
X635762Y87075D01*
X635762Y85762D01*
X634448Y84448D01*
X633135Y84448D01*
X634448Y84448D02*
X635762Y83135D01*
X635762Y81821D01*
X634448Y80508D01*
X631821Y80508D01*
X630508Y81821D01*
X638694Y88389D02*
X643948Y88389D01*
X638694Y88389D02*
X638694Y84448D01*
X641321Y85762D01*
X642634Y85762D01*
X643948Y84448D01*
X643948Y81821D01*
X642634Y80508D01*
X640007Y80508D01*
X638694Y81821D01*
X584448Y80508D02*
X584448Y88389D01*
X580508Y84448D01*
X585762Y84448D01*
X588694Y81821D02*
X588694Y87075D01*
X590007Y88389D01*
X592634Y88389D01*
X593948Y87075D01*
X593948Y81821D01*
X592634Y80508D01*
X590007Y80508D01*
X588694Y81821D01*
X593948Y87075D01*
X534448Y88389D02*
X534448Y80508D01*
X530508Y84448D02*
X534448Y88389D01*
X535762Y84448D02*
X530508Y84448D01*
X538694Y88389D02*
X543948Y88389D01*
X538694Y88389D02*
X538694Y84448D01*
X541321Y85762D01*
X542634Y85762D01*
X543948Y84448D01*
X543948Y81821D01*
X542634Y80508D01*
X540007Y80508D01*
X538694Y81821D01*
X485762Y88389D02*
X480508Y88389D01*
X480508Y84448D01*
X483135Y85762D01*
X484448Y85762D01*
X485762Y84448D01*
X485762Y81821D01*
X484448Y80508D01*
X481821Y80508D01*
X480508Y81821D01*
X488694Y81821D02*
X488694Y87075D01*
X490007Y88389D01*
X492634Y88389D01*
X493948Y87075D01*
X493948Y81821D01*
X492634Y80508D01*
X490007Y80508D01*
X488694Y81821D01*
X493948Y87075D01*
X435762Y88389D02*
X430508Y88389D01*
X430508Y84448D01*
X433135Y85762D01*
X434448Y85762D01*
X435762Y84448D01*
X435762Y81821D01*
X434448Y80508D01*
X431821Y80508D01*
X430508Y81821D01*
X438694Y88389D02*
X443948Y88389D01*
X438694Y88389D02*
X438694Y84448D01*
X441321Y85762D01*
X442634Y85762D01*
X443948Y84448D01*
X443948Y81821D01*
X442634Y80508D01*
X440007Y80508D01*
X438694Y81821D01*
X385762Y88389D02*
X383135Y87075D01*
X380508Y84448D01*
X380508Y81821D01*
X381821Y80508D01*
X384448Y80508D01*
X385762Y81821D01*
X385762Y83135D01*
X384448Y84448D01*
X380508Y84448D01*
X388694Y81821D02*
X388694Y87075D01*
X390007Y88389D01*
X392634Y88389D01*
X393948Y87075D01*
X393948Y81821D01*
X392634Y80508D01*
X390007Y80508D01*
X388694Y81821D01*
X393948Y87075D01*
X335762Y88389D02*
X333135Y87075D01*
X330508Y84448D01*
X330508Y81821D01*
X331821Y80508D01*
X334448Y80508D01*
X335762Y81821D01*
X335762Y83135D01*
X334448Y84448D01*
X330508Y84448D01*
X338694Y88389D02*
X343948Y88389D01*
X338694Y88389D02*
X338694Y84448D01*
X341321Y85762D01*
X342634Y85762D01*
X343948Y84448D01*
X343948Y81821D01*
X342634Y80508D01*
X340007Y80508D01*
X338694Y81821D01*
X285762Y88389D02*
X280508Y88389D01*
X285762Y88389D02*
X285762Y87075D01*
X280508Y81821D01*
X280508Y80508D01*
X288694Y81821D02*
X288694Y87075D01*
X290007Y88389D01*
X292634Y88389D01*
X293948Y87075D01*
X293948Y81821D01*
X292634Y80508D01*
X290007Y80508D01*
X288694Y81821D01*
X293948Y87075D01*
X235762Y88389D02*
X230508Y88389D01*
X235762Y88389D02*
X235762Y87075D01*
X230508Y81821D01*
X230508Y80508D01*
X238694Y88389D02*
X243948Y88389D01*
X238694Y88389D02*
X238694Y84448D01*
X241321Y85762D01*
X242634Y85762D01*
X243948Y84448D01*
X243948Y81821D01*
X242634Y80508D01*
X240007Y80508D01*
X238694Y81821D01*
X181821Y88389D02*
X180508Y87075D01*
X181821Y88389D02*
X184448Y88389D01*
X185762Y87075D01*
X185762Y85762D01*
X184448Y84448D01*
X185762Y83135D01*
X185762Y81821D01*
X184448Y80508D01*
X181821Y80508D01*
X180508Y81821D01*
X180508Y83135D01*
X181821Y84448D01*
X180508Y85762D01*
X180508Y87075D01*
X181821Y84448D02*
X184448Y84448D01*
X188694Y81821D02*
X188694Y87075D01*
X190007Y88389D01*
X192634Y88389D01*
X193948Y87075D01*
X193948Y81821D01*
X192634Y80508D01*
X190007Y80508D01*
X188694Y81821D01*
X193948Y87075D01*
X131821Y88389D02*
X130508Y87075D01*
X131821Y88389D02*
X134448Y88389D01*
X135762Y87075D01*
X135762Y85762D01*
X134448Y84448D01*
X135762Y83135D01*
X135762Y81821D01*
X134448Y80508D01*
X131821Y80508D01*
X130508Y81821D01*
X130508Y83135D01*
X131821Y84448D01*
X130508Y85762D01*
X130508Y87075D01*
X131821Y84448D02*
X134448Y84448D01*
X138694Y88389D02*
X143948Y88389D01*
X138694Y88389D02*
X138694Y84448D01*
X141321Y85762D01*
X142634Y85762D01*
X143948Y84448D01*
X143948Y81821D01*
X142634Y80508D01*
X140007Y80508D01*
X138694Y81821D01*
X81821Y80508D02*
X80508Y81821D01*
X81821Y80508D02*
X84448Y80508D01*
X85762Y81821D01*
X85762Y87075D01*
X84448Y88389D01*
X81821Y88389D01*
X80508Y87075D01*
X80508Y85762D01*
X81821Y84448D01*
X85762Y84448D01*
X88694Y81821D02*
X88694Y87075D01*
X90007Y88389D01*
X92634Y88389D01*
X93948Y87075D01*
X93948Y81821D01*
X92634Y80508D01*
X90007Y80508D01*
X88694Y81821D01*
X93948Y87075D01*
X31821Y80508D02*
X30508Y81821D01*
X31821Y80508D02*
X34448Y80508D01*
X35762Y81821D01*
X35762Y87075D01*
X34448Y88389D01*
X31821Y88389D01*
X30508Y87075D01*
X30508Y85762D01*
X31821Y84448D01*
X35762Y84448D01*
X38694Y88389D02*
X43948Y88389D01*
X38694Y88389D02*
X38694Y84448D01*
X41321Y85762D01*
X42634Y85762D01*
X43948Y84448D01*
X43948Y81821D01*
X42634Y80508D01*
X40007Y80508D01*
X38694Y81821D01*
X-26865Y88389D02*
X-29492Y85762D01*
X-26865Y88389D02*
X-26865Y80508D01*
X-29492Y80508D02*
X-24238Y80508D01*
X-21306Y81821D02*
X-21306Y87075D01*
X-19993Y88389D01*
X-17366Y88389D01*
X-16052Y87075D01*
X-16052Y81821D01*
X-17366Y80508D01*
X-19993Y80508D01*
X-21306Y81821D01*
X-16052Y87075D01*
X-13120Y87075D02*
X-13120Y81821D01*
X-13120Y87075D02*
X-11807Y88389D01*
X-9180Y88389D01*
X-7867Y87075D01*
X-7867Y81821D01*
X-9180Y80508D01*
X-11807Y80508D01*
X-13120Y81821D01*
X-7867Y87075D01*
D13*
X0Y0D03*
X50000Y0D03*
X100000Y0D03*
X150000Y0D03*
X200000Y0D03*
X250000Y0D03*
X300000Y0D03*
X350000Y0D03*
X400000Y0D03*
X450000Y0D03*
X500000Y0D03*
X550000Y0D03*
X600000Y0D03*
X650000Y0D03*
X700000Y0D03*
X750000Y0D03*
X800000Y0D03*
X850000Y0D03*
X900000Y0D03*
X950000Y0D03*
X995000Y0D03*
D14*
X-113900Y33450D02*
X-117900Y29450D01*
X-113900Y55450D02*
X-113900Y59450D01*
X-117900Y59450D01*
X-143900Y59450D02*
X-143900Y55450D01*
X-143900Y59450D02*
X-139900Y59450D01*
X-143900Y33450D02*
X-143900Y29450D01*
X-139900Y29450D01*
D15*
X-111120Y26670D03*
D14*
X-113900Y-68230D02*
X-117900Y-72230D01*
X-113900Y-46230D02*
X-113900Y-42230D01*
X-117900Y-42230D01*
X-143900Y-42230D02*
X-143900Y-46230D01*
X-143900Y-42230D02*
X-139900Y-42230D01*
X-143900Y-68230D02*
X-143900Y-72230D01*
X-139900Y-72230D01*
D15*
X-111120Y-75010D03*
D16*
X-158610Y-39870D02*
X-175390Y-39870D01*
X-158610Y-39870D02*
X-158610Y-47760D01*
X-175390Y-47760D01*
X-175390Y-39870D01*
X-175390Y-48760D02*
X-158610Y-48760D01*
X-158610Y-56650D01*
X-175390Y-56650D01*
X-175390Y-48760D01*
X-123955Y4437D02*
X-123955Y21217D01*
X-116065Y21217D01*
X-116065Y4437D01*
X-123955Y4437D01*
X-129400Y-84955D02*
X-146180Y-84955D01*
X-129400Y-84955D02*
X-129400Y-92845D01*
X-146180Y-92845D01*
X-146180Y-84955D01*
X-99190Y53840D02*
X-82410Y53840D01*
X-99190Y53840D02*
X-99190Y61730D01*
X-82410Y61730D01*
X-82410Y53840D01*
X-107175Y74160D02*
X-107175Y90940D01*
X-107175Y74160D02*
X-115065Y74160D01*
X-115065Y90940D01*
X-107175Y90940D01*
X-116065Y90940D02*
X-116065Y74160D01*
X-123955Y74160D01*
X-123955Y90940D01*
X-116065Y90940D01*
X-124955Y90940D02*
X-124955Y74160D01*
X-132845Y74160D01*
X-132845Y90940D01*
X-124955Y90940D01*
X-158610Y43950D02*
X-175390Y43950D01*
X-158610Y43950D02*
X-158610Y36060D01*
X-175390Y36060D01*
X-175390Y43950D01*
X-175390Y52840D02*
X-158610Y52840D01*
X-158610Y44950D01*
X-175390Y44950D01*
X-175390Y52840D01*
X-142735Y74160D02*
X-142735Y90940D01*
X-142735Y74160D02*
X-150625Y74160D01*
X-150625Y90940D01*
X-142735Y90940D01*
X-133845Y90940D02*
X-133845Y74160D01*
X-141735Y74160D01*
X-141735Y90940D01*
X-133845Y90940D01*
X-124955Y21217D02*
X-124955Y4437D01*
X-132845Y4437D01*
X-132845Y21217D01*
X-124955Y21217D01*
X-133845Y21217D02*
X-133845Y4437D01*
X-141735Y4437D01*
X-141735Y21217D01*
X-133845Y21217D01*
X-142735Y21217D02*
X-142735Y4437D01*
X-150625Y4437D01*
X-150625Y21217D01*
X-142735Y21217D01*
X-158610Y27170D02*
X-175390Y27170D01*
X-175390Y35060D01*
X-158610Y35060D01*
X-158610Y27170D01*
X-115065Y21217D02*
X-115065Y4437D01*
X-115065Y21217D02*
X-107175Y21217D01*
X-107175Y4437D01*
X-115065Y4437D01*
X-99190Y27170D02*
X-82410Y27170D01*
X-99190Y27170D02*
X-99190Y35060D01*
X-82410Y35060D01*
X-82410Y27170D01*
X-111620Y-92845D02*
X-128400Y-92845D01*
X-128400Y-84955D01*
X-111620Y-84955D01*
X-111620Y-92845D01*
X-99190Y-74430D02*
X-82410Y-74430D01*
X-99190Y-74430D02*
X-99190Y-66540D01*
X-82410Y-66540D01*
X-82410Y-74430D01*
X-97920Y36060D02*
X-97989Y36062D01*
X-98057Y36067D01*
X-98125Y36077D01*
X-98193Y36090D01*
X-98260Y36106D01*
X-98326Y36126D01*
X-98390Y36150D01*
X-98453Y36177D01*
X-98515Y36208D01*
X-98575Y36242D01*
X-98633Y36279D01*
X-98689Y36319D01*
X-98742Y36362D01*
X-98793Y36408D01*
X-98842Y36457D01*
X-98888Y36508D01*
X-98931Y36561D01*
X-98971Y36617D01*
X-99008Y36675D01*
X-99042Y36735D01*
X-99073Y36797D01*
X-99100Y36860D01*
X-99124Y36924D01*
X-99144Y36990D01*
X-99160Y37057D01*
X-99173Y37125D01*
X-99183Y37193D01*
X-99188Y37261D01*
X-99190Y37330D01*
X-99190Y42680D01*
X-99188Y42749D01*
X-99183Y42817D01*
X-99173Y42885D01*
X-99160Y42953D01*
X-99144Y43020D01*
X-99124Y43086D01*
X-99100Y43150D01*
X-99073Y43213D01*
X-99042Y43275D01*
X-99008Y43335D01*
X-98971Y43393D01*
X-98931Y43449D01*
X-98888Y43502D01*
X-98842Y43553D01*
X-98793Y43602D01*
X-98742Y43648D01*
X-98689Y43691D01*
X-98633Y43731D01*
X-98575Y43768D01*
X-98515Y43802D01*
X-98453Y43833D01*
X-98390Y43860D01*
X-98326Y43884D01*
X-98260Y43904D01*
X-98193Y43920D01*
X-98125Y43933D01*
X-98057Y43943D01*
X-97989Y43948D01*
X-97920Y43950D01*
X-83680Y43950D01*
X-83611Y43948D01*
X-83543Y43943D01*
X-83475Y43933D01*
X-83407Y43920D01*
X-83340Y43904D01*
X-83274Y43884D01*
X-83210Y43860D01*
X-83147Y43833D01*
X-83085Y43802D01*
X-83025Y43768D01*
X-82967Y43731D01*
X-82911Y43691D01*
X-82858Y43648D01*
X-82807Y43602D01*
X-82758Y43553D01*
X-82712Y43502D01*
X-82669Y43449D01*
X-82629Y43393D01*
X-82592Y43335D01*
X-82558Y43275D01*
X-82527Y43213D01*
X-82500Y43150D01*
X-82476Y43086D01*
X-82456Y43020D01*
X-82440Y42953D01*
X-82427Y42885D01*
X-82417Y42817D01*
X-82412Y42749D01*
X-82410Y42680D01*
X-82410Y37330D01*
X-82412Y37261D01*
X-82417Y37193D01*
X-82427Y37125D01*
X-82440Y37057D01*
X-82456Y36990D01*
X-82476Y36924D01*
X-82500Y36860D01*
X-82527Y36797D01*
X-82558Y36735D01*
X-82592Y36675D01*
X-82629Y36617D01*
X-82669Y36561D01*
X-82712Y36508D01*
X-82758Y36457D01*
X-82807Y36408D01*
X-82858Y36362D01*
X-82911Y36319D01*
X-82967Y36279D01*
X-83025Y36242D01*
X-83085Y36208D01*
X-83147Y36177D01*
X-83210Y36150D01*
X-83274Y36126D01*
X-83340Y36106D01*
X-83407Y36090D01*
X-83475Y36077D01*
X-83543Y36067D01*
X-83611Y36062D01*
X-83680Y36060D01*
X-97920Y36060D01*
X-97920Y44950D02*
X-97989Y44952D01*
X-98057Y44957D01*
X-98125Y44967D01*
X-98193Y44980D01*
X-98260Y44996D01*
X-98326Y45016D01*
X-98390Y45040D01*
X-98453Y45067D01*
X-98515Y45098D01*
X-98575Y45132D01*
X-98633Y45169D01*
X-98689Y45209D01*
X-98742Y45252D01*
X-98793Y45298D01*
X-98842Y45347D01*
X-98888Y45398D01*
X-98931Y45451D01*
X-98971Y45507D01*
X-99008Y45565D01*
X-99042Y45625D01*
X-99073Y45687D01*
X-99100Y45750D01*
X-99124Y45814D01*
X-99144Y45880D01*
X-99160Y45947D01*
X-99173Y46015D01*
X-99183Y46083D01*
X-99188Y46151D01*
X-99190Y46220D01*
X-99190Y51570D01*
X-99188Y51639D01*
X-99183Y51707D01*
X-99173Y51775D01*
X-99160Y51843D01*
X-99144Y51910D01*
X-99124Y51976D01*
X-99100Y52040D01*
X-99073Y52103D01*
X-99042Y52165D01*
X-99008Y52225D01*
X-98971Y52283D01*
X-98931Y52339D01*
X-98888Y52392D01*
X-98842Y52443D01*
X-98793Y52492D01*
X-98742Y52538D01*
X-98689Y52581D01*
X-98633Y52621D01*
X-98575Y52658D01*
X-98515Y52692D01*
X-98453Y52723D01*
X-98390Y52750D01*
X-98326Y52774D01*
X-98260Y52794D01*
X-98193Y52810D01*
X-98125Y52823D01*
X-98057Y52833D01*
X-97989Y52838D01*
X-97920Y52840D01*
X-83680Y52840D01*
X-83611Y52838D01*
X-83543Y52833D01*
X-83475Y52823D01*
X-83407Y52810D01*
X-83340Y52794D01*
X-83274Y52774D01*
X-83210Y52750D01*
X-83147Y52723D01*
X-83085Y52692D01*
X-83025Y52658D01*
X-82967Y52621D01*
X-82911Y52581D01*
X-82858Y52538D01*
X-82807Y52492D01*
X-82758Y52443D01*
X-82712Y52392D01*
X-82669Y52339D01*
X-82629Y52283D01*
X-82592Y52225D01*
X-82558Y52165D01*
X-82527Y52103D01*
X-82500Y52040D01*
X-82476Y51976D01*
X-82456Y51910D01*
X-82440Y51843D01*
X-82427Y51775D01*
X-82417Y51707D01*
X-82412Y51639D01*
X-82410Y51570D01*
X-82410Y46220D01*
X-82412Y46151D01*
X-82417Y46083D01*
X-82427Y46015D01*
X-82440Y45947D01*
X-82456Y45880D01*
X-82476Y45814D01*
X-82500Y45750D01*
X-82527Y45687D01*
X-82558Y45625D01*
X-82592Y45565D01*
X-82629Y45507D01*
X-82669Y45451D01*
X-82712Y45398D01*
X-82758Y45347D01*
X-82807Y45298D01*
X-82858Y45252D01*
X-82911Y45209D01*
X-82967Y45169D01*
X-83025Y45132D01*
X-83085Y45098D01*
X-83147Y45067D01*
X-83210Y45040D01*
X-83274Y45016D01*
X-83340Y44996D01*
X-83407Y44980D01*
X-83475Y44967D01*
X-83543Y44957D01*
X-83611Y44952D01*
X-83680Y44950D01*
X-97920Y44950D01*
X-99190Y-64270D02*
X-99188Y-64339D01*
X-99183Y-64407D01*
X-99173Y-64475D01*
X-99160Y-64543D01*
X-99144Y-64610D01*
X-99124Y-64676D01*
X-99100Y-64740D01*
X-99073Y-64803D01*
X-99042Y-64865D01*
X-99008Y-64925D01*
X-98971Y-64983D01*
X-98931Y-65039D01*
X-98888Y-65092D01*
X-98842Y-65143D01*
X-98793Y-65192D01*
X-98742Y-65238D01*
X-98689Y-65281D01*
X-98633Y-65321D01*
X-98575Y-65358D01*
X-98515Y-65392D01*
X-98453Y-65423D01*
X-98390Y-65450D01*
X-98326Y-65474D01*
X-98260Y-65494D01*
X-98193Y-65510D01*
X-98125Y-65523D01*
X-98057Y-65533D01*
X-97989Y-65538D01*
X-97920Y-65540D01*
X-99190Y-64270D02*
X-99190Y-58920D01*
X-99188Y-58851D01*
X-99183Y-58783D01*
X-99173Y-58715D01*
X-99160Y-58647D01*
X-99144Y-58580D01*
X-99124Y-58514D01*
X-99100Y-58450D01*
X-99073Y-58387D01*
X-99042Y-58325D01*
X-99008Y-58265D01*
X-98971Y-58207D01*
X-98931Y-58151D01*
X-98888Y-58098D01*
X-98842Y-58047D01*
X-98793Y-57998D01*
X-98742Y-57952D01*
X-98689Y-57909D01*
X-98633Y-57869D01*
X-98575Y-57832D01*
X-98515Y-57798D01*
X-98453Y-57767D01*
X-98390Y-57740D01*
X-98326Y-57716D01*
X-98260Y-57696D01*
X-98193Y-57680D01*
X-98125Y-57667D01*
X-98057Y-57657D01*
X-97989Y-57652D01*
X-97920Y-57650D01*
X-83680Y-57650D01*
X-83611Y-57652D01*
X-83543Y-57657D01*
X-83475Y-57667D01*
X-83407Y-57680D01*
X-83340Y-57696D01*
X-83274Y-57716D01*
X-83210Y-57740D01*
X-83147Y-57767D01*
X-83085Y-57798D01*
X-83025Y-57832D01*
X-82967Y-57869D01*
X-82911Y-57909D01*
X-82858Y-57952D01*
X-82807Y-57998D01*
X-82758Y-58047D01*
X-82712Y-58098D01*
X-82669Y-58151D01*
X-82629Y-58207D01*
X-82592Y-58265D01*
X-82558Y-58325D01*
X-82527Y-58387D01*
X-82500Y-58450D01*
X-82476Y-58514D01*
X-82456Y-58580D01*
X-82440Y-58647D01*
X-82427Y-58715D01*
X-82417Y-58783D01*
X-82412Y-58851D01*
X-82410Y-58920D01*
X-82410Y-64270D01*
X-82412Y-64339D01*
X-82417Y-64407D01*
X-82427Y-64475D01*
X-82440Y-64543D01*
X-82456Y-64610D01*
X-82476Y-64676D01*
X-82500Y-64740D01*
X-82527Y-64803D01*
X-82558Y-64865D01*
X-82592Y-64925D01*
X-82629Y-64983D01*
X-82669Y-65039D01*
X-82712Y-65092D01*
X-82758Y-65143D01*
X-82807Y-65192D01*
X-82858Y-65238D01*
X-82911Y-65281D01*
X-82967Y-65321D01*
X-83025Y-65358D01*
X-83085Y-65392D01*
X-83147Y-65423D01*
X-83210Y-65450D01*
X-83274Y-65474D01*
X-83340Y-65494D01*
X-83407Y-65510D01*
X-83475Y-65523D01*
X-83543Y-65533D01*
X-83611Y-65538D01*
X-83680Y-65540D01*
X-97920Y-65540D01*
X-97920Y-56650D02*
X-97989Y-56648D01*
X-98057Y-56643D01*
X-98125Y-56633D01*
X-98193Y-56620D01*
X-98260Y-56604D01*
X-98326Y-56584D01*
X-98390Y-56560D01*
X-98453Y-56533D01*
X-98515Y-56502D01*
X-98575Y-56468D01*
X-98633Y-56431D01*
X-98689Y-56391D01*
X-98742Y-56348D01*
X-98793Y-56302D01*
X-98842Y-56253D01*
X-98888Y-56202D01*
X-98931Y-56149D01*
X-98971Y-56093D01*
X-99008Y-56035D01*
X-99042Y-55975D01*
X-99073Y-55913D01*
X-99100Y-55850D01*
X-99124Y-55786D01*
X-99144Y-55720D01*
X-99160Y-55653D01*
X-99173Y-55585D01*
X-99183Y-55517D01*
X-99188Y-55449D01*
X-99190Y-55380D01*
X-99190Y-50030D01*
X-99188Y-49961D01*
X-99183Y-49893D01*
X-99173Y-49825D01*
X-99160Y-49757D01*
X-99144Y-49690D01*
X-99124Y-49624D01*
X-99100Y-49560D01*
X-99073Y-49497D01*
X-99042Y-49435D01*
X-99008Y-49375D01*
X-98971Y-49317D01*
X-98931Y-49261D01*
X-98888Y-49208D01*
X-98842Y-49157D01*
X-98793Y-49108D01*
X-98742Y-49062D01*
X-98689Y-49019D01*
X-98633Y-48979D01*
X-98575Y-48942D01*
X-98515Y-48908D01*
X-98453Y-48877D01*
X-98390Y-48850D01*
X-98326Y-48826D01*
X-98260Y-48806D01*
X-98193Y-48790D01*
X-98125Y-48777D01*
X-98057Y-48767D01*
X-97989Y-48762D01*
X-97920Y-48760D01*
X-83680Y-48760D01*
X-83611Y-48762D01*
X-83543Y-48767D01*
X-83475Y-48777D01*
X-83407Y-48790D01*
X-83340Y-48806D01*
X-83274Y-48826D01*
X-83210Y-48850D01*
X-83147Y-48877D01*
X-83085Y-48908D01*
X-83025Y-48942D01*
X-82967Y-48979D01*
X-82911Y-49019D01*
X-82858Y-49062D01*
X-82807Y-49108D01*
X-82758Y-49157D01*
X-82712Y-49208D01*
X-82669Y-49261D01*
X-82629Y-49317D01*
X-82592Y-49375D01*
X-82558Y-49435D01*
X-82527Y-49497D01*
X-82500Y-49560D01*
X-82476Y-49624D01*
X-82456Y-49690D01*
X-82440Y-49757D01*
X-82427Y-49825D01*
X-82417Y-49893D01*
X-82412Y-49961D01*
X-82410Y-50030D01*
X-82410Y-55380D01*
X-82412Y-55449D01*
X-82417Y-55517D01*
X-82427Y-55585D01*
X-82440Y-55653D01*
X-82456Y-55720D01*
X-82476Y-55786D01*
X-82500Y-55850D01*
X-82527Y-55913D01*
X-82558Y-55975D01*
X-82592Y-56035D01*
X-82629Y-56093D01*
X-82669Y-56149D01*
X-82712Y-56202D01*
X-82758Y-56253D01*
X-82807Y-56302D01*
X-82858Y-56348D01*
X-82911Y-56391D01*
X-82967Y-56431D01*
X-83025Y-56468D01*
X-83085Y-56502D01*
X-83147Y-56533D01*
X-83210Y-56560D01*
X-83274Y-56584D01*
X-83340Y-56604D01*
X-83407Y-56620D01*
X-83475Y-56633D01*
X-83543Y-56643D01*
X-83611Y-56648D01*
X-83680Y-56650D01*
X-97920Y-56650D01*
X-99190Y-47760D02*
X-82410Y-47760D01*
X-99190Y-47760D02*
X-99190Y-39870D01*
X-82410Y-39870D01*
X-82410Y-47760D01*
X-107175Y-33536D02*
X-107175Y-16756D01*
X-107175Y-33536D02*
X-115065Y-33536D01*
X-115065Y-16756D01*
X-107175Y-16756D01*
X-116065Y-16756D02*
X-116065Y-33536D01*
X-123955Y-33536D01*
X-123955Y-16756D01*
X-116065Y-16756D01*
X-124955Y-16756D02*
X-124955Y-33536D01*
X-132845Y-33536D01*
X-132845Y-16756D01*
X-124955Y-16756D01*
X-158610Y-66540D02*
X-175390Y-66540D01*
X-158610Y-66540D02*
X-158610Y-74430D01*
X-175390Y-74430D01*
X-175390Y-66540D01*
X-175390Y-57650D02*
X-158610Y-57650D01*
X-158610Y-65540D01*
X-175390Y-65540D01*
X-175390Y-57650D01*
X-142735Y-33536D02*
X-142735Y-16756D01*
X-142735Y-33536D02*
X-150625Y-33536D01*
X-150625Y-16756D01*
X-142735Y-16756D01*
X-133845Y-16756D02*
X-133845Y-33536D01*
X-141735Y-33536D01*
X-141735Y-16756D01*
X-133845Y-16756D01*
D10*
X-361270Y178730D02*
X-711270Y178730D01*
X-713686Y178701D01*
X-716101Y178613D01*
X-718513Y178467D01*
X-720921Y178263D01*
X-723324Y178001D01*
X-725719Y177681D01*
X-728106Y177303D01*
X-730483Y176867D01*
X-732848Y176374D01*
X-735202Y175824D01*
X-737541Y175218D01*
X-739865Y174555D01*
X-742172Y173836D01*
X-744461Y173061D01*
X-746730Y172232D01*
X-748979Y171347D01*
X-751206Y170409D01*
X-753410Y169417D01*
X-755589Y168373D01*
X-757742Y167276D01*
X-759868Y166127D01*
X-761966Y164927D01*
X-764034Y163677D01*
X-766071Y162377D01*
X-768076Y161028D01*
X-770049Y159632D01*
X-771986Y158188D01*
X-773889Y156697D01*
X-775754Y155162D01*
X-777582Y153581D01*
X-779372Y151957D01*
X-781121Y150290D01*
X-782830Y148581D01*
X-784497Y146832D01*
X-786121Y145042D01*
X-787702Y143214D01*
X-789237Y141349D01*
X-790728Y139446D01*
X-792172Y137509D01*
X-793568Y135536D01*
X-794917Y133531D01*
X-796217Y131494D01*
X-797467Y129426D01*
X-798667Y127328D01*
X-799816Y125202D01*
X-800913Y123049D01*
X-801957Y120870D01*
X-802949Y118666D01*
X-803887Y116439D01*
X-804772Y114190D01*
X-805601Y111921D01*
X-806376Y109632D01*
X-807095Y107325D01*
X-807758Y105001D01*
X-808364Y102662D01*
X-808914Y100308D01*
X-809407Y97943D01*
X-809843Y95566D01*
X-810221Y93179D01*
X-810541Y90784D01*
X-810803Y88381D01*
X-811007Y85973D01*
X-811153Y83561D01*
X-811241Y81146D01*
X-811270Y78730D01*
X-811270Y-71270D01*
X-811241Y-73686D01*
X-811153Y-76101D01*
X-811007Y-78513D01*
X-810803Y-80921D01*
X-810541Y-83324D01*
X-810221Y-85719D01*
X-809843Y-88106D01*
X-809407Y-90483D01*
X-808914Y-92848D01*
X-808364Y-95202D01*
X-807758Y-97541D01*
X-807095Y-99865D01*
X-806376Y-102172D01*
X-805601Y-104461D01*
X-804772Y-106730D01*
X-803887Y-108979D01*
X-802949Y-111206D01*
X-801957Y-113410D01*
X-800913Y-115589D01*
X-799816Y-117742D01*
X-798667Y-119868D01*
X-797467Y-121966D01*
X-796217Y-124034D01*
X-794917Y-126071D01*
X-793568Y-128076D01*
X-792172Y-130049D01*
X-790728Y-131986D01*
X-789237Y-133889D01*
X-787702Y-135754D01*
X-786121Y-137582D01*
X-784497Y-139372D01*
X-782830Y-141121D01*
X-781121Y-142830D01*
X-779372Y-144497D01*
X-777582Y-146121D01*
X-775754Y-147702D01*
X-773889Y-149237D01*
X-771986Y-150728D01*
X-770049Y-152172D01*
X-768076Y-153568D01*
X-766071Y-154917D01*
X-764034Y-156217D01*
X-761966Y-157467D01*
X-759868Y-158667D01*
X-757742Y-159816D01*
X-755589Y-160913D01*
X-753410Y-161957D01*
X-751206Y-162949D01*
X-748979Y-163887D01*
X-746730Y-164772D01*
X-744461Y-165601D01*
X-742172Y-166376D01*
X-739865Y-167095D01*
X-737541Y-167758D01*
X-735202Y-168364D01*
X-732848Y-168914D01*
X-730483Y-169407D01*
X-728106Y-169843D01*
X-725719Y-170221D01*
X-723324Y-170541D01*
X-720921Y-170803D01*
X-718513Y-171007D01*
X-716101Y-171153D01*
X-713686Y-171241D01*
X-711270Y-171270D01*
X-361270Y-171270D01*
X-358854Y-171241D01*
X-356439Y-171153D01*
X-354027Y-171007D01*
X-351619Y-170803D01*
X-349216Y-170541D01*
X-346821Y-170221D01*
X-344434Y-169843D01*
X-342057Y-169407D01*
X-339692Y-168914D01*
X-337338Y-168364D01*
X-334999Y-167758D01*
X-332675Y-167095D01*
X-330368Y-166376D01*
X-328079Y-165601D01*
X-325810Y-164772D01*
X-323561Y-163887D01*
X-321334Y-162949D01*
X-319130Y-161957D01*
X-316951Y-160913D01*
X-314798Y-159816D01*
X-312672Y-158667D01*
X-310574Y-157467D01*
X-308506Y-156217D01*
X-306469Y-154917D01*
X-304464Y-153568D01*
X-302491Y-152172D01*
X-300554Y-150728D01*
X-298651Y-149237D01*
X-296786Y-147702D01*
X-294958Y-146121D01*
X-293168Y-144497D01*
X-291419Y-142830D01*
X-289710Y-141121D01*
X-288043Y-139372D01*
X-286419Y-137582D01*
X-284838Y-135754D01*
X-283303Y-133889D01*
X-281812Y-131986D01*
X-280368Y-130049D01*
X-278972Y-128076D01*
X-277623Y-126071D01*
X-276323Y-124034D01*
X-275073Y-121966D01*
X-273873Y-119868D01*
X-272724Y-117742D01*
X-271627Y-115589D01*
X-270583Y-113410D01*
X-269591Y-111206D01*
X-268653Y-108979D01*
X-267768Y-106730D01*
X-266939Y-104461D01*
X-266164Y-102172D01*
X-265445Y-99865D01*
X-264782Y-97541D01*
X-264176Y-95202D01*
X-263626Y-92848D01*
X-263133Y-90483D01*
X-262697Y-88106D01*
X-262319Y-85719D01*
X-261999Y-83324D01*
X-261737Y-80921D01*
X-261533Y-78513D01*
X-261387Y-76101D01*
X-261299Y-73686D01*
X-261270Y-71270D01*
X-261270Y78730D01*
X-261299Y81146D01*
X-261387Y83561D01*
X-261533Y85973D01*
X-261737Y88381D01*
X-261999Y90784D01*
X-262319Y93179D01*
X-262697Y95566D01*
X-263133Y97943D01*
X-263626Y100308D01*
X-264176Y102662D01*
X-264782Y105001D01*
X-265445Y107325D01*
X-266164Y109632D01*
X-266939Y111921D01*
X-267768Y114190D01*
X-268653Y116439D01*
X-269591Y118666D01*
X-270583Y120870D01*
X-271627Y123049D01*
X-272724Y125202D01*
X-273873Y127328D01*
X-275073Y129426D01*
X-276323Y131494D01*
X-277623Y133531D01*
X-278972Y135536D01*
X-280368Y137509D01*
X-281812Y139446D01*
X-283303Y141349D01*
X-284838Y143214D01*
X-286419Y145042D01*
X-288043Y146832D01*
X-289710Y148581D01*
X-291419Y150290D01*
X-293168Y151957D01*
X-294958Y153581D01*
X-296786Y155162D01*
X-298651Y156697D01*
X-300554Y158188D01*
X-302491Y159632D01*
X-304464Y161028D01*
X-306469Y162377D01*
X-308506Y163677D01*
X-310574Y164927D01*
X-312672Y166127D01*
X-314798Y167276D01*
X-316951Y168373D01*
X-319130Y169417D01*
X-321334Y170409D01*
X-323561Y171347D01*
X-325810Y172232D01*
X-328079Y173061D01*
X-330368Y173836D01*
X-332675Y174555D01*
X-334999Y175218D01*
X-337338Y175824D01*
X-339692Y176374D01*
X-342057Y176867D01*
X-344434Y177303D01*
X-346821Y177681D01*
X-349216Y178001D01*
X-351619Y178263D01*
X-354027Y178467D01*
X-356439Y178613D01*
X-358854Y178701D01*
X-361270Y178730D01*
D12*
X-593338Y13398D02*
X-593338Y2212D01*
X-593338Y13398D02*
X-587745Y13398D01*
X-585881Y11533D01*
X-585881Y7805D01*
X-587745Y5941D01*
X-593338Y5941D01*
X-579780Y2212D02*
X-576051Y2212D01*
X-574187Y4076D01*
X-574187Y7805D01*
X-576051Y9669D01*
X-579780Y9669D01*
X-581644Y7805D01*
X-581644Y4076D01*
X-579780Y2212D01*
X-568086Y9669D02*
X-562493Y9669D01*
X-568086Y9669D02*
X-569950Y7805D01*
X-569950Y4076D01*
X-568086Y2212D01*
X-562493Y2212D01*
X-558256Y2212D02*
X-558256Y13398D01*
X-558256Y5941D02*
X-552663Y2212D01*
X-558256Y5941D02*
X-552663Y9669D01*
X-546647Y2212D02*
X-542918Y2212D01*
X-546647Y2212D02*
X-548511Y4076D01*
X-548511Y7805D01*
X-546647Y9669D01*
X-542918Y9669D01*
X-541054Y7805D01*
X-541054Y5941D01*
X-548511Y5941D01*
X-534953Y4076D02*
X-534953Y11533D01*
X-534953Y4076D02*
X-533089Y2212D01*
X-533089Y9669D02*
X-536817Y9669D01*
X-529021Y13398D02*
X-529021Y2212D01*
X-529021Y13398D02*
X-523428Y13398D01*
X-521564Y11533D01*
X-521564Y9669D01*
X-523428Y7805D01*
X-521564Y5941D01*
X-521564Y4076D01*
X-523428Y2212D01*
X-529021Y2212D01*
X-529021Y7805D02*
X-523428Y7805D01*
X-515463Y2212D02*
X-511734Y2212D01*
X-515463Y2212D02*
X-517327Y4076D01*
X-517327Y7805D01*
X-515463Y9669D01*
X-511734Y9669D01*
X-509870Y7805D01*
X-509870Y5941D01*
X-517327Y5941D01*
X-503769Y9669D02*
X-500041Y9669D01*
X-498176Y7805D01*
X-498176Y2212D01*
X-503769Y2212D01*
X-505633Y4076D01*
X-503769Y5941D01*
X-498176Y5941D01*
X-490211Y-1517D02*
X-488347Y-1517D01*
X-486482Y348D01*
X-486482Y9669D01*
X-492075Y9669D01*
X-493939Y7805D01*
X-493939Y4076D01*
X-492075Y2212D01*
X-486482Y2212D01*
X-482245Y13398D02*
X-480381Y13398D01*
X-480381Y2212D01*
X-482245Y2212D02*
X-478517Y2212D01*
X-472585Y2212D02*
X-468857Y2212D01*
X-472585Y2212D02*
X-474449Y4076D01*
X-474449Y7805D01*
X-472585Y9669D01*
X-468857Y9669D01*
X-466992Y7805D01*
X-466992Y5941D01*
X-474449Y5941D01*
X-785362Y-22590D02*
X-792819Y-22590D01*
X-792819Y-20726D01*
X-790955Y-18862D01*
X-785362Y-18862D01*
X-790955Y-18862D02*
X-792819Y-16998D01*
X-790955Y-15133D01*
X-785362Y-15133D01*
X-792819Y-10897D02*
X-792819Y-9032D01*
X-785362Y-9032D01*
X-785362Y-7168D02*
X-785362Y-10897D01*
X-796548Y-9032D02*
X-798412Y-9032D01*
X-792819Y-1236D02*
X-792819Y4357D01*
X-792819Y-1236D02*
X-790955Y-3101D01*
X-787226Y-3101D01*
X-785362Y-1236D01*
X-785362Y4357D01*
X-785362Y8593D02*
X-792819Y8593D01*
X-789091Y8593D02*
X-792819Y12322D01*
X-792819Y14186D01*
X-785362Y20203D02*
X-785362Y23931D01*
X-787226Y25795D01*
X-790955Y25795D01*
X-792819Y23931D01*
X-792819Y20203D01*
X-790955Y18338D01*
X-787226Y18338D01*
X-785362Y20203D01*
X-787226Y30032D02*
X-796548Y30032D01*
X-787226Y30032D02*
X-785362Y31897D01*
X-785362Y35625D01*
X-787226Y37489D01*
X-796548Y37489D01*
X-796548Y47319D02*
X-794683Y49183D01*
X-796548Y47319D02*
X-796548Y43591D01*
X-794683Y41726D01*
X-792819Y41726D01*
X-790955Y43591D01*
X-790955Y47319D01*
X-789091Y49183D01*
X-787226Y49183D01*
X-785362Y47319D01*
X-785362Y43591D01*
X-787226Y41726D01*
X-785362Y53420D02*
X-796548Y53420D01*
X-796548Y59013D01*
X-794683Y60877D01*
X-792819Y60877D01*
X-790955Y59013D01*
X-789091Y60877D01*
X-787226Y60877D01*
X-785362Y59013D01*
X-785362Y53420D01*
X-790955Y53420D02*
X-790955Y59013D01*
X-284819Y-29443D02*
X-277362Y-29443D01*
X-284819Y-29443D02*
X-284819Y-27579D01*
X-282955Y-25715D01*
X-277362Y-25715D01*
X-282955Y-25715D02*
X-284819Y-23851D01*
X-282955Y-21986D01*
X-277362Y-21986D01*
X-284819Y-17750D02*
X-284819Y-15885D01*
X-277362Y-15885D01*
X-277362Y-14021D02*
X-277362Y-17750D01*
X-288548Y-15885D02*
X-290412Y-15885D01*
X-284819Y-8089D02*
X-284819Y-2497D01*
X-284819Y-8089D02*
X-282955Y-9954D01*
X-279226Y-9954D01*
X-277362Y-8089D01*
X-277362Y-2497D01*
X-277362Y1740D02*
X-284819Y1740D01*
X-281091Y1740D02*
X-284819Y5469D01*
X-284819Y7333D01*
X-277362Y13350D02*
X-277362Y17078D01*
X-279226Y18942D01*
X-282955Y18942D01*
X-284819Y17078D01*
X-284819Y13350D01*
X-282955Y11485D01*
X-279226Y11485D01*
X-277362Y13350D01*
X-288548Y28772D02*
X-286683Y30636D01*
X-288548Y28772D02*
X-288548Y25044D01*
X-286683Y23179D01*
X-284819Y23179D01*
X-282955Y25044D01*
X-282955Y28772D01*
X-281091Y30636D01*
X-279226Y30636D01*
X-277362Y28772D01*
X-277362Y25044D01*
X-279226Y23179D01*
X-277362Y34873D02*
X-288548Y34873D01*
X-277362Y34873D02*
X-277362Y40466D01*
X-279226Y42330D01*
X-286683Y42330D01*
X-288548Y40466D01*
X-288548Y34873D01*
D10*
X-560318Y-121994D02*
X-585718Y-121994D01*
X-611118Y-121994D01*
X-712718Y-121994D01*
X-738118Y-121994D01*
X-534918Y-121994D02*
X-534918Y-48334D01*
X-534918Y-121994D02*
X-509518Y-121994D01*
X-484118Y-121994D01*
X-458718Y-121994D01*
X-407918Y-121994D01*
X-357118Y-121994D01*
X-331718Y-121994D01*
X-560318Y132006D02*
X-585718Y132006D01*
X-611118Y132006D01*
X-661918Y132006D01*
X-712718Y132006D01*
X-560318Y132006D02*
X-534918Y132006D01*
X-509518Y132006D01*
X-484118Y132006D01*
X-458718Y132006D01*
X-433318Y132006D01*
X-357118Y132006D01*
X-331718Y132006D01*
X-738118Y-121994D02*
X-738118Y-164920D01*
X-560318Y-168730D02*
X-560318Y-121994D01*
X-407918Y-121994D02*
X-407918Y-168730D01*
X-331718Y-164920D02*
X-331718Y-121994D01*
X-357118Y-121994D02*
X-357118Y-48334D01*
X-407918Y-48334D02*
X-407918Y-121994D01*
X-458718Y-121994D02*
X-458718Y-48334D01*
X-560318Y-48334D02*
X-560318Y-121994D01*
X-712718Y-121994D02*
X-712718Y-48334D01*
X-712718Y58346D02*
X-712718Y132006D01*
X-661918Y132006D02*
X-661918Y58346D01*
X-611118Y58346D02*
X-611118Y132006D01*
X-560318Y132006D02*
X-560318Y58346D01*
X-611118Y132006D02*
X-611118Y178996D01*
X-560318Y178996D02*
X-560318Y132006D01*
X-331718Y132006D02*
X-331718Y173916D01*
X-433318Y178996D02*
X-433318Y132006D01*
X-458718Y132006D02*
X-458718Y58346D01*
X-357118Y58346D02*
X-357118Y132006D01*
X-509518Y-48334D02*
X-509518Y-121994D01*
X-509518Y58346D02*
X-509518Y132006D01*
D14*
X-524640Y-160893D02*
X-524640Y-166825D01*
X-524640Y-160893D02*
X-521674Y-157927D01*
X-518708Y-160893D01*
X-518708Y-166825D01*
X-518708Y-162376D02*
X-524640Y-162376D01*
X-515284Y-166825D02*
X-512319Y-166825D01*
X-513801Y-166825D02*
X-513801Y-157927D01*
X-512319Y-157927D02*
X-515284Y-157927D01*
X-509048Y-157927D02*
X-509048Y-166825D01*
X-503116Y-166825D02*
X-509048Y-157927D01*
X-503116Y-157927D02*
X-503116Y-166825D01*
X-490337Y-163859D02*
X-487371Y-166825D01*
X-490337Y-163859D02*
X-490337Y-160893D01*
X-487371Y-157927D01*
X-484100Y-160893D02*
X-481135Y-157927D01*
X-481135Y-166825D01*
X-484100Y-166825D02*
X-478169Y-166825D01*
X-474745Y-166825D02*
X-474745Y-165342D01*
X-473262Y-165342D01*
X-473262Y-166825D01*
X-474745Y-166825D01*
X-470068Y-159410D02*
X-468585Y-157927D01*
X-465619Y-157927D01*
X-464136Y-159410D01*
X-464136Y-160893D01*
X-465619Y-162376D01*
X-464136Y-163859D01*
X-464136Y-165342D01*
X-465619Y-166825D01*
X-468585Y-166825D01*
X-470068Y-165342D01*
X-470068Y-163859D01*
X-468585Y-162376D01*
X-470068Y-160893D01*
X-470068Y-159410D01*
X-468585Y-162376D02*
X-465619Y-162376D01*
X-460712Y-163859D02*
X-460712Y-157927D01*
X-460712Y-163859D02*
X-457747Y-166825D01*
X-454781Y-163859D01*
X-454781Y-157927D01*
X-448391Y-163859D02*
X-451357Y-166825D01*
X-448391Y-163859D02*
X-448391Y-160893D01*
X-451357Y-157927D01*
D11*
X-449701Y175159D02*
X-442583Y175159D01*
X-442583Y171600D01*
X-443769Y170414D01*
X-446142Y170414D01*
X-447328Y171600D01*
X-447328Y175159D01*
X-447328Y172787D02*
X-449701Y170414D01*
X-442583Y164116D02*
X-443769Y162930D01*
X-442583Y164116D02*
X-442583Y166489D01*
X-443769Y167675D01*
X-444956Y167675D01*
X-446142Y166489D01*
X-446142Y164116D01*
X-447328Y162930D01*
X-448515Y162930D01*
X-449701Y164116D01*
X-449701Y166489D01*
X-448515Y167675D01*
X-449701Y157818D02*
X-442583Y157818D01*
X-442583Y155446D02*
X-442583Y160191D01*
D12*
X-545876Y-77524D02*
X-553333Y-77524D01*
X-545876Y-77524D02*
X-542147Y-81253D01*
X-545876Y-84981D01*
X-553333Y-84981D01*
X-547740Y-84981D02*
X-547740Y-77524D01*
X-547740Y-89218D02*
X-547740Y-96675D01*
X-544012Y-92947D02*
X-551469Y-92947D01*
X-527933Y-84981D02*
X-527933Y-77524D01*
X-520476Y-84981D01*
X-518612Y-84981D01*
X-516747Y-83117D01*
X-516747Y-79388D01*
X-518612Y-77524D01*
X-518612Y-89218D02*
X-526069Y-89218D01*
X-518612Y-89218D02*
X-516747Y-91082D01*
X-516747Y-94811D01*
X-518612Y-96675D01*
X-526069Y-96675D01*
X-527933Y-94811D01*
X-527933Y-91082D01*
X-526069Y-89218D01*
X-518612Y-96675D01*
X-493212Y-73287D02*
X-491347Y-71423D01*
X-491347Y-67694D01*
X-493212Y-65830D01*
X-500669Y-65830D01*
X-502533Y-67694D01*
X-502533Y-71423D01*
X-500669Y-73287D01*
X-496940Y-73287D01*
X-496940Y-69559D01*
X-502533Y-77524D02*
X-491347Y-77524D01*
X-502533Y-84981D01*
X-491347Y-84981D01*
X-491347Y-89218D02*
X-502533Y-89218D01*
X-502533Y-94811D01*
X-500669Y-96675D01*
X-493212Y-96675D01*
X-491347Y-94811D01*
X-491347Y-89218D01*
D14*
X-473235Y-58687D02*
X-466456Y-58687D01*
X-473235Y-58687D02*
X-476625Y-62076D01*
X-473235Y-65466D01*
X-466456Y-65466D01*
X-466456Y-70906D02*
X-466456Y-74296D01*
X-466456Y-70906D02*
X-468151Y-69211D01*
X-474930Y-69211D01*
X-476625Y-70906D01*
X-476625Y-74296D01*
X-474930Y-75990D01*
X-468151Y-75990D01*
X-466456Y-74296D01*
X-466456Y-79736D02*
X-474930Y-79736D01*
X-476625Y-81431D01*
X-476625Y-84820D01*
X-474930Y-86515D01*
X-466456Y-86515D01*
X-466456Y-93650D02*
X-476625Y-93650D01*
X-466456Y-90260D02*
X-466456Y-97040D01*
X-442751Y-75990D02*
X-441056Y-74296D01*
X-441056Y-70906D01*
X-442751Y-69211D01*
X-444446Y-69211D01*
X-446141Y-70906D01*
X-446141Y-74296D01*
X-447835Y-75990D01*
X-449530Y-75990D01*
X-451225Y-74296D01*
X-451225Y-70906D01*
X-449530Y-69211D01*
X-451225Y-79736D02*
X-441056Y-79736D01*
X-451225Y-79736D02*
X-451225Y-84820D01*
X-449530Y-86515D01*
X-442751Y-86515D01*
X-441056Y-84820D01*
X-441056Y-79736D01*
X-444446Y-90260D02*
X-451225Y-90260D01*
X-444446Y-90260D02*
X-441056Y-93650D01*
X-444446Y-97040D01*
X-451225Y-97040D01*
X-446141Y-97040D02*
X-446141Y-90260D01*
X-417351Y-75990D02*
X-415656Y-74296D01*
X-415656Y-70906D01*
X-417351Y-69211D01*
X-419046Y-69211D01*
X-420741Y-70906D01*
X-420741Y-74296D01*
X-422435Y-75990D01*
X-424130Y-75990D01*
X-425825Y-74296D01*
X-425825Y-70906D01*
X-424130Y-69211D01*
X-415656Y-84820D02*
X-417351Y-86515D01*
X-415656Y-84820D02*
X-415656Y-81431D01*
X-417351Y-79736D01*
X-424130Y-79736D01*
X-425825Y-81431D01*
X-425825Y-84820D01*
X-424130Y-86515D01*
X-425825Y-90260D02*
X-415656Y-90260D01*
X-425825Y-90260D02*
X-425825Y-97040D01*
D12*
X-400933Y-81253D02*
X-389747Y-81253D01*
X-389747Y-84981D02*
X-389747Y-77524D01*
X-389747Y-89218D02*
X-400933Y-96675D01*
X-400933Y-89218D02*
X-389747Y-96675D01*
X-375533Y-77524D02*
X-364347Y-77524D01*
X-364347Y-83117D01*
X-366212Y-84981D01*
X-369940Y-84981D01*
X-371805Y-83117D01*
X-371805Y-77524D01*
X-371805Y-81253D02*
X-375533Y-84981D01*
X-375533Y-96675D02*
X-364347Y-89218D01*
X-364347Y-96675D02*
X-375533Y-89218D01*
X-350133Y-84981D02*
X-350133Y-77524D01*
X-342676Y-84981D01*
X-340812Y-84981D01*
X-338947Y-83117D01*
X-338947Y-79388D01*
X-340812Y-77524D01*
X-340812Y-92947D02*
X-338947Y-96675D01*
X-340812Y-92947D02*
X-344540Y-89218D01*
X-348269Y-89218D01*
X-350133Y-91082D01*
X-350133Y-94811D01*
X-348269Y-96675D01*
X-346405Y-96675D01*
X-344540Y-94811D01*
X-344540Y-89218D01*
X-567547Y-71423D02*
X-569412Y-73287D01*
X-567547Y-71423D02*
X-567547Y-67694D01*
X-569412Y-65830D01*
X-576869Y-65830D01*
X-578733Y-67694D01*
X-578733Y-71423D01*
X-576869Y-73287D01*
X-573140Y-73287D01*
X-573140Y-69559D01*
X-578733Y-77524D02*
X-567547Y-77524D01*
X-578733Y-84981D01*
X-567547Y-84981D01*
X-567547Y-89218D02*
X-578733Y-89218D01*
X-578733Y-94811D01*
X-576869Y-96675D01*
X-569412Y-96675D01*
X-567547Y-94811D01*
X-567547Y-89218D01*
D14*
X-598541Y-60203D02*
X-598541Y-53424D01*
X-601930Y-56814D02*
X-595151Y-56814D01*
X-595151Y-63949D02*
X-593456Y-65644D01*
X-593456Y-69033D01*
X-595151Y-70728D01*
X-596846Y-70728D01*
X-598541Y-69033D01*
X-598541Y-67339D01*
X-598541Y-69033D02*
X-600235Y-70728D01*
X-601930Y-70728D01*
X-603625Y-69033D01*
X-603625Y-65644D01*
X-601930Y-63949D01*
X-601930Y-74474D02*
X-603625Y-74474D01*
X-601930Y-74474D02*
X-601930Y-76168D01*
X-603625Y-76168D01*
X-603625Y-74474D01*
X-595151Y-79736D02*
X-593456Y-81431D01*
X-593456Y-84820D01*
X-595151Y-86515D01*
X-596846Y-86515D01*
X-598541Y-84820D01*
X-598541Y-83125D01*
X-598541Y-84820D02*
X-600235Y-86515D01*
X-601930Y-86515D01*
X-603625Y-84820D01*
X-603625Y-81431D01*
X-601930Y-79736D01*
X-600235Y-90260D02*
X-593456Y-90260D01*
X-600235Y-90260D02*
X-603625Y-93650D01*
X-600235Y-97040D01*
X-593456Y-97040D01*
D12*
X-618347Y-58034D02*
X-629533Y-58034D01*
X-622076Y-61763D02*
X-618347Y-58034D01*
X-622076Y-61763D02*
X-618347Y-65491D01*
X-629533Y-65491D01*
X-618347Y-71592D02*
X-618347Y-75321D01*
X-618347Y-71592D02*
X-620212Y-69728D01*
X-627669Y-69728D01*
X-629533Y-71592D01*
X-629533Y-75321D01*
X-627669Y-77185D01*
X-620212Y-77185D01*
X-618347Y-75321D01*
X-618347Y-87015D02*
X-620212Y-88879D01*
X-618347Y-87015D02*
X-618347Y-83286D01*
X-620212Y-81422D01*
X-622076Y-81422D01*
X-623940Y-83286D01*
X-623940Y-87015D01*
X-625805Y-88879D01*
X-627669Y-88879D01*
X-629533Y-87015D01*
X-629533Y-83286D01*
X-627669Y-81422D01*
X-629533Y-93116D02*
X-629533Y-96844D01*
X-629533Y-94980D02*
X-618347Y-94980D01*
X-618347Y-93116D02*
X-618347Y-96844D01*
X-643747Y-58034D02*
X-654933Y-58034D01*
X-647476Y-61763D02*
X-643747Y-58034D01*
X-647476Y-61763D02*
X-643747Y-65491D01*
X-654933Y-65491D01*
X-654933Y-69728D02*
X-654933Y-73457D01*
X-654933Y-71592D02*
X-643747Y-71592D01*
X-643747Y-69728D02*
X-643747Y-73457D01*
X-643747Y-83117D02*
X-645612Y-84981D01*
X-643747Y-83117D02*
X-643747Y-79388D01*
X-645612Y-77524D01*
X-647476Y-77524D01*
X-649340Y-79388D01*
X-649340Y-83117D01*
X-651205Y-84981D01*
X-653069Y-84981D01*
X-654933Y-83117D01*
X-654933Y-79388D01*
X-653069Y-77524D01*
X-643747Y-91082D02*
X-643747Y-94811D01*
X-643747Y-91082D02*
X-645612Y-89218D01*
X-653069Y-89218D01*
X-654933Y-91082D01*
X-654933Y-94811D01*
X-653069Y-96675D01*
X-645612Y-96675D01*
X-643747Y-94811D01*
D14*
X-669656Y-74296D02*
X-671351Y-75990D01*
X-669656Y-74296D02*
X-669656Y-70906D01*
X-671351Y-69211D01*
X-678130Y-69211D01*
X-679825Y-70906D01*
X-679825Y-74296D01*
X-678130Y-75990D01*
X-679825Y-79736D02*
X-669656Y-79736D01*
X-679825Y-79736D02*
X-679825Y-86515D01*
X-679825Y-90260D02*
X-669656Y-90260D01*
X-676435Y-90260D02*
X-669656Y-97040D01*
X-674741Y-91955D02*
X-679825Y-97040D01*
D12*
X-696412Y-73287D02*
X-694547Y-71423D01*
X-694547Y-67694D01*
X-696412Y-65830D01*
X-703869Y-65830D01*
X-705733Y-67694D01*
X-705733Y-71423D01*
X-703869Y-73287D01*
X-694547Y-83117D02*
X-696412Y-84981D01*
X-694547Y-83117D02*
X-694547Y-79388D01*
X-696412Y-77524D01*
X-698276Y-77524D01*
X-700140Y-79388D01*
X-700140Y-83117D01*
X-702005Y-84981D01*
X-703869Y-84981D01*
X-705733Y-83117D01*
X-705733Y-79388D01*
X-703869Y-77524D01*
X-703869Y-89218D02*
X-696412Y-89218D01*
X-694547Y-91082D01*
X-694547Y-94811D01*
X-696412Y-96675D01*
X-703869Y-96675D01*
X-705733Y-94811D01*
X-705733Y-91082D01*
X-703869Y-89218D01*
X-696412Y-96675D01*
X-719947Y-79388D02*
X-721812Y-77524D01*
X-719947Y-79388D02*
X-719947Y-83117D01*
X-721812Y-84981D01*
X-723676Y-84981D01*
X-725540Y-83117D01*
X-727405Y-84981D01*
X-729269Y-84981D01*
X-731133Y-83117D01*
X-731133Y-79388D01*
X-729269Y-77524D01*
X-727405Y-77524D01*
X-725540Y-79388D01*
X-723676Y-77524D01*
X-721812Y-77524D01*
X-725540Y-79388D02*
X-725540Y-83117D01*
X-729269Y-89218D02*
X-731133Y-91082D01*
X-731133Y-94811D01*
X-729269Y-96675D01*
X-721812Y-96675D01*
X-719947Y-94811D01*
X-719947Y-91082D01*
X-721812Y-89218D01*
X-723676Y-89218D01*
X-725540Y-91082D01*
X-725540Y-96675D01*
D14*
X-749458Y-54009D02*
X-755390Y-54009D01*
X-749458Y-54009D02*
X-746492Y-56975D01*
X-749458Y-59941D01*
X-755390Y-59941D01*
X-750941Y-59941D02*
X-750941Y-54009D01*
X-747975Y-66330D02*
X-746492Y-69296D01*
X-747975Y-66330D02*
X-750941Y-63364D01*
X-753907Y-63364D01*
X-755390Y-64847D01*
X-755390Y-67813D01*
X-753907Y-69296D01*
X-752424Y-69296D01*
X-750941Y-67813D01*
X-750941Y-63364D01*
X-755390Y-72719D02*
X-746492Y-78651D01*
X-747975Y-82075D02*
X-746492Y-83558D01*
X-746492Y-86523D01*
X-747975Y-88006D01*
X-749458Y-88006D01*
X-750941Y-86523D01*
X-752424Y-88006D01*
X-753907Y-88006D01*
X-755390Y-86523D01*
X-755390Y-83558D01*
X-753907Y-82075D01*
X-752424Y-82075D01*
X-750941Y-83558D01*
X-749458Y-82075D01*
X-747975Y-82075D01*
X-750941Y-83558D02*
X-750941Y-86523D01*
X-746492Y-91430D02*
X-746492Y-97362D01*
X-747975Y-97362D01*
X-753907Y-91430D01*
X-755390Y-91430D01*
D12*
X-477133Y170248D02*
X-465947Y170248D01*
X-471540Y175841D01*
X-471540Y168384D01*
X-477133Y158554D02*
X-465947Y158554D01*
X-471540Y164147D01*
X-471540Y156690D01*
X-491347Y170248D02*
X-502533Y170248D01*
X-496940Y175841D02*
X-491347Y170248D01*
X-496940Y168384D02*
X-496940Y175841D01*
X-493212Y160419D02*
X-491347Y156690D01*
X-493212Y160419D02*
X-496940Y164147D01*
X-500669Y164147D01*
X-502533Y162283D01*
X-502533Y158554D01*
X-500669Y156690D01*
X-498805Y156690D01*
X-496940Y158554D01*
X-496940Y164147D01*
X-516747Y168384D02*
X-518612Y172112D01*
X-522340Y175841D01*
X-526069Y175841D01*
X-527933Y173977D01*
X-527933Y170248D01*
X-526069Y168384D01*
X-524205Y168384D01*
X-522340Y170248D01*
X-522340Y175841D01*
X-527933Y158554D02*
X-516747Y158554D01*
X-522340Y164147D01*
X-522340Y156690D01*
X-542147Y170248D02*
X-553333Y170248D01*
X-547740Y175841D02*
X-542147Y170248D01*
X-547740Y168384D02*
X-547740Y175841D01*
X-542147Y164147D02*
X-542147Y156690D01*
X-544012Y156690D01*
X-551469Y164147D01*
X-553333Y164147D01*
X-567547Y160418D02*
X-578733Y160418D01*
X-567547Y156690D02*
X-567547Y164147D01*
X-598540Y164147D02*
X-598540Y156690D01*
X-594812Y160418D02*
X-602269Y160418D01*
X-618347Y175841D02*
X-629533Y175841D01*
X-618347Y175841D02*
X-618347Y170248D01*
X-620212Y168384D01*
X-623940Y168384D01*
X-625805Y170248D01*
X-625805Y175841D01*
X-629533Y164147D02*
X-618347Y164147D01*
X-618347Y158554D01*
X-620212Y156690D01*
X-622076Y156690D01*
X-623940Y158554D01*
X-625805Y156690D01*
X-627669Y156690D01*
X-629533Y158554D01*
X-629533Y164147D01*
X-623940Y164147D02*
X-623940Y158554D01*
X-643747Y168384D02*
X-643747Y175841D01*
X-649340Y175841D01*
X-647476Y172112D01*
X-647476Y170248D01*
X-649340Y168384D01*
X-653069Y168384D01*
X-654933Y170248D01*
X-654933Y173977D01*
X-653069Y175841D01*
X-654933Y164147D02*
X-654933Y156690D01*
X-654933Y164147D02*
X-647476Y156690D01*
X-645612Y156690D01*
X-643747Y158554D01*
X-643747Y162283D01*
X-645612Y164147D01*
X-669147Y168384D02*
X-671012Y172112D01*
X-674740Y175841D01*
X-678469Y175841D01*
X-680333Y173977D01*
X-680333Y170248D01*
X-678469Y168384D01*
X-676605Y168384D01*
X-674740Y170248D01*
X-674740Y175841D01*
X-671012Y164147D02*
X-678469Y164147D01*
X-671012Y164147D02*
X-669147Y162283D01*
X-669147Y158554D01*
X-671012Y156690D01*
X-678469Y156690D01*
X-680333Y158554D01*
X-680333Y162283D01*
X-678469Y164147D01*
X-671012Y156690D01*
X-694547Y168384D02*
X-694547Y175841D01*
X-700140Y175841D01*
X-698276Y172112D01*
X-698276Y170248D01*
X-700140Y168384D01*
X-703869Y168384D01*
X-705733Y170248D01*
X-705733Y173977D01*
X-703869Y175841D01*
X-694547Y164147D02*
X-694547Y156690D01*
X-696412Y156690D01*
X-703869Y164147D01*
X-705733Y164147D01*
D14*
X-720456Y166850D02*
X-720456Y173629D01*
X-725541Y173629D01*
X-723846Y170240D01*
X-723846Y168545D01*
X-725541Y166850D01*
X-728930Y166850D01*
X-730625Y168545D01*
X-730625Y171934D01*
X-728930Y173629D01*
X-722151Y163105D02*
X-720456Y161410D01*
X-720456Y158020D01*
X-722151Y156325D01*
X-723846Y156325D01*
X-725541Y158020D01*
X-727235Y156325D01*
X-728930Y156325D01*
X-730625Y158020D01*
X-730625Y161410D01*
X-728930Y163105D01*
X-727235Y163105D01*
X-725541Y161410D01*
X-723846Y163105D01*
X-722151Y163105D01*
X-725541Y161410D02*
X-725541Y158020D01*
D12*
X-770747Y139118D02*
X-770747Y131661D01*
X-770747Y139118D02*
X-776340Y139118D01*
X-774476Y135390D01*
X-774476Y133525D01*
X-776340Y131661D01*
X-780069Y131661D01*
X-781933Y133525D01*
X-781933Y137254D01*
X-780069Y139118D01*
X-780069Y127424D02*
X-781933Y125560D01*
X-781933Y121831D01*
X-780069Y119967D01*
X-772612Y119967D01*
X-770747Y121831D01*
X-770747Y125560D01*
X-772612Y127424D01*
X-774476Y127424D01*
X-776340Y125560D01*
X-776340Y119967D01*
X-417012Y160418D02*
X-415147Y156690D01*
X-417012Y160418D02*
X-420740Y164147D01*
X-424469Y164147D01*
X-426333Y162283D01*
X-426333Y158554D01*
X-424469Y156690D01*
X-422605Y156690D01*
X-420740Y158554D01*
X-420740Y164147D01*
X-391612Y164147D02*
X-389747Y162283D01*
X-389747Y158554D01*
X-391612Y156690D01*
X-393476Y156690D01*
X-395340Y158554D01*
X-395340Y160418D01*
X-395340Y158554D02*
X-397205Y156690D01*
X-399069Y156690D01*
X-400933Y158554D01*
X-400933Y162283D01*
X-399069Y164147D01*
X-375533Y164147D02*
X-375533Y156690D01*
X-375533Y164147D02*
X-368076Y156690D01*
X-366212Y156690D01*
X-364347Y158554D01*
X-364347Y162283D01*
X-366212Y164147D01*
X-338947Y164147D02*
X-338947Y156690D01*
X-338947Y164147D02*
X-344540Y164147D01*
X-342676Y160418D01*
X-342676Y158554D01*
X-344540Y156690D01*
X-348269Y156690D01*
X-350133Y158554D01*
X-350133Y162283D01*
X-348269Y164147D01*
D14*
X-298190Y145595D02*
X-292258Y145595D01*
X-289292Y142629D01*
X-292258Y139663D01*
X-298190Y139663D01*
X-293741Y139663D02*
X-293741Y145595D01*
X-289292Y136240D02*
X-289292Y130308D01*
X-290775Y130308D01*
X-296707Y136240D01*
X-298190Y136240D01*
X-295224Y126885D02*
X-298190Y123919D01*
X-295224Y126885D02*
X-292258Y126885D01*
X-289292Y123919D01*
X-292258Y120648D02*
X-289292Y117682D01*
X-298190Y117682D01*
X-298190Y120648D02*
X-298190Y114716D01*
X-298190Y111293D02*
X-296707Y111293D01*
X-296707Y109810D01*
X-298190Y109810D01*
X-298190Y111293D01*
X-290775Y106615D02*
X-289292Y105132D01*
X-289292Y102166D01*
X-290775Y100683D01*
X-292258Y100683D01*
X-293741Y102166D01*
X-295224Y100683D01*
X-296707Y100683D01*
X-298190Y102166D01*
X-298190Y105132D01*
X-296707Y106615D01*
X-295224Y106615D01*
X-293741Y105132D01*
X-292258Y106615D01*
X-290775Y106615D01*
X-293741Y105132D02*
X-293741Y102166D01*
X-298190Y97260D02*
X-295224Y94294D01*
X-292258Y94294D01*
X-289292Y97260D01*
D10*
X-306318Y132006D02*
X-331718Y132006D01*
D14*
X-746492Y107495D02*
X-755390Y107495D01*
X-746492Y107495D02*
X-746492Y103046D01*
X-747975Y101563D01*
X-750941Y101563D01*
X-752424Y103046D01*
X-752424Y107495D01*
X-755390Y98140D02*
X-746492Y98140D01*
X-752424Y95174D02*
X-755390Y98140D01*
X-752424Y95174D02*
X-755390Y92208D01*
X-746492Y92208D01*
X-746492Y88785D02*
X-755390Y88785D01*
X-749458Y85819D02*
X-746492Y88785D01*
X-749458Y85819D02*
X-746492Y82853D01*
X-755390Y82853D01*
X-749458Y79429D02*
X-746492Y76464D01*
X-755390Y76464D01*
X-755390Y79429D02*
X-755390Y73498D01*
X-755390Y70074D02*
X-749458Y70074D01*
X-746492Y67108D01*
X-749458Y64143D01*
X-755390Y64143D01*
X-750941Y64143D02*
X-750941Y70074D01*
D12*
X-731133Y99911D02*
X-731133Y107368D01*
X-723676Y99911D01*
X-721812Y99911D01*
X-719947Y101775D01*
X-719947Y105504D01*
X-721812Y107368D01*
X-721812Y95674D02*
X-719947Y93810D01*
X-719947Y90081D01*
X-721812Y88217D01*
X-723676Y88217D01*
X-725540Y90081D01*
X-725540Y91946D01*
X-725540Y90081D02*
X-727405Y88217D01*
X-729269Y88217D01*
X-731133Y90081D01*
X-731133Y93810D01*
X-729269Y95674D01*
X-705733Y107368D02*
X-694547Y107368D01*
X-694547Y101775D01*
X-696412Y99911D01*
X-700140Y99911D01*
X-702005Y101775D01*
X-702005Y107368D01*
X-702005Y103640D02*
X-705733Y99911D01*
X-705733Y88217D02*
X-694547Y95674D01*
X-694547Y88217D02*
X-705733Y95674D01*
X-680333Y103640D02*
X-669147Y103640D01*
X-669147Y107368D02*
X-669147Y99911D01*
X-669147Y95674D02*
X-680333Y88217D01*
X-680333Y95674D02*
X-669147Y88217D01*
D14*
X-645951Y100716D02*
X-644256Y102411D01*
X-644256Y105800D01*
X-645951Y107495D01*
X-647646Y107495D01*
X-649341Y105800D01*
X-649341Y102411D01*
X-651035Y100716D01*
X-652730Y100716D01*
X-654425Y102411D01*
X-654425Y105800D01*
X-652730Y107495D01*
X-644256Y91886D02*
X-645951Y90191D01*
X-644256Y91886D02*
X-644256Y95276D01*
X-645951Y96970D01*
X-652730Y96970D01*
X-654425Y95276D01*
X-654425Y91886D01*
X-652730Y90191D01*
X-654425Y86446D02*
X-644256Y86446D01*
X-654425Y86446D02*
X-654425Y79667D01*
X-620551Y100716D02*
X-618856Y102411D01*
X-618856Y105800D01*
X-620551Y107495D01*
X-622246Y107495D01*
X-623941Y105800D01*
X-623941Y102411D01*
X-625635Y100716D01*
X-627330Y100716D01*
X-629025Y102411D01*
X-629025Y105800D01*
X-627330Y107495D01*
X-629025Y96970D02*
X-618856Y96970D01*
X-629025Y96970D02*
X-629025Y91886D01*
X-627330Y90191D01*
X-620551Y90191D01*
X-618856Y91886D01*
X-618856Y96970D01*
X-622246Y86446D02*
X-629025Y86446D01*
X-622246Y86446D02*
X-618856Y83056D01*
X-622246Y79667D01*
X-629025Y79667D01*
X-623941Y79667D02*
X-623941Y86446D01*
D12*
X-600405Y107368D02*
X-592947Y107368D01*
X-600405Y107368D02*
X-604133Y103640D01*
X-600405Y99911D01*
X-592947Y99911D01*
X-592947Y93810D02*
X-592947Y90081D01*
X-592947Y93810D02*
X-594812Y95674D01*
X-602269Y95674D01*
X-604133Y93810D01*
X-604133Y90081D01*
X-602269Y88217D01*
X-594812Y88217D01*
X-592947Y90081D01*
X-592947Y83980D02*
X-602269Y83980D01*
X-604133Y82116D01*
X-604133Y78387D01*
X-602269Y76523D01*
X-592947Y76523D01*
X-592947Y68558D02*
X-604133Y68558D01*
X-592947Y72286D02*
X-592947Y64829D01*
X-569412Y99911D02*
X-567547Y101775D01*
X-567547Y105504D01*
X-569412Y107368D01*
X-576869Y107368D01*
X-578733Y105504D01*
X-578733Y101775D01*
X-576869Y99911D01*
X-573140Y99911D01*
X-573140Y103640D01*
X-578733Y95674D02*
X-567547Y95674D01*
X-578733Y88217D01*
X-567547Y88217D01*
X-567547Y83980D02*
X-578733Y83980D01*
X-578733Y78387D01*
X-576869Y76523D01*
X-569412Y76523D01*
X-567547Y78387D01*
X-567547Y83980D01*
X-542147Y99911D02*
X-544012Y103640D01*
X-547740Y107368D01*
X-551469Y107368D01*
X-553333Y105504D01*
X-553333Y101775D01*
X-551469Y99911D01*
X-549605Y99911D01*
X-547740Y101775D01*
X-547740Y107368D01*
X-542147Y95674D02*
X-542147Y88217D01*
X-542147Y95674D02*
X-547740Y95674D01*
X-545876Y91946D01*
X-545876Y90081D01*
X-547740Y88217D01*
X-551469Y88217D01*
X-553333Y90081D01*
X-553333Y93810D01*
X-551469Y95674D01*
X-527933Y99911D02*
X-527933Y107368D01*
X-520476Y99911D01*
X-518612Y99911D01*
X-516747Y101775D01*
X-516747Y105504D01*
X-518612Y107368D01*
X-516747Y95674D02*
X-516747Y88217D01*
X-518612Y88217D01*
X-526069Y95674D01*
X-527933Y95674D01*
X-493212Y99911D02*
X-491347Y101775D01*
X-491347Y105504D01*
X-493212Y107368D01*
X-500669Y107368D01*
X-502533Y105504D01*
X-502533Y101775D01*
X-500669Y99911D01*
X-496940Y99911D01*
X-496940Y103640D01*
X-502533Y95674D02*
X-491347Y95674D01*
X-502533Y88217D01*
X-491347Y88217D01*
X-491347Y83980D02*
X-502533Y83980D01*
X-502533Y78387D01*
X-500669Y76523D01*
X-493212Y76523D01*
X-491347Y78387D01*
X-491347Y83980D01*
D14*
X-471541Y100716D02*
X-471541Y107495D01*
X-474930Y104105D02*
X-468151Y104105D01*
X-468151Y96970D02*
X-466456Y95276D01*
X-466456Y91886D01*
X-468151Y90191D01*
X-469846Y90191D01*
X-471541Y91886D01*
X-471541Y93581D01*
X-471541Y91886D02*
X-473235Y90191D01*
X-474930Y90191D01*
X-476625Y91886D01*
X-476625Y95276D01*
X-474930Y96970D01*
X-474930Y86446D02*
X-476625Y86446D01*
X-474930Y86446D02*
X-474930Y84751D01*
X-476625Y84751D01*
X-476625Y86446D01*
X-468151Y81184D02*
X-466456Y79489D01*
X-466456Y76099D01*
X-468151Y74404D01*
X-469846Y74404D01*
X-471541Y76099D01*
X-471541Y77794D01*
X-471541Y76099D02*
X-473235Y74404D01*
X-474930Y74404D01*
X-476625Y76099D01*
X-476625Y79489D01*
X-474930Y81184D01*
X-473235Y70659D02*
X-466456Y70659D01*
X-473235Y70659D02*
X-476625Y67269D01*
X-473235Y63880D01*
X-466456Y63880D01*
D12*
X-451733Y107368D02*
X-440547Y107368D01*
X-444276Y103640D01*
X-440547Y99911D01*
X-451733Y99911D01*
X-440547Y93810D02*
X-440547Y90081D01*
X-440547Y93810D02*
X-442412Y95674D01*
X-449869Y95674D01*
X-451733Y93810D01*
X-451733Y90081D01*
X-449869Y88217D01*
X-442412Y88217D01*
X-440547Y90081D01*
X-440547Y78387D02*
X-442412Y76523D01*
X-440547Y78387D02*
X-440547Y82116D01*
X-442412Y83980D01*
X-444276Y83980D01*
X-446140Y82116D01*
X-446140Y78387D01*
X-448005Y76523D01*
X-449869Y76523D01*
X-451733Y78387D01*
X-451733Y82116D01*
X-449869Y83980D01*
X-451733Y72286D02*
X-451733Y68558D01*
X-451733Y70422D02*
X-440547Y70422D01*
X-440547Y72286D02*
X-440547Y68558D01*
X-426333Y107368D02*
X-415147Y107368D01*
X-418876Y103640D01*
X-415147Y99911D01*
X-426333Y99911D01*
X-426333Y95674D02*
X-426333Y91946D01*
X-426333Y93810D02*
X-415147Y93810D01*
X-415147Y95674D02*
X-415147Y91946D01*
X-415147Y82285D02*
X-417012Y80421D01*
X-415147Y82285D02*
X-415147Y86014D01*
X-417012Y87878D01*
X-418876Y87878D01*
X-420740Y86014D01*
X-420740Y82285D01*
X-422605Y80421D01*
X-424469Y80421D01*
X-426333Y82285D01*
X-426333Y86014D01*
X-424469Y87878D01*
X-415147Y74320D02*
X-415147Y70591D01*
X-415147Y74320D02*
X-417012Y76184D01*
X-424469Y76184D01*
X-426333Y74320D01*
X-426333Y70591D01*
X-424469Y68727D01*
X-417012Y68727D01*
X-415147Y70591D01*
D14*
X-391951Y100716D02*
X-390256Y102411D01*
X-390256Y105800D01*
X-391951Y107495D01*
X-398730Y107495D01*
X-400425Y105800D01*
X-400425Y102411D01*
X-398730Y100716D01*
X-400425Y96970D02*
X-390256Y96970D01*
X-400425Y96970D02*
X-400425Y90191D01*
X-400425Y86446D02*
X-390256Y86446D01*
X-397035Y86446D02*
X-390256Y79667D01*
X-395341Y84751D02*
X-400425Y79667D01*
D12*
X-366212Y99911D02*
X-364347Y101775D01*
X-364347Y105504D01*
X-366212Y107368D01*
X-373669Y107368D01*
X-375533Y105504D01*
X-375533Y101775D01*
X-373669Y99911D01*
X-364347Y90081D02*
X-366212Y88217D01*
X-364347Y90081D02*
X-364347Y93810D01*
X-366212Y95674D01*
X-368076Y95674D01*
X-369940Y93810D01*
X-369940Y90081D01*
X-371805Y88217D01*
X-373669Y88217D01*
X-375533Y90081D01*
X-375533Y93810D01*
X-373669Y95674D01*
X-368076Y83980D02*
X-364347Y80252D01*
X-375533Y80252D01*
X-375533Y83980D02*
X-375533Y76523D01*
X-350133Y101775D02*
X-338947Y101775D01*
X-344540Y107368D01*
X-344540Y99911D01*
X-338947Y95674D02*
X-338947Y88217D01*
X-338947Y95674D02*
X-344540Y95674D01*
X-342676Y91946D01*
X-342676Y90081D01*
X-344540Y88217D01*
X-348269Y88217D01*
X-350133Y90081D01*
X-350133Y93810D01*
X-348269Y95674D01*
D14*
X-323590Y107495D02*
X-317658Y107495D01*
X-314692Y104529D01*
X-317658Y101563D01*
X-323590Y101563D01*
X-319141Y101563D02*
X-319141Y107495D01*
X-314692Y98140D02*
X-314692Y92208D01*
X-314692Y98140D02*
X-319141Y98140D01*
X-317658Y95174D01*
X-317658Y93691D01*
X-319141Y92208D01*
X-322107Y92208D01*
X-323590Y93691D01*
X-323590Y96657D01*
X-322107Y98140D01*
X-323590Y88785D02*
X-314692Y82853D01*
X-316175Y79429D02*
X-314692Y77947D01*
X-314692Y74981D01*
X-316175Y73498D01*
X-317658Y73498D01*
X-319141Y74981D01*
X-320624Y73498D01*
X-322107Y73498D01*
X-323590Y74981D01*
X-323590Y77947D01*
X-322107Y79429D01*
X-320624Y79429D01*
X-319141Y77947D01*
X-317658Y79429D01*
X-316175Y79429D01*
X-319141Y77947D02*
X-319141Y74981D01*
X-316175Y67108D02*
X-314692Y64143D01*
X-316175Y67108D02*
X-319141Y70074D01*
X-322107Y70074D01*
X-323590Y68591D01*
X-323590Y65625D01*
X-322107Y64143D01*
X-320624Y64143D01*
X-319141Y65625D01*
X-319141Y70074D01*
X-720456Y-146505D02*
X-720456Y-153284D01*
X-720456Y-146505D02*
X-730625Y-146505D01*
X-730625Y-153284D01*
X-725541Y-149895D02*
X-725541Y-146505D01*
X-730625Y-157030D02*
X-720456Y-157030D01*
X-730625Y-163809D01*
X-720456Y-163809D01*
D12*
X-702005Y-146632D02*
X-694547Y-146632D01*
X-702005Y-146632D02*
X-705733Y-150361D01*
X-702005Y-154089D01*
X-694547Y-154089D01*
X-694547Y-158326D02*
X-705733Y-158326D01*
X-694547Y-158326D02*
X-694547Y-163919D01*
X-696412Y-165783D01*
X-698276Y-165783D01*
X-700140Y-163919D01*
X-702005Y-165783D01*
X-703869Y-165783D01*
X-705733Y-163919D01*
X-705733Y-158326D01*
X-700140Y-158326D02*
X-700140Y-163919D01*
X-676605Y-146632D02*
X-669147Y-146632D01*
X-676605Y-146632D02*
X-680333Y-150361D01*
X-676605Y-154089D01*
X-669147Y-154089D01*
X-680333Y-158326D02*
X-680333Y-162054D01*
X-680333Y-160190D02*
X-669147Y-160190D01*
X-669147Y-158326D02*
X-669147Y-162054D01*
X-649340Y-154089D02*
X-649340Y-146632D01*
X-623940Y-146632D02*
X-623940Y-154089D01*
X-620212Y-150361D02*
X-627669Y-150361D01*
X-604133Y-150361D02*
X-604133Y-146632D01*
X-604133Y-148496D02*
X-592947Y-148496D01*
X-592947Y-146632D02*
X-592947Y-150361D01*
X-592947Y-154428D02*
X-604133Y-154428D01*
X-604133Y-160021D01*
X-602269Y-161885D01*
X-594812Y-161885D01*
X-592947Y-160021D01*
X-592947Y-154428D01*
D11*
X-570769Y-151123D02*
X-569583Y-149937D01*
X-569583Y-147564D01*
X-570769Y-146378D01*
X-575515Y-146378D01*
X-576701Y-147564D01*
X-576701Y-149937D01*
X-575515Y-151123D01*
X-573142Y-151123D01*
X-573142Y-148751D01*
X-576701Y-153862D02*
X-569583Y-153862D01*
X-576701Y-158608D01*
X-569583Y-158608D01*
X-569583Y-161346D02*
X-576701Y-161346D01*
X-576701Y-164905D01*
X-575515Y-166092D01*
X-570769Y-166092D01*
X-569583Y-164905D01*
X-569583Y-161346D01*
D12*
X-547740Y-154089D02*
X-547740Y-146632D01*
X-526069Y-146632D02*
X-518612Y-146632D01*
X-516747Y-148496D01*
X-516747Y-152225D01*
X-518612Y-154089D01*
X-526069Y-154089D01*
X-527933Y-152225D01*
X-527933Y-148496D01*
X-526069Y-146632D01*
X-518612Y-154089D01*
X-495076Y-146632D02*
X-491347Y-150361D01*
X-502533Y-150361D01*
X-502533Y-154089D02*
X-502533Y-146632D01*
X-477133Y-146632D02*
X-477133Y-154089D01*
X-477133Y-146632D02*
X-469676Y-154089D01*
X-467812Y-154089D01*
X-465947Y-152225D01*
X-465947Y-148496D01*
X-467812Y-146632D01*
X-442412Y-146632D02*
X-440547Y-148496D01*
X-440547Y-152225D01*
X-442412Y-154089D01*
X-444276Y-154089D01*
X-446140Y-152225D01*
X-446140Y-150361D01*
X-446140Y-152225D02*
X-448005Y-154089D01*
X-449869Y-154089D01*
X-451733Y-152225D01*
X-451733Y-148496D01*
X-449869Y-146632D01*
X-426333Y-152225D02*
X-415147Y-152225D01*
X-420740Y-146632D01*
X-420740Y-154089D01*
X-389747Y-154089D02*
X-389747Y-146632D01*
X-389747Y-154089D02*
X-391612Y-154089D01*
X-399069Y-146632D01*
X-400933Y-146632D01*
X-375533Y-152225D02*
X-364347Y-152225D01*
X-369940Y-146632D01*
X-369940Y-154089D01*
X-342676Y-146632D02*
X-338947Y-150361D01*
X-350133Y-150361D01*
X-350133Y-154089D02*
X-350133Y-146632D01*
X-298698Y-86389D02*
X-287512Y-86389D01*
X-287512Y-91982D01*
X-289377Y-93846D01*
X-293105Y-93846D01*
X-294970Y-91982D01*
X-294970Y-86389D01*
X-291241Y-98083D02*
X-287512Y-101812D01*
X-298698Y-101812D01*
X-298698Y-105540D02*
X-298698Y-98083D01*
X-298698Y-109777D02*
X-296834Y-109777D01*
X-296834Y-111641D01*
X-298698Y-111641D01*
X-298698Y-109777D01*
X-291241Y-115624D02*
X-287512Y-119352D01*
X-298698Y-119352D01*
X-298698Y-115624D02*
X-298698Y-123081D01*
X-296834Y-127318D02*
X-289377Y-127318D01*
X-287512Y-129182D01*
X-287512Y-132911D01*
X-289377Y-134775D01*
X-296834Y-134775D01*
X-298698Y-132911D01*
X-298698Y-129182D01*
X-296834Y-127318D01*
X-289377Y-134775D01*
D14*
X-314692Y-54009D02*
X-323590Y-54009D01*
X-314692Y-54009D02*
X-314692Y-58458D01*
X-316175Y-59941D01*
X-319141Y-59941D01*
X-320624Y-58458D01*
X-320624Y-54009D01*
X-323590Y-63364D02*
X-314692Y-63364D01*
X-320624Y-66330D02*
X-323590Y-63364D01*
X-320624Y-66330D02*
X-323590Y-69296D01*
X-314692Y-69296D01*
X-314692Y-72719D02*
X-323590Y-72719D01*
X-317658Y-75685D02*
X-314692Y-72719D01*
X-317658Y-75685D02*
X-314692Y-78651D01*
X-323590Y-78651D01*
X-322107Y-82075D02*
X-316175Y-82075D01*
X-314692Y-83558D01*
X-314692Y-86523D01*
X-316175Y-88006D01*
X-322107Y-88006D01*
X-323590Y-86523D01*
X-323590Y-83558D01*
X-322107Y-82075D01*
X-316175Y-88006D01*
X-317658Y-91430D02*
X-323590Y-91430D01*
X-317658Y-91430D02*
X-314692Y-94396D01*
X-317658Y-97362D01*
X-323590Y-97362D01*
X-319141Y-97362D02*
X-319141Y-91430D01*
D12*
X-770112Y-100208D02*
X-777570Y-100208D01*
X-781298Y-103937D01*
X-777570Y-107665D01*
X-770112Y-107665D01*
X-781298Y-111902D02*
X-781298Y-115631D01*
X-781298Y-113766D02*
X-770112Y-113766D01*
X-770112Y-111902D02*
X-770112Y-115631D01*
X-770112Y-119698D02*
X-781298Y-119698D01*
X-781298Y-127155D02*
X-770112Y-119698D01*
X-770112Y-127155D02*
X-781298Y-127155D01*
D14*
X-389290Y-157927D02*
X-389290Y-166825D01*
X-389290Y-157927D02*
X-384842Y-157927D01*
X-383359Y-159410D01*
X-383359Y-162376D01*
X-384842Y-163859D01*
X-389290Y-163859D01*
X-379935Y-166825D02*
X-379935Y-157927D01*
X-375486Y-157927D01*
X-374003Y-159410D01*
X-374003Y-162376D01*
X-375486Y-163859D01*
X-379935Y-163859D01*
X-376969Y-163859D02*
X-374003Y-166825D01*
X-370580Y-165342D02*
X-370580Y-157927D01*
X-370580Y-165342D02*
X-369097Y-166825D01*
X-366131Y-166825D01*
X-364648Y-165342D01*
X-364648Y-157927D01*
X-361225Y-159410D02*
X-361225Y-165342D01*
X-361225Y-159410D02*
X-359742Y-157927D01*
X-356776Y-157927D01*
X-355293Y-159410D01*
X-355293Y-165342D01*
X-356776Y-166825D01*
X-359742Y-166825D01*
X-361225Y-165342D01*
X-355293Y-159410D01*
X-400085Y167820D02*
X-400085Y176718D01*
X-395637Y176718D01*
X-394154Y175235D01*
X-394154Y172269D01*
X-395637Y170786D01*
X-400085Y170786D01*
X-390730Y167820D02*
X-390730Y176718D01*
X-386281Y176718D01*
X-384798Y175235D01*
X-384798Y172269D01*
X-386281Y170786D01*
X-390730Y170786D01*
X-387764Y170786D02*
X-384798Y167820D01*
X-381375Y169303D02*
X-381375Y176718D01*
X-381375Y169303D02*
X-379892Y167820D01*
X-376926Y167820D01*
X-375443Y169303D01*
X-375443Y176718D01*
X-372020Y175235D02*
X-372020Y169303D01*
X-372020Y175235D02*
X-370537Y176718D01*
X-367571Y176718D01*
X-366088Y175235D01*
X-366088Y169303D01*
X-367571Y167820D01*
X-370537Y167820D01*
X-372020Y169303D01*
X-366088Y175235D01*
X-599878Y176718D02*
X-599878Y167820D01*
X-599878Y176718D02*
X-595429Y176718D01*
X-593946Y175235D01*
X-593946Y173752D01*
X-595429Y172269D01*
X-593946Y170786D01*
X-593946Y169303D01*
X-595429Y167820D01*
X-599878Y167820D01*
X-599878Y172269D02*
X-595429Y172269D01*
X-590523Y173752D02*
X-590523Y167820D01*
X-590523Y173752D02*
X-587557Y176718D01*
X-584591Y173752D01*
X-584591Y167820D01*
X-584591Y172269D02*
X-590523Y172269D01*
X-578202Y167820D02*
X-578202Y176718D01*
X-581167Y176718D02*
X-575236Y176718D01*
D10*
X-306318Y132006D02*
X-306318Y88826D01*
X-306318Y58346D01*
X-712718Y132006D02*
X-738118Y132006D01*
X-763518Y132006D01*
X-763518Y-121994D02*
X-738118Y-121994D01*
X-763518Y-121994D02*
X-763518Y-78814D01*
X-763518Y-48334D01*
X-738118Y-48334D02*
X-712718Y-48334D01*
X-738118Y-48334D02*
X-763518Y-48334D01*
X-712718Y-48334D02*
X-611118Y-48334D01*
X-611118Y-121994D01*
D14*
X-698029Y-54635D02*
X-699512Y-53152D01*
X-702478Y-53152D01*
X-703961Y-54635D01*
X-703961Y-56118D01*
X-702478Y-57601D01*
X-699512Y-57601D01*
X-698029Y-59084D01*
X-698029Y-60567D01*
X-699512Y-62050D01*
X-702478Y-62050D01*
X-703961Y-60567D01*
X-694606Y-62050D02*
X-694606Y-53152D01*
X-690157Y-53152D01*
X-688674Y-54635D01*
X-688674Y-57601D01*
X-690157Y-59084D01*
X-694606Y-59084D01*
X-685251Y-62050D02*
X-682285Y-62050D01*
X-683768Y-62050D02*
X-683768Y-53152D01*
X-685251Y-53152D02*
X-682285Y-53152D01*
X-679014Y-54635D02*
X-679014Y-60567D01*
X-679014Y-54635D02*
X-677531Y-53152D01*
X-674565Y-53152D01*
X-673082Y-54635D01*
X-673082Y-60567D01*
X-674565Y-62050D01*
X-677531Y-62050D01*
X-679014Y-60567D01*
X-673082Y-54635D01*
X-652180Y-157927D02*
X-652180Y-165342D01*
X-650697Y-166825D01*
X-647732Y-166825D01*
X-646249Y-165342D01*
X-646249Y-157927D01*
X-638376Y-157927D02*
X-636893Y-159410D01*
X-638376Y-157927D02*
X-641342Y-157927D01*
X-642825Y-159410D01*
X-642825Y-160893D01*
X-641342Y-162376D01*
X-638376Y-162376D01*
X-636893Y-163859D01*
X-636893Y-165342D01*
X-638376Y-166825D01*
X-641342Y-166825D01*
X-642825Y-165342D01*
X-633470Y-166825D02*
X-633470Y-157927D01*
X-629021Y-157927D01*
X-627538Y-159410D01*
X-627538Y-160893D01*
X-629021Y-162376D01*
X-627538Y-163859D01*
X-627538Y-165342D01*
X-629021Y-166825D01*
X-633470Y-166825D01*
X-633470Y-162376D02*
X-629021Y-162376D01*
X-624115Y-160893D02*
X-621149Y-157927D01*
X-621149Y-166825D01*
X-624115Y-166825D02*
X-618183Y-166825D01*
D10*
X-585718Y-48334D02*
X-560318Y-48334D01*
X-585718Y-48334D02*
X-611118Y-48334D01*
X-560318Y-48334D02*
X-534918Y-48334D01*
X-509518Y-48334D01*
X-484118Y-48334D01*
X-458718Y-48334D01*
X-407918Y-48334D01*
X-357118Y-48334D01*
X-331718Y-48334D01*
X-306318Y-48334D01*
X-306318Y-78814D02*
X-306318Y-121994D01*
X-306318Y-78814D02*
X-306318Y-48334D01*
X-306318Y-121994D02*
X-331718Y-121994D01*
X-331718Y-48334D01*
X-306318Y-78814D02*
X-280918Y-78814D01*
X-280918Y-130884D01*
D14*
X-446995Y-62050D02*
X-449961Y-62050D01*
X-448478Y-62050D02*
X-448478Y-53152D01*
X-449961Y-53152D02*
X-446995Y-53152D01*
X-443724Y-62050D02*
X-437793Y-62050D01*
X-443724Y-62050D02*
X-437793Y-56118D01*
X-437793Y-54635D01*
X-439276Y-53152D01*
X-442242Y-53152D01*
X-443724Y-54635D01*
X-429920Y-53152D02*
X-428438Y-54635D01*
X-429920Y-53152D02*
X-432886Y-53152D01*
X-434369Y-54635D01*
X-434369Y-60567D01*
X-432886Y-62050D01*
X-429920Y-62050D01*
X-428438Y-60567D01*
X-425014Y-62050D02*
X-419082Y-62050D01*
X-425014Y-62050D02*
X-419082Y-56118D01*
X-419082Y-54635D01*
X-420565Y-53152D01*
X-423531Y-53152D01*
X-425014Y-54635D01*
D10*
X-763518Y-78814D02*
X-788918Y-78814D01*
X-788918Y-130884D01*
D14*
X-394077Y71943D02*
X-392594Y70460D01*
X-394077Y71943D02*
X-397043Y71943D01*
X-398526Y70460D01*
X-398526Y68977D01*
X-397043Y67494D01*
X-394077Y67494D01*
X-392594Y66011D01*
X-392594Y64528D01*
X-394077Y63045D01*
X-397043Y63045D01*
X-398526Y64528D01*
X-389171Y63045D02*
X-389171Y71943D01*
X-384722Y71943D01*
X-383239Y70460D01*
X-383239Y67494D01*
X-384722Y66011D01*
X-389171Y66011D01*
X-379816Y63045D02*
X-376850Y63045D01*
X-378333Y63045D02*
X-378333Y71943D01*
X-379816Y71943D02*
X-376850Y71943D01*
X-373579Y68977D02*
X-370613Y71943D01*
X-370613Y63045D01*
X-373579Y63045D02*
X-367647Y63045D01*
D10*
X-357118Y58346D02*
X-458718Y58346D01*
X-357118Y58346D02*
X-331718Y58346D01*
X-306318Y58346D01*
X-484118Y58346D02*
X-509518Y58346D01*
X-484118Y58346D02*
X-458718Y58346D01*
X-534918Y58346D02*
X-560318Y58346D01*
X-534918Y58346D02*
X-509518Y58346D01*
X-585718Y58346D02*
X-611118Y58346D01*
X-585718Y58346D02*
X-560318Y58346D01*
X-611118Y58346D02*
X-661918Y58346D01*
X-712718Y58346D01*
X-738118Y58346D02*
X-763518Y58346D01*
X-738118Y58346D02*
X-712718Y58346D01*
X-763518Y88826D02*
X-763518Y132006D01*
X-763518Y88826D02*
X-763518Y58346D01*
X-763518Y88826D02*
X-788918Y88826D01*
X-788918Y140896D01*
X-458718Y132006D02*
X-458718Y178996D01*
X-738118Y-48334D02*
X-738118Y-121994D01*
X-331718Y58346D02*
X-331718Y132006D01*
X-484118Y132006D02*
X-484118Y58346D01*
X-534918Y58346D02*
X-534918Y132006D01*
X-585718Y132006D02*
X-585718Y58346D01*
X-738118Y58346D02*
X-738118Y132006D01*
X-306318Y88826D02*
X-280918Y88826D01*
X-280918Y140896D01*
D14*
X-652100Y63045D02*
X-655066Y63045D01*
X-653583Y63045D02*
X-653583Y71943D01*
X-655066Y71943D02*
X-652100Y71943D01*
X-648829Y63045D02*
X-642898Y63045D01*
X-648829Y63045D02*
X-642898Y68977D01*
X-642898Y70460D01*
X-644381Y71943D01*
X-647347Y71943D01*
X-648829Y70460D01*
X-635025Y71943D02*
X-633543Y70460D01*
X-635025Y71943D02*
X-637991Y71943D01*
X-639474Y70460D01*
X-639474Y64528D01*
X-637991Y63045D01*
X-635025Y63045D01*
X-633543Y64528D01*
X-630119Y68977D02*
X-627153Y71943D01*
X-627153Y63045D01*
X-630119Y63045D02*
X-624187Y63045D01*
X-696800Y64528D02*
X-696800Y71943D01*
X-696800Y64528D02*
X-695317Y63045D01*
X-692351Y63045D01*
X-690868Y64528D01*
X-690868Y71943D01*
X-682996Y71943D02*
X-682996Y63045D01*
X-687445Y67494D02*
X-682996Y71943D01*
X-681513Y67494D02*
X-687445Y67494D01*
D17*
X-298406Y-56069D02*
X-298406Y-70559D01*
X-298406Y-56069D02*
X-291161Y-56069D01*
X-288746Y-58484D01*
X-288746Y-63314D01*
X-291161Y-65729D01*
X-298406Y-65729D01*
X-283204Y-60899D02*
X-278374Y-56069D01*
X-278374Y-70559D01*
X-283204Y-70559D02*
X-273544Y-70559D01*
X-298406Y65966D02*
X-298406Y80456D01*
X-291161Y80456D01*
X-288746Y78041D01*
X-288746Y73211D01*
X-291161Y70796D01*
X-298406Y70796D01*
X-283204Y65966D02*
X-273544Y65966D01*
X-283204Y65966D02*
X-273544Y75626D01*
X-273544Y78041D01*
X-275959Y80456D01*
X-280789Y80456D01*
X-283204Y78041D01*
D10*
X-484118Y-48334D02*
X-484118Y-121994D01*
X-585718Y-121994D02*
X-585718Y-48334D01*
D14*
X-391365Y-53152D02*
X-391365Y-60567D01*
X-389882Y-62050D01*
X-386916Y-62050D01*
X-385433Y-60567D01*
X-385433Y-53152D01*
X-382010Y-54635D02*
X-382010Y-60567D01*
X-382010Y-54635D02*
X-380527Y-53152D01*
X-377561Y-53152D01*
X-376078Y-54635D01*
X-376078Y-60567D01*
X-377561Y-62050D01*
X-380527Y-62050D01*
X-382010Y-60567D01*
X-376078Y-54635D01*
D10*
X-738118Y132006D02*
X-738118Y152326D01*
X-690000Y60000D02*
X-689758Y59997D01*
X-689517Y59988D01*
X-689276Y59974D01*
X-689035Y59953D01*
X-688795Y59927D01*
X-688555Y59895D01*
X-688316Y59857D01*
X-688079Y59814D01*
X-687842Y59764D01*
X-687607Y59709D01*
X-687373Y59649D01*
X-687141Y59582D01*
X-686910Y59511D01*
X-686681Y59433D01*
X-686454Y59350D01*
X-686229Y59262D01*
X-686006Y59168D01*
X-685786Y59069D01*
X-685568Y58964D01*
X-685353Y58855D01*
X-685140Y58740D01*
X-684930Y58620D01*
X-684724Y58495D01*
X-684520Y58365D01*
X-684319Y58230D01*
X-684122Y58090D01*
X-683928Y57946D01*
X-683738Y57797D01*
X-683552Y57643D01*
X-683369Y57485D01*
X-683190Y57323D01*
X-683015Y57156D01*
X-682844Y56985D01*
X-682677Y56810D01*
X-682515Y56631D01*
X-682357Y56448D01*
X-682203Y56262D01*
X-682054Y56072D01*
X-681910Y55878D01*
X-681770Y55681D01*
X-681635Y55480D01*
X-681505Y55276D01*
X-681380Y55070D01*
X-681260Y54860D01*
X-681145Y54647D01*
X-681036Y54432D01*
X-680931Y54214D01*
X-680832Y53994D01*
X-680738Y53771D01*
X-680650Y53546D01*
X-680567Y53319D01*
X-680489Y53090D01*
X-680418Y52859D01*
X-680351Y52627D01*
X-680291Y52393D01*
X-680236Y52158D01*
X-680186Y51921D01*
X-680143Y51684D01*
X-680105Y51445D01*
X-680073Y51205D01*
X-680047Y50965D01*
X-680026Y50724D01*
X-680012Y50483D01*
X-680003Y50242D01*
X-680000Y50000D01*
X-680000Y-50000D01*
X-680003Y-50242D01*
X-680012Y-50483D01*
X-680026Y-50724D01*
X-680047Y-50965D01*
X-680073Y-51205D01*
X-680105Y-51445D01*
X-680143Y-51684D01*
X-680186Y-51921D01*
X-680236Y-52158D01*
X-680291Y-52393D01*
X-680351Y-52627D01*
X-680418Y-52859D01*
X-680489Y-53090D01*
X-680567Y-53319D01*
X-680650Y-53546D01*
X-680738Y-53771D01*
X-680832Y-53994D01*
X-680931Y-54214D01*
X-681036Y-54432D01*
X-681145Y-54647D01*
X-681260Y-54860D01*
X-681380Y-55070D01*
X-681505Y-55276D01*
X-681635Y-55480D01*
X-681770Y-55681D01*
X-681910Y-55878D01*
X-682054Y-56072D01*
X-682203Y-56262D01*
X-682357Y-56448D01*
X-682515Y-56631D01*
X-682677Y-56810D01*
X-682844Y-56985D01*
X-683015Y-57156D01*
X-683190Y-57323D01*
X-683369Y-57485D01*
X-683552Y-57643D01*
X-683738Y-57797D01*
X-683928Y-57946D01*
X-684122Y-58090D01*
X-684319Y-58230D01*
X-684520Y-58365D01*
X-684724Y-58495D01*
X-684930Y-58620D01*
X-685140Y-58740D01*
X-685353Y-58855D01*
X-685568Y-58964D01*
X-685786Y-59069D01*
X-686006Y-59168D01*
X-686229Y-59262D01*
X-686454Y-59350D01*
X-686681Y-59433D01*
X-686910Y-59511D01*
X-687141Y-59582D01*
X-687373Y-59649D01*
X-687607Y-59709D01*
X-687842Y-59764D01*
X-688079Y-59814D01*
X-688316Y-59857D01*
X-688555Y-59895D01*
X-688795Y-59927D01*
X-689035Y-59953D01*
X-689276Y-59974D01*
X-689517Y-59988D01*
X-689758Y-59997D01*
X-690000Y-60000D01*
X-790000Y-60000D02*
X-790242Y-59997D01*
X-790483Y-59988D01*
X-790724Y-59974D01*
X-790965Y-59953D01*
X-791205Y-59927D01*
X-791445Y-59895D01*
X-791684Y-59857D01*
X-791921Y-59814D01*
X-792158Y-59764D01*
X-792393Y-59709D01*
X-792627Y-59649D01*
X-792859Y-59582D01*
X-793090Y-59511D01*
X-793319Y-59433D01*
X-793546Y-59350D01*
X-793771Y-59262D01*
X-793994Y-59168D01*
X-794214Y-59069D01*
X-794432Y-58964D01*
X-794647Y-58855D01*
X-794860Y-58740D01*
X-795070Y-58620D01*
X-795276Y-58495D01*
X-795480Y-58365D01*
X-795681Y-58230D01*
X-795878Y-58090D01*
X-796072Y-57946D01*
X-796262Y-57797D01*
X-796448Y-57643D01*
X-796631Y-57485D01*
X-796810Y-57323D01*
X-796985Y-57156D01*
X-797156Y-56985D01*
X-797323Y-56810D01*
X-797485Y-56631D01*
X-797643Y-56448D01*
X-797797Y-56262D01*
X-797946Y-56072D01*
X-798090Y-55878D01*
X-798230Y-55681D01*
X-798365Y-55480D01*
X-798495Y-55276D01*
X-798620Y-55070D01*
X-798740Y-54860D01*
X-798855Y-54647D01*
X-798964Y-54432D01*
X-799069Y-54214D01*
X-799168Y-53994D01*
X-799262Y-53771D01*
X-799350Y-53546D01*
X-799433Y-53319D01*
X-799511Y-53090D01*
X-799582Y-52859D01*
X-799649Y-52627D01*
X-799709Y-52393D01*
X-799764Y-52158D01*
X-799814Y-51921D01*
X-799857Y-51684D01*
X-799895Y-51445D01*
X-799927Y-51205D01*
X-799953Y-50965D01*
X-799974Y-50724D01*
X-799988Y-50483D01*
X-799997Y-50242D01*
X-800000Y-50000D01*
X-800000Y50000D01*
X-799997Y50242D01*
X-799988Y50483D01*
X-799974Y50724D01*
X-799953Y50965D01*
X-799927Y51205D01*
X-799895Y51445D01*
X-799857Y51684D01*
X-799814Y51921D01*
X-799764Y52158D01*
X-799709Y52393D01*
X-799649Y52627D01*
X-799582Y52859D01*
X-799511Y53090D01*
X-799433Y53319D01*
X-799350Y53546D01*
X-799262Y53771D01*
X-799168Y53994D01*
X-799069Y54214D01*
X-798964Y54432D01*
X-798855Y54647D01*
X-798740Y54860D01*
X-798620Y55070D01*
X-798495Y55276D01*
X-798365Y55480D01*
X-798230Y55681D01*
X-798090Y55878D01*
X-797946Y56072D01*
X-797797Y56262D01*
X-797643Y56448D01*
X-797485Y56631D01*
X-797323Y56810D01*
X-797156Y56985D01*
X-796985Y57156D01*
X-796810Y57323D01*
X-796631Y57485D01*
X-796448Y57643D01*
X-796262Y57797D01*
X-796072Y57946D01*
X-795878Y58090D01*
X-795681Y58230D01*
X-795480Y58365D01*
X-795276Y58495D01*
X-795070Y58620D01*
X-794860Y58740D01*
X-794647Y58855D01*
X-794432Y58964D01*
X-794214Y59069D01*
X-793994Y59168D01*
X-793771Y59262D01*
X-793546Y59350D01*
X-793319Y59433D01*
X-793090Y59511D01*
X-792859Y59582D01*
X-792627Y59649D01*
X-792393Y59709D01*
X-792158Y59764D01*
X-791921Y59814D01*
X-791684Y59857D01*
X-791445Y59895D01*
X-791205Y59927D01*
X-790965Y59953D01*
X-790724Y59974D01*
X-790483Y59988D01*
X-790242Y59997D01*
X-790000Y60000D01*
X-775355Y0D02*
X-775344Y868D01*
X-775312Y1735D01*
X-775259Y2601D01*
X-775185Y3465D01*
X-775089Y4328D01*
X-774972Y5188D01*
X-774834Y6044D01*
X-774676Y6897D01*
X-774496Y7746D01*
X-774295Y8591D01*
X-774074Y9430D01*
X-773833Y10263D01*
X-773571Y11090D01*
X-773288Y11911D01*
X-772986Y12724D01*
X-772664Y13530D01*
X-772322Y14327D01*
X-771961Y15116D01*
X-771580Y15896D01*
X-771180Y16666D01*
X-770762Y17426D01*
X-770325Y18176D01*
X-769870Y18915D01*
X-769397Y19642D01*
X-768906Y20358D01*
X-768397Y21061D01*
X-767872Y21752D01*
X-767330Y22429D01*
X-766771Y23093D01*
X-766196Y23743D01*
X-765606Y24379D01*
X-765000Y25000D01*
X-764379Y25606D01*
X-763743Y26196D01*
X-763093Y26771D01*
X-762429Y27330D01*
X-761752Y27872D01*
X-761061Y28397D01*
X-760358Y28906D01*
X-759642Y29397D01*
X-758915Y29870D01*
X-758176Y30325D01*
X-757426Y30762D01*
X-756666Y31180D01*
X-755896Y31580D01*
X-755116Y31961D01*
X-754327Y32322D01*
X-753530Y32664D01*
X-752724Y32986D01*
X-751911Y33288D01*
X-751090Y33571D01*
X-750263Y33833D01*
X-749430Y34074D01*
X-748591Y34295D01*
X-747746Y34496D01*
X-746897Y34676D01*
X-746044Y34834D01*
X-745188Y34972D01*
X-744328Y35089D01*
X-743465Y35185D01*
X-742601Y35259D01*
X-741735Y35312D01*
X-740868Y35344D01*
X-740000Y35355D01*
X-739132Y35344D01*
X-738265Y35312D01*
X-737399Y35259D01*
X-736535Y35185D01*
X-735672Y35089D01*
X-734812Y34972D01*
X-733956Y34834D01*
X-733103Y34676D01*
X-732254Y34496D01*
X-731409Y34295D01*
X-730570Y34074D01*
X-729737Y33833D01*
X-728910Y33571D01*
X-728089Y33288D01*
X-727276Y32986D01*
X-726470Y32664D01*
X-725673Y32322D01*
X-724884Y31961D01*
X-724104Y31580D01*
X-723334Y31180D01*
X-722574Y30762D01*
X-721824Y30325D01*
X-721085Y29870D01*
X-720358Y29397D01*
X-719642Y28906D01*
X-718939Y28397D01*
X-718248Y27872D01*
X-717571Y27330D01*
X-716907Y26771D01*
X-716257Y26196D01*
X-715621Y25606D01*
X-715000Y25000D01*
X-714394Y24379D01*
X-713804Y23743D01*
X-713229Y23093D01*
X-712670Y22429D01*
X-712128Y21752D01*
X-711603Y21061D01*
X-711094Y20358D01*
X-710603Y19642D01*
X-710130Y18915D01*
X-709675Y18176D01*
X-709238Y17426D01*
X-708820Y16666D01*
X-708420Y15896D01*
X-708039Y15116D01*
X-707678Y14327D01*
X-707336Y13530D01*
X-707014Y12724D01*
X-706712Y11911D01*
X-706429Y11090D01*
X-706167Y10263D01*
X-705926Y9430D01*
X-705705Y8591D01*
X-705504Y7746D01*
X-705324Y6897D01*
X-705166Y6044D01*
X-705028Y5188D01*
X-704911Y4328D01*
X-704815Y3465D01*
X-704741Y2601D01*
X-704688Y1735D01*
X-704656Y868D01*
X-704645Y0D01*
X-704656Y-868D01*
X-704688Y-1735D01*
X-704741Y-2601D01*
X-704815Y-3465D01*
X-704911Y-4328D01*
X-705028Y-5188D01*
X-705166Y-6044D01*
X-705324Y-6897D01*
X-705504Y-7746D01*
X-705705Y-8591D01*
X-705926Y-9430D01*
X-706167Y-10263D01*
X-706429Y-11090D01*
X-706712Y-11911D01*
X-707014Y-12724D01*
X-707336Y-13530D01*
X-707678Y-14327D01*
X-708039Y-15116D01*
X-708420Y-15896D01*
X-708820Y-16666D01*
X-709238Y-17426D01*
X-709675Y-18176D01*
X-710130Y-18915D01*
X-710603Y-19642D01*
X-711094Y-20358D01*
X-711603Y-21061D01*
X-712128Y-21752D01*
X-712670Y-22429D01*
X-713229Y-23093D01*
X-713804Y-23743D01*
X-714394Y-24379D01*
X-715000Y-25000D01*
X-715621Y-25606D01*
X-716257Y-26196D01*
X-716907Y-26771D01*
X-717571Y-27330D01*
X-718248Y-27872D01*
X-718939Y-28397D01*
X-719642Y-28906D01*
X-720358Y-29397D01*
X-721085Y-29870D01*
X-721824Y-30325D01*
X-722574Y-30762D01*
X-723334Y-31180D01*
X-724104Y-31580D01*
X-724884Y-31961D01*
X-725673Y-32322D01*
X-726470Y-32664D01*
X-727276Y-32986D01*
X-728089Y-33288D01*
X-728910Y-33571D01*
X-729737Y-33833D01*
X-730570Y-34074D01*
X-731409Y-34295D01*
X-732254Y-34496D01*
X-733103Y-34676D01*
X-733956Y-34834D01*
X-734812Y-34972D01*
X-735672Y-35089D01*
X-736535Y-35185D01*
X-737399Y-35259D01*
X-738265Y-35312D01*
X-739132Y-35344D01*
X-740000Y-35355D01*
X-740868Y-35344D01*
X-741735Y-35312D01*
X-742601Y-35259D01*
X-743465Y-35185D01*
X-744328Y-35089D01*
X-745188Y-34972D01*
X-746044Y-34834D01*
X-746897Y-34676D01*
X-747746Y-34496D01*
X-748591Y-34295D01*
X-749430Y-34074D01*
X-750263Y-33833D01*
X-751090Y-33571D01*
X-751911Y-33288D01*
X-752724Y-32986D01*
X-753530Y-32664D01*
X-754327Y-32322D01*
X-755116Y-31961D01*
X-755896Y-31580D01*
X-756666Y-31180D01*
X-757426Y-30762D01*
X-758176Y-30325D01*
X-758915Y-29870D01*
X-759642Y-29397D01*
X-760358Y-28906D01*
X-761061Y-28397D01*
X-761752Y-27872D01*
X-762429Y-27330D01*
X-763093Y-26771D01*
X-763743Y-26196D01*
X-764379Y-25606D01*
X-765000Y-25000D01*
X-765606Y-24379D01*
X-766196Y-23743D01*
X-766771Y-23093D01*
X-767330Y-22429D01*
X-767872Y-21752D01*
X-768397Y-21061D01*
X-768906Y-20358D01*
X-769397Y-19642D01*
X-769870Y-18915D01*
X-770325Y-18176D01*
X-770762Y-17426D01*
X-771180Y-16666D01*
X-771580Y-15896D01*
X-771961Y-15116D01*
X-772322Y-14327D01*
X-772664Y-13530D01*
X-772986Y-12724D01*
X-773288Y-11911D01*
X-773571Y-11090D01*
X-773833Y-10263D01*
X-774074Y-9430D01*
X-774295Y-8591D01*
X-774496Y-7746D01*
X-774676Y-6897D01*
X-774834Y-6044D01*
X-774972Y-5188D01*
X-775089Y-4328D01*
X-775185Y-3465D01*
X-775259Y-2601D01*
X-775312Y-1735D01*
X-775344Y-868D01*
X-775355Y0D01*
X-760000Y-20000D02*
X-760000Y20000D01*
X-720000Y20000D01*
X-720000Y-20000D01*
X-760000Y-20000D01*
X-777500Y-60000D02*
X-790000Y-60000D01*
X-752500Y-60000D02*
X-727500Y-60000D01*
X-702500Y-60000D02*
X-690000Y-60000D01*
X-777500Y60000D02*
X-790000Y60000D01*
X-752500Y60000D02*
X-727500Y60000D01*
X-702500Y60000D02*
X-690000Y60000D01*
D11*
X-813753Y-42496D02*
X-815702Y-44445D01*
X-815702Y-48343D01*
X-813753Y-50292D01*
X-811804Y-50292D01*
X-809855Y-48343D01*
X-809855Y-44445D01*
X-807906Y-42496D01*
X-805957Y-42496D01*
X-804008Y-44445D01*
X-804008Y-48343D01*
X-805957Y-50292D01*
X-804008Y-38598D02*
X-815702Y-38598D01*
X-807906Y-34700D02*
X-804008Y-38598D01*
X-807906Y-34700D02*
X-804008Y-30802D01*
X-815702Y-30802D01*
X-811804Y-26904D02*
X-815702Y-23006D01*
X-804008Y-23006D01*
X-804008Y-26904D02*
X-804008Y-19108D01*
D14*
X-420000Y0D02*
X-419982Y1472D01*
X-419928Y2944D01*
X-419837Y4414D01*
X-419711Y5881D01*
X-419549Y7345D01*
X-419351Y8804D01*
X-419117Y10258D01*
X-418847Y11705D01*
X-418542Y13146D01*
X-418202Y14579D01*
X-417827Y16003D01*
X-417416Y17417D01*
X-416972Y18821D01*
X-416493Y20213D01*
X-415980Y21594D01*
X-415433Y22961D01*
X-414853Y24314D01*
X-414239Y25653D01*
X-413593Y26977D01*
X-412915Y28284D01*
X-412205Y29574D01*
X-411464Y30846D01*
X-410691Y32100D01*
X-409888Y33334D01*
X-409055Y34548D01*
X-408192Y35742D01*
X-407301Y36914D01*
X-406381Y38064D01*
X-405433Y39190D01*
X-404457Y40294D01*
X-403455Y41372D01*
X-402426Y42426D01*
X-401372Y43455D01*
X-400294Y44457D01*
X-399190Y45433D01*
X-398064Y46381D01*
X-396914Y47301D01*
X-395742Y48192D01*
X-394548Y49055D01*
X-393334Y49888D01*
X-392100Y50691D01*
X-390846Y51464D01*
X-389574Y52205D01*
X-388284Y52915D01*
X-386977Y53593D01*
X-385653Y54239D01*
X-384314Y54853D01*
X-382961Y55433D01*
X-381594Y55980D01*
X-380213Y56493D01*
X-378821Y56972D01*
X-377417Y57416D01*
X-376003Y57827D01*
X-374579Y58202D01*
X-373146Y58542D01*
X-371705Y58847D01*
X-370258Y59117D01*
X-368804Y59351D01*
X-367345Y59549D01*
X-365881Y59711D01*
X-364414Y59837D01*
X-362944Y59928D01*
X-361472Y59982D01*
X-360000Y60000D01*
X-358528Y59982D01*
X-357056Y59928D01*
X-355586Y59837D01*
X-354119Y59711D01*
X-352655Y59549D01*
X-351196Y59351D01*
X-349742Y59117D01*
X-348295Y58847D01*
X-346854Y58542D01*
X-345421Y58202D01*
X-343997Y57827D01*
X-342583Y57416D01*
X-341179Y56972D01*
X-339787Y56493D01*
X-338406Y55980D01*
X-337039Y55433D01*
X-335686Y54853D01*
X-334347Y54239D01*
X-333023Y53593D01*
X-331716Y52915D01*
X-330426Y52205D01*
X-329154Y51464D01*
X-327900Y50691D01*
X-326666Y49888D01*
X-325452Y49055D01*
X-324258Y48192D01*
X-323086Y47301D01*
X-321936Y46381D01*
X-320810Y45433D01*
X-319706Y44457D01*
X-318628Y43455D01*
X-317574Y42426D01*
X-316545Y41372D01*
X-315543Y40294D01*
X-314567Y39190D01*
X-313619Y38064D01*
X-312699Y36914D01*
X-311808Y35742D01*
X-310945Y34548D01*
X-310112Y33334D01*
X-309309Y32100D01*
X-308536Y30846D01*
X-307795Y29574D01*
X-307085Y28284D01*
X-306407Y26977D01*
X-305761Y25653D01*
X-305147Y24314D01*
X-304567Y22961D01*
X-304020Y21594D01*
X-303507Y20213D01*
X-303028Y18821D01*
X-302584Y17417D01*
X-302173Y16003D01*
X-301798Y14579D01*
X-301458Y13146D01*
X-301153Y11705D01*
X-300883Y10258D01*
X-300649Y8804D01*
X-300451Y7345D01*
X-300289Y5881D01*
X-300163Y4414D01*
X-300072Y2944D01*
X-300018Y1472D01*
X-300000Y0D01*
X-300018Y-1472D01*
X-300072Y-2944D01*
X-300163Y-4414D01*
X-300289Y-5881D01*
X-300451Y-7345D01*
X-300649Y-8804D01*
X-300883Y-10258D01*
X-301153Y-11705D01*
X-301458Y-13146D01*
X-301798Y-14579D01*
X-302173Y-16003D01*
X-302584Y-17417D01*
X-303028Y-18821D01*
X-303507Y-20213D01*
X-304020Y-21594D01*
X-304567Y-22961D01*
X-305147Y-24314D01*
X-305761Y-25653D01*
X-306407Y-26977D01*
X-307085Y-28284D01*
X-307795Y-29574D01*
X-308536Y-30846D01*
X-309309Y-32100D01*
X-310112Y-33334D01*
X-310945Y-34548D01*
X-311808Y-35742D01*
X-312699Y-36914D01*
X-313619Y-38064D01*
X-314567Y-39190D01*
X-315543Y-40294D01*
X-316545Y-41372D01*
X-317574Y-42426D01*
X-318628Y-43455D01*
X-319706Y-44457D01*
X-320810Y-45433D01*
X-321936Y-46381D01*
X-323086Y-47301D01*
X-324258Y-48192D01*
X-325452Y-49055D01*
X-326666Y-49888D01*
X-327900Y-50691D01*
X-329154Y-51464D01*
X-330426Y-52205D01*
X-331716Y-52915D01*
X-333023Y-53593D01*
X-334347Y-54239D01*
X-335686Y-54853D01*
X-337039Y-55433D01*
X-338406Y-55980D01*
X-339787Y-56493D01*
X-341179Y-56972D01*
X-342583Y-57416D01*
X-343997Y-57827D01*
X-345421Y-58202D01*
X-346854Y-58542D01*
X-348295Y-58847D01*
X-349742Y-59117D01*
X-351196Y-59351D01*
X-352655Y-59549D01*
X-354119Y-59711D01*
X-355586Y-59837D01*
X-357056Y-59928D01*
X-358528Y-59982D01*
X-360000Y-60000D01*
X-361472Y-59982D01*
X-362944Y-59928D01*
X-364414Y-59837D01*
X-365881Y-59711D01*
X-367345Y-59549D01*
X-368804Y-59351D01*
X-370258Y-59117D01*
X-371705Y-58847D01*
X-373146Y-58542D01*
X-374579Y-58202D01*
X-376003Y-57827D01*
X-377417Y-57416D01*
X-378821Y-56972D01*
X-380213Y-56493D01*
X-381594Y-55980D01*
X-382961Y-55433D01*
X-384314Y-54853D01*
X-385653Y-54239D01*
X-386977Y-53593D01*
X-388284Y-52915D01*
X-389574Y-52205D01*
X-390846Y-51464D01*
X-392100Y-50691D01*
X-393334Y-49888D01*
X-394548Y-49055D01*
X-395742Y-48192D01*
X-396914Y-47301D01*
X-398064Y-46381D01*
X-399190Y-45433D01*
X-400294Y-44457D01*
X-401372Y-43455D01*
X-402426Y-42426D01*
X-403455Y-41372D01*
X-404457Y-40294D01*
X-405433Y-39190D01*
X-406381Y-38064D01*
X-407301Y-36914D01*
X-408192Y-35742D01*
X-409055Y-34548D01*
X-409888Y-33334D01*
X-410691Y-32100D01*
X-411464Y-30846D01*
X-412205Y-29574D01*
X-412915Y-28284D01*
X-413593Y-26977D01*
X-414239Y-25653D01*
X-414853Y-24314D01*
X-415433Y-22961D01*
X-415980Y-21594D01*
X-416493Y-20213D01*
X-416972Y-18821D01*
X-417416Y-17417D01*
X-417827Y-16003D01*
X-418202Y-14579D01*
X-418542Y-13146D01*
X-418847Y-11705D01*
X-419117Y-10258D01*
X-419351Y-8804D01*
X-419549Y-7345D01*
X-419711Y-5881D01*
X-419837Y-4414D01*
X-419928Y-2944D01*
X-419982Y-1472D01*
X-420000Y0D01*
X-371500Y0D02*
X-371497Y282D01*
X-371486Y564D01*
X-371469Y846D01*
X-371445Y1127D01*
X-371414Y1408D01*
X-371376Y1687D01*
X-371331Y1966D01*
X-371279Y2244D01*
X-371221Y2520D01*
X-371155Y2794D01*
X-371083Y3067D01*
X-371005Y3338D01*
X-370920Y3607D01*
X-370828Y3874D01*
X-370729Y4139D01*
X-370625Y4401D01*
X-370513Y4660D01*
X-370396Y4917D01*
X-370272Y5171D01*
X-370142Y5421D01*
X-370006Y5668D01*
X-369864Y5912D01*
X-369716Y6152D01*
X-369562Y6389D01*
X-369402Y6622D01*
X-369237Y6851D01*
X-369066Y7075D01*
X-368890Y7296D01*
X-368708Y7511D01*
X-368521Y7723D01*
X-368329Y7930D01*
X-368132Y8132D01*
X-367930Y8329D01*
X-367723Y8521D01*
X-367511Y8708D01*
X-367296Y8890D01*
X-367075Y9066D01*
X-366851Y9237D01*
X-366622Y9402D01*
X-366389Y9562D01*
X-366152Y9716D01*
X-365912Y9864D01*
X-365668Y10006D01*
X-365421Y10142D01*
X-365171Y10272D01*
X-364917Y10396D01*
X-364660Y10513D01*
X-364401Y10625D01*
X-364139Y10729D01*
X-363874Y10828D01*
X-363607Y10920D01*
X-363338Y11005D01*
X-363067Y11083D01*
X-362794Y11155D01*
X-362520Y11221D01*
X-362244Y11279D01*
X-361966Y11331D01*
X-361687Y11376D01*
X-361408Y11414D01*
X-361127Y11445D01*
X-360846Y11469D01*
X-360564Y11486D01*
X-360282Y11497D01*
X-360000Y11500D01*
X-359718Y11497D01*
X-359436Y11486D01*
X-359154Y11469D01*
X-358873Y11445D01*
X-358592Y11414D01*
X-358313Y11376D01*
X-358034Y11331D01*
X-357756Y11279D01*
X-357480Y11221D01*
X-357206Y11155D01*
X-356933Y11083D01*
X-356662Y11005D01*
X-356393Y10920D01*
X-356126Y10828D01*
X-355861Y10729D01*
X-355599Y10625D01*
X-355340Y10513D01*
X-355083Y10396D01*
X-354829Y10272D01*
X-354579Y10142D01*
X-354332Y10006D01*
X-354088Y9864D01*
X-353848Y9716D01*
X-353611Y9562D01*
X-353378Y9402D01*
X-353149Y9237D01*
X-352925Y9066D01*
X-352704Y8890D01*
X-352489Y8708D01*
X-352277Y8521D01*
X-352070Y8329D01*
X-351868Y8132D01*
X-351671Y7930D01*
X-351479Y7723D01*
X-351292Y7511D01*
X-351110Y7296D01*
X-350934Y7075D01*
X-350763Y6851D01*
X-350598Y6622D01*
X-350438Y6389D01*
X-350284Y6152D01*
X-350136Y5912D01*
X-349994Y5668D01*
X-349858Y5421D01*
X-349728Y5171D01*
X-349604Y4917D01*
X-349487Y4660D01*
X-349375Y4401D01*
X-349271Y4139D01*
X-349172Y3874D01*
X-349080Y3607D01*
X-348995Y3338D01*
X-348917Y3067D01*
X-348845Y2794D01*
X-348779Y2520D01*
X-348721Y2244D01*
X-348669Y1966D01*
X-348624Y1687D01*
X-348586Y1408D01*
X-348555Y1127D01*
X-348531Y846D01*
X-348514Y564D01*
X-348503Y282D01*
X-348500Y0D01*
X-348503Y-282D01*
X-348514Y-564D01*
X-348531Y-846D01*
X-348555Y-1127D01*
X-348586Y-1408D01*
X-348624Y-1687D01*
X-348669Y-1966D01*
X-348721Y-2244D01*
X-348779Y-2520D01*
X-348845Y-2794D01*
X-348917Y-3067D01*
X-348995Y-3338D01*
X-349080Y-3607D01*
X-349172Y-3874D01*
X-349271Y-4139D01*
X-349375Y-4401D01*
X-349487Y-4660D01*
X-349604Y-4917D01*
X-349728Y-5171D01*
X-349858Y-5421D01*
X-349994Y-5668D01*
X-350136Y-5912D01*
X-350284Y-6152D01*
X-350438Y-6389D01*
X-350598Y-6622D01*
X-350763Y-6851D01*
X-350934Y-7075D01*
X-351110Y-7296D01*
X-351292Y-7511D01*
X-351479Y-7723D01*
X-351671Y-7930D01*
X-351868Y-8132D01*
X-352070Y-8329D01*
X-352277Y-8521D01*
X-352489Y-8708D01*
X-352704Y-8890D01*
X-352925Y-9066D01*
X-353149Y-9237D01*
X-353378Y-9402D01*
X-353611Y-9562D01*
X-353848Y-9716D01*
X-354088Y-9864D01*
X-354332Y-10006D01*
X-354579Y-10142D01*
X-354829Y-10272D01*
X-355083Y-10396D01*
X-355340Y-10513D01*
X-355599Y-10625D01*
X-355861Y-10729D01*
X-356126Y-10828D01*
X-356393Y-10920D01*
X-356662Y-11005D01*
X-356933Y-11083D01*
X-357206Y-11155D01*
X-357480Y-11221D01*
X-357756Y-11279D01*
X-358034Y-11331D01*
X-358313Y-11376D01*
X-358592Y-11414D01*
X-358873Y-11445D01*
X-359154Y-11469D01*
X-359436Y-11486D01*
X-359718Y-11497D01*
X-360000Y-11500D01*
X-360282Y-11497D01*
X-360564Y-11486D01*
X-360846Y-11469D01*
X-361127Y-11445D01*
X-361408Y-11414D01*
X-361687Y-11376D01*
X-361966Y-11331D01*
X-362244Y-11279D01*
X-362520Y-11221D01*
X-362794Y-11155D01*
X-363067Y-11083D01*
X-363338Y-11005D01*
X-363607Y-10920D01*
X-363874Y-10828D01*
X-364139Y-10729D01*
X-364401Y-10625D01*
X-364660Y-10513D01*
X-364917Y-10396D01*
X-365171Y-10272D01*
X-365421Y-10142D01*
X-365668Y-10006D01*
X-365912Y-9864D01*
X-366152Y-9716D01*
X-366389Y-9562D01*
X-366622Y-9402D01*
X-366851Y-9237D01*
X-367075Y-9066D01*
X-367296Y-8890D01*
X-367511Y-8708D01*
X-367723Y-8521D01*
X-367930Y-8329D01*
X-368132Y-8132D01*
X-368329Y-7930D01*
X-368521Y-7723D01*
X-368708Y-7511D01*
X-368890Y-7296D01*
X-369066Y-7075D01*
X-369237Y-6851D01*
X-369402Y-6622D01*
X-369562Y-6389D01*
X-369716Y-6152D01*
X-369864Y-5912D01*
X-370006Y-5668D01*
X-370142Y-5421D01*
X-370272Y-5171D01*
X-370396Y-4917D01*
X-370513Y-4660D01*
X-370625Y-4401D01*
X-370729Y-4139D01*
X-370828Y-3874D01*
X-370920Y-3607D01*
X-371005Y-3338D01*
X-371083Y-3067D01*
X-371155Y-2794D01*
X-371221Y-2520D01*
X-371279Y-2244D01*
X-371331Y-1966D01*
X-371376Y-1687D01*
X-371414Y-1408D01*
X-371445Y-1127D01*
X-371469Y-846D01*
X-371486Y-564D01*
X-371497Y-282D01*
X-371500Y0D01*
D11*
X-376696Y-31645D02*
X-384492Y-31645D01*
X-380594Y-27747D02*
X-380594Y-35543D01*
X-384492Y33355D02*
X-376696Y33355D01*
X-422992Y65957D02*
X-422992Y75702D01*
X-422992Y65957D02*
X-421043Y64008D01*
X-417145Y64008D01*
X-415196Y65957D01*
X-415196Y75702D01*
X-405451Y75702D02*
X-405451Y64008D01*
X-411298Y69855D02*
X-405451Y75702D01*
X-403502Y69855D02*
X-411298Y69855D01*
D14*
X-542000Y55000D02*
X-558000Y55000D01*
X-558000Y45000D02*
X-542000Y45000D01*
X-548000Y48000D02*
X-548000Y52000D01*
D11*
X-562192Y63208D02*
X-562192Y70326D01*
X-562192Y63208D02*
X-558633Y63208D01*
X-557447Y64394D01*
X-557447Y69140D01*
X-558633Y70326D01*
X-562192Y70326D01*
X-554708Y67953D02*
X-552335Y70326D01*
X-552335Y63208D01*
X-554708Y63208D02*
X-549962Y63208D01*
D14*
X-542000Y-45000D02*
X-558000Y-45000D01*
X-558000Y-55000D02*
X-542000Y-55000D01*
X-548000Y-52000D02*
X-548000Y-48000D01*
D11*
X-562192Y-36792D02*
X-562192Y-29674D01*
X-562192Y-36792D02*
X-558633Y-36792D01*
X-557447Y-35606D01*
X-557447Y-30860D01*
X-558633Y-29674D01*
X-562192Y-29674D01*
X-554708Y-36792D02*
X-549962Y-36792D01*
X-549962Y-32047D02*
X-554708Y-36792D01*
X-549962Y-32047D02*
X-549962Y-30860D01*
X-551149Y-29674D01*
X-553522Y-29674D01*
X-554708Y-30860D01*
D16*
X-731610Y93945D02*
X-748390Y93945D01*
X-731610Y93945D02*
X-731610Y86055D01*
X-748390Y86055D01*
X-748390Y93945D01*
D11*
X-752192Y95588D02*
X-752192Y103469D01*
X-748252Y103469D01*
X-746938Y102155D01*
X-746938Y99528D01*
X-748252Y98215D01*
X-752192Y98215D01*
X-749565Y98215D02*
X-746938Y95588D01*
X-744006Y95588D02*
X-738752Y95588D01*
X-744006Y95588D02*
X-738752Y100842D01*
X-738752Y102155D01*
X-740066Y103469D01*
X-742693Y103469D01*
X-744006Y102155D01*
X-735820Y100842D02*
X-733194Y103469D01*
X-733194Y95588D01*
X-735820Y95588D02*
X-730567Y95588D01*
M02*
