G04 EAGLE Gerber RS-274X export*
G75*
%MOMM*%
%FSLAX34Y34*%
%LPD*%
%INSolderpaste Top*%
%IPPOS*%
%AMOC8*
5,1,8,0,0,1.08239X$1,22.5*%
G01*
%ADD10C,0.100000*%
%ADD11C,0.850000*%
%ADD12C,0.250000*%
%ADD13R,1.016000X2.032000*%
%ADD14R,0.800000X0.800000*%

G36*
X-136008Y55334D02*
X-136008Y55334D01*
X-136006Y55334D01*
X-135963Y55354D01*
X-135919Y55372D01*
X-135919Y55374D01*
X-135917Y55375D01*
X-135884Y55460D01*
X-135884Y62454D01*
X-135885Y62456D01*
X-135884Y62458D01*
X-135904Y62501D01*
X-135922Y62545D01*
X-135924Y62546D01*
X-135925Y62548D01*
X-136010Y62581D01*
X-137792Y62581D01*
X-137794Y62580D01*
X-137796Y62580D01*
X-137839Y62561D01*
X-137883Y62542D01*
X-137884Y62540D01*
X-137886Y62539D01*
X-137918Y62454D01*
X-137918Y56476D01*
X-137917Y56473D01*
X-137918Y56470D01*
X-137881Y56387D01*
X-136865Y55371D01*
X-136862Y55369D01*
X-136861Y55366D01*
X-136776Y55334D01*
X-136010Y55334D01*
X-136008Y55334D01*
G37*
G36*
X-121023Y55335D02*
X-121023Y55335D01*
X-121020Y55334D01*
X-120937Y55371D01*
X-119921Y56387D01*
X-119920Y56390D01*
X-119917Y56391D01*
X-119884Y56476D01*
X-119884Y62454D01*
X-119885Y62456D01*
X-119884Y62458D01*
X-119904Y62501D01*
X-119922Y62545D01*
X-119924Y62546D01*
X-119925Y62548D01*
X-120010Y62581D01*
X-121792Y62581D01*
X-121794Y62580D01*
X-121796Y62580D01*
X-121839Y62561D01*
X-121883Y62542D01*
X-121884Y62540D01*
X-121886Y62539D01*
X-121918Y62454D01*
X-121918Y55460D01*
X-121917Y55458D01*
X-121918Y55456D01*
X-121898Y55413D01*
X-121880Y55369D01*
X-121878Y55368D01*
X-121877Y55366D01*
X-121792Y55334D01*
X-121026Y55334D01*
X-121023Y55335D01*
G37*
G36*
X-110894Y51435D02*
X-110894Y51435D01*
X-110892Y51434D01*
X-110849Y51454D01*
X-110805Y51472D01*
X-110804Y51474D01*
X-110802Y51475D01*
X-110769Y51560D01*
X-110769Y53342D01*
X-110770Y53344D01*
X-110770Y53346D01*
X-110789Y53389D01*
X-110808Y53433D01*
X-110810Y53434D01*
X-110811Y53436D01*
X-110896Y53468D01*
X-116874Y53468D01*
X-116877Y53467D01*
X-116880Y53468D01*
X-116963Y53431D01*
X-117979Y52415D01*
X-117981Y52412D01*
X-117984Y52411D01*
X-118016Y52326D01*
X-118016Y51560D01*
X-118016Y51558D01*
X-118016Y51556D01*
X-117996Y51513D01*
X-117978Y51469D01*
X-117976Y51469D01*
X-117975Y51467D01*
X-117890Y51434D01*
X-110896Y51434D01*
X-110894Y51435D01*
G37*
G36*
X-139908Y51433D02*
X-139908Y51433D01*
X-139906Y51432D01*
X-139863Y51452D01*
X-139819Y51470D01*
X-139818Y51472D01*
X-139816Y51473D01*
X-139784Y51558D01*
X-139784Y52324D01*
X-139785Y52327D01*
X-139784Y52330D01*
X-139821Y52413D01*
X-140837Y53429D01*
X-140840Y53431D01*
X-140841Y53433D01*
X-140926Y53466D01*
X-146904Y53466D01*
X-146906Y53465D01*
X-146908Y53466D01*
X-146951Y53446D01*
X-146995Y53428D01*
X-146996Y53426D01*
X-146998Y53425D01*
X-147031Y53340D01*
X-147031Y51558D01*
X-147030Y51556D01*
X-147030Y51554D01*
X-147011Y51511D01*
X-146992Y51467D01*
X-146990Y51466D01*
X-146989Y51465D01*
X-146904Y51432D01*
X-139910Y51432D01*
X-139908Y51433D01*
G37*
G36*
X-110894Y35435D02*
X-110894Y35435D01*
X-110892Y35434D01*
X-110849Y35454D01*
X-110805Y35472D01*
X-110804Y35474D01*
X-110802Y35475D01*
X-110769Y35560D01*
X-110769Y37342D01*
X-110770Y37344D01*
X-110770Y37346D01*
X-110789Y37389D01*
X-110808Y37433D01*
X-110810Y37434D01*
X-110811Y37436D01*
X-110896Y37468D01*
X-117890Y37468D01*
X-117892Y37467D01*
X-117894Y37468D01*
X-117937Y37448D01*
X-117981Y37430D01*
X-117982Y37428D01*
X-117984Y37427D01*
X-118016Y37342D01*
X-118016Y36576D01*
X-118015Y36573D01*
X-118016Y36570D01*
X-117979Y36487D01*
X-116963Y35471D01*
X-116960Y35470D01*
X-116959Y35467D01*
X-116874Y35434D01*
X-110896Y35434D01*
X-110894Y35435D01*
G37*
G36*
X-140923Y35433D02*
X-140923Y35433D01*
X-140920Y35432D01*
X-140837Y35469D01*
X-139821Y36485D01*
X-139819Y36488D01*
X-139816Y36489D01*
X-139784Y36574D01*
X-139784Y37340D01*
X-139784Y37342D01*
X-139784Y37344D01*
X-139804Y37387D01*
X-139822Y37431D01*
X-139824Y37431D01*
X-139825Y37433D01*
X-139910Y37466D01*
X-146904Y37466D01*
X-146906Y37465D01*
X-146908Y37466D01*
X-146951Y37446D01*
X-146995Y37428D01*
X-146996Y37426D01*
X-146998Y37425D01*
X-147031Y37340D01*
X-147031Y35558D01*
X-147030Y35556D01*
X-147030Y35554D01*
X-147011Y35511D01*
X-146992Y35467D01*
X-146990Y35466D01*
X-146989Y35465D01*
X-146904Y35432D01*
X-140926Y35432D01*
X-140923Y35433D01*
G37*
G36*
X-120006Y26320D02*
X-120006Y26320D01*
X-120004Y26320D01*
X-119961Y26339D01*
X-119917Y26358D01*
X-119916Y26360D01*
X-119915Y26361D01*
X-119882Y26446D01*
X-119882Y32424D01*
X-119883Y32427D01*
X-119882Y32430D01*
X-119919Y32513D01*
X-120935Y33529D01*
X-120938Y33531D01*
X-120939Y33534D01*
X-121024Y33566D01*
X-121790Y33566D01*
X-121792Y33566D01*
X-121794Y33566D01*
X-121837Y33546D01*
X-121881Y33528D01*
X-121881Y33526D01*
X-121883Y33525D01*
X-121916Y33440D01*
X-121916Y26446D01*
X-121915Y26444D01*
X-121916Y26442D01*
X-121896Y26399D01*
X-121878Y26355D01*
X-121876Y26354D01*
X-121875Y26352D01*
X-121790Y26319D01*
X-120008Y26319D01*
X-120006Y26320D01*
G37*
G36*
X-136006Y26320D02*
X-136006Y26320D01*
X-136004Y26320D01*
X-135961Y26339D01*
X-135917Y26358D01*
X-135916Y26360D01*
X-135915Y26361D01*
X-135882Y26446D01*
X-135882Y33440D01*
X-135883Y33442D01*
X-135882Y33444D01*
X-135902Y33487D01*
X-135920Y33531D01*
X-135922Y33532D01*
X-135923Y33534D01*
X-136008Y33566D01*
X-136774Y33566D01*
X-136777Y33565D01*
X-136780Y33566D01*
X-136863Y33529D01*
X-137879Y32513D01*
X-137881Y32510D01*
X-137883Y32509D01*
X-137916Y32424D01*
X-137916Y26446D01*
X-137915Y26444D01*
X-137916Y26442D01*
X-137896Y26399D01*
X-137878Y26355D01*
X-137876Y26354D01*
X-137875Y26352D01*
X-137790Y26319D01*
X-136008Y26319D01*
X-136006Y26320D01*
G37*
G36*
X-121023Y-46345D02*
X-121023Y-46345D01*
X-121020Y-46346D01*
X-120937Y-46309D01*
X-119921Y-45293D01*
X-119920Y-45290D01*
X-119917Y-45289D01*
X-119884Y-45204D01*
X-119884Y-39226D01*
X-119885Y-39224D01*
X-119884Y-39222D01*
X-119904Y-39179D01*
X-119922Y-39135D01*
X-119924Y-39134D01*
X-119925Y-39132D01*
X-120010Y-39099D01*
X-121792Y-39099D01*
X-121794Y-39100D01*
X-121796Y-39100D01*
X-121839Y-39119D01*
X-121883Y-39138D01*
X-121884Y-39140D01*
X-121886Y-39141D01*
X-121918Y-39226D01*
X-121918Y-46220D01*
X-121917Y-46222D01*
X-121918Y-46224D01*
X-121898Y-46267D01*
X-121880Y-46311D01*
X-121878Y-46312D01*
X-121877Y-46314D01*
X-121792Y-46346D01*
X-121026Y-46346D01*
X-121023Y-46345D01*
G37*
G36*
X-136008Y-46346D02*
X-136008Y-46346D01*
X-136006Y-46346D01*
X-135963Y-46326D01*
X-135919Y-46308D01*
X-135919Y-46306D01*
X-135917Y-46305D01*
X-135884Y-46220D01*
X-135884Y-39226D01*
X-135885Y-39224D01*
X-135884Y-39222D01*
X-135904Y-39179D01*
X-135922Y-39135D01*
X-135924Y-39134D01*
X-135925Y-39132D01*
X-136010Y-39099D01*
X-137792Y-39099D01*
X-137794Y-39100D01*
X-137796Y-39100D01*
X-137839Y-39119D01*
X-137883Y-39138D01*
X-137884Y-39140D01*
X-137886Y-39141D01*
X-137918Y-39226D01*
X-137918Y-45204D01*
X-137917Y-45207D01*
X-137918Y-45210D01*
X-137881Y-45293D01*
X-136865Y-46309D01*
X-136862Y-46311D01*
X-136861Y-46314D01*
X-136776Y-46346D01*
X-136010Y-46346D01*
X-136008Y-46346D01*
G37*
G36*
X-110894Y-50245D02*
X-110894Y-50245D01*
X-110892Y-50246D01*
X-110849Y-50226D01*
X-110805Y-50208D01*
X-110804Y-50206D01*
X-110802Y-50205D01*
X-110769Y-50120D01*
X-110769Y-48338D01*
X-110770Y-48336D01*
X-110770Y-48334D01*
X-110789Y-48291D01*
X-110808Y-48247D01*
X-110810Y-48246D01*
X-110811Y-48245D01*
X-110896Y-48212D01*
X-116874Y-48212D01*
X-116877Y-48213D01*
X-116880Y-48212D01*
X-116963Y-48249D01*
X-117979Y-49265D01*
X-117981Y-49268D01*
X-117984Y-49269D01*
X-118016Y-49354D01*
X-118016Y-50120D01*
X-118016Y-50122D01*
X-118016Y-50124D01*
X-117996Y-50167D01*
X-117978Y-50211D01*
X-117976Y-50211D01*
X-117975Y-50213D01*
X-117890Y-50246D01*
X-110896Y-50246D01*
X-110894Y-50245D01*
G37*
G36*
X-139908Y-50247D02*
X-139908Y-50247D01*
X-139906Y-50248D01*
X-139863Y-50228D01*
X-139819Y-50210D01*
X-139818Y-50208D01*
X-139816Y-50207D01*
X-139784Y-50122D01*
X-139784Y-49356D01*
X-139785Y-49353D01*
X-139784Y-49350D01*
X-139821Y-49267D01*
X-140837Y-48251D01*
X-140840Y-48250D01*
X-140841Y-48247D01*
X-140926Y-48214D01*
X-146904Y-48214D01*
X-146906Y-48215D01*
X-146908Y-48214D01*
X-146951Y-48234D01*
X-146995Y-48252D01*
X-146996Y-48254D01*
X-146998Y-48255D01*
X-147031Y-48340D01*
X-147031Y-50122D01*
X-147030Y-50124D01*
X-147030Y-50126D01*
X-147011Y-50169D01*
X-146992Y-50213D01*
X-146990Y-50214D01*
X-146989Y-50216D01*
X-146904Y-50248D01*
X-139910Y-50248D01*
X-139908Y-50247D01*
G37*
G36*
X-110894Y-66245D02*
X-110894Y-66245D01*
X-110892Y-66246D01*
X-110849Y-66226D01*
X-110805Y-66208D01*
X-110804Y-66206D01*
X-110802Y-66205D01*
X-110769Y-66120D01*
X-110769Y-64338D01*
X-110770Y-64336D01*
X-110770Y-64334D01*
X-110789Y-64291D01*
X-110808Y-64247D01*
X-110810Y-64246D01*
X-110811Y-64245D01*
X-110896Y-64212D01*
X-117890Y-64212D01*
X-117892Y-64213D01*
X-117894Y-64212D01*
X-117937Y-64232D01*
X-117981Y-64250D01*
X-117982Y-64252D01*
X-117984Y-64253D01*
X-118016Y-64338D01*
X-118016Y-65104D01*
X-118015Y-65107D01*
X-118016Y-65110D01*
X-117979Y-65193D01*
X-116963Y-66209D01*
X-116960Y-66211D01*
X-116959Y-66213D01*
X-116874Y-66246D01*
X-110896Y-66246D01*
X-110894Y-66245D01*
G37*
G36*
X-140923Y-66247D02*
X-140923Y-66247D01*
X-140920Y-66248D01*
X-140837Y-66211D01*
X-139821Y-65195D01*
X-139819Y-65192D01*
X-139816Y-65191D01*
X-139784Y-65106D01*
X-139784Y-64340D01*
X-139784Y-64338D01*
X-139784Y-64336D01*
X-139804Y-64293D01*
X-139822Y-64249D01*
X-139824Y-64249D01*
X-139825Y-64247D01*
X-139910Y-64214D01*
X-146904Y-64214D01*
X-146906Y-64215D01*
X-146908Y-64214D01*
X-146951Y-64234D01*
X-146995Y-64252D01*
X-146996Y-64254D01*
X-146998Y-64255D01*
X-147031Y-64340D01*
X-147031Y-66122D01*
X-147030Y-66124D01*
X-147030Y-66126D01*
X-147011Y-66169D01*
X-146992Y-66213D01*
X-146990Y-66214D01*
X-146989Y-66216D01*
X-146904Y-66248D01*
X-140926Y-66248D01*
X-140923Y-66247D01*
G37*
G36*
X-136006Y-75360D02*
X-136006Y-75360D01*
X-136004Y-75360D01*
X-135961Y-75341D01*
X-135917Y-75322D01*
X-135916Y-75320D01*
X-135915Y-75319D01*
X-135882Y-75234D01*
X-135882Y-68240D01*
X-135883Y-68238D01*
X-135882Y-68236D01*
X-135902Y-68193D01*
X-135920Y-68149D01*
X-135922Y-68148D01*
X-135923Y-68146D01*
X-136008Y-68114D01*
X-136774Y-68114D01*
X-136777Y-68115D01*
X-136780Y-68114D01*
X-136863Y-68151D01*
X-137879Y-69167D01*
X-137881Y-69170D01*
X-137883Y-69171D01*
X-137916Y-69256D01*
X-137916Y-75234D01*
X-137915Y-75236D01*
X-137916Y-75238D01*
X-137896Y-75281D01*
X-137878Y-75325D01*
X-137876Y-75326D01*
X-137875Y-75328D01*
X-137790Y-75361D01*
X-136008Y-75361D01*
X-136006Y-75360D01*
G37*
G36*
X-120006Y-75360D02*
X-120006Y-75360D01*
X-120004Y-75360D01*
X-119961Y-75341D01*
X-119917Y-75322D01*
X-119916Y-75320D01*
X-119915Y-75319D01*
X-119882Y-75234D01*
X-119882Y-69256D01*
X-119883Y-69253D01*
X-119882Y-69250D01*
X-119919Y-69167D01*
X-120935Y-68151D01*
X-120938Y-68149D01*
X-120939Y-68146D01*
X-121024Y-68114D01*
X-121790Y-68114D01*
X-121792Y-68114D01*
X-121794Y-68114D01*
X-121837Y-68134D01*
X-121881Y-68152D01*
X-121881Y-68154D01*
X-121883Y-68155D01*
X-121916Y-68240D01*
X-121916Y-75234D01*
X-121915Y-75236D01*
X-121916Y-75238D01*
X-121896Y-75281D01*
X-121878Y-75325D01*
X-121876Y-75326D01*
X-121875Y-75328D01*
X-121790Y-75361D01*
X-120008Y-75361D01*
X-120006Y-75360D01*
G37*
D10*
X-117400Y40950D02*
X-111400Y40950D01*
X-111400Y39950D01*
X-117400Y39950D01*
X-117400Y40950D01*
X-117400Y40900D02*
X-111400Y40900D01*
X-111400Y44950D02*
X-117400Y44950D01*
X-111400Y44950D02*
X-111400Y43950D01*
X-117400Y43950D01*
X-117400Y44950D01*
X-117400Y44900D02*
X-111400Y44900D01*
X-111400Y48950D02*
X-117400Y48950D01*
X-111400Y48950D02*
X-111400Y47950D01*
X-117400Y47950D01*
X-117400Y48950D01*
X-117400Y48900D02*
X-111400Y48900D01*
X-125400Y55950D02*
X-125400Y61950D01*
X-124400Y61950D01*
X-124400Y55950D01*
X-125400Y55950D01*
X-125400Y56900D02*
X-124400Y56900D01*
X-124400Y57850D02*
X-125400Y57850D01*
X-125400Y58800D02*
X-124400Y58800D01*
X-124400Y59750D02*
X-125400Y59750D01*
X-125400Y60700D02*
X-124400Y60700D01*
X-124400Y61650D02*
X-125400Y61650D01*
X-129400Y61950D02*
X-129400Y55950D01*
X-129400Y61950D02*
X-128400Y61950D01*
X-128400Y55950D01*
X-129400Y55950D01*
X-129400Y56900D02*
X-128400Y56900D01*
X-128400Y57850D02*
X-129400Y57850D01*
X-129400Y58800D02*
X-128400Y58800D01*
X-128400Y59750D02*
X-129400Y59750D01*
X-129400Y60700D02*
X-128400Y60700D01*
X-128400Y61650D02*
X-129400Y61650D01*
X-133400Y61950D02*
X-133400Y55950D01*
X-133400Y61950D02*
X-132400Y61950D01*
X-132400Y55950D01*
X-133400Y55950D01*
X-133400Y56900D02*
X-132400Y56900D01*
X-132400Y57850D02*
X-133400Y57850D01*
X-133400Y58800D02*
X-132400Y58800D01*
X-132400Y59750D02*
X-133400Y59750D01*
X-133400Y60700D02*
X-132400Y60700D01*
X-132400Y61650D02*
X-133400Y61650D01*
X-140400Y47950D02*
X-146400Y47950D01*
X-146400Y48950D01*
X-140400Y48950D01*
X-140400Y47950D01*
X-140400Y48900D02*
X-146400Y48900D01*
X-146400Y43950D02*
X-140400Y43950D01*
X-146400Y43950D02*
X-146400Y44950D01*
X-140400Y44950D01*
X-140400Y43950D01*
X-140400Y44900D02*
X-146400Y44900D01*
X-146400Y39950D02*
X-140400Y39950D01*
X-146400Y39950D02*
X-146400Y40950D01*
X-140400Y40950D01*
X-140400Y39950D01*
X-140400Y40900D02*
X-146400Y40900D01*
X-132400Y32950D02*
X-132400Y26950D01*
X-133400Y26950D01*
X-133400Y32950D01*
X-132400Y32950D01*
X-132400Y27900D02*
X-133400Y27900D01*
X-133400Y28850D02*
X-132400Y28850D01*
X-132400Y29800D02*
X-133400Y29800D01*
X-133400Y30750D02*
X-132400Y30750D01*
X-132400Y31700D02*
X-133400Y31700D01*
X-133400Y32650D02*
X-132400Y32650D01*
X-128400Y32950D02*
X-128400Y26950D01*
X-129400Y26950D01*
X-129400Y32950D01*
X-128400Y32950D01*
X-128400Y27900D02*
X-129400Y27900D01*
X-129400Y28850D02*
X-128400Y28850D01*
X-128400Y29800D02*
X-129400Y29800D01*
X-129400Y30750D02*
X-128400Y30750D01*
X-128400Y31700D02*
X-129400Y31700D01*
X-129400Y32650D02*
X-128400Y32650D01*
X-124400Y32950D02*
X-124400Y26950D01*
X-125400Y26950D01*
X-125400Y32950D01*
X-124400Y32950D01*
X-124400Y27900D02*
X-125400Y27900D01*
X-125400Y28850D02*
X-124400Y28850D01*
X-124400Y29800D02*
X-125400Y29800D01*
X-125400Y30750D02*
X-124400Y30750D01*
X-124400Y31700D02*
X-125400Y31700D01*
X-125400Y32650D02*
X-124400Y32650D01*
D11*
X-124650Y40200D02*
X-124650Y48700D01*
X-124650Y40200D02*
X-133150Y40200D01*
X-133150Y48700D01*
X-124650Y48700D01*
X-124650Y48275D02*
X-133150Y48275D01*
D10*
X-117400Y-60730D02*
X-111400Y-60730D01*
X-111400Y-61730D01*
X-117400Y-61730D01*
X-117400Y-60730D01*
X-117400Y-60780D02*
X-111400Y-60780D01*
X-111400Y-56730D02*
X-117400Y-56730D01*
X-111400Y-56730D02*
X-111400Y-57730D01*
X-117400Y-57730D01*
X-117400Y-56730D01*
X-117400Y-56780D02*
X-111400Y-56780D01*
X-111400Y-52730D02*
X-117400Y-52730D01*
X-111400Y-52730D02*
X-111400Y-53730D01*
X-117400Y-53730D01*
X-117400Y-52730D01*
X-117400Y-52780D02*
X-111400Y-52780D01*
X-125400Y-45730D02*
X-125400Y-39730D01*
X-124400Y-39730D01*
X-124400Y-45730D01*
X-125400Y-45730D01*
X-125400Y-44780D02*
X-124400Y-44780D01*
X-124400Y-43830D02*
X-125400Y-43830D01*
X-125400Y-42880D02*
X-124400Y-42880D01*
X-124400Y-41930D02*
X-125400Y-41930D01*
X-125400Y-40980D02*
X-124400Y-40980D01*
X-124400Y-40030D02*
X-125400Y-40030D01*
X-129400Y-39730D02*
X-129400Y-45730D01*
X-129400Y-39730D02*
X-128400Y-39730D01*
X-128400Y-45730D01*
X-129400Y-45730D01*
X-129400Y-44780D02*
X-128400Y-44780D01*
X-128400Y-43830D02*
X-129400Y-43830D01*
X-129400Y-42880D02*
X-128400Y-42880D01*
X-128400Y-41930D02*
X-129400Y-41930D01*
X-129400Y-40980D02*
X-128400Y-40980D01*
X-128400Y-40030D02*
X-129400Y-40030D01*
X-133400Y-39730D02*
X-133400Y-45730D01*
X-133400Y-39730D02*
X-132400Y-39730D01*
X-132400Y-45730D01*
X-133400Y-45730D01*
X-133400Y-44780D02*
X-132400Y-44780D01*
X-132400Y-43830D02*
X-133400Y-43830D01*
X-133400Y-42880D02*
X-132400Y-42880D01*
X-132400Y-41930D02*
X-133400Y-41930D01*
X-133400Y-40980D02*
X-132400Y-40980D01*
X-132400Y-40030D02*
X-133400Y-40030D01*
X-140400Y-53730D02*
X-146400Y-53730D01*
X-146400Y-52730D01*
X-140400Y-52730D01*
X-140400Y-53730D01*
X-140400Y-52780D02*
X-146400Y-52780D01*
X-146400Y-57730D02*
X-140400Y-57730D01*
X-146400Y-57730D02*
X-146400Y-56730D01*
X-140400Y-56730D01*
X-140400Y-57730D01*
X-140400Y-56780D02*
X-146400Y-56780D01*
X-146400Y-61730D02*
X-140400Y-61730D01*
X-146400Y-61730D02*
X-146400Y-60730D01*
X-140400Y-60730D01*
X-140400Y-61730D01*
X-140400Y-60780D02*
X-146400Y-60780D01*
X-132400Y-68730D02*
X-132400Y-74730D01*
X-133400Y-74730D01*
X-133400Y-68730D01*
X-132400Y-68730D01*
X-132400Y-73780D02*
X-133400Y-73780D01*
X-133400Y-72830D02*
X-132400Y-72830D01*
X-132400Y-71880D02*
X-133400Y-71880D01*
X-133400Y-70930D02*
X-132400Y-70930D01*
X-132400Y-69980D02*
X-133400Y-69980D01*
X-133400Y-69030D02*
X-132400Y-69030D01*
X-128400Y-68730D02*
X-128400Y-74730D01*
X-129400Y-74730D01*
X-129400Y-68730D01*
X-128400Y-68730D01*
X-128400Y-73780D02*
X-129400Y-73780D01*
X-129400Y-72830D02*
X-128400Y-72830D01*
X-128400Y-71880D02*
X-129400Y-71880D01*
X-129400Y-70930D02*
X-128400Y-70930D01*
X-128400Y-69980D02*
X-129400Y-69980D01*
X-129400Y-69030D02*
X-128400Y-69030D01*
X-124400Y-68730D02*
X-124400Y-74730D01*
X-125400Y-74730D01*
X-125400Y-68730D01*
X-124400Y-68730D01*
X-124400Y-73780D02*
X-125400Y-73780D01*
X-125400Y-72830D02*
X-124400Y-72830D01*
X-124400Y-71880D02*
X-125400Y-71880D01*
X-125400Y-70930D02*
X-124400Y-70930D01*
X-124400Y-69980D02*
X-125400Y-69980D01*
X-125400Y-69030D02*
X-124400Y-69030D01*
D11*
X-124650Y-61480D02*
X-124650Y-52980D01*
X-124650Y-61480D02*
X-133150Y-61480D01*
X-133150Y-52980D01*
X-124650Y-52980D01*
X-124650Y-53405D02*
X-133150Y-53405D01*
D12*
X-170375Y-45065D02*
X-172875Y-45065D01*
X-172875Y-42565D01*
X-170375Y-42565D01*
X-170375Y-45065D01*
X-170375Y-42690D02*
X-172875Y-42690D01*
X-163625Y-45065D02*
X-161125Y-45065D01*
X-163625Y-45065D02*
X-163625Y-42565D01*
X-161125Y-42565D01*
X-161125Y-45065D01*
X-161125Y-42690D02*
X-163625Y-42690D01*
X-170375Y-53955D02*
X-172875Y-53955D01*
X-172875Y-51455D01*
X-170375Y-51455D01*
X-170375Y-53955D01*
X-170375Y-51580D02*
X-172875Y-51580D01*
X-163625Y-53955D02*
X-161125Y-53955D01*
X-163625Y-53955D02*
X-163625Y-51455D01*
X-161125Y-51455D01*
X-161125Y-53955D01*
X-161125Y-51580D02*
X-163625Y-51580D01*
X-118760Y6952D02*
X-118760Y9452D01*
X-118760Y6952D02*
X-121260Y6952D01*
X-121260Y9452D01*
X-118760Y9452D01*
X-118760Y9327D02*
X-121260Y9327D01*
X-118760Y16202D02*
X-118760Y18702D01*
X-118760Y16202D02*
X-121260Y16202D01*
X-121260Y18702D01*
X-118760Y18702D01*
X-118760Y18577D02*
X-121260Y18577D01*
X-141165Y-90150D02*
X-143665Y-90150D01*
X-143665Y-87650D01*
X-141165Y-87650D01*
X-141165Y-90150D01*
X-141165Y-87775D02*
X-143665Y-87775D01*
X-134415Y-90150D02*
X-131915Y-90150D01*
X-134415Y-90150D02*
X-134415Y-87650D01*
X-131915Y-87650D01*
X-131915Y-90150D01*
X-131915Y-87775D02*
X-134415Y-87775D01*
X-87425Y59035D02*
X-84925Y59035D01*
X-84925Y56535D01*
X-87425Y56535D01*
X-87425Y59035D01*
X-87425Y58910D02*
X-84925Y58910D01*
X-94175Y59035D02*
X-96675Y59035D01*
X-94175Y59035D02*
X-94175Y56535D01*
X-96675Y56535D01*
X-96675Y59035D01*
X-96675Y58910D02*
X-94175Y58910D01*
X-112370Y85925D02*
X-112370Y88425D01*
X-109870Y88425D01*
X-109870Y85925D01*
X-112370Y85925D01*
X-112370Y88300D02*
X-109870Y88300D01*
X-112370Y79175D02*
X-112370Y76675D01*
X-112370Y79175D02*
X-109870Y79175D01*
X-109870Y76675D01*
X-112370Y76675D01*
X-112370Y79050D02*
X-109870Y79050D01*
X-121260Y85925D02*
X-121260Y88425D01*
X-118760Y88425D01*
X-118760Y85925D01*
X-121260Y85925D01*
X-121260Y88300D02*
X-118760Y88300D01*
X-121260Y79175D02*
X-121260Y76675D01*
X-121260Y79175D02*
X-118760Y79175D01*
X-118760Y76675D01*
X-121260Y76675D01*
X-121260Y79050D02*
X-118760Y79050D01*
X-130150Y85925D02*
X-130150Y88425D01*
X-127650Y88425D01*
X-127650Y85925D01*
X-130150Y85925D01*
X-130150Y88300D02*
X-127650Y88300D01*
X-130150Y79175D02*
X-130150Y76675D01*
X-130150Y79175D02*
X-127650Y79175D01*
X-127650Y76675D01*
X-130150Y76675D01*
X-130150Y79050D02*
X-127650Y79050D01*
X-170375Y38755D02*
X-172875Y38755D01*
X-172875Y41255D01*
X-170375Y41255D01*
X-170375Y38755D01*
X-170375Y41130D02*
X-172875Y41130D01*
X-163625Y38755D02*
X-161125Y38755D01*
X-163625Y38755D02*
X-163625Y41255D01*
X-161125Y41255D01*
X-161125Y38755D01*
X-161125Y41130D02*
X-163625Y41130D01*
X-170375Y47645D02*
X-172875Y47645D01*
X-172875Y50145D01*
X-170375Y50145D01*
X-170375Y47645D01*
X-170375Y50020D02*
X-172875Y50020D01*
X-163625Y47645D02*
X-161125Y47645D01*
X-163625Y47645D02*
X-163625Y50145D01*
X-161125Y50145D01*
X-161125Y47645D01*
X-161125Y50020D02*
X-163625Y50020D01*
X-147930Y85925D02*
X-147930Y88425D01*
X-145430Y88425D01*
X-145430Y85925D01*
X-147930Y85925D01*
X-147930Y88300D02*
X-145430Y88300D01*
X-147930Y79175D02*
X-147930Y76675D01*
X-147930Y79175D02*
X-145430Y79175D01*
X-145430Y76675D01*
X-147930Y76675D01*
X-147930Y79050D02*
X-145430Y79050D01*
X-139040Y85925D02*
X-139040Y88425D01*
X-136540Y88425D01*
X-136540Y85925D01*
X-139040Y85925D01*
X-139040Y88300D02*
X-136540Y88300D01*
X-139040Y79175D02*
X-139040Y76675D01*
X-139040Y79175D02*
X-136540Y79175D01*
X-136540Y76675D01*
X-139040Y76675D01*
X-139040Y79050D02*
X-136540Y79050D01*
X-130150Y18702D02*
X-130150Y16202D01*
X-130150Y18702D02*
X-127650Y18702D01*
X-127650Y16202D01*
X-130150Y16202D01*
X-130150Y18577D02*
X-127650Y18577D01*
X-130150Y9452D02*
X-130150Y6952D01*
X-130150Y9452D02*
X-127650Y9452D01*
X-127650Y6952D01*
X-130150Y6952D01*
X-130150Y9327D02*
X-127650Y9327D01*
X-139040Y16202D02*
X-139040Y18702D01*
X-136540Y18702D01*
X-136540Y16202D01*
X-139040Y16202D01*
X-139040Y18577D02*
X-136540Y18577D01*
X-139040Y9452D02*
X-139040Y6952D01*
X-139040Y9452D02*
X-136540Y9452D01*
X-136540Y6952D01*
X-139040Y6952D01*
X-139040Y9327D02*
X-136540Y9327D01*
X-147930Y16202D02*
X-147930Y18702D01*
X-145430Y18702D01*
X-145430Y16202D01*
X-147930Y16202D01*
X-147930Y18577D02*
X-145430Y18577D01*
X-147930Y9452D02*
X-147930Y6952D01*
X-147930Y9452D02*
X-145430Y9452D01*
X-145430Y6952D01*
X-147930Y6952D01*
X-147930Y9327D02*
X-145430Y9327D01*
X-161125Y32365D02*
X-163625Y32365D01*
X-161125Y32365D02*
X-161125Y29865D01*
X-163625Y29865D01*
X-163625Y32365D01*
X-163625Y32240D02*
X-161125Y32240D01*
X-170375Y32365D02*
X-172875Y32365D01*
X-170375Y32365D02*
X-170375Y29865D01*
X-172875Y29865D01*
X-172875Y32365D01*
X-172875Y32240D02*
X-170375Y32240D01*
X-109870Y9452D02*
X-109870Y6952D01*
X-112370Y6952D01*
X-112370Y9452D01*
X-109870Y9452D01*
X-109870Y9327D02*
X-112370Y9327D01*
X-109870Y16202D02*
X-109870Y18702D01*
X-109870Y16202D02*
X-112370Y16202D01*
X-112370Y18702D01*
X-109870Y18702D01*
X-109870Y18577D02*
X-112370Y18577D01*
X-87425Y32365D02*
X-84925Y32365D01*
X-84925Y29865D01*
X-87425Y29865D01*
X-87425Y32365D01*
X-87425Y32240D02*
X-84925Y32240D01*
X-94175Y32365D02*
X-96675Y32365D01*
X-94175Y32365D02*
X-94175Y29865D01*
X-96675Y29865D01*
X-96675Y32365D01*
X-96675Y32240D02*
X-94175Y32240D01*
X-114135Y-87650D02*
X-116635Y-87650D01*
X-114135Y-87650D02*
X-114135Y-90150D01*
X-116635Y-90150D01*
X-116635Y-87650D01*
X-116635Y-87775D02*
X-114135Y-87775D01*
X-123385Y-87650D02*
X-125885Y-87650D01*
X-123385Y-87650D02*
X-123385Y-90150D01*
X-125885Y-90150D01*
X-125885Y-87650D01*
X-125885Y-87775D02*
X-123385Y-87775D01*
X-87425Y-69235D02*
X-84925Y-69235D01*
X-84925Y-71735D01*
X-87425Y-71735D01*
X-87425Y-69235D01*
X-87425Y-69360D02*
X-84925Y-69360D01*
X-94175Y-69235D02*
X-96675Y-69235D01*
X-94175Y-69235D02*
X-94175Y-71735D01*
X-96675Y-71735D01*
X-96675Y-69235D01*
X-96675Y-69360D02*
X-94175Y-69360D01*
X-87425Y41255D02*
X-84925Y41255D01*
X-84925Y38755D01*
X-87425Y38755D01*
X-87425Y41255D01*
X-87425Y41130D02*
X-84925Y41130D01*
X-94175Y41255D02*
X-96675Y41255D01*
X-94175Y41255D02*
X-94175Y38755D01*
X-96675Y38755D01*
X-96675Y41255D01*
X-96675Y41130D02*
X-94175Y41130D01*
X-87425Y50145D02*
X-84925Y50145D01*
X-84925Y47645D01*
X-87425Y47645D01*
X-87425Y50145D01*
X-87425Y50020D02*
X-84925Y50020D01*
X-94175Y50145D02*
X-96675Y50145D01*
X-94175Y50145D02*
X-94175Y47645D01*
X-96675Y47645D01*
X-96675Y50145D01*
X-96675Y50020D02*
X-94175Y50020D01*
X-87425Y-60345D02*
X-84925Y-60345D01*
X-84925Y-62845D01*
X-87425Y-62845D01*
X-87425Y-60345D01*
X-87425Y-60470D02*
X-84925Y-60470D01*
X-94175Y-60345D02*
X-96675Y-60345D01*
X-94175Y-60345D02*
X-94175Y-62845D01*
X-96675Y-62845D01*
X-96675Y-60345D01*
X-96675Y-60470D02*
X-94175Y-60470D01*
X-87425Y-51455D02*
X-84925Y-51455D01*
X-84925Y-53955D01*
X-87425Y-53955D01*
X-87425Y-51455D01*
X-87425Y-51580D02*
X-84925Y-51580D01*
X-94175Y-51455D02*
X-96675Y-51455D01*
X-94175Y-51455D02*
X-94175Y-53955D01*
X-96675Y-53955D01*
X-96675Y-51455D01*
X-96675Y-51580D02*
X-94175Y-51580D01*
D13*
X0Y0D03*
X50000Y0D03*
X100000Y0D03*
X150000Y0D03*
X200000Y0D03*
X250000Y0D03*
X300000Y0D03*
X350000Y0D03*
X400000Y0D03*
X450000Y0D03*
X500000Y0D03*
X550000Y0D03*
X650800Y0D03*
X699530Y0D03*
X749530Y0D03*
X799530Y0D03*
X849530Y0D03*
X599810Y0D03*
X950000Y0D03*
X900000Y0D03*
D12*
X-84925Y-42565D02*
X-87425Y-42565D01*
X-84925Y-42565D02*
X-84925Y-45065D01*
X-87425Y-45065D01*
X-87425Y-42565D01*
X-87425Y-42690D02*
X-84925Y-42690D01*
X-94175Y-42565D02*
X-96675Y-42565D01*
X-94175Y-42565D02*
X-94175Y-45065D01*
X-96675Y-45065D01*
X-96675Y-42565D01*
X-96675Y-42690D02*
X-94175Y-42690D01*
X-112370Y-21771D02*
X-112370Y-19271D01*
X-109870Y-19271D01*
X-109870Y-21771D01*
X-112370Y-21771D01*
X-112370Y-19396D02*
X-109870Y-19396D01*
X-112370Y-28521D02*
X-112370Y-31021D01*
X-112370Y-28521D02*
X-109870Y-28521D01*
X-109870Y-31021D01*
X-112370Y-31021D01*
X-112370Y-28646D02*
X-109870Y-28646D01*
X-121260Y-21771D02*
X-121260Y-19271D01*
X-118760Y-19271D01*
X-118760Y-21771D01*
X-121260Y-21771D01*
X-121260Y-19396D02*
X-118760Y-19396D01*
X-121260Y-28521D02*
X-121260Y-31021D01*
X-121260Y-28521D02*
X-118760Y-28521D01*
X-118760Y-31021D01*
X-121260Y-31021D01*
X-121260Y-28646D02*
X-118760Y-28646D01*
X-130150Y-21771D02*
X-130150Y-19271D01*
X-127650Y-19271D01*
X-127650Y-21771D01*
X-130150Y-21771D01*
X-130150Y-19396D02*
X-127650Y-19396D01*
X-130150Y-28521D02*
X-130150Y-31021D01*
X-130150Y-28521D02*
X-127650Y-28521D01*
X-127650Y-31021D01*
X-130150Y-31021D01*
X-130150Y-28646D02*
X-127650Y-28646D01*
X-170375Y-71735D02*
X-172875Y-71735D01*
X-172875Y-69235D01*
X-170375Y-69235D01*
X-170375Y-71735D01*
X-170375Y-69360D02*
X-172875Y-69360D01*
X-163625Y-71735D02*
X-161125Y-71735D01*
X-163625Y-71735D02*
X-163625Y-69235D01*
X-161125Y-69235D01*
X-161125Y-71735D01*
X-161125Y-69360D02*
X-163625Y-69360D01*
X-170375Y-62845D02*
X-172875Y-62845D01*
X-172875Y-60345D01*
X-170375Y-60345D01*
X-170375Y-62845D01*
X-170375Y-60470D02*
X-172875Y-60470D01*
X-163625Y-62845D02*
X-161125Y-62845D01*
X-163625Y-62845D02*
X-163625Y-60345D01*
X-161125Y-60345D01*
X-161125Y-62845D01*
X-161125Y-60470D02*
X-163625Y-60470D01*
X-147930Y-21771D02*
X-147930Y-19271D01*
X-145430Y-19271D01*
X-145430Y-21771D01*
X-147930Y-21771D01*
X-147930Y-19396D02*
X-145430Y-19396D01*
X-147930Y-28521D02*
X-147930Y-31021D01*
X-147930Y-28521D02*
X-145430Y-28521D01*
X-145430Y-31021D01*
X-147930Y-31021D01*
X-147930Y-28646D02*
X-145430Y-28646D01*
X-139040Y-21771D02*
X-139040Y-19271D01*
X-136540Y-19271D01*
X-136540Y-21771D01*
X-139040Y-21771D01*
X-139040Y-19396D02*
X-136540Y-19396D01*
X-139040Y-28521D02*
X-139040Y-31021D01*
X-139040Y-28521D02*
X-136540Y-28521D01*
X-136540Y-31021D01*
X-139040Y-31021D01*
X-139040Y-28646D02*
X-136540Y-28646D01*
D14*
X-557500Y50000D03*
X-542500Y50000D03*
X-557500Y-50000D03*
X-542500Y-50000D03*
D12*
X-743375Y88750D02*
X-745875Y88750D01*
X-745875Y91250D01*
X-743375Y91250D01*
X-743375Y88750D01*
X-743375Y91125D02*
X-745875Y91125D01*
X-736625Y88750D02*
X-734125Y88750D01*
X-736625Y88750D02*
X-736625Y91250D01*
X-734125Y91250D01*
X-734125Y88750D01*
X-734125Y91125D02*
X-736625Y91125D01*
M02*
