G04 EAGLE Gerber RS-274X export*
G75*
%MOMM*%
%FSLAX34Y34*%
%LPD*%
%INSoldermask Bottom*%
%IPPOS*%
%AMOC8*
5,1,8,0,0,1.08239X$1,22.5*%
G01*
%ADD10C,0.304800*%
%ADD11R,1.625600X1.625600*%
%ADD12P,1.759533X8X22.500000*%
%ADD13C,2.201600*%
%ADD14C,1.301600*%


D10*
X-220315Y-100085D03*
X-220315Y99915D03*
D11*
X-750900Y-134700D03*
D12*
X-750900Y-109300D03*
X-725500Y-134700D03*
X-725500Y-109300D03*
X-700100Y-134700D03*
X-700100Y-109300D03*
X-674700Y-134700D03*
X-674700Y-109300D03*
X-649300Y-134700D03*
X-649300Y-109300D03*
X-623900Y-134700D03*
X-623900Y-109300D03*
X-598500Y-134700D03*
X-598500Y-109300D03*
X-573100Y-134700D03*
X-573100Y-109300D03*
X-547700Y-134700D03*
X-547700Y-109300D03*
X-522300Y-134700D03*
X-522300Y-109300D03*
X-496900Y-134700D03*
X-496900Y-109300D03*
X-471500Y-134700D03*
X-471500Y-109300D03*
X-446100Y-134700D03*
X-446100Y-109300D03*
X-420700Y-134700D03*
X-420700Y-109300D03*
X-395300Y-134700D03*
X-395300Y-109300D03*
X-369900Y-134700D03*
X-369900Y-109300D03*
X-344500Y-134700D03*
X-344500Y-109300D03*
X-319100Y-134700D03*
X-319100Y-109300D03*
D11*
X-750900Y119300D03*
D12*
X-750900Y144700D03*
X-725500Y119300D03*
X-725500Y144700D03*
X-700100Y119300D03*
X-700100Y144700D03*
X-674700Y119300D03*
X-674700Y144700D03*
X-649300Y119300D03*
X-649300Y144700D03*
X-623900Y119300D03*
X-623900Y144700D03*
X-598500Y119300D03*
X-598500Y144700D03*
X-573100Y119300D03*
X-573100Y144700D03*
X-547700Y119300D03*
X-547700Y144700D03*
X-522300Y119300D03*
X-522300Y144700D03*
X-496900Y119300D03*
X-496900Y144700D03*
X-471500Y119300D03*
X-471500Y144700D03*
X-446100Y119300D03*
X-446100Y144700D03*
X-420700Y119300D03*
X-420700Y144700D03*
X-395300Y119300D03*
X-395300Y144700D03*
X-369900Y119300D03*
X-369900Y144700D03*
X-344500Y119300D03*
X-344500Y144700D03*
X-319100Y119300D03*
X-319100Y144700D03*
D13*
X-765000Y62500D03*
X-715000Y62500D03*
X-715000Y-62500D03*
X-765000Y-62500D03*
D14*
X-360000Y32500D03*
X-360000Y-32500D03*
M02*
