G04 EAGLE Gerber RS-274X export*
G75*
%MOMM*%
%FSLAX34Y34*%
%LPD*%
%INSoldermask Top*%
%IPPOS*%
%AMOC8*
5,1,8,0,0,1.08239X$1,22.5*%
G01*
%ADD10C,0.304800*%
%ADD11C,0.202072*%
%ADD12C,0.954847*%
%ADD13C,0.348925*%
%ADD14C,1.244600*%
%ADD15R,1.625600X1.625600*%
%ADD16P,1.759533X8X22.500000*%
%ADD17C,2.201600*%
%ADD18C,1.301600*%
%ADD19R,0.901600X0.901600*%

G36*
X-136008Y55334D02*
X-136008Y55334D01*
X-136006Y55334D01*
X-135963Y55354D01*
X-135919Y55372D01*
X-135919Y55374D01*
X-135917Y55375D01*
X-135884Y55460D01*
X-135884Y62454D01*
X-135885Y62456D01*
X-135884Y62458D01*
X-135904Y62501D01*
X-135922Y62545D01*
X-135924Y62546D01*
X-135925Y62548D01*
X-136010Y62581D01*
X-137792Y62581D01*
X-137794Y62580D01*
X-137796Y62580D01*
X-137839Y62561D01*
X-137883Y62542D01*
X-137884Y62540D01*
X-137886Y62539D01*
X-137918Y62454D01*
X-137918Y56476D01*
X-137917Y56473D01*
X-137918Y56470D01*
X-137881Y56387D01*
X-136865Y55371D01*
X-136862Y55369D01*
X-136861Y55366D01*
X-136776Y55334D01*
X-136010Y55334D01*
X-136008Y55334D01*
G37*
G36*
X-121023Y55335D02*
X-121023Y55335D01*
X-121020Y55334D01*
X-120937Y55371D01*
X-119921Y56387D01*
X-119920Y56390D01*
X-119917Y56391D01*
X-119884Y56476D01*
X-119884Y62454D01*
X-119885Y62456D01*
X-119884Y62458D01*
X-119904Y62501D01*
X-119922Y62545D01*
X-119924Y62546D01*
X-119925Y62548D01*
X-120010Y62581D01*
X-121792Y62581D01*
X-121794Y62580D01*
X-121796Y62580D01*
X-121839Y62561D01*
X-121883Y62542D01*
X-121884Y62540D01*
X-121886Y62539D01*
X-121918Y62454D01*
X-121918Y55460D01*
X-121917Y55458D01*
X-121918Y55456D01*
X-121898Y55413D01*
X-121880Y55369D01*
X-121878Y55368D01*
X-121877Y55366D01*
X-121792Y55334D01*
X-121026Y55334D01*
X-121023Y55335D01*
G37*
G36*
X-110894Y51435D02*
X-110894Y51435D01*
X-110892Y51434D01*
X-110849Y51454D01*
X-110805Y51472D01*
X-110804Y51474D01*
X-110802Y51475D01*
X-110769Y51560D01*
X-110769Y53342D01*
X-110770Y53344D01*
X-110770Y53346D01*
X-110789Y53389D01*
X-110808Y53433D01*
X-110810Y53434D01*
X-110811Y53436D01*
X-110896Y53468D01*
X-116874Y53468D01*
X-116877Y53467D01*
X-116880Y53468D01*
X-116963Y53431D01*
X-117979Y52415D01*
X-117981Y52412D01*
X-117984Y52411D01*
X-118016Y52326D01*
X-118016Y51560D01*
X-118016Y51558D01*
X-118016Y51556D01*
X-117996Y51513D01*
X-117978Y51469D01*
X-117976Y51469D01*
X-117975Y51467D01*
X-117890Y51434D01*
X-110896Y51434D01*
X-110894Y51435D01*
G37*
G36*
X-139908Y51433D02*
X-139908Y51433D01*
X-139906Y51432D01*
X-139863Y51452D01*
X-139819Y51470D01*
X-139818Y51472D01*
X-139816Y51473D01*
X-139784Y51558D01*
X-139784Y52324D01*
X-139785Y52327D01*
X-139784Y52330D01*
X-139821Y52413D01*
X-140837Y53429D01*
X-140840Y53431D01*
X-140841Y53433D01*
X-140926Y53466D01*
X-146904Y53466D01*
X-146906Y53465D01*
X-146908Y53466D01*
X-146951Y53446D01*
X-146995Y53428D01*
X-146996Y53426D01*
X-146998Y53425D01*
X-147031Y53340D01*
X-147031Y51558D01*
X-147030Y51556D01*
X-147030Y51554D01*
X-147011Y51511D01*
X-146992Y51467D01*
X-146990Y51466D01*
X-146989Y51465D01*
X-146904Y51432D01*
X-139910Y51432D01*
X-139908Y51433D01*
G37*
G36*
X-110894Y35435D02*
X-110894Y35435D01*
X-110892Y35434D01*
X-110849Y35454D01*
X-110805Y35472D01*
X-110804Y35474D01*
X-110802Y35475D01*
X-110769Y35560D01*
X-110769Y37342D01*
X-110770Y37344D01*
X-110770Y37346D01*
X-110789Y37389D01*
X-110808Y37433D01*
X-110810Y37434D01*
X-110811Y37436D01*
X-110896Y37468D01*
X-117890Y37468D01*
X-117892Y37467D01*
X-117894Y37468D01*
X-117937Y37448D01*
X-117981Y37430D01*
X-117982Y37428D01*
X-117984Y37427D01*
X-118016Y37342D01*
X-118016Y36576D01*
X-118015Y36573D01*
X-118016Y36570D01*
X-117979Y36487D01*
X-116963Y35471D01*
X-116960Y35470D01*
X-116959Y35467D01*
X-116874Y35434D01*
X-110896Y35434D01*
X-110894Y35435D01*
G37*
G36*
X-140923Y35433D02*
X-140923Y35433D01*
X-140920Y35432D01*
X-140837Y35469D01*
X-139821Y36485D01*
X-139819Y36488D01*
X-139816Y36489D01*
X-139784Y36574D01*
X-139784Y37340D01*
X-139784Y37342D01*
X-139784Y37344D01*
X-139804Y37387D01*
X-139822Y37431D01*
X-139824Y37431D01*
X-139825Y37433D01*
X-139910Y37466D01*
X-146904Y37466D01*
X-146906Y37465D01*
X-146908Y37466D01*
X-146951Y37446D01*
X-146995Y37428D01*
X-146996Y37426D01*
X-146998Y37425D01*
X-147031Y37340D01*
X-147031Y35558D01*
X-147030Y35556D01*
X-147030Y35554D01*
X-147011Y35511D01*
X-146992Y35467D01*
X-146990Y35466D01*
X-146989Y35465D01*
X-146904Y35432D01*
X-140926Y35432D01*
X-140923Y35433D01*
G37*
G36*
X-120006Y26320D02*
X-120006Y26320D01*
X-120004Y26320D01*
X-119961Y26339D01*
X-119917Y26358D01*
X-119916Y26360D01*
X-119915Y26361D01*
X-119882Y26446D01*
X-119882Y32424D01*
X-119883Y32427D01*
X-119882Y32430D01*
X-119919Y32513D01*
X-120935Y33529D01*
X-120938Y33531D01*
X-120939Y33534D01*
X-121024Y33566D01*
X-121790Y33566D01*
X-121792Y33566D01*
X-121794Y33566D01*
X-121837Y33546D01*
X-121881Y33528D01*
X-121881Y33526D01*
X-121883Y33525D01*
X-121916Y33440D01*
X-121916Y26446D01*
X-121915Y26444D01*
X-121916Y26442D01*
X-121896Y26399D01*
X-121878Y26355D01*
X-121876Y26354D01*
X-121875Y26352D01*
X-121790Y26319D01*
X-120008Y26319D01*
X-120006Y26320D01*
G37*
G36*
X-136006Y26320D02*
X-136006Y26320D01*
X-136004Y26320D01*
X-135961Y26339D01*
X-135917Y26358D01*
X-135916Y26360D01*
X-135915Y26361D01*
X-135882Y26446D01*
X-135882Y33440D01*
X-135883Y33442D01*
X-135882Y33444D01*
X-135902Y33487D01*
X-135920Y33531D01*
X-135922Y33532D01*
X-135923Y33534D01*
X-136008Y33566D01*
X-136774Y33566D01*
X-136777Y33565D01*
X-136780Y33566D01*
X-136863Y33529D01*
X-137879Y32513D01*
X-137881Y32510D01*
X-137883Y32509D01*
X-137916Y32424D01*
X-137916Y26446D01*
X-137915Y26444D01*
X-137916Y26442D01*
X-137896Y26399D01*
X-137878Y26355D01*
X-137876Y26354D01*
X-137875Y26352D01*
X-137790Y26319D01*
X-136008Y26319D01*
X-136006Y26320D01*
G37*
G36*
X-121023Y-46345D02*
X-121023Y-46345D01*
X-121020Y-46346D01*
X-120937Y-46309D01*
X-119921Y-45293D01*
X-119920Y-45290D01*
X-119917Y-45289D01*
X-119884Y-45204D01*
X-119884Y-39226D01*
X-119885Y-39224D01*
X-119884Y-39222D01*
X-119904Y-39179D01*
X-119922Y-39135D01*
X-119924Y-39134D01*
X-119925Y-39132D01*
X-120010Y-39099D01*
X-121792Y-39099D01*
X-121794Y-39100D01*
X-121796Y-39100D01*
X-121839Y-39119D01*
X-121883Y-39138D01*
X-121884Y-39140D01*
X-121886Y-39141D01*
X-121918Y-39226D01*
X-121918Y-46220D01*
X-121917Y-46222D01*
X-121918Y-46224D01*
X-121898Y-46267D01*
X-121880Y-46311D01*
X-121878Y-46312D01*
X-121877Y-46314D01*
X-121792Y-46346D01*
X-121026Y-46346D01*
X-121023Y-46345D01*
G37*
G36*
X-136008Y-46346D02*
X-136008Y-46346D01*
X-136006Y-46346D01*
X-135963Y-46326D01*
X-135919Y-46308D01*
X-135919Y-46306D01*
X-135917Y-46305D01*
X-135884Y-46220D01*
X-135884Y-39226D01*
X-135885Y-39224D01*
X-135884Y-39222D01*
X-135904Y-39179D01*
X-135922Y-39135D01*
X-135924Y-39134D01*
X-135925Y-39132D01*
X-136010Y-39099D01*
X-137792Y-39099D01*
X-137794Y-39100D01*
X-137796Y-39100D01*
X-137839Y-39119D01*
X-137883Y-39138D01*
X-137884Y-39140D01*
X-137886Y-39141D01*
X-137918Y-39226D01*
X-137918Y-45204D01*
X-137917Y-45207D01*
X-137918Y-45210D01*
X-137881Y-45293D01*
X-136865Y-46309D01*
X-136862Y-46311D01*
X-136861Y-46314D01*
X-136776Y-46346D01*
X-136010Y-46346D01*
X-136008Y-46346D01*
G37*
G36*
X-110894Y-50245D02*
X-110894Y-50245D01*
X-110892Y-50246D01*
X-110849Y-50226D01*
X-110805Y-50208D01*
X-110804Y-50206D01*
X-110802Y-50205D01*
X-110769Y-50120D01*
X-110769Y-48338D01*
X-110770Y-48336D01*
X-110770Y-48334D01*
X-110789Y-48291D01*
X-110808Y-48247D01*
X-110810Y-48246D01*
X-110811Y-48245D01*
X-110896Y-48212D01*
X-116874Y-48212D01*
X-116877Y-48213D01*
X-116880Y-48212D01*
X-116963Y-48249D01*
X-117979Y-49265D01*
X-117981Y-49268D01*
X-117984Y-49269D01*
X-118016Y-49354D01*
X-118016Y-50120D01*
X-118016Y-50122D01*
X-118016Y-50124D01*
X-117996Y-50167D01*
X-117978Y-50211D01*
X-117976Y-50211D01*
X-117975Y-50213D01*
X-117890Y-50246D01*
X-110896Y-50246D01*
X-110894Y-50245D01*
G37*
G36*
X-139908Y-50247D02*
X-139908Y-50247D01*
X-139906Y-50248D01*
X-139863Y-50228D01*
X-139819Y-50210D01*
X-139818Y-50208D01*
X-139816Y-50207D01*
X-139784Y-50122D01*
X-139784Y-49356D01*
X-139785Y-49353D01*
X-139784Y-49350D01*
X-139821Y-49267D01*
X-140837Y-48251D01*
X-140840Y-48250D01*
X-140841Y-48247D01*
X-140926Y-48214D01*
X-146904Y-48214D01*
X-146906Y-48215D01*
X-146908Y-48214D01*
X-146951Y-48234D01*
X-146995Y-48252D01*
X-146996Y-48254D01*
X-146998Y-48255D01*
X-147031Y-48340D01*
X-147031Y-50122D01*
X-147030Y-50124D01*
X-147030Y-50126D01*
X-147011Y-50169D01*
X-146992Y-50213D01*
X-146990Y-50214D01*
X-146989Y-50216D01*
X-146904Y-50248D01*
X-139910Y-50248D01*
X-139908Y-50247D01*
G37*
G36*
X-110894Y-66245D02*
X-110894Y-66245D01*
X-110892Y-66246D01*
X-110849Y-66226D01*
X-110805Y-66208D01*
X-110804Y-66206D01*
X-110802Y-66205D01*
X-110769Y-66120D01*
X-110769Y-64338D01*
X-110770Y-64336D01*
X-110770Y-64334D01*
X-110789Y-64291D01*
X-110808Y-64247D01*
X-110810Y-64246D01*
X-110811Y-64245D01*
X-110896Y-64212D01*
X-117890Y-64212D01*
X-117892Y-64213D01*
X-117894Y-64212D01*
X-117937Y-64232D01*
X-117981Y-64250D01*
X-117982Y-64252D01*
X-117984Y-64253D01*
X-118016Y-64338D01*
X-118016Y-65104D01*
X-118015Y-65107D01*
X-118016Y-65110D01*
X-117979Y-65193D01*
X-116963Y-66209D01*
X-116960Y-66211D01*
X-116959Y-66213D01*
X-116874Y-66246D01*
X-110896Y-66246D01*
X-110894Y-66245D01*
G37*
G36*
X-140923Y-66247D02*
X-140923Y-66247D01*
X-140920Y-66248D01*
X-140837Y-66211D01*
X-139821Y-65195D01*
X-139819Y-65192D01*
X-139816Y-65191D01*
X-139784Y-65106D01*
X-139784Y-64340D01*
X-139784Y-64338D01*
X-139784Y-64336D01*
X-139804Y-64293D01*
X-139822Y-64249D01*
X-139824Y-64249D01*
X-139825Y-64247D01*
X-139910Y-64214D01*
X-146904Y-64214D01*
X-146906Y-64215D01*
X-146908Y-64214D01*
X-146951Y-64234D01*
X-146995Y-64252D01*
X-146996Y-64254D01*
X-146998Y-64255D01*
X-147031Y-64340D01*
X-147031Y-66122D01*
X-147030Y-66124D01*
X-147030Y-66126D01*
X-147011Y-66169D01*
X-146992Y-66213D01*
X-146990Y-66214D01*
X-146989Y-66216D01*
X-146904Y-66248D01*
X-140926Y-66248D01*
X-140923Y-66247D01*
G37*
G36*
X-136006Y-75360D02*
X-136006Y-75360D01*
X-136004Y-75360D01*
X-135961Y-75341D01*
X-135917Y-75322D01*
X-135916Y-75320D01*
X-135915Y-75319D01*
X-135882Y-75234D01*
X-135882Y-68240D01*
X-135883Y-68238D01*
X-135882Y-68236D01*
X-135902Y-68193D01*
X-135920Y-68149D01*
X-135922Y-68148D01*
X-135923Y-68146D01*
X-136008Y-68114D01*
X-136774Y-68114D01*
X-136777Y-68115D01*
X-136780Y-68114D01*
X-136863Y-68151D01*
X-137879Y-69167D01*
X-137881Y-69170D01*
X-137883Y-69171D01*
X-137916Y-69256D01*
X-137916Y-75234D01*
X-137915Y-75236D01*
X-137916Y-75238D01*
X-137896Y-75281D01*
X-137878Y-75325D01*
X-137876Y-75326D01*
X-137875Y-75328D01*
X-137790Y-75361D01*
X-136008Y-75361D01*
X-136006Y-75360D01*
G37*
G36*
X-120006Y-75360D02*
X-120006Y-75360D01*
X-120004Y-75360D01*
X-119961Y-75341D01*
X-119917Y-75322D01*
X-119916Y-75320D01*
X-119915Y-75319D01*
X-119882Y-75234D01*
X-119882Y-69256D01*
X-119883Y-69253D01*
X-119882Y-69250D01*
X-119919Y-69167D01*
X-120935Y-68151D01*
X-120938Y-68149D01*
X-120939Y-68146D01*
X-121024Y-68114D01*
X-121790Y-68114D01*
X-121792Y-68114D01*
X-121794Y-68114D01*
X-121837Y-68134D01*
X-121881Y-68152D01*
X-121881Y-68154D01*
X-121883Y-68155D01*
X-121916Y-68240D01*
X-121916Y-75234D01*
X-121915Y-75236D01*
X-121916Y-75238D01*
X-121896Y-75281D01*
X-121878Y-75325D01*
X-121876Y-75326D01*
X-121875Y-75328D01*
X-121790Y-75361D01*
X-120008Y-75361D01*
X-120006Y-75360D01*
G37*
D10*
X-220315Y-100085D03*
X-220315Y99915D03*
D11*
X-117398Y40948D02*
X-111402Y40948D01*
X-111402Y39952D01*
X-117398Y39952D01*
X-117398Y40948D01*
X-117398Y44948D02*
X-111402Y44948D01*
X-111402Y43952D01*
X-117398Y43952D01*
X-117398Y44948D01*
X-117398Y48948D02*
X-111402Y48948D01*
X-111402Y47952D01*
X-117398Y47952D01*
X-117398Y48948D01*
X-125398Y55952D02*
X-125398Y61948D01*
X-124402Y61948D01*
X-124402Y55952D01*
X-125398Y55952D01*
X-125398Y57872D02*
X-124402Y57872D01*
X-124402Y59792D02*
X-125398Y59792D01*
X-125398Y61712D02*
X-124402Y61712D01*
X-129398Y61948D02*
X-129398Y55952D01*
X-129398Y61948D02*
X-128402Y61948D01*
X-128402Y55952D01*
X-129398Y55952D01*
X-129398Y57872D02*
X-128402Y57872D01*
X-128402Y59792D02*
X-129398Y59792D01*
X-129398Y61712D02*
X-128402Y61712D01*
X-133398Y61948D02*
X-133398Y55952D01*
X-133398Y61948D02*
X-132402Y61948D01*
X-132402Y55952D01*
X-133398Y55952D01*
X-133398Y57872D02*
X-132402Y57872D01*
X-132402Y59792D02*
X-133398Y59792D01*
X-133398Y61712D02*
X-132402Y61712D01*
X-140402Y47952D02*
X-146398Y47952D01*
X-146398Y48948D01*
X-140402Y48948D01*
X-140402Y47952D01*
X-140402Y43952D02*
X-146398Y43952D01*
X-146398Y44948D01*
X-140402Y44948D01*
X-140402Y43952D01*
X-140402Y39952D02*
X-146398Y39952D01*
X-146398Y40948D01*
X-140402Y40948D01*
X-140402Y39952D01*
X-132402Y32948D02*
X-132402Y26952D01*
X-133398Y26952D01*
X-133398Y32948D01*
X-132402Y32948D01*
X-132402Y28872D02*
X-133398Y28872D01*
X-133398Y30792D02*
X-132402Y30792D01*
X-132402Y32712D02*
X-133398Y32712D01*
X-128402Y32948D02*
X-128402Y26952D01*
X-129398Y26952D01*
X-129398Y32948D01*
X-128402Y32948D01*
X-128402Y28872D02*
X-129398Y28872D01*
X-129398Y30792D02*
X-128402Y30792D01*
X-128402Y32712D02*
X-129398Y32712D01*
X-124402Y32948D02*
X-124402Y26952D01*
X-125398Y26952D01*
X-125398Y32948D01*
X-124402Y32948D01*
X-124402Y28872D02*
X-125398Y28872D01*
X-125398Y30792D02*
X-124402Y30792D01*
X-124402Y32712D02*
X-125398Y32712D01*
D12*
X-124666Y40216D02*
X-124666Y48684D01*
X-124666Y40216D02*
X-133134Y40216D01*
X-133134Y48684D01*
X-124666Y48684D01*
D11*
X-117398Y-60732D02*
X-111402Y-60732D01*
X-111402Y-61728D01*
X-117398Y-61728D01*
X-117398Y-60732D01*
X-117398Y-56732D02*
X-111402Y-56732D01*
X-111402Y-57728D01*
X-117398Y-57728D01*
X-117398Y-56732D01*
X-117398Y-52732D02*
X-111402Y-52732D01*
X-111402Y-53728D01*
X-117398Y-53728D01*
X-117398Y-52732D01*
X-125398Y-45728D02*
X-125398Y-39732D01*
X-124402Y-39732D01*
X-124402Y-45728D01*
X-125398Y-45728D01*
X-125398Y-43808D02*
X-124402Y-43808D01*
X-124402Y-41888D02*
X-125398Y-41888D01*
X-125398Y-39968D02*
X-124402Y-39968D01*
X-129398Y-39732D02*
X-129398Y-45728D01*
X-129398Y-39732D02*
X-128402Y-39732D01*
X-128402Y-45728D01*
X-129398Y-45728D01*
X-129398Y-43808D02*
X-128402Y-43808D01*
X-128402Y-41888D02*
X-129398Y-41888D01*
X-129398Y-39968D02*
X-128402Y-39968D01*
X-133398Y-39732D02*
X-133398Y-45728D01*
X-133398Y-39732D02*
X-132402Y-39732D01*
X-132402Y-45728D01*
X-133398Y-45728D01*
X-133398Y-43808D02*
X-132402Y-43808D01*
X-132402Y-41888D02*
X-133398Y-41888D01*
X-133398Y-39968D02*
X-132402Y-39968D01*
X-140402Y-53728D02*
X-146398Y-53728D01*
X-146398Y-52732D01*
X-140402Y-52732D01*
X-140402Y-53728D01*
X-140402Y-57728D02*
X-146398Y-57728D01*
X-146398Y-56732D01*
X-140402Y-56732D01*
X-140402Y-57728D01*
X-140402Y-61728D02*
X-146398Y-61728D01*
X-146398Y-60732D01*
X-140402Y-60732D01*
X-140402Y-61728D01*
X-132402Y-68732D02*
X-132402Y-74728D01*
X-133398Y-74728D01*
X-133398Y-68732D01*
X-132402Y-68732D01*
X-132402Y-72808D02*
X-133398Y-72808D01*
X-133398Y-70888D02*
X-132402Y-70888D01*
X-132402Y-68968D02*
X-133398Y-68968D01*
X-128402Y-68732D02*
X-128402Y-74728D01*
X-129398Y-74728D01*
X-129398Y-68732D01*
X-128402Y-68732D01*
X-128402Y-72808D02*
X-129398Y-72808D01*
X-129398Y-70888D02*
X-128402Y-70888D01*
X-128402Y-68968D02*
X-129398Y-68968D01*
X-124402Y-68732D02*
X-124402Y-74728D01*
X-125398Y-74728D01*
X-125398Y-68732D01*
X-124402Y-68732D01*
X-124402Y-72808D02*
X-125398Y-72808D01*
X-125398Y-70888D02*
X-124402Y-70888D01*
X-124402Y-68968D02*
X-125398Y-68968D01*
D12*
X-124666Y-61464D02*
X-124666Y-52996D01*
X-124666Y-61464D02*
X-133134Y-61464D01*
X-133134Y-52996D01*
X-124666Y-52996D01*
D13*
X-170361Y-45079D02*
X-172889Y-45079D01*
X-172889Y-42551D01*
X-170361Y-42551D01*
X-170361Y-45079D01*
X-163639Y-45079D02*
X-161111Y-45079D01*
X-163639Y-45079D02*
X-163639Y-42551D01*
X-161111Y-42551D01*
X-161111Y-45079D01*
X-170361Y-53969D02*
X-172889Y-53969D01*
X-172889Y-51441D01*
X-170361Y-51441D01*
X-170361Y-53969D01*
X-163639Y-53969D02*
X-161111Y-53969D01*
X-163639Y-53969D02*
X-163639Y-51441D01*
X-161111Y-51441D01*
X-161111Y-53969D01*
X-118746Y6938D02*
X-118746Y9466D01*
X-118746Y6938D02*
X-121274Y6938D01*
X-121274Y9466D01*
X-118746Y9466D01*
X-118746Y16188D02*
X-118746Y18716D01*
X-118746Y16188D02*
X-121274Y16188D01*
X-121274Y18716D01*
X-118746Y18716D01*
X-141151Y-90164D02*
X-143679Y-90164D01*
X-143679Y-87636D01*
X-141151Y-87636D01*
X-141151Y-90164D01*
X-134429Y-90164D02*
X-131901Y-90164D01*
X-134429Y-90164D02*
X-134429Y-87636D01*
X-131901Y-87636D01*
X-131901Y-90164D01*
X-87439Y59049D02*
X-84911Y59049D01*
X-84911Y56521D01*
X-87439Y56521D01*
X-87439Y59049D01*
X-94161Y59049D02*
X-96689Y59049D01*
X-94161Y59049D02*
X-94161Y56521D01*
X-96689Y56521D01*
X-96689Y59049D01*
X-112384Y85911D02*
X-112384Y88439D01*
X-109856Y88439D01*
X-109856Y85911D01*
X-112384Y85911D01*
X-112384Y79189D02*
X-112384Y76661D01*
X-112384Y79189D02*
X-109856Y79189D01*
X-109856Y76661D01*
X-112384Y76661D01*
X-121274Y85911D02*
X-121274Y88439D01*
X-118746Y88439D01*
X-118746Y85911D01*
X-121274Y85911D01*
X-121274Y79189D02*
X-121274Y76661D01*
X-121274Y79189D02*
X-118746Y79189D01*
X-118746Y76661D01*
X-121274Y76661D01*
X-130164Y85911D02*
X-130164Y88439D01*
X-127636Y88439D01*
X-127636Y85911D01*
X-130164Y85911D01*
X-130164Y79189D02*
X-130164Y76661D01*
X-130164Y79189D02*
X-127636Y79189D01*
X-127636Y76661D01*
X-130164Y76661D01*
X-170361Y38741D02*
X-172889Y38741D01*
X-172889Y41269D01*
X-170361Y41269D01*
X-170361Y38741D01*
X-163639Y38741D02*
X-161111Y38741D01*
X-163639Y38741D02*
X-163639Y41269D01*
X-161111Y41269D01*
X-161111Y38741D01*
X-170361Y47631D02*
X-172889Y47631D01*
X-172889Y50159D01*
X-170361Y50159D01*
X-170361Y47631D01*
X-163639Y47631D02*
X-161111Y47631D01*
X-163639Y47631D02*
X-163639Y50159D01*
X-161111Y50159D01*
X-161111Y47631D01*
X-147944Y85911D02*
X-147944Y88439D01*
X-145416Y88439D01*
X-145416Y85911D01*
X-147944Y85911D01*
X-147944Y79189D02*
X-147944Y76661D01*
X-147944Y79189D02*
X-145416Y79189D01*
X-145416Y76661D01*
X-147944Y76661D01*
X-139054Y85911D02*
X-139054Y88439D01*
X-136526Y88439D01*
X-136526Y85911D01*
X-139054Y85911D01*
X-139054Y79189D02*
X-139054Y76661D01*
X-139054Y79189D02*
X-136526Y79189D01*
X-136526Y76661D01*
X-139054Y76661D01*
X-130164Y18716D02*
X-130164Y16188D01*
X-130164Y18716D02*
X-127636Y18716D01*
X-127636Y16188D01*
X-130164Y16188D01*
X-130164Y9466D02*
X-130164Y6938D01*
X-130164Y9466D02*
X-127636Y9466D01*
X-127636Y6938D01*
X-130164Y6938D01*
X-139054Y16188D02*
X-139054Y18716D01*
X-136526Y18716D01*
X-136526Y16188D01*
X-139054Y16188D01*
X-139054Y9466D02*
X-139054Y6938D01*
X-139054Y9466D02*
X-136526Y9466D01*
X-136526Y6938D01*
X-139054Y6938D01*
X-147944Y16188D02*
X-147944Y18716D01*
X-145416Y18716D01*
X-145416Y16188D01*
X-147944Y16188D01*
X-147944Y9466D02*
X-147944Y6938D01*
X-147944Y9466D02*
X-145416Y9466D01*
X-145416Y6938D01*
X-147944Y6938D01*
X-161111Y32379D02*
X-163639Y32379D01*
X-161111Y32379D02*
X-161111Y29851D01*
X-163639Y29851D01*
X-163639Y32379D01*
X-170361Y32379D02*
X-172889Y32379D01*
X-170361Y32379D02*
X-170361Y29851D01*
X-172889Y29851D01*
X-172889Y32379D01*
X-109856Y9466D02*
X-109856Y6938D01*
X-112384Y6938D01*
X-112384Y9466D01*
X-109856Y9466D01*
X-109856Y16188D02*
X-109856Y18716D01*
X-109856Y16188D02*
X-112384Y16188D01*
X-112384Y18716D01*
X-109856Y18716D01*
X-87439Y32379D02*
X-84911Y32379D01*
X-84911Y29851D01*
X-87439Y29851D01*
X-87439Y32379D01*
X-94161Y32379D02*
X-96689Y32379D01*
X-94161Y32379D02*
X-94161Y29851D01*
X-96689Y29851D01*
X-96689Y32379D01*
X-114121Y-87636D02*
X-116649Y-87636D01*
X-114121Y-87636D02*
X-114121Y-90164D01*
X-116649Y-90164D01*
X-116649Y-87636D01*
X-123371Y-87636D02*
X-125899Y-87636D01*
X-123371Y-87636D02*
X-123371Y-90164D01*
X-125899Y-90164D01*
X-125899Y-87636D01*
X-87439Y-69221D02*
X-84911Y-69221D01*
X-84911Y-71749D01*
X-87439Y-71749D01*
X-87439Y-69221D01*
X-94161Y-69221D02*
X-96689Y-69221D01*
X-94161Y-69221D02*
X-94161Y-71749D01*
X-96689Y-71749D01*
X-96689Y-69221D01*
X-87439Y41269D02*
X-84911Y41269D01*
X-84911Y38741D01*
X-87439Y38741D01*
X-87439Y41269D01*
X-94161Y41269D02*
X-96689Y41269D01*
X-94161Y41269D02*
X-94161Y38741D01*
X-96689Y38741D01*
X-96689Y41269D01*
X-87439Y50159D02*
X-84911Y50159D01*
X-84911Y47631D01*
X-87439Y47631D01*
X-87439Y50159D01*
X-94161Y50159D02*
X-96689Y50159D01*
X-94161Y50159D02*
X-94161Y47631D01*
X-96689Y47631D01*
X-96689Y50159D01*
X-87439Y-60331D02*
X-84911Y-60331D01*
X-84911Y-62859D01*
X-87439Y-62859D01*
X-87439Y-60331D01*
X-94161Y-60331D02*
X-96689Y-60331D01*
X-94161Y-60331D02*
X-94161Y-62859D01*
X-96689Y-62859D01*
X-96689Y-60331D01*
X-87439Y-51441D02*
X-84911Y-51441D01*
X-84911Y-53969D01*
X-87439Y-53969D01*
X-87439Y-51441D01*
X-94161Y-51441D02*
X-96689Y-51441D01*
X-94161Y-51441D02*
X-94161Y-53969D01*
X-96689Y-53969D01*
X-96689Y-51441D01*
X-87439Y-42551D02*
X-84911Y-42551D01*
X-84911Y-45079D01*
X-87439Y-45079D01*
X-87439Y-42551D01*
X-94161Y-42551D02*
X-96689Y-42551D01*
X-94161Y-42551D02*
X-94161Y-45079D01*
X-96689Y-45079D01*
X-96689Y-42551D01*
X-112384Y-21785D02*
X-112384Y-19257D01*
X-109856Y-19257D01*
X-109856Y-21785D01*
X-112384Y-21785D01*
X-112384Y-28507D02*
X-112384Y-31035D01*
X-112384Y-28507D02*
X-109856Y-28507D01*
X-109856Y-31035D01*
X-112384Y-31035D01*
X-121274Y-21785D02*
X-121274Y-19257D01*
X-118746Y-19257D01*
X-118746Y-21785D01*
X-121274Y-21785D01*
X-121274Y-28507D02*
X-121274Y-31035D01*
X-121274Y-28507D02*
X-118746Y-28507D01*
X-118746Y-31035D01*
X-121274Y-31035D01*
X-130164Y-21785D02*
X-130164Y-19257D01*
X-127636Y-19257D01*
X-127636Y-21785D01*
X-130164Y-21785D01*
X-130164Y-28507D02*
X-130164Y-31035D01*
X-130164Y-28507D02*
X-127636Y-28507D01*
X-127636Y-31035D01*
X-130164Y-31035D01*
X-170361Y-71749D02*
X-172889Y-71749D01*
X-172889Y-69221D01*
X-170361Y-69221D01*
X-170361Y-71749D01*
X-163639Y-71749D02*
X-161111Y-71749D01*
X-163639Y-71749D02*
X-163639Y-69221D01*
X-161111Y-69221D01*
X-161111Y-71749D01*
X-170361Y-62859D02*
X-172889Y-62859D01*
X-172889Y-60331D01*
X-170361Y-60331D01*
X-170361Y-62859D01*
X-163639Y-62859D02*
X-161111Y-62859D01*
X-163639Y-62859D02*
X-163639Y-60331D01*
X-161111Y-60331D01*
X-161111Y-62859D01*
X-147944Y-21785D02*
X-147944Y-19257D01*
X-145416Y-19257D01*
X-145416Y-21785D01*
X-147944Y-21785D01*
X-147944Y-28507D02*
X-147944Y-31035D01*
X-147944Y-28507D02*
X-145416Y-28507D01*
X-145416Y-31035D01*
X-147944Y-31035D01*
X-139054Y-21785D02*
X-139054Y-19257D01*
X-136526Y-19257D01*
X-136526Y-21785D01*
X-139054Y-21785D01*
X-139054Y-28507D02*
X-139054Y-31035D01*
X-139054Y-28507D02*
X-136526Y-28507D01*
X-136526Y-31035D01*
X-139054Y-31035D01*
D14*
X-640000Y90000D03*
X-610000Y90000D03*
D15*
X-750900Y-134700D03*
D16*
X-750900Y-109300D03*
X-725500Y-134700D03*
X-725500Y-109300D03*
X-700100Y-134700D03*
X-700100Y-109300D03*
X-674700Y-134700D03*
X-674700Y-109300D03*
X-649300Y-134700D03*
X-649300Y-109300D03*
X-623900Y-134700D03*
X-623900Y-109300D03*
X-598500Y-134700D03*
X-598500Y-109300D03*
X-573100Y-134700D03*
X-573100Y-109300D03*
X-547700Y-134700D03*
X-547700Y-109300D03*
X-522300Y-134700D03*
X-522300Y-109300D03*
X-496900Y-134700D03*
X-496900Y-109300D03*
X-471500Y-134700D03*
X-471500Y-109300D03*
X-446100Y-134700D03*
X-446100Y-109300D03*
X-420700Y-134700D03*
X-420700Y-109300D03*
X-395300Y-134700D03*
X-395300Y-109300D03*
X-369900Y-134700D03*
X-369900Y-109300D03*
X-344500Y-134700D03*
X-344500Y-109300D03*
X-319100Y-134700D03*
X-319100Y-109300D03*
D15*
X-750900Y119300D03*
D16*
X-750900Y144700D03*
X-725500Y119300D03*
X-725500Y144700D03*
X-700100Y119300D03*
X-700100Y144700D03*
X-674700Y119300D03*
X-674700Y144700D03*
X-649300Y119300D03*
X-649300Y144700D03*
X-623900Y119300D03*
X-623900Y144700D03*
X-598500Y119300D03*
X-598500Y144700D03*
X-573100Y119300D03*
X-573100Y144700D03*
X-547700Y119300D03*
X-547700Y144700D03*
X-522300Y119300D03*
X-522300Y144700D03*
X-496900Y119300D03*
X-496900Y144700D03*
X-471500Y119300D03*
X-471500Y144700D03*
X-446100Y119300D03*
X-446100Y144700D03*
X-420700Y119300D03*
X-420700Y144700D03*
X-395300Y119300D03*
X-395300Y144700D03*
X-369900Y119300D03*
X-369900Y144700D03*
X-344500Y119300D03*
X-344500Y144700D03*
X-319100Y119300D03*
X-319100Y144700D03*
D17*
X-765000Y62500D03*
X-715000Y62500D03*
X-715000Y-62500D03*
X-765000Y-62500D03*
D18*
X-360000Y32500D03*
X-360000Y-32500D03*
D19*
X-557500Y50000D03*
X-542500Y50000D03*
X-557500Y-50000D03*
X-542500Y-50000D03*
D13*
X-743361Y88736D02*
X-745889Y88736D01*
X-745889Y91264D01*
X-743361Y91264D01*
X-743361Y88736D01*
X-736639Y88736D02*
X-734111Y88736D01*
X-736639Y88736D02*
X-736639Y91264D01*
X-734111Y91264D01*
X-734111Y88736D01*
M02*
